<?xml version="1.0" encoding="utf-8"?>
<!-- Generator: Adobe Illustrator 27.1.1, SVG Export Plug-In . SVG Version: 6.00 Build 0)  -->
<svg version="1.1" xmlns="http://www.w3.org/2000/svg" xmlns:xlink="http://www.w3.org/1999/xlink" x="0px" y="0px"
	 viewBox="0 0 930 955.3" style="enable-background:new 0 0 930 955.3;" xml:space="preserve">
<style type="text/css">
	.st0{fill:#00B7F2;}
	.st1{opacity:0.6;}
	.st2{fill:#FFFFFF;}
	.st3{fill:#F56885;}
	.st4{fill:#68D093;}
	.st5{fill:#215ED5;}
	.st6{fill:#E8370A;}
	.st7{opacity:0.4;}
	.st8{fill:#FBC3CE;}
	.st9{fill:none;stroke:#000000;stroke-width:10;stroke-linecap:round;stroke-miterlimit:10;}
	.st10{fill:#FFDA96;}
	.st11{fill:#FFDA5D;}
	.st12{fill:#FFB82E;}
	.st13{fill:#D6BDA7;}
	.st14{fill:#231815;}
	.st15{clip-path:url(#SVGID_00000071526395362849408240000010316760754232692409_);fill:#FFFFFF;}
	.st16{clip-path:url(#SVGID_00000071526395362849408240000010316760754232692409_);fill:#FFFFFE;}
	.st17{clip-path:url(#SVGID_00000071526395362849408240000010316760754232692409_);fill:#FFFFFD;}
	.st18{clip-path:url(#SVGID_00000071526395362849408240000010316760754232692409_);fill:#FFFEFC;}
	.st19{clip-path:url(#SVGID_00000071526395362849408240000010316760754232692409_);fill:#FFFEFB;}
	.st20{clip-path:url(#SVGID_00000071526395362849408240000010316760754232692409_);fill:#FFFEFA;}
	.st21{clip-path:url(#SVGID_00000071526395362849408240000010316760754232692409_);fill:#FFFEF9;}
	.st22{clip-path:url(#SVGID_00000071526395362849408240000010316760754232692409_);fill:#FFFDF8;}
	.st23{clip-path:url(#SVGID_00000071526395362849408240000010316760754232692409_);fill:#FFFDF7;}
	.st24{clip-path:url(#SVGID_00000071526395362849408240000010316760754232692409_);fill:#FFFDF6;}
	.st25{clip-path:url(#SVGID_00000071526395362849408240000010316760754232692409_);fill:#FFFDF5;}
	.st26{clip-path:url(#SVGID_00000071526395362849408240000010316760754232692409_);fill:#FFFDF4;}
	.st27{clip-path:url(#SVGID_00000071526395362849408240000010316760754232692409_);fill:#FFFCF3;}
	.st28{clip-path:url(#SVGID_00000071526395362849408240000010316760754232692409_);fill:#FFFCF2;}
	.st29{clip-path:url(#SVGID_00000071526395362849408240000010316760754232692409_);fill:#FFFCF1;}
	.st30{clip-path:url(#SVGID_00000071526395362849408240000010316760754232692409_);fill:#FFFCF0;}
	.st31{clip-path:url(#SVGID_00000071526395362849408240000010316760754232692409_);fill:#FFFBEF;}
	.st32{clip-path:url(#SVGID_00000071526395362849408240000010316760754232692409_);fill:#FFFBEE;}
	.st33{clip-path:url(#SVGID_00000071526395362849408240000010316760754232692409_);fill:#FFFBED;}
	.st34{clip-path:url(#SVGID_00000071526395362849408240000010316760754232692409_);fill:#FFFBEC;}
	.st35{clip-path:url(#SVGID_00000071526395362849408240000010316760754232692409_);fill:#FFFBEB;}
	.st36{clip-path:url(#SVGID_00000071526395362849408240000010316760754232692409_);fill:#FFFAEA;}
	.st37{clip-path:url(#SVGID_00000071526395362849408240000010316760754232692409_);fill:#FFFAE9;}
	.st38{clip-path:url(#SVGID_00000071526395362849408240000010316760754232692409_);fill:#FFFAE8;}
	.st39{clip-path:url(#SVGID_00000071526395362849408240000010316760754232692409_);fill:#FFFAE7;}
	.st40{clip-path:url(#SVGID_00000071526395362849408240000010316760754232692409_);fill:#FFF9E6;}
	.st41{clip-path:url(#SVGID_00000071526395362849408240000010316760754232692409_);fill:#FFF9E5;}
	.st42{clip-path:url(#SVGID_00000071526395362849408240000010316760754232692409_);fill:#FFF9E4;}
	.st43{clip-path:url(#SVGID_00000071526395362849408240000010316760754232692409_);fill:#FFF9E3;}
	.st44{clip-path:url(#SVGID_00000071526395362849408240000010316760754232692409_);fill:#FFF9E2;}
	.st45{clip-path:url(#SVGID_00000071526395362849408240000010316760754232692409_);fill:#FFF8E1;}
	.st46{clip-path:url(#SVGID_00000071526395362849408240000010316760754232692409_);fill:#FFF8E0;}
	.st47{clip-path:url(#SVGID_00000071526395362849408240000010316760754232692409_);fill:#FFF8DF;}
	.st48{clip-path:url(#SVGID_00000071526395362849408240000010316760754232692409_);fill:#FFF8DE;}
	.st49{clip-path:url(#SVGID_00000071526395362849408240000010316760754232692409_);fill:#FFF7DD;}
	.st50{clip-path:url(#SVGID_00000071526395362849408240000010316760754232692409_);fill:#FFF7DC;}
	.st51{clip-path:url(#SVGID_00000071526395362849408240000010316760754232692409_);fill:#FFF7DB;}
	.st52{clip-path:url(#SVGID_00000071526395362849408240000010316760754232692409_);fill:#FFF7DA;}
	.st53{clip-path:url(#SVGID_00000071526395362849408240000010316760754232692409_);fill:#FFF7D9;}
	.st54{clip-path:url(#SVGID_00000071526395362849408240000010316760754232692409_);fill:#FFF6D8;}
	.st55{clip-path:url(#SVGID_00000071526395362849408240000010316760754232692409_);fill:#FFF6D7;}
	.st56{clip-path:url(#SVGID_00000071526395362849408240000010316760754232692409_);fill:#FFF6D6;}
	.st57{clip-path:url(#SVGID_00000071526395362849408240000010316760754232692409_);fill:#FFF6D5;}
	.st58{clip-path:url(#SVGID_00000071526395362849408240000010316760754232692409_);fill:#FFF5D4;}
	.st59{clip-path:url(#SVGID_00000071526395362849408240000010316760754232692409_);fill:#FFF5D3;}
	.st60{clip-path:url(#SVGID_00000071526395362849408240000010316760754232692409_);fill:#FFF5D2;}
	.st61{clip-path:url(#SVGID_00000071526395362849408240000010316760754232692409_);fill:#FFF5D1;}
	.st62{clip-path:url(#SVGID_00000071526395362849408240000010316760754232692409_);fill:#FFF5D0;}
	.st63{clip-path:url(#SVGID_00000071526395362849408240000010316760754232692409_);fill:#FFF4CF;}
	.st64{clip-path:url(#SVGID_00000071526395362849408240000010316760754232692409_);fill:#FFF4CE;}
	.st65{clip-path:url(#SVGID_00000071526395362849408240000010316760754232692409_);fill:#FFF4CD;}
	.st66{clip-path:url(#SVGID_00000071526395362849408240000010316760754232692409_);fill:#FFF4CC;}
	.st67{clip-path:url(#SVGID_00000071526395362849408240000010316760754232692409_);fill:#FFF3CB;}
	.st68{clip-path:url(#SVGID_00000071526395362849408240000010316760754232692409_);fill:#FFF3CA;}
	.st69{clip-path:url(#SVGID_00000071526395362849408240000010316760754232692409_);fill:#FFF3C9;}
	.st70{clip-path:url(#SVGID_00000071526395362849408240000010316760754232692409_);fill:#FFF3C8;}
	.st71{clip-path:url(#SVGID_00000071526395362849408240000010316760754232692409_);fill:#FFF3C7;}
	.st72{clip-path:url(#SVGID_00000071526395362849408240000010316760754232692409_);fill:#FFF2C6;}
	.st73{clip-path:url(#SVGID_00000071526395362849408240000010316760754232692409_);fill:#FFF2C5;}
	.st74{clip-path:url(#SVGID_00000071526395362849408240000010316760754232692409_);fill:#FFF2C4;}
	.st75{clip-path:url(#SVGID_00000071526395362849408240000010316760754232692409_);fill:#FFF2C3;}
	.st76{clip-path:url(#SVGID_00000071526395362849408240000010316760754232692409_);fill:#FFF1C2;}
	.st77{clip-path:url(#SVGID_00000071526395362849408240000010316760754232692409_);fill:#FFF1C1;}
	.st78{clip-path:url(#SVGID_00000071526395362849408240000010316760754232692409_);fill:#FFF1C0;}
	.st79{clip-path:url(#SVGID_00000071526395362849408240000010316760754232692409_);fill:#FFF1BF;}
	.st80{clip-path:url(#SVGID_00000071526395362849408240000010316760754232692409_);fill:#FFF1BE;}
	.st81{clip-path:url(#SVGID_00000071526395362849408240000010316760754232692409_);fill:#FFF0BD;}
	.st82{clip-path:url(#SVGID_00000071526395362849408240000010316760754232692409_);fill:#FFF0BC;}
	.st83{clip-path:url(#SVGID_00000071526395362849408240000010316760754232692409_);fill:#FFF0BB;}
	.st84{clip-path:url(#SVGID_00000071526395362849408240000010316760754232692409_);fill:#FFF0BA;}
	.st85{clip-path:url(#SVGID_00000071526395362849408240000010316760754232692409_);fill:#FFEFB9;}
	.st86{clip-path:url(#SVGID_00000071526395362849408240000010316760754232692409_);fill:#FFEFB8;}
	.st87{clip-path:url(#SVGID_00000071526395362849408240000010316760754232692409_);fill:#FFEFB7;}
	.st88{clip-path:url(#SVGID_00000071526395362849408240000010316760754232692409_);fill:#FFEFB6;}
	.st89{clip-path:url(#SVGID_00000071526395362849408240000010316760754232692409_);fill:#FFEFB5;}
	.st90{clip-path:url(#SVGID_00000071526395362849408240000010316760754232692409_);fill:#FFEEB4;}
	.st91{clip-path:url(#SVGID_00000071526395362849408240000010316760754232692409_);fill:#FFEEB3;}
	.st92{clip-path:url(#SVGID_00000071526395362849408240000010316760754232692409_);fill:#FFEEB2;}
	.st93{clip-path:url(#SVGID_00000071526395362849408240000010316760754232692409_);fill:#FFEEB1;}
	.st94{clip-path:url(#SVGID_00000071526395362849408240000010316760754232692409_);fill:#FFEDB0;}
	.st95{clip-path:url(#SVGID_00000071526395362849408240000010316760754232692409_);fill:#FFEDAF;}
	.st96{clip-path:url(#SVGID_00000071526395362849408240000010316760754232692409_);fill:#FFEDAE;}
	.st97{clip-path:url(#SVGID_00000071526395362849408240000010316760754232692409_);fill:#FFEDAD;}
	.st98{clip-path:url(#SVGID_00000071526395362849408240000010316760754232692409_);fill:#FFEDAC;}
	.st99{clip-path:url(#SVGID_00000071526395362849408240000010316760754232692409_);fill:#FFECAB;}
	.st100{clip-path:url(#SVGID_00000071526395362849408240000010316760754232692409_);fill:#FFECAA;}
	.st101{clip-path:url(#SVGID_00000071526395362849408240000010316760754232692409_);fill:#FFECA9;}
	.st102{clip-path:url(#SVGID_00000071526395362849408240000010316760754232692409_);fill:#FFECA8;}
	.st103{clip-path:url(#SVGID_00000071526395362849408240000010316760754232692409_);fill:#FFEBA7;}
	.st104{clip-path:url(#SVGID_00000071526395362849408240000010316760754232692409_);fill:#FFEBA6;}
	.st105{clip-path:url(#SVGID_00000071526395362849408240000010316760754232692409_);fill:#FFEBA5;}
	.st106{clip-path:url(#SVGID_00000071526395362849408240000010316760754232692409_);fill:#FFEBA4;}
	.st107{clip-path:url(#SVGID_00000071526395362849408240000010316760754232692409_);fill:#FFEBA3;}
	.st108{clip-path:url(#SVGID_00000071526395362849408240000010316760754232692409_);fill:#FFEAA2;}
	.st109{clip-path:url(#SVGID_00000071526395362849408240000010316760754232692409_);fill:#FFEAA1;}
	.st110{clip-path:url(#SVGID_00000071526395362849408240000010316760754232692409_);fill:#FFEAA0;}
	.st111{clip-path:url(#SVGID_00000071526395362849408240000010316760754232692409_);fill:#FFEA9F;}
	.st112{clip-path:url(#SVGID_00000071526395362849408240000010316760754232692409_);fill:#FFE99E;}
	.st113{clip-path:url(#SVGID_00000071526395362849408240000010316760754232692409_);fill:#FFE99D;}
	.st114{clip-path:url(#SVGID_00000071526395362849408240000010316760754232692409_);fill:#FFE99C;}
	.st115{clip-path:url(#SVGID_00000071526395362849408240000010316760754232692409_);fill:#FFE99B;}
	.st116{clip-path:url(#SVGID_00000071526395362849408240000010316760754232692409_);fill:#FFE99A;}
	.st117{clip-path:url(#SVGID_00000071526395362849408240000010316760754232692409_);fill:#FFE899;}
	.st118{clip-path:url(#SVGID_00000071526395362849408240000010316760754232692409_);fill:#FFE898;}
	.st119{clip-path:url(#SVGID_00000071526395362849408240000010316760754232692409_);fill:#FFE897;}
	.st120{clip-path:url(#SVGID_00000071526395362849408240000010316760754232692409_);fill:#FFE896;}
	.st121{clip-path:url(#SVGID_00000071526395362849408240000010316760754232692409_);fill:#FFE795;}
	.st122{clip-path:url(#SVGID_00000071526395362849408240000010316760754232692409_);fill:#FFE794;}
	.st123{clip-path:url(#SVGID_00000071526395362849408240000010316760754232692409_);fill:#FFE793;}
	.st124{clip-path:url(#SVGID_00000071526395362849408240000010316760754232692409_);fill:#FFE792;}
	.st125{clip-path:url(#SVGID_00000071526395362849408240000010316760754232692409_);fill:#FFE791;}
	.st126{clip-path:url(#SVGID_00000071526395362849408240000010316760754232692409_);fill:#FFE690;}
	.st127{clip-path:url(#SVGID_00000071526395362849408240000010316760754232692409_);fill:#FFE68F;}
	.st128{clip-path:url(#SVGID_00000071526395362849408240000010316760754232692409_);fill:#FFE68E;}
	.st129{clip-path:url(#SVGID_00000071526395362849408240000010316760754232692409_);fill:#FFE68D;}
	.st130{clip-path:url(#SVGID_00000071526395362849408240000010316760754232692409_);fill:#FFE68C;}
	.st131{clip-path:url(#SVGID_00000071526395362849408240000010316760754232692409_);fill:#FFE58A;}
	.st132{clip-path:url(#SVGID_00000071526395362849408240000010316760754232692409_);fill:#FFE589;}
	.st133{clip-path:url(#SVGID_00000071526395362849408240000010316760754232692409_);fill:#FFE588;}
	.st134{clip-path:url(#SVGID_00000071526395362849408240000010316760754232692409_);fill:#FFE587;}
	.st135{clip-path:url(#SVGID_00000071526395362849408240000010316760754232692409_);fill:#FFE486;}
	.st136{clip-path:url(#SVGID_00000071526395362849408240000010316760754232692409_);fill:#FFE485;}
	.st137{clip-path:url(#SVGID_00000071526395362849408240000010316760754232692409_);fill:#FFE484;}
	.st138{clip-path:url(#SVGID_00000071526395362849408240000010316760754232692409_);fill:#FFE483;}
	.st139{clip-path:url(#SVGID_00000071526395362849408240000010316760754232692409_);fill:#FFE482;}
	.st140{clip-path:url(#SVGID_00000071526395362849408240000010316760754232692409_);fill:#FFE381;}
	.st141{clip-path:url(#SVGID_00000071526395362849408240000010316760754232692409_);fill:#FFE380;}
	.st142{clip-path:url(#SVGID_00000071526395362849408240000010316760754232692409_);fill:#FFE37F;}
	.st143{clip-path:url(#SVGID_00000071526395362849408240000010316760754232692409_);fill:#FFE37E;}
	.st144{clip-path:url(#SVGID_00000071526395362849408240000010316760754232692409_);fill:#FFE27D;}
	.st145{clip-path:url(#SVGID_00000071526395362849408240000010316760754232692409_);fill:#FFE27C;}
	.st146{clip-path:url(#SVGID_00000071526395362849408240000010316760754232692409_);fill:#FFE27B;}
	.st147{clip-path:url(#SVGID_00000071526395362849408240000010316760754232692409_);fill:#FFE27A;}
	.st148{clip-path:url(#SVGID_00000071526395362849408240000010316760754232692409_);fill:#FFE279;}
	.st149{clip-path:url(#SVGID_00000071526395362849408240000010316760754232692409_);fill:#FFE178;}
	.st150{clip-path:url(#SVGID_00000071526395362849408240000010316760754232692409_);fill:#FFE177;}
	.st151{clip-path:url(#SVGID_00000071526395362849408240000010316760754232692409_);fill:#FFE176;}
	.st152{clip-path:url(#SVGID_00000071526395362849408240000010316760754232692409_);fill:#FFE175;}
	.st153{clip-path:url(#SVGID_00000071526395362849408240000010316760754232692409_);fill:#FFE074;}
	.st154{clip-path:url(#SVGID_00000071526395362849408240000010316760754232692409_);fill:#FFE073;}
	.st155{clip-path:url(#SVGID_00000071526395362849408240000010316760754232692409_);fill:#FFE072;}
	.st156{clip-path:url(#SVGID_00000071526395362849408240000010316760754232692409_);fill:#FFE071;}
	.st157{clip-path:url(#SVGID_00000071526395362849408240000010316760754232692409_);fill:#FFE070;}
	.st158{clip-path:url(#SVGID_00000071526395362849408240000010316760754232692409_);fill:#FFDF6F;}
	.st159{clip-path:url(#SVGID_00000071526395362849408240000010316760754232692409_);fill:#FFDF6E;}
	.st160{clip-path:url(#SVGID_00000071526395362849408240000010316760754232692409_);fill:#FFDF6D;}
	.st161{clip-path:url(#SVGID_00000071526395362849408240000010316760754232692409_);fill:#FFDF6C;}
	.st162{clip-path:url(#SVGID_00000071526395362849408240000010316760754232692409_);fill:#FFDE6B;}
	.st163{clip-path:url(#SVGID_00000071526395362849408240000010316760754232692409_);fill:#FFDE6A;}
	.st164{clip-path:url(#SVGID_00000071526395362849408240000010316760754232692409_);fill:#FFDE69;}
	.st165{clip-path:url(#SVGID_00000071526395362849408240000010316760754232692409_);fill:#FFDE68;}
	.st166{clip-path:url(#SVGID_00000071526395362849408240000010316760754232692409_);fill:#FFDE67;}
	.st167{clip-path:url(#SVGID_00000071526395362849408240000010316760754232692409_);fill:#FFDD66;}
	.st168{clip-path:url(#SVGID_00000071526395362849408240000010316760754232692409_);fill:#FFDD65;}
	.st169{clip-path:url(#SVGID_00000071526395362849408240000010316760754232692409_);fill:#FFDD64;}
	.st170{clip-path:url(#SVGID_00000071526395362849408240000010316760754232692409_);fill:#FFDD63;}
	.st171{clip-path:url(#SVGID_00000071526395362849408240000010316760754232692409_);fill:#FFDC62;}
	.st172{clip-path:url(#SVGID_00000071526395362849408240000010316760754232692409_);fill:#FFDC61;}
	.st173{clip-path:url(#SVGID_00000071526395362849408240000010316760754232692409_);fill:#FFDC60;}
	.st174{clip-path:url(#SVGID_00000071526395362849408240000010316760754232692409_);fill:#FFDC5F;}
	.st175{clip-path:url(#SVGID_00000071526395362849408240000010316760754232692409_);fill:#FFDC5E;}
	.st176{clip-path:url(#SVGID_00000071526395362849408240000010316760754232692409_);fill:#FFDB5D;}
	.st177{clip-path:url(#SVGID_00000071526395362849408240000010316760754232692409_);fill:#FFDB5C;}
	.st178{clip-path:url(#SVGID_00000071526395362849408240000010316760754232692409_);fill:#FFDB5B;}
	.st179{clip-path:url(#SVGID_00000071526395362849408240000010316760754232692409_);fill:#FFDB5A;}
	.st180{clip-path:url(#SVGID_00000071526395362849408240000010316760754232692409_);fill:#FFDA59;}
	.st181{clip-path:url(#SVGID_00000071526395362849408240000010316760754232692409_);fill:#FFDA58;}
	.st182{clip-path:url(#SVGID_00000071526395362849408240000010316760754232692409_);fill:#FFDA57;}
	.st183{clip-path:url(#SVGID_00000071526395362849408240000010316760754232692409_);fill:#FFDA56;}
	.st184{clip-path:url(#SVGID_00000071526395362849408240000010316760754232692409_);fill:#FFDA55;}
	.st185{clip-path:url(#SVGID_00000071526395362849408240000010316760754232692409_);fill:#FFD954;}
	.st186{clip-path:url(#SVGID_00000071526395362849408240000010316760754232692409_);fill:#FFD953;}
	.st187{clip-path:url(#SVGID_00000071526395362849408240000010316760754232692409_);fill:#FFD952;}
	.st188{clip-path:url(#SVGID_00000071526395362849408240000010316760754232692409_);fill:#FFD951;}
	.st189{clip-path:url(#SVGID_00000071526395362849408240000010316760754232692409_);fill:#FFD850;}
	.st190{clip-path:url(#SVGID_00000071526395362849408240000010316760754232692409_);fill:#FFD84F;}
	.st191{clip-path:url(#SVGID_00000071526395362849408240000010316760754232692409_);fill:#FFD84E;}
	.st192{clip-path:url(#SVGID_00000071526395362849408240000010316760754232692409_);fill:#FFD84D;}
	.st193{clip-path:url(#SVGID_00000071526395362849408240000010316760754232692409_);fill:#FFD84C;}
	.st194{clip-path:url(#SVGID_00000071526395362849408240000010316760754232692409_);fill:#FFD74B;}
	.st195{clip-path:url(#SVGID_00000071526395362849408240000010316760754232692409_);fill:#FFD74A;}
	.st196{clip-path:url(#SVGID_00000071526395362849408240000010316760754232692409_);fill:#FFD749;}
	.st197{clip-path:url(#SVGID_00000071526395362849408240000010316760754232692409_);fill:#FFD748;}
	.st198{clip-path:url(#SVGID_00000071526395362849408240000010316760754232692409_);fill:#FFD647;}
	.st199{clip-path:url(#SVGID_00000071526395362849408240000010316760754232692409_);fill:#FFD646;}
	.st200{clip-path:url(#SVGID_00000071526395362849408240000010316760754232692409_);fill:#FFD645;}
	.st201{clip-path:url(#SVGID_00000071526395362849408240000010316760754232692409_);fill:#FFD644;}
	.st202{clip-path:url(#SVGID_00000071526395362849408240000010316760754232692409_);fill:#FFD643;}
	.st203{clip-path:url(#SVGID_00000071526395362849408240000010316760754232692409_);fill:#FFD542;}
	.st204{clip-path:url(#SVGID_00000071526395362849408240000010316760754232692409_);fill:#FFD541;}
	.st205{clip-path:url(#SVGID_00000071526395362849408240000010316760754232692409_);fill:#FFD540;}
	.st206{clip-path:url(#SVGID_00000071526395362849408240000010316760754232692409_);fill:#FFD53F;}
	.st207{clip-path:url(#SVGID_00000071526395362849408240000010316760754232692409_);fill:#FFD43E;}
	.st208{clip-path:url(#SVGID_00000071526395362849408240000010316760754232692409_);fill:#FFD43D;}
	.st209{clip-path:url(#SVGID_00000071526395362849408240000010316760754232692409_);fill:#FFD43C;}
	.st210{clip-path:url(#SVGID_00000071526395362849408240000010316760754232692409_);fill:#FFD43B;}
	.st211{clip-path:url(#SVGID_00000071526395362849408240000010316760754232692409_);fill:#FFD43A;}
	.st212{clip-path:url(#SVGID_00000071526395362849408240000010316760754232692409_);fill:#FFD339;}
	.st213{clip-path:url(#SVGID_00000071526395362849408240000010316760754232692409_);fill:#FFD338;}
	.st214{clip-path:url(#SVGID_00000071526395362849408240000010316760754232692409_);fill:#FFD337;}
	.st215{clip-path:url(#SVGID_00000071526395362849408240000010316760754232692409_);fill:#FFD336;}
	.st216{clip-path:url(#SVGID_00000071526395362849408240000010316760754232692409_);fill:#FFD235;}
	.st217{clip-path:url(#SVGID_00000071526395362849408240000010316760754232692409_);fill:#FFD234;}
	.st218{clip-path:url(#SVGID_00000071526395362849408240000010316760754232692409_);fill:#FFD233;}
	.st219{clip-path:url(#SVGID_00000071526395362849408240000010316760754232692409_);fill:#FFD232;}
	.st220{clip-path:url(#SVGID_00000071526395362849408240000010316760754232692409_);fill:#FFD231;}
	.st221{clip-path:url(#SVGID_00000071526395362849408240000010316760754232692409_);fill:#FFD130;}
	.st222{clip-path:url(#SVGID_00000071526395362849408240000010316760754232692409_);fill:#FFD12F;}
	.st223{clip-path:url(#SVGID_00000071526395362849408240000010316760754232692409_);fill:#FFD12E;}
	.st224{clip-path:url(#SVGID_00000071526395362849408240000010316760754232692409_);fill:#FFD12D;}
	.st225{clip-path:url(#SVGID_00000071526395362849408240000010316760754232692409_);fill:#FFD02C;}
	.st226{clip-path:url(#SVGID_00000071526395362849408240000010316760754232692409_);fill:#FFD02B;}
	.st227{clip-path:url(#SVGID_00000071526395362849408240000010316760754232692409_);fill:#FFD02A;}
	.st228{clip-path:url(#SVGID_00000071526395362849408240000010316760754232692409_);fill:#FFD029;}
	.st229{clip-path:url(#SVGID_00000071526395362849408240000010316760754232692409_);fill:#FFD028;}
	.st230{clip-path:url(#SVGID_00000071526395362849408240000010316760754232692409_);fill:#FFCF27;}
	.st231{clip-path:url(#SVGID_00000071526395362849408240000010316760754232692409_);fill:#FFCF26;}
	.st232{clip-path:url(#SVGID_00000071526395362849408240000010316760754232692409_);fill:#FFCF25;}
	.st233{clip-path:url(#SVGID_00000071526395362849408240000010316760754232692409_);fill:#FFCF24;}
	.st234{clip-path:url(#SVGID_00000071526395362849408240000010316760754232692409_);fill:#FFCE23;}
	.st235{clip-path:url(#SVGID_00000071526395362849408240000010316760754232692409_);fill:#FFCE22;}
	.st236{clip-path:url(#SVGID_00000071526395362849408240000010316760754232692409_);fill:#FFCE21;}
	.st237{clip-path:url(#SVGID_00000071526395362849408240000010316760754232692409_);fill:#FFCE20;}
	.st238{clip-path:url(#SVGID_00000071526395362849408240000010316760754232692409_);fill:#FFCE1F;}
	.st239{clip-path:url(#SVGID_00000071526395362849408240000010316760754232692409_);fill:#FFCD1E;}
	.st240{clip-path:url(#SVGID_00000071526395362849408240000010316760754232692409_);fill:#FFCD1D;}
	.st241{clip-path:url(#SVGID_00000071526395362849408240000010316760754232692409_);fill:#FFCD1C;}
	.st242{clip-path:url(#SVGID_00000071526395362849408240000010316760754232692409_);fill:#FFCD1B;}
	.st243{clip-path:url(#SVGID_00000071526395362849408240000010316760754232692409_);fill:#FFCC1A;}
	.st244{clip-path:url(#SVGID_00000071526395362849408240000010316760754232692409_);fill:#FFCC19;}
	.st245{clip-path:url(#SVGID_00000071526395362849408240000010316760754232692409_);fill:#FFCC18;}
	.st246{fill:#584B42;}
	.st247{fill:#DEC3A6;}
	.st248{fill:#FFEAB9;}
	.st249{fill:#BEF9FF;}
	.st250{fill:#FFCC18;}
	.st251{fill:#B973FA;}
	.st252{fill:#E285B5;}
	.st253{fill:#ACACAC;}
	.st254{fill:#D4D4D4;}
	.st255{fill:#FEE63C;}
	.st256{fill:#FFAB30;}
	.st257{fill:#1C1C1C;}
	.st258{fill:#B3E7C9;}
	.st259{fill:#66CC99;}
	.st260{fill:#F9EB67;}
	.st261{fill:#F7A631;}
	.st262{fill:#4ED18B;}
	.st263{fill:#299C60;}
	.st264{fill:#00C6FF;}
	.st265{fill:#6600D0;}
	.st266{fill:#F59F00;}
	.st267{fill:#51D5FF;}
	.st268{fill:#00D096;}
	.st269{fill:#FE263B;}
	.st270{fill:#7B36FF;}
</style>
<g id="레이어_1">
</g>
<g id="레이어_2">
	<g>
		<g>
			<path d="M617.8,208.8h-17.6c-52.1,0-94.3-45.6-94.3-101.9S548.2,23,600.2,23h218.1c52.1,0,94.3,27.6,94.3,83.9
				s-42.2,101.9-94.3,101.9H678.2H617.8"/>
		</g>
		<g>
			<path class="st2" d="M603.5,251.6l14.4-58.1h-17.6c-52.1,0-94.3-42.2-94.3-94.3S548.2,5,600.2,5h218.1
				c52.1,0,94.3,42.2,94.3,94.3s-42.2,94.3-94.3,94.3H678.2L603.5,251.6z"/>
		</g>
		<g>
			<g>
				<g>
					<path class="st3" d="M155.1,287.4c-29,9.4-56,24.4-80,43.1c-23,18-48.8,40.9-58.5,69.3c-4.2,12.4-4.9,26.3,0.2,38.4
						c15.3,36.1,68.1,29.2,98.6,22.8"/>
				</g>
				<g>
					<path d="M72.5,471.1c-31.3,0-51.4-10.3-60.1-30.9C7.1,427.8,7,412.9,12,398.2c10-29.5,36-52.8,60.1-71.6
						c25.4-19.9,52.8-34.7,81.5-44c2.6-0.9,5.4,0.6,6.3,3.2s-0.6,5.4-3.2,6.3c-27.6,8.9-54,23.2-78.4,42.3c-22.9,18-47.6,40-56.8,67
						c-4.2,12.4-4.2,24.8,0.1,34.8c7,16.6,24.1,24.9,50.9,24.9c12.1,0,26.1-1.7,42.1-5.1c2.7-0.6,5.4,1.2,5.9,3.9
						c0.6,2.7-1.2,5.4-3.9,5.9C100,469.3,85.3,471.1,72.5,471.1z"/>
				</g>
			</g>
			<g>
				<g>
					<path class="st253" d="M653,519.2c5.3,2.3,10.6,4.6,15.4,7.7c18.8,12.2,27.9,37.1,22.8,58.9c-5.1,21.9-23.4,39.7-45,45.8
						c-4-5.9-12.6-7.9-19.5-9.7c-21.6-5.6-43.1-11.1-64.7-16.7c-12.6-3.3-27.3-8.5-30.6-21.1c-3.1-11.7,5.8-23.2,15.3-30.8
						C575.8,530.3,616.2,524.6,653,519.2z"/>
				</g>
			</g>
			<g class="st1">
				<g>
					<path class="st2" d="M668.4,526.9c-4.8-3.1-10.1-5.4-15.4-7.7c-3.9,0.6-7.9,1.2-11.9,1.8c10.4,10.9,17.3,25.2,19.8,40.1
						c3.5,20-0.4,40.9-8.6,59.5c-1.7,3.7-3.5,7.4-5.6,11c21.4-6.2,39.5-24,44.6-45.7C696.3,564,687.2,539.2,668.4,526.9z"/>
				</g>
			</g>
			<g>
				<g>
					<path class="st253" d="M91.1,455.7c-9.9,4.1-19.3,9.3-27.3,16.4c-12.1,10.7-20.8,26-21.3,42.1c-0.3,12.8,4.5,25.2,10.9,36.3
						c10.9,18.5,26.9,34,45.7,44.3c16.5-15.6,25.1-38.8,28.1-61.3c3.1-22.4-1.7-45.9-13.3-65.3c-2.4-4-5.1-7.9-9.1-10.2
						C100.9,455.7,95.4,454,91.1,455.7z"/>
				</g>
			</g>
			<g>
				<g>
					<path class="st3" d="M459.3,510.4c46.1-12.8,94.9-10.7,142.7-7.7c12.4,0.8,32.2-0.6,45.2-1.7c23.3-2,38-26.7,27.7-47.8
						c-0.2-0.5-0.5-1-0.8-1.5c-8.9-16.6-35.7-20-54.2-18.9c0-53.9-19.8-110.5-49.5-155c-81.2-121.5-252.9-129.1-370.5-58.2
						C118.2,268.9,87.6,359.1,91.9,450.7c2.3,49.8,12.6,100.9,30.8,147.5c113.7,55.1,244.5,71.6,368.3,46.6
						c21.6-4.4,43.1-10,63.6-18.1c8.2-3.3,17.5-8.5,18.3-17.3c0.4-4.6-1.7-9-2.5-13.6c-1.1-6.4,1.6-15.1,5.6-20.3
						c101.9-7.1,94.3-83.9,94.3-83.9"/>
				</g>
			</g>
			<g>
				<g>
					<path class="st3" d="M667.8,491.7c9.9-9.5,13.8-24.8,7.1-38.5c-0.2-0.5-0.5-1-0.8-1.5c-8.9-16.6-35.7-20-54.2-18.9
						c0-53.9-19.8-110.5-49.5-155c-81.2-121.5-252.9-129.1-370.5-58.2C118.2,268.9,87.6,359.1,91.9,450.7
						c2.3,49.8,12.6,100.9,30.8,147.5c113.7,55.1,244.5,71.6,368.3,46.6c21.6-4.4,43.1-10,63.6-18.1c8.2-3.3,17.5-8.5,18.3-17.3
						c0.4-4.6-1.7-9-2.5-13.6c-1.1-6.4,1.6-15.1,5.6-20.3c101.9-7.1,94.3-83.9,94.3-83.9L667.8,491.7z"/>
				</g>
			</g>
			<g class="st1">
				<g>
					<path class="st2" d="M624.8,564c50.4-23.3,45.6-72.5,45.6-72.5l-2.6,0.2c9.9-9.5,13.8-24.8,7.1-38.5c-0.2-0.5-0.5-1-0.8-1.5
						c-8.9-16.6-35.7-20-54.2-18.9c0-53.9-19.8-110.5-49.5-155c-47.5-71.1-126-103.2-206.6-103.4c8.4,1.3,49.3,11.2,52.7,12.1
						c29.3,8.2,55.4,24.8,79.2,43.8c25.8,20.5,48.6,44.7,64.2,73.9c14.1,26.4,21.8,55.6,25.4,85.2c2.1,17.1,2.9,34.4,3,51.7
						c10.6-0.5,13.1,0.2,23.4,1.5c14.4,1.8,29.7,6.3,34.5,18.1c5.8,13.9,2.4,30.2-9.2,42.1c10.8,17.9,0.5,41.1-9.5,57
						C626.7,561.1,625.8,562.5,624.8,564z"/>
				</g>
			</g>
			<g>
				<g>
					<path class="st3" d="M459.3,510.4c34.6-9.6,70.7-10.8,106.8-9.6L459.3,510.4z"/>
				</g>
			</g>
			<g class="st1">
				<g>
					<path class="st2" d="M568.1,261.6c-1.7,0.9-3.3,1.8-5,2.7C564.9,263.6,566.6,262.7,568.1,261.6z"/>
				</g>
			</g>
			<g>
				<g>
					<path d="M576.1,580.4c-2.6,0-4.8-2-5-4.7c-0.2-2.8,1.9-5.1,4.6-5.3c33.7-2.4,58.4-12.7,73.6-30.7
						c18.4-21.8,16.1-47.5,16.1-47.8c-0.3-2.7,1.7-5.2,4.5-5.5c2.8-0.3,5.2,1.7,5.5,4.5c0.1,1.2,2.7,30.2-18.4,55.2
						c-17,20.1-44.1,31.6-80.5,34.2C576.3,580.4,576.2,580.4,576.1,580.4z"/>
				</g>
			</g>
			<g>
				<g>
					<path d="M581.1,608.9c-1,0-1.9-0.3-2.8-0.9c-2.3-1.5-2.9-4.6-1.4-6.9c8.2-12.3,9.9-26.1,9.9-26.3c0.3-2.7,2.8-4.7,5.5-4.4
						c2.7,0.3,4.7,2.8,4.4,5.5c-0.1,0.7-1.9,16.5-11.5,30.8C584.3,608.1,582.7,608.9,581.1,608.9z"/>
				</g>
			</g>
			<g>
				<g>
					<g>
						<path class="st254" d="M126.2,597.2c-23.4,43.7-37.4,92.4-41.6,141.8c14,6.6,27.2,15.4,41.7,20.6
							c107.3,39.1,222.9,55.1,336.7,46.7c33.6-2.5,67.6-7.2,98.7-20.4c25.7-10.9,48.7-27.3,70.6-44.7c2.4-1.9,4.8-3.9,6.1-6.6
							c1.5-3.1,1.3-6.8,1-10.3c-3.7-41.5-20.2-80.6-36.6-119c-52,8.2-103.7,17.9-155.2,29.1c-18.4,4-36.9,8.3-55.6,10.5
							c-41.2,4.9-83.1,0.1-123.9-7.6c-40-7.5-79.5-17.9-118.1-30.8c-9-3-18-6.3-25.4-12.2C126.1,594.3,124.8,597.2,126.2,597.2z"/>
					</g>
				</g>
				<g>
					<g>
						<path d="M84.6,743.9c-0.1,0-0.3,0-0.4,0c-2.8-0.2-4.8-2.6-4.6-5.4c4.2-50.4,18.8-100.1,42.2-143.7c1.3-2.4,4.3-3.4,6.8-2
							c2.4,1.3,3.4,4.3,2,6.8c-22.7,42.4-36.9,90.8-41,139.8C89.4,741.9,87.2,743.9,84.6,743.9z"/>
					</g>
				</g>
			</g>
			<g>
				<g>
					<path d="M122.7,603.2c-2,0-3.9-1.2-4.7-3.2c-17.9-45.8-28.7-97.3-31.1-149c-2.3-48.5,5.4-94.7,22.1-133.6
						c18.8-43.7,48.5-78,88.2-102c59.9-36.1,133.5-52.1,202.1-43.8c74.4,9,136.6,45.8,175.1,103.5c31,46.4,49.2,101.7,50.3,152.6
						c14.4-0.2,43.2,2.1,53.7,21.7c0.3,0.5,0.6,1.1,0.9,1.7c5.5,11.4,5.1,24.2-1.2,35.3c-6.4,11.2-17.8,18.5-30.6,19.6
						c-14.1,1.2-33.5,2.4-45.9,1.7c-48.9-3-96.5-4.7-141.1,7.6c-2.7,0.7-5.4-0.8-6.2-3.5c-0.7-2.7,0.8-5.4,3.5-6.2
						c46-12.7,94.6-11,144.4-7.9c12.4,0.8,33.2-0.7,44.4-1.6c9.5-0.8,18-6.2,22.7-14.6c4.6-8.2,5-17.7,0.9-26
						c-0.2-0.4-0.4-0.9-0.7-1.3c-7.3-13.7-31.3-17.3-49.5-16.3c-1.4,0.1-2.7-0.4-3.7-1.4c-1-0.9-1.6-2.3-1.6-3.6
						c0-50.4-17.7-105.9-48.7-152.2C485,159,314.2,156.5,202.5,223.9C130.7,267.2,92.2,349.8,96.9,450.5
						c2.4,50.6,12.9,101.1,30.4,145.9c1,2.6-0.3,5.5-2.8,6.5C123.9,603.1,123.3,603.2,122.7,603.2z"/>
				</g>
			</g>
			<g>
				<g>
					<path class="st253" d="M332.4,661.6c-54.3,22.1-115.1,27.7-172.5,16c-30.4-6.2-60.6-17.7-83.5-38.7c-9.4-8.6-17.6-19-21.9-31
						c-5.3-14.7-4.2-31.4,2.5-45.5c4.6-9.7,1.8-22.3,4.6-32.7c2.4-9.1,7.6-15.9,16-20.3c32.8,39.7,81.3,63.1,130,79.9
						c56.5,19.5,116.2,31.8,175.8,27.5c-13,14.5-26.8,27.9-43.5,38C336.8,656.6,333.5,658.3,332.4,661.6z"/>
				</g>
			</g>
			<g>
				<g>
					<path d="M358.9,622.7c-47,0-97.4-9.4-153.1-28.7c-39-13.5-95.2-36.5-132.2-81.4c-1.8-2.1-1.5-5.3,0.7-7c2.1-1.8,5.3-1.5,7,0.7
						c35.5,42.9,89.9,65.3,127.8,78.3c64.3,22.2,121.1,31.1,173.8,27.2c2.8-0.2,5.1,1.9,5.3,4.6c0.2,2.8-1.9,5.1-4.6,5.3
						C375.5,622.4,367.3,622.7,358.9,622.7z"/>
				</g>
			</g>
			<g>
				<g>
					<path d="M99.2,599.9c-0.8,0-1.6-0.2-2.4-0.6c-19.7-10.8-36.2-26.8-47.6-46.2c-8-13.6-12-26.7-11.6-38.9
						c0.4-16.5,8.8-33.2,22.9-45.7c7.8-6.9,17.4-12.7,28.7-17.3c2.6-1,5.5,0.2,6.5,2.7c1,2.6-0.2,5.5-2.7,6.5
						c-10.2,4.2-18.9,9.4-25.9,15.5c-12.1,10.7-19.2,24.7-19.6,38.5c-0.3,10.3,3.2,21.6,10.3,33.6c10.5,17.8,25.6,32.5,43.8,42.5
						c2.4,1.3,3.3,4.4,2,6.8C102.6,598.9,100.9,599.9,99.2,599.9z"/>
				</g>
			</g>
			<g>
				<g>
					<path d="M219.3,688.6c-20.3,0-40.6-2-60.4-6.1c-36.2-7.4-65.1-20.9-85.9-39.9c-11.3-10.3-19.1-21.4-23.2-33
						c-5.7-15.9-4.7-33.8,2.7-49.3c1.2-2.5,4.2-3.5,6.7-2.4c2.5,1.2,3.5,4.2,2.4,6.7c-6.2,12.9-7,28.4-2.3,41.6
						c3.6,10,10.5,19.8,20.6,29c19.5,17.8,46.8,30.4,81.2,37.5c56.2,11.5,116.5,6,169.6-15.7c2.6-1,5.5,0.2,6.5,2.7
						s-0.2,5.5-2.7,6.5C298.1,681,258.6,688.6,219.3,688.6z"/>
				</g>
			</g>
			<g>
				<g>
					<path d="M646.2,636.7c-2.2,0-4.2-1.4-4.8-3.6c-0.7-2.7,0.8-5.4,3.5-6.2c20.2-5.7,36.9-22.6,41.5-42.1
						c4.7-20.2-4-42.8-20.7-53.6c-1.1-0.7-2.3-1.4-3.6-2.1c-2.4-1.3-3.3-4.4-2-6.8s4.4-3.3,6.8-2c1.5,0.8,2.9,1.6,4.2,2.5
						c20.1,13.1,30.6,40.1,25,64.3c-5.4,23.3-24.5,42.7-48.5,49.5C647.1,636.6,646.7,636.7,646.2,636.7z"/>
				</g>
			</g>
			<g>
				<g>
					<g>
						<polygon class="st10" points="155.1,955.3 5.8,742.5 779.7,742.5 929,955.3 						"/>
					</g>
				</g>
			</g>
			<g>
				<g>
					<path d="M779.7,747.5H5.8c-2.8,0-5-2.2-5-5s2.2-5,5-5h773.8c2.8,0,5,2.2,5,5S782.4,747.5,779.7,747.5z"/>
				</g>
			</g>
			<g>
				<g>
					<g>
						<path class="st254" d="M628.4,616.5c13.4,5.1,27.1,10.3,38,19.5c17.7,14.9,26.2,38.9,25.6,62c0,0.8-0.1,1.7-0.1,2.5
							c-1.4,24.6-14.4,47.1-34.6,61.2h0c-28,18.8-66.9,19.7-95.7,2.2c-28.8-17.5-45.9-52.6-42-86.1"/>
					</g>
				</g>
				<g class="st1">
					<g>
						<path class="st2" d="M692.1,698.1c0.6-23.1-7.9-47.1-25.6-62c-8.2-6.9-17.9-11.5-27.8-15.6c-2.9,7.4-4.4,15.5-4.2,23.3
							c21.3,13,36.9,34.5,44.9,58.1c2.9,8.5,4.8,17.2,6,26.1c3.8-8.6,6.1-17.8,6.6-27.4C692,699.7,692,698.9,692.1,698.1z"/>
					</g>
				</g>
				<g>
					<g>
						<path d="M607.6,781.5c-17.5,0-34.3-4.6-48.6-13.3c-14.9-9.1-27.1-22.6-35.2-39.1c-8.1-16.5-11.2-34.4-9.2-51.8l9.9,1.2
							c-3.6,31.4,12.7,64.8,39.6,81.2c27,16.4,64.1,15.6,90.4-2.1c19-13.2,31.2-34.6,32.4-57.3c0-0.8,0.1-1.6,0.1-2.4
							c0.6-23.3-8.3-45-23.8-58c-10.4-8.8-23.7-13.8-36.6-18.7l3.6-9.3c13,4.9,27.7,10.5,39.5,20.4c17.9,15,28.1,39.7,27.4,66
							c0,0.9-0.1,1.8-0.1,2.6c-1.4,25.7-15.2,50-36.8,65c-14.6,9.8-31.9,15.2-50.3,15.6C609.1,781.5,608.3,781.5,607.6,781.5z"/>
					</g>
				</g>
				<g>
					<g>
						<g>
							<g>
								<path class="st3" d="M623.7,616.7c-10.7-23.5-31.7-42.1-56.4-49.9c-7.8-2.5-16-3.9-24.1-4.2c-12-0.5-24.2,1.3-34.9,6.9
									c-10.6,5.6-19.4,15.1-22.7,26.6c-4,14.1,0.8,29.5,9.2,41.5s20.1,21.3,31.6,30.3"/>
							</g>
						</g>
						<g>
							<g>
								<path class="st2" d="M526.4,667.9l59.3-31.2c-16.9-28.7-45.8-50.2-78.3-57.6c-3.5-0.8-7.2-1.1-10.9-1
									c-5,5-8.9,11.1-10.8,17.9c-4,14.1,0.8,29.5,9.2,41.5C503.2,649.6,514.9,658.9,526.4,667.9z"/>
							</g>
						</g>
					</g>
					<g>
						<g>
							<path d="M523.3,671.8c-11.1-8.7-23.7-18.6-32.6-31.4c-10.3-14.8-13.9-31.4-9.9-45.8c3.5-12.3,12.6-23.1,25.2-29.7
								c10.5-5.5,23.4-8,37.4-7.5c8.7,0.4,17.2,1.9,25.4,4.4c25.9,8.2,48.2,27.8,59.4,52.6l-9.1,4.1c-10.1-22.2-30-39.9-53.3-47.2
								c-7.4-2.3-15.1-3.7-22.8-4c-12.2-0.5-23.4,1.7-32.3,6.3c-10.1,5.3-17.5,13.9-20.2,23.5c-3.2,11.4-0.1,25,8.5,37.3
								c8.1,11.6,19.5,20.6,30.6,29.2L523.3,671.8z"/>
						</g>
					</g>
				</g>
				<g>
					<g>
						<g>
							<path class="st253" d="M612.2,601c7.7-4.8,19-0.5,24,6.7c18.8,27.2-16.4,59-38.2,70.2c-18.5,9.5-43.6,17.2-64.5,12.9
								c-6.5-1.3-12.6-3.7-18-7.5c-6.6-4.6-11-13.1-8.9-20.9c1.1-2,3.4-3.2,5.7-3c35.8,3.1,74.2-14.3,91.4-46.6
								c1.7-3.2,3.2-6.6,5.7-9.3C610.2,602.4,611.1,601.7,612.2,601z"/>
						</g>
					</g>
					<g class="st1">
						<g>
							<path class="st2" d="M636.1,607.7c-5-7.2-16.3-11.5-24-6.7c-1,0.6-2,1.4-2.8,2.4c-2.4,2.7-4,6.1-5.7,9.3
								c-0.1,0.1-0.1,0.2-0.2,0.3c1.8,0.6,3.5,1.5,5.2,2.4c8,4.6,15.3,10.7,20.2,18.5c2.4,3.8,4.2,8,5.1,12.3
								C641.9,634.1,644.9,620.4,636.1,607.7z"/>
						</g>
					</g>
					<g>
						<g>
							<path d="M546.2,697c-4.6,0-9.2-0.4-13.8-1.3c-7.5-1.5-14.1-4.3-19.9-8.3c-8.9-6.2-13.4-17-10.9-26.3l0.2-0.6l0.3-0.5
								c2.1-3.7,6.2-5.9,10.5-5.6c35.6,3.1,71.2-15,86.6-44c0.3-0.5,0.6-1.1,0.9-1.7c1.5-2.9,3.1-5.9,5.5-8.6
								c1.2-1.3,2.5-2.4,3.9-3.3l0,0c10.3-6.5,24.5-1,30.7,8.1c5.9,8.6,7.7,18.1,5.1,28.4c-5.1,20.5-27,39.8-45.1,49.1
								C590.7,687.2,568.8,697,546.2,697z M511.1,664.5c-1,5.6,2.7,11.6,7.1,14.7c4.6,3.2,10,5.5,16.2,6.7
								c16.5,3.4,39.4-1.2,61.2-12.4c13.5-6.9,35.3-24,40-42.6c1.9-7.4,0.7-14.1-3.6-20.3c-3.5-5.1-12-8.6-17.2-5.3
								c-0.6,0.4-1.2,0.9-1.8,1.5c-1.6,1.8-2.8,4.1-4.1,6.6c-0.3,0.6-0.6,1.2-0.9,1.8c-8.8,16.5-22.9,29.8-41,38.7
								c-17,8.4-36.7,12.1-55.3,10.5C511.6,664.3,511.3,664.3,511.1,664.5z"/>
						</g>
					</g>
				</g>
			</g>
			<g>
				<g>
					<g>
						<g>
							<path class="st254" d="M298.6,688.7c6.7-24.8,19-48.1,35.7-67.7c7.4-8.7,20.1-13.2,31.5-13.1c11.4,0.1,21.9,1.5,32.4,5.7
								c14,5.6,32.9,9,43.2,20.1c10,10.8,17.9,16.6,24.4,29.8l-2.4,21.7c-2.9,19.2-7.5,38.4-16.9,55.4c-9.4,17-24.2,31.6-42.7,37.6
								c-6.8,2.2-13.9,3.2-21,3.7c-47.8,3.1-96.5-20.3-123.9-59.6"/>
						</g>
						<g>
							<path d="M374.3,787c-46.6,0-92.8-23.7-119.6-62c-1.6-2.3-1-5.4,1.2-7c2.3-1.6,5.4-1,7,1.2c26.5,37.9,73.4,60.4,119.5,57.4
								c7.8-0.5,14.1-1.6,19.8-3.4c15.9-5.2,30.1-17.7,39.8-35.3c7.7-13.9,12.8-30.5,16.4-53.6l2.2-20.1
								c-4.3-8.4-9.4-13.5-15.7-19.8c-2.3-2.3-4.7-4.7-7.3-7.5c-6.6-7.2-18-10.9-29-14.5c-4.2-1.4-8.4-2.8-12.3-4.3
								c-9-3.6-18.5-5.3-30.6-5.3c-0.1,0-0.1,0-0.2,0c-10.8,0-21.6,4.4-27.5,11.4c-16.2,19-28.2,41.7-34.7,65.8
								c-0.7,2.7-3.5,4.2-6.1,3.5c-2.7-0.7-4.2-3.5-3.5-6.1c6.9-25.5,19.6-49.6,36.8-69.7c7.8-9.2,21.3-14.9,35.1-14.9
								c0.1,0,0.2,0,0.2,0c13.3,0.1,24.1,2,34.3,6.1c3.6,1.4,7.6,2.7,11.7,4.1c11.6,3.8,24.8,8.1,33.2,17.2c2.4,2.6,4.8,5,7,7.2
								c7,7,13,13.1,18.2,23.8l0.6,1.3l-2.6,23.3c-3.8,24.4-9.2,42-17.5,57.1c-11,19.8-27.1,34-45.5,39.9
								c-6.4,2.1-13.6,3.4-22.2,3.9C380.2,786.9,377.3,787,374.3,787z"/>
						</g>
					</g>
				</g>
				<g>
					<g>
						<g>
							<g>
								<path class="st3" d="M370.9,590.5c21.5-20.3,50.4-32.5,80-33.6c10.1-0.4,20.4,0.5,29.9,4s18.2,9.7,23.4,18.3
									c7.7,12.8,11.8,24.7,2.3,44.1c-7.2,14.7-19.7,27.2-33.7,35.6"/>
							</g>
						</g>
						<g>
							<g>
								<path class="st2" d="M508.9,588.2C508.9,588.2,508.8,588.2,508.9,588.2c-4.5,11-11,21-19.3,29.4
									c-11.2,11.3-24.9,19.8-39.6,26.1l22.7,15.3c14-8.4,26.5-21,33.7-35.6C513.7,608.5,513,598,508.9,588.2z"/>
							</g>
						</g>
					</g>
					<g>
						<g>
							<path d="M475.2,663.2l-5.2-8.6c14.1-8.5,25.4-20.4,31.8-33.6c8.2-16.7,5.6-26.7-2-39.3c-4.3-7.1-11.7-12.9-20.9-16.2
								c-7.9-2.9-17-4.1-27.9-3.7c-28.2,1.1-56.2,12.8-76.7,32.3l-6.9-7.3c22.3-21.1,52.6-33.8,83.2-35c12.2-0.5,22.6,0.9,31.8,4.3
								c11.3,4.1,20.5,11.4,26,20.4c8.8,14.5,12.5,28.3,2.5,48.9C503.6,640.3,490.9,653.7,475.2,663.2z"/>
						</g>
					</g>
				</g>
				<g>
					<g>
						<g>
							<path class="st253" d="M465.4,683.2c1.3,2.7,10.8-2.9,12.1-4.1c14.2-12.6,6-34.6-3.1-47.6c-15.3-21.8-40-38.5-65.7-45.1
								c-25-6.4-61.2-4.4-73,22.9c-1.7,4.1-3.2,9-2.3,13.4c25.6-5.7,53-2.4,76.6,9.1C433.5,643.3,454.3,659.5,465.4,683.2z"/>
						</g>
						<g>
							<path d="M466.9,688.9c-0.5,0-1,0-1.5-0.1c-2-0.4-3.6-1.7-4.5-3.5l0,0c-9.4-20-26.8-36.1-53.2-49
								c-22.6-11.1-48.7-14.2-73.3-8.7l-5,1.1l-1-5c-0.9-4.7-0.1-10.1,2.6-16.3c5.9-13.8,18-23.1,35-27c13.1-3,29.1-2.6,43.8,1.2
								c27.1,7,52.8,24.5,68.6,47c12.1,17.3,17.6,40.8,2.4,54.2C480.8,682.9,472.9,688.9,466.9,688.9z M469.9,681L469.9,681
								L469.9,681z M358.6,614.9c18.5,0,36.8,4.2,53.5,12.4c27.3,13.4,45.8,30.1,56.5,51.1c2-0.8,4.8-2.4,5.7-3.1
								c12.1-10.7,3.2-30.8-4-41c-14.5-20.6-38-36.7-62.9-43.1c-25.4-6.5-57.2-3-67.1,20.1c-0.8,1.9-1.4,3.7-1.8,5.3
								C345.2,615.5,351.9,614.9,358.6,614.9z"/>
						</g>
					</g>
				</g>
			</g>
			<g>
				<g>
					<g>
						<g>
							<path d="M386.9,382.6c-9.7-0.5-19.1,2.5-26.9,8.7c-1.7,1.4-2.4,3.7-1.5,5.8c0.7,1.8,2.5,3,4.4,3.1c0.2,0,0.5,0,0.7,0
								c3.7-0.3,7.5-0.6,11.2-0.7c0.5,5.7,5.2,10.1,11,10.1c5.6,0,10.3-4.2,11-9.7c3.3,0.2,6.7,0.6,10,1c2.1,0.3,4.2-0.9,5.1-2.8
								c0.9-1.9,0.5-4.2-1-5.7C403.3,384.9,395.8,383.1,386.9,382.6z"/>
						</g>
					</g>
				</g>
				<g>
					<g>
						<path d="M538.1,382.6c9.7-0.5,19.1,2.5,26.9,8.7c1.7,1.4,2.4,3.7,1.5,5.8c-0.7,1.8-2.5,3-4.4,3.1c-0.2,0-0.5,0-0.7,0
							c-3.7-0.3-7.5-0.6-11.2-0.7c-0.5,5.7-5.2,10.1-11,10.1c-5.6,0-10.3-4.2-11-9.7c-3.3,0.2-6.7,0.6-10,1
							c-2.1,0.3-4.2-0.9-5.1-2.8c-0.9-1.9-0.5-4.2,1-5.7C521.8,384.9,529.2,383.1,538.1,382.6z"/>
					</g>
				</g>
			</g>
			<g>
				<g>
					<g class="st1">
						<g>
							<path class="st252" d="M633.8,388.1l-14.2,0c-3.8,17.8-13.2,36.4-26.2,49.4c-13,13-32.1,19.3-50.2,19.3
								c-35.3,0-65-35.2-65-68.7h-31.5c0,33.5-29.7,68.7-65,68.7c-18.1,0-37.2-6.3-50.2-19.3c-13-13-22.3-31.6-26.2-49.4l-34.3-0.6
								c0,0-168.1,7.5-170.9,9.5c-6.3,4.5-21,16.1-29.3,5.1c-9-12,10.1-27.5,18.2-33.8l181.6-21h362.9c11.3,0,20.4,9.1,20.4,20.4v0
								C654.3,379,645.1,388.1,633.8,388.1z"/>
						</g>
					</g>
					<g>
						<g>
							<g>
								<path class="st2" d="M539.3,347.2h-33c-8.7,18.8-17.4,37.6-26,56.4c3.1,11.8,9.5,23.2,18.1,32.3c9.9-21.8,20-43.6,30-65.3
									C532.1,362.8,535.7,355,539.3,347.2z"/>
							</g>
						</g>
						<g>
							<g>
								<path class="st2" d="M378.4,347.2c-14.5,31.1-28.8,62.3-43,93.6c2.6,2.2,5.4,4.1,8.3,5.9c12.3-27.1,24.7-54.2,37.2-81.2
									c2.8-6.1,5.7-12.2,8.5-18.3H378.4z"/>
							</g>
						</g>
						<g>
							<g>
								<path class="st2" d="M370,347.2h-33c-8.9,19.1-17.7,38.2-26.5,57.4c4.5,11.2,10.9,21.9,18.8,30.6
									c9.8-21.6,19.7-43.1,29.7-64.6C362.8,362.8,366.4,355,370,347.2z"/>
							</g>
						</g>
					</g>
				</g>
				<g>
					<g>
						<path d="M543.3,461.8c-17.8,0-35.8-8.5-49.4-23.4c-11.8-13-19.1-29.3-20.4-45.3h-21.9c-1.3,16-8.5,32.3-20.4,45.3
							c-13.6,14.9-31.6,23.4-49.4,23.4c-21,0-40.5-7.6-53.7-20.8c-12.2-12.2-22-29.9-26.6-48l-30.2-0.5
							c-63.1,2.8-158.3,7.5-168.9,9.1c-0.2,0.1-0.4,0.3-0.5,0.4c-3.6,2.6-9.1,6.5-15,8.4c-8.2,2.7-15.2,0.8-19.8-5.4
							c-12-16.1,10.6-34,19.1-40.8c0.7-0.6,1.6-0.9,2.5-1l181.6-21c0.2,0,0.4,0,0.6,0h362.9c14,0,25.4,11.4,25.4,25.4
							c0,14-11.4,25.4-25.4,25.4h-14.3c-4,17.5-9.7,35.1-22.5,48C583.9,454.3,564.3,461.8,543.3,461.8z M446.9,383.1h31.5
							c2.8,0,5,2.2,5,5c0,29.5,26.2,63.7,60,63.7c18.1,0,35.5-6.7,46.6-17.8c11.9-12,17-29.6,20.7-47c0.5-2.3,2.5-4,4.9-4h18.3
							c8.5,0,15.4-6.9,15.4-15.4s-6.9-15.4-15.4-15.4H271.2L91.3,373c-6.7,5.3-22,18.2-16.2,26c4,5.3,11.3,1.8,21-5.2
							c0.5-0.4,1-0.7,1.4-1c1.8-1.2,2.9-2,89.1-6.4c41.9-2.1,84-4,84.4-4c0.1,0,0.2,0,0.3,0l34.3,0.6c2.3,0,4.3,1.7,4.8,4
							c3.8,17.6,13,35.2,24.8,47c11.1,11.2,28.6,17.8,46.6,17.8c33.8,0,60-34.3,60-63.7C441.9,385.3,444.1,383.1,446.9,383.1z
							 M101.9,401.7C101.9,401.7,101.9,401.7,101.9,401.7S101.9,401.7,101.9,401.7z"/>
					</g>
				</g>
			</g>
		</g>
		<g>
			<g>
				<path class="st255" d="M127.5,175.1c-8.9,33.4-10.2,68.8-3.6,102.7c8.4,2.5,16.9,1.4,25.6,0c16.4-2.5,36.3-21.7,52.2-26.2
					c36.6-10.3,45.9-26.8,79.7-44.1c5.1-2.6,10.2-5.4,14.4-9.2c2.7-2.4,4.9-5.2,7.2-8c3.8-4.7,28.5,10.3,30.8,4.8
					c-30.3-52.8-87.3-80.3-144.2-76.1c-29.3,2.1-92.7,17.5-89.6,56.9c1,13.3,8.3,27.4,21.4,30"/>
			</g>
			<g>
				<path d="M123.8,282.7c-2.3,0-4.4-1.7-4.9-4.1c-6.7-34.6-5.4-70.9,3.7-104.9c0.7-2.7,3.5-4.2,6.1-3.5c2.7,0.7,4.2,3.5,3.5,6.1
					c-8.7,32.6-10,67.3-3.6,100.4c0.5,2.7-1.2,5.3-4,5.9C124.5,282.7,124.2,282.7,123.8,282.7z"/>
			</g>
			<g>
				<path d="M121.5,210.8c-0.3,0-0.6,0-1-0.1c-16-3.2-24.3-19.6-25.4-34.5c-0.8-10.6,2.5-20.4,9.9-29c19.7-22.9,63.7-31.8,84.3-33.3
					c29.3-2.1,58.6,3.8,84.7,17.3c26.9,13.8,49.1,35.1,64.2,61.4c1.4,2.4,0.5,5.5-1.8,6.8c-2.4,1.4-5.5,0.5-6.8-1.8
					c-28.5-49.6-81.9-77.8-139.5-73.6c-22.2,1.6-61.2,10.9-77.4,29.8c-5.7,6.6-8.2,13.7-7.5,21.7c0.8,10.8,6.6,23.3,17.4,25.4
					c2.7,0.5,4.5,3.2,3.9,5.9C125.9,209.1,123.8,210.8,121.5,210.8z"/>
			</g>
		</g>
		<g>
			<g>
				<g>
					<path class="st256" d="M342.8,155.1c-8.4-9-17.5-11.4-29.7-9.1c-6.1,1.1-11.2,3.7-13.9,9.3l-0.3,1.1c-3.6-1-7.3-1.3-11-1
						c-4.4,0.4-8.6,0.8-12.8,2.4c-10.1,4-18.5,10.5-21.7,21.1l-0.1,0.6c-10.2-2-22.5,1.6-29.7,7.6c-4.1,3.4-7.9,8.5-8.1,13.8
						c-9.4-5.2-23.6,0.4-32.3,6.7c-6.1,4.4-9.3,10.2-10.3,16.6l-0.3,0c-8.9,0.9-17.7,4.2-24.5,10c-5.4,4.6-9.5,10.9-11.3,17.9
						l-0.9-0.2c-11.9,2.6-22.6,11.1-26.3,22.7c-4.3,13.7,2.7,30.4,16.1,35.5c9.8,3.7,21.3,1,29.4-5.6c4.3-3.5,7.7-8,10.2-13v0
						c6.9,0.8,13.8-0.6,20.1-4.6c10.2-6.5,11.4-8.4,16.2-18.7c14.7,3.4,29.6-9.3,36.2-21.4c16.4,3.5,32.4-7.2,37-23.7l0.7,0.2
						c13.6,4.8,27.9,1.9,38-7c3.9-3.4,6.9-7.8,8.8-12.7l1.4,0.2c13.1-1.2,18.7-3.7,24.6-14.5C354.3,178.3,351.2,164.1,342.8,155.1z"
						/>
				</g>
			</g>
			<g>
				<g>
					<g>
						<path d="M288.9,230.2c-5,0-10-0.8-15-2.6c-2.6-0.9-4-3.8-3.1-6.4c0.9-2.6,3.8-4,6.4-3.1c11.7,4.1,24.1,1.8,33.1-6
							c9-7.9,12.2-22.5,7.4-33.9c-4.7-11.3-17.4-19-29.4-17.9c-4,0.4-7.8,0.7-11.3,2.1c-10.2,4.1-16.4,9.9-18.7,17.8
							c-0.8,2.6-3.6,4.2-6.2,3.4c-2.6-0.8-4.2-3.6-3.4-6.2c3.2-10.9,11.5-19.1,24.6-24.3c4.9-1.9,9.8-2.4,14.2-2.8
							c16.5-1.5,33.1,8.7,39.5,24c6.5,15.5,2.3,34.5-10.1,45.3C309,226.6,299.1,230.2,288.9,230.2z"/>
					</g>
				</g>
				<g>
					<g>
						<path d="M323.8,208.5c-2.6,0-4.7-2-5-4.6c-0.2-2.8,1.8-5.2,4.5-5.4c12.2-1.1,15.9-3.2,20.7-11.9c4.6-8.3,2.5-20.1-4.9-28
							c-7-7.4-14.3-9.7-25.2-7.6c-7.1,1.3-9.3,4.3-10.3,6.5c-1.2,2.5-4.2,3.6-6.7,2.4c-2.5-1.2-3.5-4.2-2.4-6.7
							c3.1-6.4,8.9-10.5,17.5-12c14.3-2.7,24.9,0.6,34.3,10.6c10.3,11,12.9,27.7,6.3,39.7c-7.1,12.9-14.9,15.8-28.5,17
							C324.1,208.5,323.9,208.5,323.8,208.5z"/>
					</g>
				</g>
				<g>
					<g>
						<g>
							<path d="M203.1,272.5c-1.1,0-2.3-0.1-3.4-0.2c-11.3-1-22.3-8.2-28-18.3c-8.6-15.3-7.8-39,8.6-50.7c8.4-6,20.9-11.3,31.6-9.1
								c2.2-5.4,6.4-9.3,8.5-11.1c11.6-9.5,33.2-13.3,45.6-3.4c2.2,1.7,2.5,4.9,0.8,7c-1.7,2.2-4.9,2.5-7,0.8
								c-8.3-6.6-24.5-3.7-33,3.3c-3.8,3.1-6.2,6.9-6.3,10.1c-0.1,1.7-1,3.3-2.5,4.2c-1.5,0.9-3.4,0.9-4.9,0
								c-6.7-3.7-18.7,0.4-27,6.3c-11.5,8.2-12.2,26.1-5.7,37.7c4.1,7.2,12.2,12.6,20.2,13.3c14.3,1.3,27.3-8.3,32.9-18.4
								c1.1-1.9,3.3-3,5.4-2.5c8.5,1.8,17.4-0.9,23.8-7.4c7.3-7.4,10.1-18,7.6-29c-0.6-2.7,1.1-5.4,3.8-6c2.7-0.6,5.4,1.1,6,3.8
								c3.2,14.2-0.6,28.5-10.3,38.2c-7.9,8-18.7,11.9-29.4,10.7C232.1,264.5,217.5,272.5,203.1,272.5z"/>
						</g>
					</g>
				</g>
				<g>
					<g>
						<path d="M169.1,296.4c-6.2,0-12.6-1.6-18.7-4.9c-12.6-6.7-20.5-20.7-19.5-34.7c0.7-10,5.8-19.7,13.9-26.6
							c7.5-6.4,16-10,25.9-11c2.8-0.3,5.2,1.7,5.5,4.5c0.3,2.7-1.7,5.2-4.5,5.5c-8,0.8-14.5,3.6-20.5,8.7
							c-6.1,5.2-9.9,12.4-10.4,19.7c-0.7,10,5.1,20.3,14.2,25.1c9.5,5.1,19.3,5,27.6-0.3c9.2-5.9,9.9-7,14.4-16.6
							c1.2-2.5,4.1-3.6,6.6-2.4c2.5,1.2,3.6,4.1,2.4,6.6c-5.2,11.2-7,13.7-18,20.8C182.3,294.5,175.8,296.4,169.1,296.4z"/>
					</g>
				</g>
				<g>
					<g>
						<path d="M135,316.4c-3.8,0-7.6-0.6-11.1-2c-15.7-5.9-24.4-25-19.1-41.7c4.1-12.8,15.8-23,30-26.1c2.7-0.6,5.4,1.1,5.9,3.8
							c0.6,2.7-1.1,5.4-3.8,5.9c-10.7,2.3-19.6,9.9-22.6,19.3c-3.7,11.6,2.5,25.3,13.1,29.3c7.7,2.9,17.3,1,24.5-4.8
							c3.6-2.9,6.6-6.8,8.9-11.4c1.2-2.5,4.3-3.5,6.7-2.2c2.5,1.2,3.5,4.3,2.2,6.7c-3,5.9-6.9,10.8-11.6,14.6
							C151.5,313.5,143.2,316.4,135,316.4z"/>
					</g>
				</g>
			</g>
		</g>
		<g>
			<path d="M603.5,256.6c-0.9,0-1.9-0.3-2.7-0.8c-1.8-1.2-2.6-3.3-2.1-5.4l12.8-51.9h-11.2c-54.7,0-99.3-44.5-99.3-99.3
				C501,44.5,545.5,0,600.2,0h218.1c54.7,0,99.3,44.5,99.3,99.3c0,54.7-44.5,99.3-99.3,99.3H679.9l-73.4,57
				C605.7,256.3,604.6,256.6,603.5,256.6z M600.2,10C551,10,511,50,511,99.3s40,89.3,89.3,89.3h17.6c1.5,0,3,0.7,3.9,1.9
				c0.9,1.2,1.3,2.8,0.9,4.3l-10.9,44.1l63.3-49.2c0.9-0.7,2-1.1,3.1-1.1h140.2c49.2,0,89.3-40,89.3-89.3S867.6,10,818.4,10H600.2z"
				/>
		</g>
		<g>
			<g>
				<circle cx="591.8" cy="93.1" r="17.8"/>
			</g>
			<g>
				<circle cx="657.5" cy="93.1" r="17.8"/>
			</g>
			<g>
				<circle cx="723.2" cy="93.1" r="17.8"/>
			</g>
			<g>
				<circle cx="788.9" cy="93.1" r="17.8"/>
			</g>
		</g>
	</g>
</g>
</svg>
