<?xml version="1.0" encoding="utf-8"?>
<!-- Generator: Adobe Illustrator 27.1.1, SVG Export Plug-In . SVG Version: 6.00 Build 0)  -->
<svg version="1.1" xmlns="http://www.w3.org/2000/svg" xmlns:xlink="http://www.w3.org/1999/xlink" x="0px" y="0px"
	 viewBox="0 0 1334.9 1061.3" style="enable-background:new 0 0 1334.9 1061.3;" xml:space="preserve">
<style type="text/css">
	.st0{fill:#00B7F2;}
	.st1{opacity:0.6;}
	.st2{fill:#FFFFFF;}
	.st3{fill:#F56885;}
	.st4{fill:#68D093;}
	.st5{fill:#215ED5;}
	.st6{fill:#E8370A;}
	.st7{opacity:0.4;}
	.st8{fill:#FBC3CE;}
	.st9{fill:none;stroke:#000000;stroke-width:10;stroke-linecap:round;stroke-miterlimit:10;}
	.st10{fill:#FFDA96;}
	.st11{fill:#FFDA5D;}
	.st12{fill:#FFB82E;}
	.st13{fill:#D6BDA7;}
	.st14{fill:#231815;}
	.st15{clip-path:url(#SVGID_00000083778549238577656540000017580984991271009207_);fill:#FFFFFF;}
	.st16{clip-path:url(#SVGID_00000083778549238577656540000017580984991271009207_);fill:#FFFFFE;}
	.st17{clip-path:url(#SVGID_00000083778549238577656540000017580984991271009207_);fill:#FFFFFD;}
	.st18{clip-path:url(#SVGID_00000083778549238577656540000017580984991271009207_);fill:#FFFEFC;}
	.st19{clip-path:url(#SVGID_00000083778549238577656540000017580984991271009207_);fill:#FFFEFB;}
	.st20{clip-path:url(#SVGID_00000083778549238577656540000017580984991271009207_);fill:#FFFEFA;}
	.st21{clip-path:url(#SVGID_00000083778549238577656540000017580984991271009207_);fill:#FFFEF9;}
	.st22{clip-path:url(#SVGID_00000083778549238577656540000017580984991271009207_);fill:#FFFDF8;}
	.st23{clip-path:url(#SVGID_00000083778549238577656540000017580984991271009207_);fill:#FFFDF7;}
	.st24{clip-path:url(#SVGID_00000083778549238577656540000017580984991271009207_);fill:#FFFDF6;}
	.st25{clip-path:url(#SVGID_00000083778549238577656540000017580984991271009207_);fill:#FFFDF5;}
	.st26{clip-path:url(#SVGID_00000083778549238577656540000017580984991271009207_);fill:#FFFDF4;}
	.st27{clip-path:url(#SVGID_00000083778549238577656540000017580984991271009207_);fill:#FFFCF3;}
	.st28{clip-path:url(#SVGID_00000083778549238577656540000017580984991271009207_);fill:#FFFCF2;}
	.st29{clip-path:url(#SVGID_00000083778549238577656540000017580984991271009207_);fill:#FFFCF1;}
	.st30{clip-path:url(#SVGID_00000083778549238577656540000017580984991271009207_);fill:#FFFCF0;}
	.st31{clip-path:url(#SVGID_00000083778549238577656540000017580984991271009207_);fill:#FFFBEF;}
	.st32{clip-path:url(#SVGID_00000083778549238577656540000017580984991271009207_);fill:#FFFBEE;}
	.st33{clip-path:url(#SVGID_00000083778549238577656540000017580984991271009207_);fill:#FFFBED;}
	.st34{clip-path:url(#SVGID_00000083778549238577656540000017580984991271009207_);fill:#FFFBEC;}
	.st35{clip-path:url(#SVGID_00000083778549238577656540000017580984991271009207_);fill:#FFFBEB;}
	.st36{clip-path:url(#SVGID_00000083778549238577656540000017580984991271009207_);fill:#FFFAEA;}
	.st37{clip-path:url(#SVGID_00000083778549238577656540000017580984991271009207_);fill:#FFFAE9;}
	.st38{clip-path:url(#SVGID_00000083778549238577656540000017580984991271009207_);fill:#FFFAE8;}
	.st39{clip-path:url(#SVGID_00000083778549238577656540000017580984991271009207_);fill:#FFFAE7;}
	.st40{clip-path:url(#SVGID_00000083778549238577656540000017580984991271009207_);fill:#FFF9E6;}
	.st41{clip-path:url(#SVGID_00000083778549238577656540000017580984991271009207_);fill:#FFF9E5;}
	.st42{clip-path:url(#SVGID_00000083778549238577656540000017580984991271009207_);fill:#FFF9E4;}
	.st43{clip-path:url(#SVGID_00000083778549238577656540000017580984991271009207_);fill:#FFF9E3;}
	.st44{clip-path:url(#SVGID_00000083778549238577656540000017580984991271009207_);fill:#FFF9E2;}
	.st45{clip-path:url(#SVGID_00000083778549238577656540000017580984991271009207_);fill:#FFF8E1;}
	.st46{clip-path:url(#SVGID_00000083778549238577656540000017580984991271009207_);fill:#FFF8E0;}
	.st47{clip-path:url(#SVGID_00000083778549238577656540000017580984991271009207_);fill:#FFF8DF;}
	.st48{clip-path:url(#SVGID_00000083778549238577656540000017580984991271009207_);fill:#FFF8DE;}
	.st49{clip-path:url(#SVGID_00000083778549238577656540000017580984991271009207_);fill:#FFF7DD;}
	.st50{clip-path:url(#SVGID_00000083778549238577656540000017580984991271009207_);fill:#FFF7DC;}
	.st51{clip-path:url(#SVGID_00000083778549238577656540000017580984991271009207_);fill:#FFF7DB;}
	.st52{clip-path:url(#SVGID_00000083778549238577656540000017580984991271009207_);fill:#FFF7DA;}
	.st53{clip-path:url(#SVGID_00000083778549238577656540000017580984991271009207_);fill:#FFF7D9;}
	.st54{clip-path:url(#SVGID_00000083778549238577656540000017580984991271009207_);fill:#FFF6D8;}
	.st55{clip-path:url(#SVGID_00000083778549238577656540000017580984991271009207_);fill:#FFF6D7;}
	.st56{clip-path:url(#SVGID_00000083778549238577656540000017580984991271009207_);fill:#FFF6D6;}
	.st57{clip-path:url(#SVGID_00000083778549238577656540000017580984991271009207_);fill:#FFF6D5;}
	.st58{clip-path:url(#SVGID_00000083778549238577656540000017580984991271009207_);fill:#FFF5D4;}
	.st59{clip-path:url(#SVGID_00000083778549238577656540000017580984991271009207_);fill:#FFF5D3;}
	.st60{clip-path:url(#SVGID_00000083778549238577656540000017580984991271009207_);fill:#FFF5D2;}
	.st61{clip-path:url(#SVGID_00000083778549238577656540000017580984991271009207_);fill:#FFF5D1;}
	.st62{clip-path:url(#SVGID_00000083778549238577656540000017580984991271009207_);fill:#FFF5D0;}
	.st63{clip-path:url(#SVGID_00000083778549238577656540000017580984991271009207_);fill:#FFF4CF;}
	.st64{clip-path:url(#SVGID_00000083778549238577656540000017580984991271009207_);fill:#FFF4CE;}
	.st65{clip-path:url(#SVGID_00000083778549238577656540000017580984991271009207_);fill:#FFF4CD;}
	.st66{clip-path:url(#SVGID_00000083778549238577656540000017580984991271009207_);fill:#FFF4CC;}
	.st67{clip-path:url(#SVGID_00000083778549238577656540000017580984991271009207_);fill:#FFF3CB;}
	.st68{clip-path:url(#SVGID_00000083778549238577656540000017580984991271009207_);fill:#FFF3CA;}
	.st69{clip-path:url(#SVGID_00000083778549238577656540000017580984991271009207_);fill:#FFF3C9;}
	.st70{clip-path:url(#SVGID_00000083778549238577656540000017580984991271009207_);fill:#FFF3C8;}
	.st71{clip-path:url(#SVGID_00000083778549238577656540000017580984991271009207_);fill:#FFF3C7;}
	.st72{clip-path:url(#SVGID_00000083778549238577656540000017580984991271009207_);fill:#FFF2C6;}
	.st73{clip-path:url(#SVGID_00000083778549238577656540000017580984991271009207_);fill:#FFF2C5;}
	.st74{clip-path:url(#SVGID_00000083778549238577656540000017580984991271009207_);fill:#FFF2C4;}
	.st75{clip-path:url(#SVGID_00000083778549238577656540000017580984991271009207_);fill:#FFF2C3;}
	.st76{clip-path:url(#SVGID_00000083778549238577656540000017580984991271009207_);fill:#FFF1C2;}
	.st77{clip-path:url(#SVGID_00000083778549238577656540000017580984991271009207_);fill:#FFF1C1;}
	.st78{clip-path:url(#SVGID_00000083778549238577656540000017580984991271009207_);fill:#FFF1C0;}
	.st79{clip-path:url(#SVGID_00000083778549238577656540000017580984991271009207_);fill:#FFF1BF;}
	.st80{clip-path:url(#SVGID_00000083778549238577656540000017580984991271009207_);fill:#FFF1BE;}
	.st81{clip-path:url(#SVGID_00000083778549238577656540000017580984991271009207_);fill:#FFF0BD;}
	.st82{clip-path:url(#SVGID_00000083778549238577656540000017580984991271009207_);fill:#FFF0BC;}
	.st83{clip-path:url(#SVGID_00000083778549238577656540000017580984991271009207_);fill:#FFF0BB;}
	.st84{clip-path:url(#SVGID_00000083778549238577656540000017580984991271009207_);fill:#FFF0BA;}
	.st85{clip-path:url(#SVGID_00000083778549238577656540000017580984991271009207_);fill:#FFEFB9;}
	.st86{clip-path:url(#SVGID_00000083778549238577656540000017580984991271009207_);fill:#FFEFB8;}
	.st87{clip-path:url(#SVGID_00000083778549238577656540000017580984991271009207_);fill:#FFEFB7;}
	.st88{clip-path:url(#SVGID_00000083778549238577656540000017580984991271009207_);fill:#FFEFB6;}
	.st89{clip-path:url(#SVGID_00000083778549238577656540000017580984991271009207_);fill:#FFEFB5;}
	.st90{clip-path:url(#SVGID_00000083778549238577656540000017580984991271009207_);fill:#FFEEB4;}
	.st91{clip-path:url(#SVGID_00000083778549238577656540000017580984991271009207_);fill:#FFEEB3;}
	.st92{clip-path:url(#SVGID_00000083778549238577656540000017580984991271009207_);fill:#FFEEB2;}
	.st93{clip-path:url(#SVGID_00000083778549238577656540000017580984991271009207_);fill:#FFEEB1;}
	.st94{clip-path:url(#SVGID_00000083778549238577656540000017580984991271009207_);fill:#FFEDB0;}
	.st95{clip-path:url(#SVGID_00000083778549238577656540000017580984991271009207_);fill:#FFEDAF;}
	.st96{clip-path:url(#SVGID_00000083778549238577656540000017580984991271009207_);fill:#FFEDAE;}
	.st97{clip-path:url(#SVGID_00000083778549238577656540000017580984991271009207_);fill:#FFEDAD;}
	.st98{clip-path:url(#SVGID_00000083778549238577656540000017580984991271009207_);fill:#FFEDAC;}
	.st99{clip-path:url(#SVGID_00000083778549238577656540000017580984991271009207_);fill:#FFECAB;}
	.st100{clip-path:url(#SVGID_00000083778549238577656540000017580984991271009207_);fill:#FFECAA;}
	.st101{clip-path:url(#SVGID_00000083778549238577656540000017580984991271009207_);fill:#FFECA9;}
	.st102{clip-path:url(#SVGID_00000083778549238577656540000017580984991271009207_);fill:#FFECA8;}
	.st103{clip-path:url(#SVGID_00000083778549238577656540000017580984991271009207_);fill:#FFEBA7;}
	.st104{clip-path:url(#SVGID_00000083778549238577656540000017580984991271009207_);fill:#FFEBA6;}
	.st105{clip-path:url(#SVGID_00000083778549238577656540000017580984991271009207_);fill:#FFEBA5;}
	.st106{clip-path:url(#SVGID_00000083778549238577656540000017580984991271009207_);fill:#FFEBA4;}
	.st107{clip-path:url(#SVGID_00000083778549238577656540000017580984991271009207_);fill:#FFEBA3;}
	.st108{clip-path:url(#SVGID_00000083778549238577656540000017580984991271009207_);fill:#FFEAA2;}
	.st109{clip-path:url(#SVGID_00000083778549238577656540000017580984991271009207_);fill:#FFEAA1;}
	.st110{clip-path:url(#SVGID_00000083778549238577656540000017580984991271009207_);fill:#FFEAA0;}
	.st111{clip-path:url(#SVGID_00000083778549238577656540000017580984991271009207_);fill:#FFEA9F;}
	.st112{clip-path:url(#SVGID_00000083778549238577656540000017580984991271009207_);fill:#FFE99E;}
	.st113{clip-path:url(#SVGID_00000083778549238577656540000017580984991271009207_);fill:#FFE99D;}
	.st114{clip-path:url(#SVGID_00000083778549238577656540000017580984991271009207_);fill:#FFE99C;}
	.st115{clip-path:url(#SVGID_00000083778549238577656540000017580984991271009207_);fill:#FFE99B;}
	.st116{clip-path:url(#SVGID_00000083778549238577656540000017580984991271009207_);fill:#FFE99A;}
	.st117{clip-path:url(#SVGID_00000083778549238577656540000017580984991271009207_);fill:#FFE899;}
	.st118{clip-path:url(#SVGID_00000083778549238577656540000017580984991271009207_);fill:#FFE898;}
	.st119{clip-path:url(#SVGID_00000083778549238577656540000017580984991271009207_);fill:#FFE897;}
	.st120{clip-path:url(#SVGID_00000083778549238577656540000017580984991271009207_);fill:#FFE896;}
	.st121{clip-path:url(#SVGID_00000083778549238577656540000017580984991271009207_);fill:#FFE795;}
	.st122{clip-path:url(#SVGID_00000083778549238577656540000017580984991271009207_);fill:#FFE794;}
	.st123{clip-path:url(#SVGID_00000083778549238577656540000017580984991271009207_);fill:#FFE793;}
	.st124{clip-path:url(#SVGID_00000083778549238577656540000017580984991271009207_);fill:#FFE792;}
	.st125{clip-path:url(#SVGID_00000083778549238577656540000017580984991271009207_);fill:#FFE791;}
	.st126{clip-path:url(#SVGID_00000083778549238577656540000017580984991271009207_);fill:#FFE690;}
	.st127{clip-path:url(#SVGID_00000083778549238577656540000017580984991271009207_);fill:#FFE68F;}
	.st128{clip-path:url(#SVGID_00000083778549238577656540000017580984991271009207_);fill:#FFE68E;}
	.st129{clip-path:url(#SVGID_00000083778549238577656540000017580984991271009207_);fill:#FFE68D;}
	.st130{clip-path:url(#SVGID_00000083778549238577656540000017580984991271009207_);fill:#FFE68C;}
	.st131{clip-path:url(#SVGID_00000083778549238577656540000017580984991271009207_);fill:#FFE58A;}
	.st132{clip-path:url(#SVGID_00000083778549238577656540000017580984991271009207_);fill:#FFE589;}
	.st133{clip-path:url(#SVGID_00000083778549238577656540000017580984991271009207_);fill:#FFE588;}
	.st134{clip-path:url(#SVGID_00000083778549238577656540000017580984991271009207_);fill:#FFE587;}
	.st135{clip-path:url(#SVGID_00000083778549238577656540000017580984991271009207_);fill:#FFE486;}
	.st136{clip-path:url(#SVGID_00000083778549238577656540000017580984991271009207_);fill:#FFE485;}
	.st137{clip-path:url(#SVGID_00000083778549238577656540000017580984991271009207_);fill:#FFE484;}
	.st138{clip-path:url(#SVGID_00000083778549238577656540000017580984991271009207_);fill:#FFE483;}
	.st139{clip-path:url(#SVGID_00000083778549238577656540000017580984991271009207_);fill:#FFE482;}
	.st140{clip-path:url(#SVGID_00000083778549238577656540000017580984991271009207_);fill:#FFE381;}
	.st141{clip-path:url(#SVGID_00000083778549238577656540000017580984991271009207_);fill:#FFE380;}
	.st142{clip-path:url(#SVGID_00000083778549238577656540000017580984991271009207_);fill:#FFE37F;}
	.st143{clip-path:url(#SVGID_00000083778549238577656540000017580984991271009207_);fill:#FFE37E;}
	.st144{clip-path:url(#SVGID_00000083778549238577656540000017580984991271009207_);fill:#FFE27D;}
	.st145{clip-path:url(#SVGID_00000083778549238577656540000017580984991271009207_);fill:#FFE27C;}
	.st146{clip-path:url(#SVGID_00000083778549238577656540000017580984991271009207_);fill:#FFE27B;}
	.st147{clip-path:url(#SVGID_00000083778549238577656540000017580984991271009207_);fill:#FFE27A;}
	.st148{clip-path:url(#SVGID_00000083778549238577656540000017580984991271009207_);fill:#FFE279;}
	.st149{clip-path:url(#SVGID_00000083778549238577656540000017580984991271009207_);fill:#FFE178;}
	.st150{clip-path:url(#SVGID_00000083778549238577656540000017580984991271009207_);fill:#FFE177;}
	.st151{clip-path:url(#SVGID_00000083778549238577656540000017580984991271009207_);fill:#FFE176;}
	.st152{clip-path:url(#SVGID_00000083778549238577656540000017580984991271009207_);fill:#FFE175;}
	.st153{clip-path:url(#SVGID_00000083778549238577656540000017580984991271009207_);fill:#FFE074;}
	.st154{clip-path:url(#SVGID_00000083778549238577656540000017580984991271009207_);fill:#FFE073;}
	.st155{clip-path:url(#SVGID_00000083778549238577656540000017580984991271009207_);fill:#FFE072;}
	.st156{clip-path:url(#SVGID_00000083778549238577656540000017580984991271009207_);fill:#FFE071;}
	.st157{clip-path:url(#SVGID_00000083778549238577656540000017580984991271009207_);fill:#FFE070;}
	.st158{clip-path:url(#SVGID_00000083778549238577656540000017580984991271009207_);fill:#FFDF6F;}
	.st159{clip-path:url(#SVGID_00000083778549238577656540000017580984991271009207_);fill:#FFDF6E;}
	.st160{clip-path:url(#SVGID_00000083778549238577656540000017580984991271009207_);fill:#FFDF6D;}
	.st161{clip-path:url(#SVGID_00000083778549238577656540000017580984991271009207_);fill:#FFDF6C;}
	.st162{clip-path:url(#SVGID_00000083778549238577656540000017580984991271009207_);fill:#FFDE6B;}
	.st163{clip-path:url(#SVGID_00000083778549238577656540000017580984991271009207_);fill:#FFDE6A;}
	.st164{clip-path:url(#SVGID_00000083778549238577656540000017580984991271009207_);fill:#FFDE69;}
	.st165{clip-path:url(#SVGID_00000083778549238577656540000017580984991271009207_);fill:#FFDE68;}
	.st166{clip-path:url(#SVGID_00000083778549238577656540000017580984991271009207_);fill:#FFDE67;}
	.st167{clip-path:url(#SVGID_00000083778549238577656540000017580984991271009207_);fill:#FFDD66;}
	.st168{clip-path:url(#SVGID_00000083778549238577656540000017580984991271009207_);fill:#FFDD65;}
	.st169{clip-path:url(#SVGID_00000083778549238577656540000017580984991271009207_);fill:#FFDD64;}
	.st170{clip-path:url(#SVGID_00000083778549238577656540000017580984991271009207_);fill:#FFDD63;}
	.st171{clip-path:url(#SVGID_00000083778549238577656540000017580984991271009207_);fill:#FFDC62;}
	.st172{clip-path:url(#SVGID_00000083778549238577656540000017580984991271009207_);fill:#FFDC61;}
	.st173{clip-path:url(#SVGID_00000083778549238577656540000017580984991271009207_);fill:#FFDC60;}
	.st174{clip-path:url(#SVGID_00000083778549238577656540000017580984991271009207_);fill:#FFDC5F;}
	.st175{clip-path:url(#SVGID_00000083778549238577656540000017580984991271009207_);fill:#FFDC5E;}
	.st176{clip-path:url(#SVGID_00000083778549238577656540000017580984991271009207_);fill:#FFDB5D;}
	.st177{clip-path:url(#SVGID_00000083778549238577656540000017580984991271009207_);fill:#FFDB5C;}
	.st178{clip-path:url(#SVGID_00000083778549238577656540000017580984991271009207_);fill:#FFDB5B;}
	.st179{clip-path:url(#SVGID_00000083778549238577656540000017580984991271009207_);fill:#FFDB5A;}
	.st180{clip-path:url(#SVGID_00000083778549238577656540000017580984991271009207_);fill:#FFDA59;}
	.st181{clip-path:url(#SVGID_00000083778549238577656540000017580984991271009207_);fill:#FFDA58;}
	.st182{clip-path:url(#SVGID_00000083778549238577656540000017580984991271009207_);fill:#FFDA57;}
	.st183{clip-path:url(#SVGID_00000083778549238577656540000017580984991271009207_);fill:#FFDA56;}
	.st184{clip-path:url(#SVGID_00000083778549238577656540000017580984991271009207_);fill:#FFDA55;}
	.st185{clip-path:url(#SVGID_00000083778549238577656540000017580984991271009207_);fill:#FFD954;}
	.st186{clip-path:url(#SVGID_00000083778549238577656540000017580984991271009207_);fill:#FFD953;}
	.st187{clip-path:url(#SVGID_00000083778549238577656540000017580984991271009207_);fill:#FFD952;}
	.st188{clip-path:url(#SVGID_00000083778549238577656540000017580984991271009207_);fill:#FFD951;}
	.st189{clip-path:url(#SVGID_00000083778549238577656540000017580984991271009207_);fill:#FFD850;}
	.st190{clip-path:url(#SVGID_00000083778549238577656540000017580984991271009207_);fill:#FFD84F;}
	.st191{clip-path:url(#SVGID_00000083778549238577656540000017580984991271009207_);fill:#FFD84E;}
	.st192{clip-path:url(#SVGID_00000083778549238577656540000017580984991271009207_);fill:#FFD84D;}
	.st193{clip-path:url(#SVGID_00000083778549238577656540000017580984991271009207_);fill:#FFD84C;}
	.st194{clip-path:url(#SVGID_00000083778549238577656540000017580984991271009207_);fill:#FFD74B;}
	.st195{clip-path:url(#SVGID_00000083778549238577656540000017580984991271009207_);fill:#FFD74A;}
	.st196{clip-path:url(#SVGID_00000083778549238577656540000017580984991271009207_);fill:#FFD749;}
	.st197{clip-path:url(#SVGID_00000083778549238577656540000017580984991271009207_);fill:#FFD748;}
	.st198{clip-path:url(#SVGID_00000083778549238577656540000017580984991271009207_);fill:#FFD647;}
	.st199{clip-path:url(#SVGID_00000083778549238577656540000017580984991271009207_);fill:#FFD646;}
	.st200{clip-path:url(#SVGID_00000083778549238577656540000017580984991271009207_);fill:#FFD645;}
	.st201{clip-path:url(#SVGID_00000083778549238577656540000017580984991271009207_);fill:#FFD644;}
	.st202{clip-path:url(#SVGID_00000083778549238577656540000017580984991271009207_);fill:#FFD643;}
	.st203{clip-path:url(#SVGID_00000083778549238577656540000017580984991271009207_);fill:#FFD542;}
	.st204{clip-path:url(#SVGID_00000083778549238577656540000017580984991271009207_);fill:#FFD541;}
	.st205{clip-path:url(#SVGID_00000083778549238577656540000017580984991271009207_);fill:#FFD540;}
	.st206{clip-path:url(#SVGID_00000083778549238577656540000017580984991271009207_);fill:#FFD53F;}
	.st207{clip-path:url(#SVGID_00000083778549238577656540000017580984991271009207_);fill:#FFD43E;}
	.st208{clip-path:url(#SVGID_00000083778549238577656540000017580984991271009207_);fill:#FFD43D;}
	.st209{clip-path:url(#SVGID_00000083778549238577656540000017580984991271009207_);fill:#FFD43C;}
	.st210{clip-path:url(#SVGID_00000083778549238577656540000017580984991271009207_);fill:#FFD43B;}
	.st211{clip-path:url(#SVGID_00000083778549238577656540000017580984991271009207_);fill:#FFD43A;}
	.st212{clip-path:url(#SVGID_00000083778549238577656540000017580984991271009207_);fill:#FFD339;}
	.st213{clip-path:url(#SVGID_00000083778549238577656540000017580984991271009207_);fill:#FFD338;}
	.st214{clip-path:url(#SVGID_00000083778549238577656540000017580984991271009207_);fill:#FFD337;}
	.st215{clip-path:url(#SVGID_00000083778549238577656540000017580984991271009207_);fill:#FFD336;}
	.st216{clip-path:url(#SVGID_00000083778549238577656540000017580984991271009207_);fill:#FFD235;}
	.st217{clip-path:url(#SVGID_00000083778549238577656540000017580984991271009207_);fill:#FFD234;}
	.st218{clip-path:url(#SVGID_00000083778549238577656540000017580984991271009207_);fill:#FFD233;}
	.st219{clip-path:url(#SVGID_00000083778549238577656540000017580984991271009207_);fill:#FFD232;}
	.st220{clip-path:url(#SVGID_00000083778549238577656540000017580984991271009207_);fill:#FFD231;}
	.st221{clip-path:url(#SVGID_00000083778549238577656540000017580984991271009207_);fill:#FFD130;}
	.st222{clip-path:url(#SVGID_00000083778549238577656540000017580984991271009207_);fill:#FFD12F;}
	.st223{clip-path:url(#SVGID_00000083778549238577656540000017580984991271009207_);fill:#FFD12E;}
	.st224{clip-path:url(#SVGID_00000083778549238577656540000017580984991271009207_);fill:#FFD12D;}
	.st225{clip-path:url(#SVGID_00000083778549238577656540000017580984991271009207_);fill:#FFD02C;}
	.st226{clip-path:url(#SVGID_00000083778549238577656540000017580984991271009207_);fill:#FFD02B;}
	.st227{clip-path:url(#SVGID_00000083778549238577656540000017580984991271009207_);fill:#FFD02A;}
	.st228{clip-path:url(#SVGID_00000083778549238577656540000017580984991271009207_);fill:#FFD029;}
	.st229{clip-path:url(#SVGID_00000083778549238577656540000017580984991271009207_);fill:#FFD028;}
	.st230{clip-path:url(#SVGID_00000083778549238577656540000017580984991271009207_);fill:#FFCF27;}
	.st231{clip-path:url(#SVGID_00000083778549238577656540000017580984991271009207_);fill:#FFCF26;}
	.st232{clip-path:url(#SVGID_00000083778549238577656540000017580984991271009207_);fill:#FFCF25;}
	.st233{clip-path:url(#SVGID_00000083778549238577656540000017580984991271009207_);fill:#FFCF24;}
	.st234{clip-path:url(#SVGID_00000083778549238577656540000017580984991271009207_);fill:#FFCE23;}
	.st235{clip-path:url(#SVGID_00000083778549238577656540000017580984991271009207_);fill:#FFCE22;}
	.st236{clip-path:url(#SVGID_00000083778549238577656540000017580984991271009207_);fill:#FFCE21;}
	.st237{clip-path:url(#SVGID_00000083778549238577656540000017580984991271009207_);fill:#FFCE20;}
	.st238{clip-path:url(#SVGID_00000083778549238577656540000017580984991271009207_);fill:#FFCE1F;}
	.st239{clip-path:url(#SVGID_00000083778549238577656540000017580984991271009207_);fill:#FFCD1E;}
	.st240{clip-path:url(#SVGID_00000083778549238577656540000017580984991271009207_);fill:#FFCD1D;}
	.st241{clip-path:url(#SVGID_00000083778549238577656540000017580984991271009207_);fill:#FFCD1C;}
	.st242{clip-path:url(#SVGID_00000083778549238577656540000017580984991271009207_);fill:#FFCD1B;}
	.st243{clip-path:url(#SVGID_00000083778549238577656540000017580984991271009207_);fill:#FFCC1A;}
	.st244{clip-path:url(#SVGID_00000083778549238577656540000017580984991271009207_);fill:#FFCC19;}
	.st245{clip-path:url(#SVGID_00000083778549238577656540000017580984991271009207_);fill:#FFCC18;}
	.st246{fill:#584B42;}
	.st247{fill:#DEC3A6;}
	.st248{fill:#FFEAB9;}
	.st249{fill:#BEF9FF;}
	.st250{fill:#FFCC18;}
	.st251{fill:#B973FA;}
	.st252{fill:#E285B5;}
	.st253{fill:#ACACAC;}
	.st254{fill:#D4D4D4;}
	.st255{fill:#FEE63C;}
	.st256{fill:#FFAB30;}
	.st257{fill:#1C1C1C;}
	.st258{fill:#B3E7C9;}
	.st259{fill:#66CC99;}
	.st260{fill:#F9EB67;}
	.st261{fill:#F7A631;}
	.st262{fill:#4ED18B;}
	.st263{fill:#299C60;}
	.st264{fill:#00C6FF;}
	.st265{fill:#6600D0;}
	.st266{fill:#F59F00;}
	.st267{fill:#51D5FF;}
	.st268{fill:#00D096;}
	.st269{fill:#FE263B;}
	.st270{fill:#7B36FF;}
</style>
<g id="레이어_1">
</g>
<g id="레이어_2">
	<g>
		<g>
			<g>
				<path d="M740.8,782.3c-0.2-3.3-0.9-6.5-2.3-9.6L715.6,751l-9.3,43.3l-418.7,18.6l-18.1-17.8c4,8.8,12.8,17,26.1,24.4
					c19.5,10.8,48.9,19.6,87.6,25.5c30.1,4.6,65.8,7.4,106.9,7.9c3,0,6.1,0.1,9.2,0.1c1.6,0,3.1,0,4.7,0c1.5,0,3,0,4.5,0
					c26.9-0.1,51.3-1.1,73.5-2.9c48.8-3.9,86.1-11.5,112.4-21.7c24.3-9.4,39-20.9,44.3-33.6c1.4-3.3,2.1-6.6,2.3-10
					c0-0.4,0-0.8,0-1.2C740.8,783.2,740.8,782.8,740.8,782.3z"/>
			</g>
		</g>
		<g>
			<g>
				<g>
					<path class="st255" d="M953,129c0-6.4-13.3-11.8-31.7-13.6c-1.8-18.4-7.2-31.7-13.6-31.7c-6.4,0-11.8,13.3-13.6,31.7
						c-18.4,1.8-31.7,7.2-31.7,13.6c0,6.4,13.3,11.8,31.7,13.6c1.8,18.4,7.2,31.7,13.6,31.7c6.4,0,11.8-13.3,13.6-31.7
						C939.6,140.8,953,135.4,953,129z"/>
				</g>
			</g>
			<g>
				<g>
					<path class="st266" d="M907.6,179.3c-12.2,0-16.6-21.2-18.1-32.2c-11-1.5-32.2-5.9-32.2-18.1s21.2-16.6,32.2-18.1
						c1.5-11,5.9-32.2,18.1-32.2c12.2,0,16.6,21.2,18.1,32.2c11,1.5,32.2,5.9,32.2,18.1s-21.2,16.6-32.2,18.1
						C924.3,158.1,919.8,179.3,907.6,179.3z M867.3,129c0.7,1.7,8.3,6.8,27.2,8.6c2.4,0.2,4.2,2.1,4.5,4.5c1.9,18.9,7,26.5,8.6,27.2
						c1.7-0.7,6.8-8.3,8.6-27.2c0.2-2.4,2.1-4.2,4.5-4.5c18.9-1.9,26.5-7,27.2-8.6c-0.7-1.7-8.3-6.8-27.2-8.6
						c-2.4-0.2-4.2-2.1-4.5-4.5c-1.9-18.9-7-26.5-8.6-27.2c-1.7,0.7-6.8,8.3-8.6,27.2c-0.2,2.4-2.1,4.2-4.5,4.5
						C875.6,122.2,868,127.3,867.3,129z M948,129.1L948,129.1L948,129.1z"/>
				</g>
			</g>
			<g>
				<g>
					<path class="st255" d="M183.1,325.5c0-9.1-19-16.8-45.2-19.4c-2.6-26.2-10.3-45.2-19.4-45.2s-16.8,19-19.4,45.2
						c-26.2,2.6-45.2,10.3-45.2,19.4s19,16.8,45.2,19.4c2.6,26.2,10.3,45.2,19.4,45.2s16.8-19,19.4-45.2
						C164.1,342.3,183.1,334.6,183.1,325.5z"/>
				</g>
			</g>
			<g>
				<g>
					<path class="st255" d="M111.5,103.2c0-6.4-13.3-11.8-31.7-13.6c-1.8-18.4-7.2-31.7-13.6-31.7S54.3,71.2,52.5,89.6
						c-18.4,1.8-31.7,7.2-31.7,13.6c0,6.4,13.3,11.8,31.7,13.6c1.8,18.4,7.2,31.7,13.6,31.7s11.8-13.3,13.6-31.7
						C98.1,115,111.5,109.6,111.5,103.2z"/>
				</g>
			</g>
			<g>
				<g>
					<circle class="st255" cx="27.3" cy="279.1" r="18.3"/>
				</g>
			</g>
			<g>
				<g>
					<path d="M250.4,183.3l27.4,42.8c2.6,3.9,3.5,6.7,2.9,8.6c-0.6,1.9-2.2,3.6-4.8,5.2l-29.2,17.9c-3.1,1.9-5.6,2.6-7.5,2
						c-1.8-0.6-4-2.8-6.6-6.6l-81.7-128.6c-2.6-3.9-3.6-7-3.1-9.5c0.5-2.4,2.5-4.7,6-6.9l80.6-49.5c2.9-1.8,5.3-2.5,7.3-2.2
						c2,0.3,3.9,1.8,5.7,4.7l16,26.1c1.7,2.7,2.2,5.1,1.5,7.1c-0.7,2-2.4,3.9-5.3,5.6l-44.9,27.6l10.7,17l37.6-23.1
						c2.9-1.8,5.3-2.5,7.3-2.3c2,0.3,3.9,1.8,5.7,4.7l14.8,24.1c1.8,2.9,2.3,5.3,1.6,7.2c-0.7,1.9-2.5,3.8-5.3,5.5L250.4,183.3z"/>
				</g>
				<g>
					<path d="M444.6,132.4c3.3-0.6,5.8-0.5,7.7,0.4c1.8,0.9,3,3.1,3.7,6.4l5.9,29.8c0.6,3.3,0.3,5.8-1,7.4c-1.3,1.6-3.6,2.8-6.9,3.4
						l-94.7,18.7c-4.1,0.8-7,0.4-8.9-1.1c-1.8-1.5-3.3-4.6-4.4-9.3L314.2,40.7c-1.1-4.5-0.9-7.8,0.4-10c1.3-2.1,4-3.6,8-4.4l30.6-6
						c4.1-0.8,7-0.4,8.8,1.1c1.8,1.5,3.2,4.5,4.2,9.1l25.1,112.5L444.6,132.4z"/>
				</g>
				<g>
					<path d="M538.6,120.4l-1.6,16.7l45.7,5.6c3.3,0.4,5.7,1.4,7.1,2.9c1.4,1.5,1.9,3.9,1.6,7.1l-3.7,30.2c-0.4,3.3-1.5,5.6-3.2,6.7
						c-1.8,1.2-4.3,1.5-7.6,1.1L490,180.2c-4.1-0.5-6.8-1.8-8-3.8c-1.2-2-1.6-5.4-1.2-10.2L497,16.2c0.4-4.6,1.5-7.7,3.4-9.4
						c1.9-1.6,4.9-2.2,9-1.7l96.3,11.8c3.3,0.4,5.7,1.3,7.1,2.8c1.4,1.5,1.9,3.9,1.5,7.2l-3.7,30.4c-0.4,3.2-1.5,5.3-3.2,6.5
						c-1.8,1.2-4.3,1.5-7.6,1.1L545,58.2l-1.5,14.1l46.4,5.7c3.3,0.4,5.7,1.3,7.1,2.8c1.4,1.5,1.9,3.9,1.5,7.2l-3.7,30.4
						c-0.4,3.3-1.5,5.5-3.2,6.6c-1.7,1.1-4.3,1.4-7.6,1L538.6,120.4z"/>
				</g>
				<g>
					<path d="M677.2,58.4c-0.4-3.5,0.2-5.9,1.9-7c1.7-1.2,3.8-1.5,6.5-1.1l35.2,4.4c2.9,0.4,4.9,1.2,5.9,2.6c1,1.4,1.8,3.8,2.3,7.2
						l7,50.6l47.1-20.2c3.1-1.3,5.6-1.9,7.4-1.7c1.8,0.2,3.6,1.4,5.4,3.8l22,27.8c1.8,2.1,2.6,4.2,2.5,6.2c-0.1,2.1-1.8,3.8-5.1,5.2
						l-72,31.8l11,79.1c1,7-1.3,10.3-6.9,9.9l-37.2-2.8c-2.5-0.1-4.4-0.8-5.7-2.1c-1.3-1.3-2.2-3.7-2.8-7.3l-7.4-55.3l-51.1,22.4
						c-3.4,1.4-5.9,1.9-7.7,1.4c-1.8-0.4-3.3-1.7-4.7-3.8l-21.7-30.3c-3.3-4.6-1.7-8.3,4.8-11l73.4-31.8L677.2,58.4z"/>
				</g>
			</g>
			<g>
				<g>
					<path class="st266" d="M118.4,395.1c-16.3,0-22.1-31.1-23.9-45.7c-14.6-1.8-45.7-7.6-45.7-23.9c0-16.3,31.1-22.1,45.7-23.9
						c1.8-14.6,7.6-45.7,23.9-45.7c16.3,0,22.1,31.1,23.9,45.7c14.6,1.8,45.7,7.6,45.7,23.9c0,16.3-31.1,22.1-45.7,23.9
						C140.6,364,134.8,395.1,118.4,395.1z M118.4,265.8c-3.6,0-11.6,11.9-14.4,40.7c-0.2,2.4-2.1,4.2-4.5,4.5
						c-28.8,2.9-40.7,10.8-40.7,14.4c0,3.6,11.9,11.6,40.7,14.4c2.4,0.2,4.2,2.1,4.5,4.5c2.9,28.8,10.8,40.7,14.4,40.7
						c3.6,0,11.6-11.9,14.4-40.7c0.2-2.4,2.1-4.2,4.5-4.5c28.8-2.9,40.7-10.8,40.7-14.4c0-3.6-11.9-11.6-40.7-14.4
						c-2.4-0.2-4.2-2.1-4.5-4.5C130,277.7,122.1,265.8,118.4,265.8z"/>
				</g>
			</g>
			<g>
				<g>
					<path class="st266" d="M66.1,153.5c-12.2,0-16.6-21.2-18.1-32.2c-11-1.5-32.2-5.9-32.2-18.1S37,86.6,48,85.1
						c1.5-11,5.9-32.2,18.1-32.2s16.6,21.2,18.1,32.2c11,1.5,32.2,5.9,32.2,18.1s-21.2,16.6-32.2,18.1
						C82.8,132.3,78.3,153.5,66.1,153.5z M25.8,103.2c0.7,1.7,8.3,6.8,27.2,8.6c2.4,0.2,4.2,2.1,4.5,4.5c1.9,18.9,7,26.5,8.6,27.2
						c1.7-0.7,6.8-8.3,8.6-27.2c0.2-2.4,2.1-4.2,4.5-4.5c18.9-1.9,26.5-7,27.2-8.6c-0.7-1.7-8.3-6.8-27.2-8.6
						c-2.4-0.2-4.2-2.1-4.5-4.5c-1.9-18.9-7-26.5-8.6-27.2c-1.7,0.7-6.8,8.3-8.6,27.2c-0.2,2.4-2.1,4.2-4.5,4.5
						C34.1,96.4,26.5,101.5,25.8,103.2z M106.5,103.3L106.5,103.3L106.5,103.3z"/>
				</g>
			</g>
			<g>
				<g>
					<path class="st266" d="M27.3,302.5C14.5,302.5,4,292,4,279.1s10.5-23.3,23.3-23.3c12.9,0,23.3,10.5,23.3,23.3
						S40.2,302.5,27.3,302.5z M27.3,265.8c-7.4,0-13.3,6-13.3,13.3s6,13.3,13.3,13.3s13.3-6,13.3-13.3S34.7,265.8,27.3,265.8z"/>
				</g>
			</g>
		</g>
		<g>
			<g>
				<g>
					<path class="st2" d="M383.1,845c-38.7-5.9-68-14.8-87.6-25.5c-5.7,4.5-10.8,9.6-15.3,15.2c-18.4,23.4-25.5,54.3-23.6,84
						c1.1,16.9,4.9,33.5,10.5,49.5c30.4,10.9,65.5,19.5,105.3,25.4c-9.5-20-14.6-42-14.8-64.1C357.5,899.6,366.6,869.8,383.1,845z"
						/>
				</g>
			</g>
			<g>
				<g>
					<path class="st2" d="M789.8,818.4c-11.6-16-32-26.6-51.3-23.6c-5.4,12.7-20.1,24.2-44.3,33.6c16.7,21.2,26,48.3,26.9,75.5
						c0.9,26.6-5.9,53-17.8,76.9c32.9-8.5,61.1-19.2,84.8-31.7c10.6-21.4,16.6-45.1,17.5-69C806.3,858.4,802.5,835.9,789.8,818.4z"
						/>
				</g>
			</g>
			<g>
				<g>
					<path class="st2" d="M581.8,850.1c-22.1,1.8-46.6,2.8-73.5,2.9c-1.5,0-3,0-4.5,0c-1.6,0-3.2,0-4.7,0c-3.1,0-6.1,0-9.2-0.1
						c-12.3,23.7-17.6,51.1-16,77.8c1.4,25,8.5,49.3,19.4,71.9c1,0,2,0,3.1,0c2.5,0,5,0,7.5,0c2.4,0,4.8,0,7.2,0
						c24.9-0.2,48.5-1.1,70.8-2.8c10.6-22.6,16.4-47.4,16.7-72.3C598.9,900.9,593.1,874.2,581.8,850.1z"/>
				</g>
			</g>
			<g>
				<g>
					<path class="st267" d="M489.9,852.9c-41.1-0.5-76.8-3.3-106.9-7.9c-16.5,24.9-25.5,54.7-25.4,84.5c0.1,22.1,5.3,44.2,14.8,64.1
						c36.4,5.4,76.7,8.5,120.8,8.9c-10.9-22.6-17.9-46.9-19.4-71.9C472.3,903.9,477.6,876.5,489.9,852.9z"/>
				</g>
			</g>
			<g>
				<g>
					<path class="st267" d="M280.2,834.7c4.4-5.6,9.6-10.8,15.3-15.2c-18.3-10.1-28-21.9-28.6-34.6c0-0.4,0-0.8,0-1.2
						c0-0.4,0-0.8,0-1.2c0.4-9,5-17.5,13.9-25.3c-7.5-0.7-15.1-0.8-22.7-0.5c-34,1.8-67.9,15.7-90.3,41.3
						c-16.5,18.9-26.1,43.4-28.1,68.4c-0.2,2.1-0.3,4.1-0.3,6.2c19.9,39,63,72.4,127.8,95.7c-5.6-16-9.4-32.6-10.5-49.5
						C254.7,889,261.9,858.1,280.2,834.7z"/>
				</g>
			</g>
			<g>
				<g>
					<path class="st2" d="M167.8,798c22.4-25.6,56.4-39.5,90.3-41.3c7.6-0.4,15.1-0.2,22.7,0.5c28.4-24.9,100.5-42.4,218.5-42.9
						c1.5,0,3,0,4.5,0c1.6,0,3.2,0,4.7,0c120.3,0.5,196.2,20.1,222.2,47.2c14.8-12.2,31.7-22.1,50.2-26.7c21.3-5.3,45.1-3.1,63.4,9
						c6.8,4.5,12.9,10,18.2,16.3c-43.5-64.7-163.4-103.6-351.2-104.9c-4.9,0-9.8-0.1-14.7,0c-246.8,1.5-367.5,63.6-369.9,162
						c0,1-0.1,2-0.1,3.1c0,1.1,0,2.2,0.1,3.3c0.5,17,4.8,33.4,12.7,48.9c0.1-2.1,0.2-4.1,0.3-6.2C141.7,841.3,151.3,816.8,167.8,798
						z"/>
				</g>
			</g>
			<g>
				<g>
					<path class="st267" d="M881,817c-0.6-20.6-6.8-39.7-18.4-56.9c-5.4-6.3-11.5-11.9-18.2-16.3c-18.3-12.1-42.1-14.3-63.4-9
						c-18.5,4.6-35.4,14.5-50.2,26.7c6.3,6.6,9.7,13.6,10,20.9c0,0.4,0,0.8,0,1.2c0,0.4,0,0.8,0,1.2c-0.1,3.4-0.9,6.8-2.3,10
						c19.3-3,39.6,7.6,51.3,23.6c12.7,17.5,16.5,40,15.7,61.6c-0.8,23.9-6.9,47.6-17.5,69c61-32.3,91.7-76.6,92.9-125.7
						c0-1,0.1-2,0.1-3.1C881,819.2,881,818.1,881,817z"/>
				</g>
			</g>
			<g>
				<g>
					<path class="st267" d="M721,903.9c-0.9-27.1-10.1-54.3-26.9-75.5c-26.2,10.1-63.6,17.8-112.4,21.7
						c11.3,24.1,17.1,50.8,16.7,77.4c-0.4,24.9-6.1,49.7-16.7,72.3c45.8-3.4,86.3-10,121.5-19C715.2,956.9,721.9,930.5,721,903.9z"
						/>
				</g>
			</g>
			<g>
				<g>
					<path d="M336.1,859c9-6.6,19.2-12.7,29.9-16.9c-25.7-4.9-46.5-11.2-62.3-18.5c-1.1,0.4-2.1,0.8-3.1,1.2
						c-28.3,11.3-53.9,29.3-74.1,52c-3.6,4.1-20.9,4-32.3,4.5c3.2,29.2,21.4,42.5,39.4,45.8c18.4,3.4,36.1-4.8,50.2-16
						C303.1,895.6,316.1,873.6,336.1,859z"/>
				</g>
			</g>
		</g>
		<g>
			<g>
				<g>
					<g>
						<path class="st268" d="M1079.2,361.3c4.8,8.6,7.7,18.2,8.5,28.1c-8,18-21.5,33.5-38.4,43.7c-15.6,9.4-33.9,14.2-52.1,13.9
							c-0.7-9-2.3-18-5.3-26.5c-2.8-7.9-6.9-15.5-12.3-22c13.2-2.5,25.5-9.6,36.4-17.7c16-11.8,30.3-26.1,42.1-42.1
							C1066.7,344.4,1074.1,352.2,1079.2,361.3z"/>
					</g>
					<g>
						<path class="st14" d="M999,451.9c-0.6,0-1.3,0-1.9,0c-2.6,0-4.7-2.1-4.9-4.6c-0.7-9.4-2.4-17.7-5-25.2
							c-2.8-7.8-6.6-14.7-11.4-20.4c-1.1-1.4-1.5-3.2-0.9-4.9c0.6-1.7,2-2.9,3.8-3.2c10.6-2,21.8-7.5,34.4-16.8
							c15.7-11.6,29.5-25.4,41-41.1c1.6-2.2,4.6-2.7,6.8-1.2c9.3,6.3,17.2,14.7,22.7,24.4c0,0,0,0,0,0c5.2,9.1,8.3,19.6,9.1,30.2
							c0.1,0.8-0.1,1.6-0.4,2.4c-8.4,19-22.7,35.3-40.3,46C1036.2,446.8,1017.5,451.9,999,451.9z M988,401.4
							c3.5,5.2,6.3,11,8.6,17.3c2.5,7.1,4.2,14.8,5.2,23.2c15.8-0.5,31.6-5.1,44.9-13.1c15.5-9.4,28.2-23.7,35.9-40.3
							c-0.8-8.7-3.5-17.2-7.7-24.7l0,0c-3.9-7-9.3-13.2-15.7-18.2c-11.5,14.9-25,28-40.2,39.2C1008,392.8,997.8,398.3,988,401.4z"/>
					</g>
				</g>
			</g>
			<g>
				<g>
					<g>
						<path class="st268" d="M1318.4,429c5.2,13.5,7.4,28.2,6.3,42.6c-15.3-7.2-36.5-11.3-52.5-9.1c-15,2-29.4,8.3-41.2,17.8
							c0.5-16.8-4.8-30.8-13.1-46.6c11.8-12.2,27.4-20.8,44.1-24.1c11.3-2.2,23-2.1,34.2,0.4C1306.4,412.1,1314.7,419.3,1318.4,429z
							"/>
					</g>
					<g>
						<path class="st14" d="M1231.1,485.3c-0.8,0-1.5-0.2-2.2-0.5c-1.8-0.9-2.8-2.7-2.8-4.6c0.5-16-4.6-29.2-12.5-44.2
							c-1-1.9-0.7-4.2,0.8-5.8c12.6-13,29.2-22.1,46.7-25.6c11.8-2.3,24.3-2.2,36.3,0.4c11.8,2.6,21.4,10.9,25.7,22.2
							c5.4,14.3,7.7,29.8,6.6,44.8c-0.1,1.6-1,3.1-2.5,3.9c-1.4,0.8-3.2,0.9-4.6,0.2c-15.2-7.2-35.2-10.6-49.7-8.7
							c-14.2,1.9-27.6,7.7-38.7,16.7C1233.3,484.9,1232.2,485.3,1231.1,485.3z M1224.1,434.6c5.5,10.8,10.3,22.6,11.6,36.1
							c10.8-7,23.1-11.5,35.9-13.2c14.1-1.9,32.7,0.8,48.4,6.7c0-11.3-2.2-22.7-6.2-33.4v0c-3.1-8.1-10-14.1-18.5-16
							c-10.6-2.3-21.7-2.4-32.2-0.4C1248.6,417.3,1235,424.4,1224.1,434.6z"/>
					</g>
				</g>
			</g>
			<g>
				<g>
					<g>
						<path class="st3" d="M694.6,721.2c54.2-13,91.2-32,138.3-92.3c24.2-11.3,41.9-30.4,47.9-56.4c3.2-13.8,2.9-28.6-2.4-41.7
							s-16-24.3-29.5-28.7c-24.8-8.1-45,8.8-50.4,32.3c-5.1,22.2-161.7,36.2-145.3,52.1L669,712.2L694.6,721.2z"/>
					</g>
				</g>
				<g>
					<g>
						<path class="st2" d="M804.8,560.6c-4.9-3.5-11.1-4.8-17.2-4.9c-15.6-0.2-30.3,7-43.9,14.8c-21.6,12.4-42.7,27.2-55.9,48.3
							c-4.3,6.9-7.8,14.7-8.1,22.9c-0.3,8-1.6,18.6,6.1,18.5l0,0c50.2,1.4,106.3-22,131.5-65.5c0,0,0,0,0,0
							C818.2,583.2,814.1,567.3,804.8,560.6z"/>
					</g>
				</g>
				<g>
					<g>
						<g>
							<path class="st269" d="M929.7,381.7l-37.3,10.2L852,403l-26.6,7.3l-59.1,16.2c-4.3,1.2-7.3,4.9-7.6,9.4l-3.9,66.4l-0.4,6.8
								l-5.3,90.7c18.3,2.7,53.8-10.2,67.3-23.2l2.9-49.8c0.8-12.9,9.7-23.9,22.1-27.3l89.4-24.5c4.3-1.2,7.3-4.9,7.6-9.4l4.3-73.2
								C943.2,385.2,936.6,379.8,929.7,381.7z"/>
						</g>
					</g>
					<g>
						<g>
							<g>
								<g>
									<path class="st14" d="M879.2,452l-0.3,0.1c-1.4,0.4-2.5,1.7-2.6,3.2l-0.9,15.8c-0.1,2.4,2.1,4.2,4.4,3.6l3.4-0.9
										c1.4-0.4,2.5-1.7,2.6-3.2l0.9-15.8c0.1-2.4-2.1-4.2-4.4-3.6L879.2,452z"/>
								</g>
							</g>
							<g>
								<g>
									<path class="st14" d="M861.4,479.6l3.4-0.9c1.4-0.4,2.5-1.7,2.6-3.2l0.9-15.8c0.1-2.4-2.1-4.2-4.4-3.6l-3.4,0.9
										c-1.4,0.4-2.5,1.7-2.6,3.2l-0.9,15.8C856.9,478.4,859.1,480.2,861.4,479.6z"/>
								</g>
							</g>
							<g>
								<g>
									<path class="st14" d="M894.7,450.2l-0.9,15.8c-0.1,2.4,2.1,4.2,4.4,3.6l13.8-3.8c1.4-0.4,2.5-1.7,2.6-3.2l0.9-15.8
										c0.1-2.4-2.1-4.2-4.4-3.6l-13.8,3.8C895.8,447.4,894.8,448.7,894.7,450.2z"/>
								</g>
							</g>
						</g>
						<g>
							<g>
								<g>
									<path class="st14" d="M915.8,404.5c-1.3-1-2.9-1.4-4.5-0.9l-125.1,34.3c-2.1,0.6-3.5,2.4-3.7,4.5l-1.2,20.7
										c-0.1,1.6,0.6,3.2,1.8,4.2c0.8,0.7,1.8,1,2.9,1.1c0.5,0,1.1,0,1.6-0.2l125.1-34.3c2.1-0.6,3.5-2.4,3.7-4.5l1.2-20.7
										C917.7,407,917,405.5,915.8,404.5z"/>
								</g>
							</g>
							<g>
								<g>
									<g>
										<path class="st2" d="M915.8,404.5c-1.3-1-2.9-1.4-4.5-0.9l-125.1,34.3c-2.1,0.6-3.5,2.4-3.7,4.5l-0.3,4.6
											c0.1-2.1,1.6-4,3.7-4.5L911,408.1c1.6-0.4,3.2-0.1,4.5,0.9c1.3,1,1.9,2.6,1.8,4.2l0.3-4.6
											C917.7,407,917,405.5,915.8,404.5z"/>
									</g>
								</g>
							</g>
						</g>
					</g>
					<g>
						<g>
							<g>
								<path class="st14" d="M928.4,376.9c-22.7,6.2-45.3,12.4-68,18.7c-19.6,5.4-39.2,10.8-58.8,16.1c-12.1,3.3-24.5,6.2-36.5,10
									c-13.6,4.3-11.8,19.7-12.4,31.2c-1.2,21-2.4,42.1-3.7,63.1c-1.6,27.2-3.2,54.5-4.8,81.7c0,0.7-0.1,1.4-0.1,2.1
									c-0.2,2.9,2.5,4.7,5,5c18.4,2.4,39.4-5.4,55.4-13.9c5.4-2.9,16.1-7.8,17-14.5c0.6-4,0.5-8.2,0.7-12.2
									c0.7-12,1.3-24.1,2.1-36.1c0.8-13,9.3-21.2,21.4-24.5c23.5-6.4,46.9-12.9,70.4-19.3c6.6-1.8,16.4-2.9,21.9-7.4
									c7.5-6.2,6-19.1,6.5-27.9c0.9-15.2,1.8-30.3,2.6-45.5c0.2-3.6,0.6-7.3,0.6-10.9C947.9,381.7,938.7,374.8,928.4,376.9
									c-6.3,1.3-3.6,10.9,2.7,9.6c9.4-1.9,6.3,12.5,6,17.6c-0.7,11.2-1.3,22.5-2,33.7c-0.5,8.7-0.8,17.5-1.5,26.1
									c-0.5,5.8-5,6.4-9.7,7.7c-20.2,5.6-40.5,11.1-60.7,16.7c-7.2,2-14.5,3.9-21.7,6c-12.2,3.4-22,11.9-25.7,24.2
									c-2.8,9.2-2.1,20.2-2.7,29.7c-0.6,9.5-1.1,18.9-1.7,28.4c0.5-1.2,1-2.4,1.5-3.5c-8.3,7.8-19.7,12.8-30.3,16.5
									c-10.6,3.6-22.2,6.8-33.5,5.3c1.7,1.7,3.3,3.3,5,5c2.6-43.9,5.1-87.8,7.7-131.7c0.4-7.5,0.9-15,1.3-22.6
									c0.2-3.3-0.3-7.7,0.9-10.9c1.4-3.8,7.4-4.4,10.8-5.3c7.1-2,14.3-3.9,21.4-5.9c19.9-5.5,39.8-10.9,59.7-16.4
									c25-6.9,50.1-13.7,75.1-20.6C937.3,384.8,934.6,375.2,928.4,376.9z"/>
							</g>
						</g>
					</g>
				</g>
				<g>
					<g>
						<g>
							<path class="st3" d="M878.4,530.8c-5.3-13.1-16-24.3-29.5-28.7c-13.2-4.3-25.1-1.5-34.1,5.5c-8,6.2-13.7,15.8-16.2,26.8
								c-5.1,22.2,1.9,46.8,18.2,62.8l-8.4,20.9L694.6,721.2c54.2-13,91.2-32,138.3-92.3c5.3-2.5,10.3-5.3,14.9-8.5
								c16.5-11.5,28.3-27.6,33-47.9C884,558.7,883.7,543.9,878.4,530.8z"/>
						</g>
					</g>
					<g class="st1">
						<g>
							<g>
								<path class="st2" d="M878.4,530.8c-5.3-13.1-16-24.3-29.5-28.7c-13.2-4.3-25.1-1.5-34.1,5.5c7.6,1.9,14.5,5.2,20.6,9.2
									c8.8,5.8,15.9,13.2,20.6,21.3c4.6,7.9,7,16.5,7.8,25.1c2,19.7-3.7,39.8-16.1,57.1c16.5-11.5,28.3-27.6,33-47.9
									C884,558.7,883.7,543.9,878.4,530.8z"/>
							</g>
						</g>
					</g>
				</g>
				<g>
					<g>
						<g>
							<path class="st14" d="M695.9,726.1c27.9-6.7,55.1-16.4,78.9-32.8c13.2-9.1,25.3-19.8,36.4-31.4c6.4-6.7,12.5-13.6,18.3-20.8
								c3.1-3.8,5.5-7.5,9.8-9.8c3.9-2,7.6-4.2,11.1-6.7c27.9-19.5,44.4-55.5,34.7-89.3c-4.5-15.9-15.6-30-31-36.5
								c-14.1-6-30.1-4.6-42.3,4.8c-30.3,23.5-23.3,72.5,1.4,97.1c4.6,4.6,11.6-2.5,7.1-7.1c-19.9-19.9-27.1-58.5-5.2-79.7
								c9.7-9.4,23.8-11.2,36-5.6c14.5,6.6,23.5,21.2,26,36.5c5,31-12.5,60.6-39,75.7c-2.8,1.6-6.4,2.7-8.8,4.8
								c-3.5,3-6.2,7.8-9.1,11.3c-5.3,6.4-10.8,12.6-16.6,18.6c-9.7,10.1-20.2,19.6-31.7,27.8c-23.7,16.8-50.6,26.5-78.7,33.3
								C687,717.9,689.6,727.6,695.9,726.1L695.9,726.1z"/>
						</g>
					</g>
				</g>
			</g>
			<g>
				<g>
					<path class="st268" d="M1108.1,285.9c-0.1,0-0.1,0-0.2,0C1108,285.9,1108,285.9,1108.1,285.9z"/>
				</g>
				<g>
					<path class="st14" d="M1108.1,290.9c-0.1,0-0.2,0-0.2,0l-0.3,0c-2.7-0.2-4.7-2.4-4.7-5c0-0.1,0-0.2,0-0.3
						c0.2-2.8,2.5-4.9,5.3-4.7l0.1,0c2.7,0.1,4.8,2.3,4.8,5c0,0.1,0,0.2,0,0.2C1113,288.8,1110.8,290.9,1108.1,290.9z"/>
				</g>
			</g>
			<g>
				<g>
					<path class="st268" d="M1103.8,285.7c0.1,0,0.1,0,0.2,0C1103.9,285.7,1103.9,285.7,1103.8,285.7z"/>
				</g>
				<g>
					<path class="st14" d="M1104,290.7C1104,290.7,1104,290.7,1104,290.7l-0.2,0c-2.8,0-5-2.2-5-5s2.2-5,5-5l0.3,0
						c2.7,0,4.9,2.3,4.9,5c0,0,0,0.1,0,0.1C1109,288.6,1106.7,290.7,1104,290.7z"/>
				</g>
			</g>
			<g>
				<g>
					<path class="st268" d="M1091.7,286.2c0,0-0.1,0-0.1,0C1091.6,286.2,1091.7,286.2,1091.7,286.2z"/>
				</g>
				<g>
					<path class="st14" d="M1091.6,291.2c-2.6,0-4.8-2-5-4.6c0-0.1,0-0.3,0-0.4c0-2.6,1.9-4.8,4.6-5c0,0,0.1,0,0.1,0
						c2.8-0.2,5.2,1.9,5.4,4.6c0,0.1,0,0.3,0,0.4c0,2.6-1.9,4.8-4.6,5c0,0-0.1,0-0.1,0C1091.9,291.2,1091.8,291.2,1091.6,291.2z"/>
				</g>
			</g>
			<g>
				<g>
					<path class="st268" d="M1117.9,286.9c-0.3,0-0.6-0.1-0.9-0.1C1117.3,286.8,1117.6,286.8,1117.9,286.9z"/>
				</g>
				<g>
					<path class="st14" d="M1117.9,291.9c-0.3,0-0.5,0-0.8-0.1l-0.8-0.1c-2.7-0.4-4.6-3-4.2-5.7c0.4-2.7,3-4.6,5.7-4.2
						c0.3,0,0.6,0.1,0.9,0.1c2.5,0.4,4.2,2.5,4.2,4.9c0,0.3,0,0.5-0.1,0.8C1122.4,290.1,1120.3,291.9,1117.9,291.9z"/>
				</g>
			</g>
			<g>
				<g>
					<path class="st268" d="M1112.1,286.1C1112.1,286.1,1112.1,286.1,1112.1,286.1C1112.1,286.1,1112.1,286.1,1112.1,286.1z"/>
				</g>
				<g>
					<path class="st14" d="M1112.1,291.1c-0.1,0-0.3,0-0.4,0c-2.6-0.2-4.6-2.4-4.6-5c0-2.8,2.2-5,5-5c0.2,0,0.5,0,0.7,0.1
						c2.5,0.4,4.3,2.5,4.3,4.9c0,0.2,0,0.5-0.1,0.7C1116.7,289.3,1114.6,291.1,1112.1,291.1z"/>
				</g>
			</g>
			<g>
				<g>
					<path class="st268" d="M1140.4,294.8c-0.3-0.2-0.7-0.4-1-0.6C1139.7,294.4,1140.1,294.6,1140.4,294.8z"/>
				</g>
				<g>
					<path class="st14" d="M1140.4,299.8c-0.9,0-1.8-0.2-2.6-0.7c-0.3-0.2-0.6-0.4-0.9-0.6c-2.4-1.4-3.2-4.4-1.9-6.8
						c1.4-2.4,4.4-3.2,6.8-1.9c0.4,0.2,0.8,0.4,1.1,0.7c1.6,0.9,2.4,2.6,2.4,4.3c0,0.9-0.2,1.8-0.7,2.6
						C1143.8,298.9,1142.1,299.8,1140.4,299.8z"/>
				</g>
			</g>
			<g>
				<g>
					<path class="st268" d="M1147.5,299.9c-0.4-0.3-0.8-0.6-1.1-1C1146.7,299.3,1147.1,299.6,1147.5,299.9z"/>
				</g>
				<g>
					<path class="st14" d="M1147.5,304.9c-1.2,0-2.3-0.4-3.3-1.2c-0.3-0.3-0.6-0.5-1-0.8l3.1-3.9l3.2-3.9c0.5,0.4,0.9,0.7,1.3,1.1
						c1.1,1,1.7,2.4,1.7,3.8c0,1.2-0.4,2.3-1.2,3.3C1150.3,304.3,1148.9,304.9,1147.5,304.9z"/>
				</g>
			</g>
			<g>
				<g>
					<path class="st268" d="M1142.3,296c-0.3-0.2-0.7-0.4-1-0.7C1141.6,295.5,1141.9,295.7,1142.3,296z"/>
				</g>
				<g>
					<path class="st14" d="M1142.3,301c-0.9,0-1.9-0.3-2.8-0.8c-0.3-0.2-0.6-0.4-0.9-0.6c-1.5-1-2.3-2.6-2.3-4.2
						c0-0.9,0.2-1.8,0.8-2.6c1.5-2.3,4.6-3,6.9-1.6c0.4,0.2,0.8,0.5,1.1,0.7c1.5,1,2.2,2.6,2.2,4.2c0,0.9-0.3,1.9-0.8,2.8
						C1145.5,300.2,1143.9,301,1142.3,301z"/>
				</g>
			</g>
			<g>
				<g>
					<path class="st268" d="M1144.1,297.2c-0.3-0.2-0.7-0.5-1-0.7C1143.4,296.7,1143.7,297,1144.1,297.2z"/>
				</g>
				<g>
					<path class="st14" d="M1144.1,302.2c-1,0-2-0.3-2.9-1c-0.3-0.2-0.6-0.4-0.9-0.7c-2.3-1.6-2.8-4.7-1.3-7c1.6-2.3,4.7-2.9,7-1.3
						c0.4,0.3,0.8,0.5,1.1,0.8c1.3,1,2.1,2.5,2.1,4.1c0,1-0.3,2-1,2.9C1147.1,301.5,1145.6,302.2,1144.1,302.2z"/>
				</g>
			</g>
			<g>
				<g>
					<path class="st268" d="M1151.3,303.7c-0.3-0.3-0.5-0.6-0.8-0.9C1150.8,303.1,1151,303.4,1151.3,303.7z"/>
				</g>
				<g>
					<path class="st14" d="M1151.3,308.7c-1.4,0-2.8-0.6-3.8-1.7l-0.2-0.2c-0.2-0.2-0.3-0.4-0.5-0.6c-0.9-1-1.4-2.2-1.4-3.4
						c0-1.3,0.5-2.7,1.6-3.6c2-1.9,5.2-1.8,7.1,0.2c0.3,0.3,0.5,0.5,0.7,0.8l0.2,0.2c0.8,1,1.3,2.1,1.3,3.3c0,1.4-0.6,2.8-1.7,3.8
						C1153.7,308.3,1152.5,308.7,1151.3,308.7z"/>
				</g>
			</g>
			<g>
				<g>
					<path class="st268" d="M1145.8,298.5c-0.3-0.3-0.7-0.5-1.1-0.8C1145.1,298,1145.5,298.2,1145.8,298.5z"/>
				</g>
				<g>
					<path class="st14" d="M1145.8,303.5c-1.1,0-2.2-0.4-3.1-1.1c-0.3-0.2-0.6-0.5-0.9-0.7l0,0c-2.2-1.7-2.6-4.8-1-7
						c1.7-2.2,4.8-2.6,7-1c0,0,0.1,0,0.1,0.1l0,0c0.4,0.3,0.7,0.5,1.1,0.8c0,0,0,0,0,0c0,0,0,0,0,0c2.2,1.7,2.5,4.9,0.8,7
						C1148.7,302.9,1147.3,303.5,1145.8,303.5z"/>
				</g>
			</g>
			<g>
				<g>
					<path class="st268" d="M1107.9,285.9c-1.3-0.1-2.6-0.1-3.9-0.1C1105.3,285.8,1106.6,285.8,1107.9,285.9z"/>
				</g>
				<g>
					<path class="st14" d="M1107.9,290.9c-0.1,0-0.2,0-0.2,0c-1.2-0.1-2.5-0.1-3.7-0.1c-2.7,0-5-2.3-5-5c0,0,0,0,0,0
						c0-2.8,2.3-5,5-5c1.4,0,2.8,0.1,4.1,0.1c2.7,0.1,4.8,2.3,4.8,5c0,0.1,0,0.2,0,0.2C1112.8,288.8,1110.6,290.9,1107.9,290.9z"/>
				</g>
			</g>
			<g>
				<g>
					<path class="st268" d="M1152.7,305.4c-0.2-0.3-0.5-0.6-0.7-0.9C1152.2,304.8,1152.4,305.1,1152.7,305.4z"/>
				</g>
				<g>
					<path class="st14" d="M1152.7,310.4c-1.5,0-2.9-0.6-3.9-1.9l-0.1-0.1c-0.2-0.2-0.3-0.4-0.5-0.7c-1.8-2.1-1.5-5.3,0.6-7
						c2.1-1.8,5.3-1.5,7,0.6c0.2,0.3,0.5,0.6,0.7,0.9l0.1,0.1c0.7,0.9,1.1,2,1.1,3.1c0,1.5-0.6,2.9-1.9,3.9
						C1154.8,310,1153.7,310.4,1152.7,310.4z"/>
				</g>
			</g>
			<g>
				<g>
					<path class="st268" d="M1112.1,286.1c-1.3-0.1-2.6-0.2-4-0.3C1109.4,285.9,1110.8,286,1112.1,286.1z"/>
				</g>
				<g>
					<path class="st14" d="M1112.1,291.1c-0.2,0-0.3,0-0.5,0c-0.1,0-0.3,0-0.4,0c-1.1-0.1-2.2-0.2-3.4-0.2c-2.8-0.1-4.9-2.5-4.8-5.2
						c0.1-2.8,2.5-4.9,5.2-4.8l0,0l0,0c0.1,0,0.1,0,0.2,0c1.4,0.1,2.7,0.2,4,0.3c2.6,0.2,4.5,2.4,4.5,5c0,0.2,0,0.3,0,0.5
						C1116.8,289.2,1114.6,291.1,1112.1,291.1z"/>
				</g>
			</g>
			<g>
				<g>
					<path class="st268" d="M1083.5,287c2.7-0.3,5.4-0.6,8.1-0.8C1088.9,286.4,1086.2,286.7,1083.5,287
						C1083.5,287,1083.5,287,1083.5,287z"/>
				</g>
				<g>
					<path class="st14" d="M1083.5,292c-2.5,0-4.7-1.9-5-4.4c-0.3-2.7,1.7-5.2,4.4-5.5c0,0,0,0,0,0l0,0c2.7-0.3,5.2-0.6,7.6-0.8
						c0.2,0,0.5,0,0.7-0.1c2.7-0.2,5.2,1.8,5.4,4.6c0.2,2.8-1.8,5.2-4.6,5.4c-0.3,0-0.6,0-0.8,0.1c-2.2,0.2-4.5,0.4-7.1,0.7v0
						c0,0,0,0,0,0C1083.8,292,1083.6,292,1083.5,292z"/>
				</g>
			</g>
			<g>
				<g>
					<path class="st268" d="M1154,307.2c-0.2-0.3-0.5-0.7-0.7-1C1153.5,306.5,1153.8,306.9,1154,307.2z"/>
				</g>
				<g>
					<path class="st14" d="M1154,312.2c-1.6,0-3.1-0.7-4.1-2.1c-0.2-0.3-0.4-0.6-0.7-0.9c-0.7-0.9-1-2-1-3c0-1.5,0.7-3,2-4
						c2.2-1.7,5.3-1.2,7,1c0,0,0,0,0,0c0,0,0,0,0,0c0,0,0,0,0,0c0.3,0.4,0.6,0.8,0.8,1.1c1.6,2.3,1.1,5.4-1.2,7
						C1156,311.9,1155,312.2,1154,312.2z"/>
				</g>
			</g>
			<g>
				<g>
					<path class="st268" d="M1132.8,291c-0.4-0.2-0.9-0.4-1.3-0.5C1131.9,290.6,1132.3,290.8,1132.8,291z"/>
				</g>
				<g>
					<path class="st14" d="M1132.8,296c-0.6,0-1.3-0.1-1.9-0.4l-0.2-0.1c-0.3-0.1-0.6-0.3-1-0.4c-2-0.8-3.2-2.7-3.2-4.7
						c0-0.6,0.1-1.2,0.3-1.8c1-2.6,3.9-3.9,6.5-2.9c0,0,0,0,0,0c0,0,0,0,0,0c0.4,0.2,0.9,0.3,1.3,0.5l0.1,0c2.6,1,3.8,4,2.7,6.5
						C1136.6,294.8,1134.7,296,1132.8,296z"/>
				</g>
			</g>
			<g>
				<g>
					<path class="st268" d="M1112.1,286.1c1.4,0.1,2.7,0.3,4.1,0.5c0.3,0,0.6,0.1,0.9,0.1c-0.3,0-0.6-0.1-0.9-0.1
						C1114.8,286.4,1113.5,286.3,1112.1,286.1z"/>
				</g>
				<g>
					<path class="st14" d="M1117,291.7c-0.2,0-0.5,0-0.7-0.1l-0.8-0.1c-1.2-0.2-2.5-0.3-3.8-0.4c-2.6-0.2-4.6-2.4-4.6-5
						c0-0.2,0-0.3,0-0.5c0.2-2.8,2.7-4.8,5.4-4.5c1.5,0.1,2.9,0.3,4.3,0.5c0.2,0,0.4,0.1,0.6,0.1l0.3,0c2.7,0.4,4.6,3,4.2,5.7
						C1121.6,290,1119.5,291.7,1117,291.7z"/>
				</g>
			</g>
			<g>
				<g>
					<path class="st268" d="M1134.7,291.8c-0.4-0.2-0.8-0.3-1.2-0.5C1133.9,291.5,1134.3,291.6,1134.7,291.8z"/>
				</g>
				<g>
					<path class="st14" d="M1134.7,296.8c-0.7,0-1.4-0.1-2-0.4c0,0-0.1,0-0.1,0c-0.3-0.1-0.7-0.3-1-0.4c-1.9-0.8-3-2.7-3-4.6
						c0-0.7,0.1-1.3,0.4-2c1.1-2.5,4-3.7,6.6-2.6c0.4,0.2,0.8,0.3,1.2,0.5c1.9,0.8,3,2.7,3,4.6c0,0.7-0.1,1.4-0.4,2
						C1138.4,295.7,1136.6,296.8,1134.7,296.8z"/>
				</g>
			</g>
			<g>
				<g>
					<path class="st268" d="M1147.5,299.9c0.5,0.5,1,0.9,1.5,1.4c0.4,0.4,0.7,0.7,1.1,1.1c-0.4-0.4-0.7-0.7-1.1-1.1
						C1148.5,300.9,1148,300.4,1147.5,299.9z"/>
				</g>
				<g>
					<path class="st14" d="M1150.1,307.4c-1.3,0-2.6-0.5-3.6-1.5c-0.3-0.3-0.6-0.7-1-1c-0.4-0.4-0.9-0.8-1.4-1.2
						c-2.1-1.8-2.3-5-0.5-7.1c1.8-2.1,5-2.3,7.1-0.5c0.6,0.5,1.1,1,1.7,1.6c0.4,0.3,0.7,0.7,1,1.1l0.2,0.2c0.9,1,1.4,2.2,1.4,3.5
						c0,1.3-0.5,2.6-1.5,3.6C1152.6,307,1151.4,307.4,1150.1,307.4z"/>
				</g>
			</g>
			<g>
				<g>
					<path class="st268" d="M1131.5,290.5c0.4,0.2,0.9,0.3,1.3,0.5c0.2,0.1,0.5,0.2,0.7,0.3c0.4,0.2,0.8,0.3,1.2,0.5
						c0.3,0.1,0.6,0.3,0.8,0.4c0.4,0.2,0.7,0.4,1.1,0.5c0.3,0.1,0.6,0.3,0.9,0.4c0.4,0.2,0.7,0.4,1.1,0.6c0.3,0.2,0.6,0.3,0.9,0.5
						c0.3,0.2,0.7,0.4,1,0.6c0.3,0.2,0.5,0.3,0.8,0.5c0.3,0.2,0.7,0.4,1,0.7c0.3,0.2,0.5,0.3,0.8,0.5c0.3,0.2,0.7,0.5,1,0.7
						c0.2,0.2,0.5,0.3,0.7,0.5c0.4,0.3,0.7,0.5,1.1,0.8c0.2,0.1,0.4,0.3,0.5,0.4c0.4,0.3,0.8,0.6,1.1,1c0,0,0,0,0,0
						c0.5,0.5,1,0.9,1.5,1.4c0.4,0.4,0.7,0.7,1.1,1.1c0.1,0.1,0.2,0.2,0.4,0.4c0.3,0.3,0.6,0.6,0.8,0.9c0.2,0.2,0.4,0.5,0.6,0.7
						c0.2,0.3,0.5,0.6,0.7,0.9c0.2,0.3,0.4,0.5,0.6,0.8c0.3,0.3,0.5,0.7,0.7,1c0.1,0.1,0.2,0.3,0.3,0.4c1.8-2.7,3.4-5.6,4.7-8.9
						c7.7-18.7,3.4-42.5-12.4-55.1c-4.3-3.4-9.3-6-14.4-7.9c-14.2-5.3-30.1-5.8-44.7-1.6c0.5,17.7-0.8,35.5-4.1,53
						c2.7-0.3,5.4-0.6,8.1-0.8c0,0,0.1,0,0.1,0c4-0.3,8.1-0.5,12.1-0.5c0.1,0,0.1,0,0.2,0c1.3,0,2.6,0,3.9,0.1c0.1,0,0.1,0,0.2,0
						c1.3,0.1,2.6,0.2,4,0.3c0,0,0,0,0,0c1.4,0.1,2.7,0.3,4.1,0.5c0.3,0,0.6,0.1,0.9,0.1c0.3,0,0.6,0.1,0.9,0.1
						c4.5,0.7,9,1.9,13.3,3.5C1131.3,290.4,1131.4,290.4,1131.5,290.5z"/>
				</g>
			</g>
			<g>
				<g>
					<path class="st2" d="M1155.8,291.1c-12.1,0-21.9-9.8-21.9-21.9s9.8-21.9,21.9-21.9v10c-6.6,0-11.9,5.3-11.9,11.9
						s5.3,11.9,11.9,11.9c1.7,0,3.4-0.4,4.9-1l4.1,9.1C1162,290.5,1158.9,291.1,1155.8,291.1z"/>
				</g>
			</g>
			<g>
				<g>
					<path class="st14" d="M1154.3,312.6c-1.6,0-3.2-0.8-4.1-2.2l-0.3-0.3c-0.2-0.3-0.4-0.6-0.7-0.9c-0.2-0.2-0.3-0.4-0.5-0.6
						l-0.2-0.2c-0.2-0.2-0.3-0.4-0.5-0.7c-0.1-0.2-0.3-0.3-0.4-0.5l-0.4-0.4c-0.2-0.2-0.3-0.4-0.5-0.6l-0.5-0.5
						c-0.3-0.3-0.5-0.5-0.8-0.8c-0.4-0.4-0.9-0.8-1.4-1.2c0,0,0,0,0,0c-0.3-0.3-0.6-0.5-0.9-0.8l-0.5-0.4c-0.3-0.2-0.6-0.5-0.9-0.7
						l-0.2-0.2c-0.1-0.1-0.3-0.2-0.4-0.3c-0.3-0.2-0.6-0.4-0.9-0.7c-0.2-0.2-0.5-0.3-0.7-0.5c-0.3-0.2-0.6-0.4-0.9-0.6
						c-0.2-0.2-0.5-0.3-0.7-0.5c-0.3-0.2-0.6-0.4-0.9-0.5c-0.3-0.1-0.5-0.3-0.8-0.4c-0.3-0.2-0.7-0.4-1-0.5
						c-0.3-0.1-0.5-0.3-0.8-0.4c-0.3-0.2-0.7-0.3-1-0.5l-0.8-0.4c-0.4-0.2-0.7-0.3-1.1-0.5l-0.8-0.3c-0.4-0.1-0.7-0.3-1.1-0.4
						c0,0,0,0,0,0l-0.3-0.1c-3.8-1.4-8-2.5-12.3-3.2c-0.3,0-0.5-0.1-0.8-0.1l-0.8-0.1c-1.2-0.2-2.5-0.3-3.8-0.4c0,0,0,0,0,0
						c-1.2-0.1-2.5-0.2-3.8-0.3l-0.3,0c-1.2-0.1-2.4-0.1-3.7-0.1l-0.1,0c-3.7,0-7.5,0.1-11.7,0.4c0,0-0.1,0-0.1,0
						c-2.5,0.2-5.1,0.5-8,0.8c-1.6,0.2-3.1-0.4-4.2-1.6s-1.5-2.8-1.3-4.3c3.2-17,4.5-34.5,4-51.9c-0.1-2.3,1.4-4.3,3.6-5
						c15.7-4.5,32.7-3.9,47.8,1.8c6.1,2.3,11.4,5.2,15.8,8.7c16.9,13.6,22.8,39.2,13.9,60.9c-1.5,3.5-3.2,6.8-5.2,9.8
						C1157.5,311.8,1156,312.6,1154.3,312.6C1154.3,312.6,1154.3,312.6,1154.3,312.6z M1150.8,296.2c0.6,0.5,1.1,1,1.7,1.5
						c0.4,0.3,0.7,0.7,1,1.1l0,0c0.3-0.6,0.6-1.3,0.9-2c7.1-17.4,2.4-38.6-10.9-49.3c-3.5-2.8-7.9-5.2-13-7.1
						c-11.9-4.5-25.2-5.3-37.8-2.5c0.2,14.6-0.9,29.1-3.1,43.5c0.6,0,1.1-0.1,1.7-0.1c0,0,0.1,0,0.1,0c4.5-0.4,8.6-0.5,12.6-0.5
						l0.2,0c1.3,0,2.7,0.1,4.1,0.1l0.2,0c1.5,0.1,2.9,0.2,4.2,0.3c0,0,0,0,0,0c1.5,0.1,2.9,0.3,4.3,0.5c0.2,0,0.4,0.1,0.6,0.1l0.3,0
						c0.3,0,0.6,0.1,0.9,0.1c5,0.8,9.8,2.1,14.2,3.7l0.3,0.1v0c0.4,0.2,0.9,0.3,1.3,0.5l0.3,0.1c0.2,0.1,0.4,0.2,0.6,0.2
						c0.4,0.2,0.8,0.4,1.2,0.5l0.3,0.1c0.2,0.1,0.5,0.2,0.7,0.3c0.4,0.2,0.8,0.4,1.2,0.6c0.3,0.2,0.6,0.3,1,0.5
						c0.4,0.2,0.8,0.4,1.2,0.6c0.3,0.2,0.6,0.3,0.9,0.5c0.4,0.2,0.8,0.4,1.1,0.7c0.3,0.2,0.6,0.4,0.9,0.6c0.4,0.2,0.8,0.5,1.1,0.7
						c0.3,0.2,0.5,0.4,0.8,0.5c0.4,0.3,0.8,0.5,1.2,0.8c0.2,0.2,0.4,0.3,0.6,0.5l0.1,0.1c0.4,0.3,0.8,0.6,1.2,0.9
						c0.1,0.1,0.3,0.2,0.4,0.3l0.2,0.1C1150,295.5,1150.4,295.8,1150.8,296.2C1150.8,296.2,1150.8,296.2,1150.8,296.2z"/>
				</g>
			</g>
			<g>
				<g>
					<path class="st268" d="M1091.7,286.2c4-0.3,8.1-0.5,12.1-0.5C1099.8,285.7,1095.8,285.9,1091.7,286.2z"/>
				</g>
				<g>
					<path class="st14" d="M1091.7,291.2c-2.6,0-4.8-2-5-4.6c-0.2-2.8,1.8-5.2,4.6-5.4l0,0c0.1,0,0.2,0,0.3,0
						c4.4-0.3,8.4-0.5,12.2-0.5c0,0,0,0,0,0h0c2.8,0,5,2.3,5,5c0,2.7-2.3,5-5,5c0,0,0,0,0,0h0l0,0c0,0,0,0,0,0
						c-3.6,0-7.2,0.1-11.3,0.4c-0.1,0-0.2,0-0.3,0c0,0,0,0,0,0C1092,291.2,1091.8,291.2,1091.7,291.2z"/>
				</g>
			</g>
			<g>
				<g>
					<path class="st268" d="M1136.6,292.7c-0.4-0.2-0.7-0.4-1.1-0.5C1135.9,292.4,1136.2,292.5,1136.6,292.7z"/>
				</g>
				<g>
					<path class="st14" d="M1136.6,297.7c-0.7,0-1.5-0.2-2.2-0.5c-0.3-0.2-0.7-0.3-1-0.5c-2.5-1.2-3.6-4.2-2.4-6.7
						c1.2-2.5,4.2-3.6,6.6-2.4c0.4,0.2,0.8,0.4,1.2,0.6c1.8,0.9,2.8,2.6,2.8,4.5c0,0.7-0.2,1.5-0.5,2.2
						C1140.2,296.7,1138.4,297.7,1136.6,297.7z"/>
				</g>
			</g>
			<g>
				<g>
					<path class="st268" d="M1138.5,293.7c-0.3-0.2-0.7-0.4-1.1-0.6C1137.8,293.3,1138.2,293.5,1138.5,293.7z"/>
				</g>
				<g>
					<path class="st14" d="M1138.5,298.7c-0.8,0-1.6-0.2-2.4-0.6c-0.3-0.2-0.6-0.3-1-0.5c-1.7-0.9-2.7-2.6-2.7-4.4
						c0-0.8,0.2-1.6,0.6-2.3c1.3-2.4,4.3-3.4,6.7-2.1c0.4,0.2,0.8,0.4,1.1,0.6c1.7,0.9,2.6,2.6,2.6,4.4c0,0.8-0.2,1.6-0.6,2.4
						C1142,297.8,1140.3,298.7,1138.5,298.7z"/>
				</g>
			</g>
			<g>
				<g>
					<path class="st268" d="M1117.9,286.9c0.5,0.1,1,0.2,1.4,0.3c4,0.7,8,1.8,11.8,3.2C1126.9,288.7,1122.4,287.6,1117.9,286.9z"/>
				</g>
				<g>
					<path class="st14" d="M1131.2,295.4c-0.6,0-1.2-0.1-1.8-0.3c-3.4-1.3-7.1-2.3-11-3c-0.5-0.1-0.9-0.2-1.4-0.2
						c-2.7-0.4-4.6-3-4.1-5.7s3-4.6,5.7-4.1c5,0.8,9.8,2.1,14.2,3.7c2.6,1,3.9,3.9,2.9,6.4C1135.1,294.1,1133.2,295.4,1131.2,295.4z
						"/>
				</g>
			</g>
			<g>
				<g>
					<path class="st268" d="M1153.3,306.2c-0.2-0.3-0.4-0.5-0.6-0.8C1152.9,305.6,1153.1,305.9,1153.3,306.2z"/>
				</g>
				<g>
					<path class="st14" d="M1153.3,311.2c-1.5,0-3-0.7-4-2c-0.2-0.2-0.4-0.5-0.6-0.7c-0.7-0.9-1.1-2-1.1-3.1c0-1.5,0.6-2.9,1.9-3.9
						c2.2-1.7,5.3-1.4,7,0.8l0.1,0.1c0.2,0.3,0.4,0.5,0.6,0.8c1.7,2.2,1.2,5.3-1,7C1155.4,310.8,1154.3,311.2,1153.3,311.2z"/>
				</g>
			</g>
			<g>
				<g>
					<path class="st268" d="M1139.4,294.2c-0.3-0.2-0.6-0.3-0.9-0.5C1138.8,293.9,1139.1,294,1139.4,294.2z"/>
				</g>
				<g>
					<path class="st14" d="M1139.4,299.2c-0.8,0-1.7-0.2-2.5-0.7c-0.3-0.1-0.5-0.3-0.8-0.4c-1.7-0.9-2.6-2.6-2.6-4.4
						c0-0.8,0.2-1.6,0.6-2.4c1.3-2.4,4.3-3.3,6.8-2c0.3,0.2,0.6,0.4,1,0.5c1.6,0.9,2.5,2.6,2.5,4.3c0,0.8-0.2,1.7-0.7,2.5
						C1142.8,298.3,1141.1,299.2,1139.4,299.2z"/>
				</g>
			</g>
			<g>
				<g>
					<path class="st268" d="M1153.3,306.2c-0.2-0.3-0.4-0.5-0.6-0.8c-0.2-0.3-0.5-0.6-0.7-0.9c-0.2-0.2-0.4-0.5-0.6-0.7
						c-0.3-0.3-0.5-0.6-0.8-0.9c-0.1-0.1-0.2-0.3-0.4-0.4c-0.4-0.4-0.7-0.7-1.1-1.1c-0.5-0.5-1-1-1.5-1.4c0,0,0,0,0,0
						c-0.4-0.3-0.8-0.6-1.1-1c-0.2-0.1-0.4-0.3-0.5-0.4c-0.3-0.3-0.7-0.5-1.1-0.8c-0.2-0.2-0.4-0.3-0.7-0.5c-0.3-0.2-0.7-0.5-1-0.7
						c-0.3-0.2-0.5-0.3-0.8-0.5c-0.3-0.2-0.7-0.4-1-0.7c-0.3-0.2-0.5-0.3-0.8-0.5c-0.3-0.2-0.7-0.4-1-0.6c-0.3-0.2-0.6-0.3-0.9-0.5
						c-0.3-0.2-0.7-0.4-1.1-0.6c-0.3-0.1-0.6-0.3-0.9-0.4c-0.4-0.2-0.7-0.4-1.1-0.5c-0.3-0.1-0.6-0.3-0.8-0.4
						c-0.4-0.2-0.8-0.3-1.2-0.5c-0.2-0.1-0.5-0.2-0.7-0.3c-0.4-0.2-0.9-0.4-1.3-0.5c-0.1,0-0.2-0.1-0.3-0.1
						c-3.8-1.4-7.8-2.5-11.8-3.2c1.5,13.3,1.4,26.8-0.1,40c14.8-1.2,27.2-7.9,35.1-19.6c-0.1-0.1-0.2-0.3-0.3-0.4
						C1153.8,306.9,1153.5,306.5,1153.3,306.2z"/>
				</g>
				<g>
					<path class="st14" d="M1119.2,332.2c-1.3,0-2.6-0.5-3.6-1.5c-1-1.1-1.5-2.6-1.4-4c1.5-12.9,1.5-26,0.1-38.9
						c-0.2-1.6,0.4-3.1,1.6-4.2s2.7-1.5,4.3-1.3c4.4,0.8,8.7,2,12.7,3.5l0.4,0.1c0.4,0.1,0.8,0.3,1.2,0.5l0.5,0.2
						c0.2,0.1,0.4,0.1,0.5,0.2c0.4,0.2,0.8,0.3,1.2,0.5l0.3,0.1c0.2,0.1,0.5,0.2,0.7,0.3c0.4,0.2,0.8,0.4,1.2,0.6
						c0.3,0.2,0.6,0.3,1,0.5c0.4,0.2,0.8,0.4,1.2,0.6c0.3,0.2,0.6,0.3,0.9,0.5c0.4,0.2,0.7,0.4,1.1,0.7c0.3,0.2,0.6,0.4,0.9,0.6
						c0.4,0.2,0.8,0.5,1.1,0.7c0.3,0.2,0.5,0.4,0.8,0.5c0.4,0.3,0.8,0.5,1.2,0.8c0.2,0.2,0.4,0.3,0.6,0.5l0.2,0.2
						c0.4,0.3,0.7,0.6,1.1,0.8c0.1,0.1,0.3,0.2,0.4,0.3l0.2,0.1c0.5,0.4,0.9,0.7,1.3,1.1c0,0,0,0,0.1,0.1c0.6,0.5,1.1,1,1.7,1.5
						c0.4,0.4,0.8,0.8,1.2,1.2l0.1,0.1c0.1,0.1,0.2,0.2,0.3,0.3c0.3,0.3,0.5,0.6,0.7,0.8l0.3,0.4c0.2,0.2,0.4,0.4,0.6,0.7
						c0.2,0.3,0.5,0.6,0.7,0.8l0.1,0.1c0.2,0.3,0.5,0.6,0.7,0.9c0,0,0,0,0,0c0.3,0.4,0.6,0.8,0.8,1.2l0.3,0.4c1.2,1.7,1.2,3.9,0,5.6
						c-8.6,12.6-22.3,20.4-38.8,21.7C1119.5,332.2,1119.4,332.2,1119.2,332.2z M1124.9,293.6c0.7,9.2,0.6,18.5-0.1,27.8
						c9.6-2,17.5-6.6,23.2-13.7c-0.1-0.1-0.2-0.3-0.3-0.4l-0.4-0.4c-0.2-0.2-0.3-0.4-0.5-0.6l-0.3-0.3c-0.3-0.3-0.6-0.6-0.9-1
						c-0.4-0.4-0.9-0.8-1.4-1.2c0,0,0,0,0,0c-0.3-0.3-0.6-0.5-0.9-0.8l-0.5-0.4c-0.3-0.2-0.6-0.4-0.9-0.7l-0.2-0.2
						c-0.1-0.1-0.3-0.2-0.4-0.3c-0.3-0.2-0.6-0.4-0.9-0.7c-0.2-0.2-0.5-0.3-0.7-0.5c-0.3-0.2-0.6-0.4-0.9-0.6
						c-0.2-0.2-0.5-0.3-0.7-0.5c-0.3-0.2-0.6-0.4-0.9-0.5c-0.3-0.2-0.5-0.3-0.8-0.4c-0.3-0.2-0.7-0.4-1-0.5
						c-0.3-0.1-0.5-0.3-0.8-0.4c-0.3-0.2-0.7-0.3-1-0.5l-0.8-0.4c-0.4-0.2-0.7-0.3-1.1-0.5l-0.9-0.4c-0.3-0.1-0.6-0.3-1-0.4
						l-0.3-0.1C1127.9,294.5,1126.5,294,1124.9,293.6z"/>
				</g>
			</g>
			<g>
				<g>
					<path class="st268" d="M1154,307.2c0.1,0.1,0.2,0.3,0.3,0.4c0,0,0,0,0,0C1154.2,307.5,1154.1,307.3,1154,307.2z"/>
				</g>
				<g>
					<path class="st14" d="M1154.3,312.6c-0.1,0-0.3,0-0.5,0c-1.5-0.1-2.8-0.9-3.7-2.1l-0.2-0.3h0l0,0c-1.6-2.3-1-5.4,1.2-7
						c2.2-1.6,5.4-1.1,7,1.2l0,0c0.1,0.2,0.2,0.3,0.3,0.4c1.2,1.7,1.2,3.9,0,5.6c-0.2,0.3-0.4,0.5-0.6,0.8
						C1156.9,312.1,1155.6,312.6,1154.3,312.6z M1150.8,304.1l3.2,3.2L1150.8,304.1z"/>
				</g>
			</g>
			<g>
				<g>
					<path class="st268" d="M1131.5,290.5c-0.1,0-0.2-0.1-0.3-0.1C1131.3,290.4,1131.4,290.4,1131.5,290.5z"/>
				</g>
				<g>
					<path class="st14" d="M1131.5,295.5c-0.6,0-1.2-0.1-1.8-0.3l-0.3-0.1c-2-0.8-3.2-2.7-3.2-4.7c0-0.6,0.1-1.2,0.3-1.8
						c1-2.6,3.9-3.9,6.4-2.9l0.3,0.1c2,0.8,3.2,2.7,3.2,4.7c0,0.6-0.1,1.2-0.3,1.8C1135.4,294.3,1133.5,295.5,1131.5,295.5z"/>
				</g>
			</g>
			<g>
				<g>
					<path class="st268" d="M1135.5,292.2c-0.3-0.1-0.6-0.3-0.8-0.4C1135,291.9,1135.2,292.1,1135.5,292.2z"/>
				</g>
				<g>
					<path class="st14" d="M1135.5,297.2c-0.7,0-1.4-0.2-2.1-0.5l-0.8-0.4c-1.8-0.8-2.9-2.7-2.9-4.6c0-0.7,0.1-1.4,0.4-2.1
						c1.1-2.5,4.1-3.6,6.6-2.5l0.2,0.1c0.2,0.1,0.5,0.2,0.7,0.3c1.8,0.9,2.9,2.7,2.9,4.5c0,0.7-0.2,1.4-0.5,2.1
						C1139.2,296.1,1137.4,297.2,1135.5,297.2z"/>
				</g>
			</g>
			<g>
				<g>
					<path class="st268" d="M1144.7,297.7c-0.2-0.2-0.4-0.3-0.7-0.5C1144.3,297.4,1144.5,297.5,1144.7,297.7z"/>
				</g>
				<g>
					<path class="st14" d="M1144.7,302.7c-1.1,0-2.1-0.3-3-1l-0.2-0.1c-0.1-0.1-0.3-0.2-0.4-0.3c-1.3-1-2.1-2.5-2.1-4.1
						c0-1,0.3-2,1-2.9c1.6-2.2,4.8-2.7,7-1.1c0.2,0.2,0.4,0.3,0.6,0.5l0.1,0.1c1.3,1,2,2.5,2,4c0,1.1-0.3,2.1-1,3
						C1147.7,302,1146.3,302.7,1144.7,302.7z"/>
				</g>
			</g>
			<g>
				<g>
					<path class="st268" d="M1143,296.5c-0.3-0.2-0.5-0.3-0.8-0.5C1142.5,296.1,1142.8,296.3,1143,296.5z"/>
				</g>
				<g>
					<path class="st14" d="M1143,301.5c-1,0-2-0.3-2.8-0.9l0,0c-0.2-0.1-0.4-0.3-0.6-0.4c-1.5-1-2.2-2.6-2.2-4.2
						c0-0.9,0.3-1.9,0.8-2.7c1.5-2.3,4.6-2.9,6.9-1.4c0.3,0.2,0.5,0.4,0.8,0.6c1.4,1,2.2,2.5,2.2,4.1c0,1-0.3,2-0.9,2.8
						C1146.2,300.7,1144.6,301.5,1143,301.5z"/>
				</g>
			</g>
			<g>
				<g>
					<path class="st268" d="M1141.2,295.3c-0.3-0.2-0.5-0.3-0.8-0.5C1140.7,295,1141,295.1,1141.2,295.3z"/>
				</g>
				<g>
					<path class="st14" d="M1141.2,300.3c-0.9,0-1.8-0.2-2.6-0.8c-0.2-0.2-0.5-0.3-0.8-0.5c-1.6-0.9-2.4-2.6-2.4-4.3
						c0-0.9,0.2-1.8,0.7-2.6c1.4-2.4,4.5-3.1,6.9-1.7c0.3,0.2,0.6,0.4,0.9,0.5c1.5,0.9,2.4,2.6,2.4,4.2c0,0.9-0.2,1.8-0.8,2.6
						C1144.5,299.5,1142.9,300.3,1141.2,300.3z"/>
				</g>
			</g>
			<g>
				<g>
					<path class="st268" d="M1137.5,293.2c-0.3-0.1-0.6-0.3-0.9-0.4C1136.9,292.9,1137.2,293,1137.5,293.2z"/>
				</g>
				<g>
					<path class="st14" d="M1137.5,298.2c-0.8,0-1.6-0.2-2.3-0.6c-0.3-0.1-0.5-0.3-0.8-0.4c-1.8-0.9-2.8-2.6-2.8-4.5
						c0-0.7,0.2-1.5,0.5-2.2c1.2-2.5,4.2-3.5,6.7-2.3c0.3,0.2,0.6,0.3,0.9,0.5c1.7,0.9,2.7,2.6,2.7,4.4c0,0.8-0.2,1.6-0.6,2.3
						C1141,297.2,1139.3,298.2,1137.5,298.2z"/>
				</g>
			</g>
			<g>
				<g>
					<path class="st268" d="M1146.3,299c-0.2-0.1-0.4-0.3-0.5-0.4C1146,298.7,1146.2,298.8,1146.3,299z"/>
				</g>
				<g>
					<path class="st14" d="M1146.3,304c-1.1,0-2.2-0.4-3.2-1.1l-0.5-0.4c-1.2-1-1.9-2.4-1.9-3.9c0-1.1,0.4-2.2,1.1-3.1
						c1.7-2.2,4.9-2.5,7-0.8c0.1,0.1,0.3,0.2,0.4,0.3l0.2,0.1c1.2,1,1.8,2.4,1.8,3.9c0,1.1-0.4,2.2-1.1,3.2
						C1149.2,303.3,1147.8,304,1146.3,304z"/>
				</g>
			</g>
			<g>
				<g>
					<path class="st268" d="M1151.9,304.5c-0.2-0.2-0.4-0.5-0.6-0.7C1151.5,304,1151.7,304.2,1151.9,304.5z"/>
				</g>
				<g>
					<path class="st14" d="M1151.9,309.5c-1.4,0-2.8-0.6-3.8-1.8c-0.1-0.2-0.3-0.3-0.4-0.4l-0.2-0.2c-0.8-1-1.3-2.1-1.3-3.3
						c0-1.4,0.6-2.8,1.7-3.8c2.1-1.8,5.2-1.6,7.1,0.4l0.2,0.2c0.2,0.2,0.4,0.4,0.6,0.7c1.8,2.1,1.5,5.3-0.6,7
						C1154.2,309.1,1153.1,309.5,1151.9,309.5z"/>
				</g>
			</g>
			<g>
				<g>
					<path class="st268" d="M1150.5,302.8c-0.1-0.1-0.2-0.3-0.4-0.4C1150.2,302.6,1150.4,302.7,1150.5,302.8z"/>
				</g>
				<g>
					<path class="st14" d="M1150.5,307.8c-1.3,0-2.7-0.5-3.6-1.6l-0.3-0.4c-0.9-1-1.4-2.2-1.4-3.4c0-1.3,0.5-2.6,1.5-3.6
						c2-1.9,5.2-1.8,7.1,0.2l0.1,0.1c0.1,0.1,0.2,0.2,0.3,0.3c0.9,1,1.4,2.2,1.4,3.4c0,1.3-0.5,2.7-1.6,3.6
						C1152.9,307.4,1151.7,307.8,1150.5,307.8z"/>
				</g>
			</g>
			<g>
				<g>
					<path class="st268" d="M1133.5,291.3c-0.2-0.1-0.5-0.2-0.7-0.3C1133,291.1,1133.3,291.2,1133.5,291.3z"/>
				</g>
				<g>
					<path class="st14" d="M1133.5,296.3c-0.7,0-1.3-0.1-2-0.4l-0.7-0.3c-2.5-1.1-3.8-4-2.7-6.5s4-3.8,6.5-2.7l0.2,0.1
						c0.1,0,0.2,0.1,0.3,0.1c0.1,0,0.2,0.1,0.3,0.1c0,0,0,0,0,0c2.5,1.1,3.7,4,2.6,6.6C1137.3,295.2,1135.5,296.3,1133.5,296.3z"/>
				</g>
			</g>
			<g>
				<g>
					<path class="st268" d="M1147.5,299.9C1147.5,299.9,1147.5,299.9,1147.5,299.9C1147.5,299.9,1147.5,299.9,1147.5,299.9z"/>
				</g>
				<g>
					<path class="st14" d="M1147.5,304.9c-0.8,0-1.5-0.2-2.2-0.5c-0.2-0.1-0.3-0.2-0.5-0.3c-1.4-0.9-2.3-2.5-2.3-4.2
						c0-0.8,0.2-1.5,0.5-2.2c1.2-2.5,4.2-3.5,6.7-2.2c0.2,0.1,0.3,0.2,0.5,0.3c1.4,0.9,2.3,2.5,2.3,4.2c0,0.8-0.2,1.5-0.5,2.2
						C1151.1,303.9,1149.3,304.9,1147.5,304.9z"/>
				</g>
			</g>
			<g>
				<g>
					<g>
						<path class="st266" d="M1140.9,420c4.8,0.4,11.8-2.4,18.2-7.7c6.4-5.3,10.5-11.7,10.9-16.5l1.6-1.3l-8.4-9.6
							c-3.6-4.3-13.7-1.8-22.7,5.6c-8.9,7.4-13.3,16.9-9.7,21.2l8.4,9.6L1140.9,420z"/>
					</g>
					<g>
						<path d="M1139.3,426.3c-1.4,0-2.8-0.6-3.8-1.7l-8.4-9.6c0,0-0.1-0.1-0.1-0.1c-5.6-6.7-1.2-18.6,10.4-28.3
							c11.6-9.6,24-11.7,29.6-5.1l8.4,9.6c0.9,1,1.3,2.3,1.2,3.7c-0.1,1.3-0.8,2.6-1.8,3.4l-0.2,0.2c-1.4,5.8-5.8,12.3-12.4,17.7
							c-6.5,5.4-13.7,8.6-19.7,8.9l-0.2,0.2C1141.6,425.9,1140.4,426.3,1139.3,426.3z M1140.9,415c0.1,0,0.3,0,0.5,0
							c2.9,0.3,8.7-1.7,14.6-6.6c5.9-4.9,8.9-10.2,9.2-13.1c0-0.2,0.1-0.4,0.1-0.7l-5.7-6.5c0,0-0.1-0.1-0.1-0.1
							c-0.9-0.8-7.5-0.5-15.6,6.3c-8.1,6.7-9.7,13.1-9.1,14.2l5.7,6.5C1140.6,415,1140.8,415,1140.9,415z"/>
					</g>
				</g>
				<g>
					<g>
						<path class="st266" d="M1140.5,492.7c-2.3-7.7-11-16.8-23.2-23.4c-12.2-6.6-24.6-8.9-32.3-6.7l-3.1-1.7l-7.5,13.8
							c-4.4,8.2,5.8,22.3,22.8,31.5c17,9.2,34.4,10.1,38.8,1.9l7.5-13.8L1140.5,492.7z"/>
					</g>
					<g>
						<path d="M1123,518.9c-0.6,0-1.2,0-1.9,0c-8.1-0.4-17.4-3.3-26.3-8.1c-20.1-10.9-30.7-27.4-24.8-38.3l7.5-13.8
							c0.6-1.2,1.7-2,3-2.4c1.3-0.4,2.6-0.2,3.8,0.4l1.4,0.7c9.1-1.8,21.9,1,34,7.6c12.1,6.6,21.4,15.7,24.9,24.3l1.4,0.7
							c2.4,1.3,3.3,4.4,2,6.8l-7.5,13.8C1137.5,516,1131.4,518.9,1123,518.9z M1084.1,467.5l-5.2,9.7c-2.3,4.2,4.6,16,20.8,24.7
							c7.5,4.1,15.5,6.6,22,6.9c5.1,0.2,8.9-0.9,10.1-3l5.2-9.7c-0.5-0.6-0.9-1.3-1.2-2c-1.6-5.5-8.7-13.9-20.8-20.5
							s-23-7.9-28.5-6.3C1085.6,467.6,1084.8,467.7,1084.1,467.5z"/>
					</g>
				</g>
				<g>
					<g>
						
							<ellipse transform="matrix(0.4768 -0.879 0.879 0.4768 162.2657 1227.9945)" class="st255" cx="1112.7" cy="477.7" rx="16.9" ry="35.1"/>
					</g>
					<g>
						<path d="M1130.3,505c-8.1,0-18-2.7-28-8.1c-20.1-10.9-30.7-27.4-24.8-38.3c5.9-10.9,25.6-11,45.6-0.1
							c20.1,10.9,30.7,27.4,24.8,38.3c0,0,0,0,0,0C1145,502.3,1138.5,505,1130.3,505z M1095,460.4c-4.5,0-7.7,1.2-8.7,3
							c-2.3,4.2,4.6,16,20.8,24.7c16.1,8.7,29.8,8.2,32.1,3.9l0,0c2.3-4.2-4.6-16-20.8-24.7C1109.3,462.3,1100.9,460.4,1095,460.4z
							 M1143.6,494.4L1143.6,494.4L1143.6,494.4z"/>
					</g>
				</g>
				<g>
					<g>
						
							<ellipse transform="matrix(0.7696 -0.6385 0.6385 0.7696 5.7546 831.7225)" class="st255" cx="1155.5" cy="407.9" rx="21" ry="10.1"/>
					</g>
					<g>
						<path d="M1144.8,428.4c-3.9,0-7.1-1.3-9.3-3.9c0,0,0,0,0,0c-5.6-6.7-1.2-18.6,10.4-28.3c4.9-4.1,10.3-7,15.3-8.2
							c8.4-2.1,12.6,1.1,14.4,3.2c5.6,6.7,1.2,18.6-10.4,28.3C1158.1,425.4,1150.7,428.4,1144.8,428.4z M1143.2,418.1
							c0.9,0.8,7.5,0.5,15.6-6.3c8.2-6.8,9.7-13.2,9.1-14.2c-0.9-0.8-7.5-0.5-15.6,6.3C1144.1,410.7,1142.5,417.1,1143.2,418.1z"/>
					</g>
				</g>
			</g>
			<g>
				<g>
					<circle class="st255" cx="1179" cy="449" r="12"/>
				</g>
				<g>
					<path d="M1179,466c-9.4,0-17-7.6-17-17s7.6-17,17-17s17,7.6,17,17S1188.4,466,1179,466z M1179,441.9c-3.9,0-7,3.1-7,7
						c0,3.9,3.1,7,7,7c3.9,0,7-3.1,7-7C1186,445.1,1182.9,441.9,1179,441.9z"/>
				</g>
			</g>
			<g>
				<g>
					<g>
						<polyline class="st268" points="986.1,286.5 971.1,317.5 956.1,348.6 						"/>
					</g>
				</g>
				<g>
					<g>
						<path class="st14" d="M990.6,288.7c-4.2,16.9-11.6,32.6-20.2,47.6c-2.9,5-6.1,9.8-9.8,14.4c-1.8,2.2-5,2.6-7.2,0.8
							c-1.6-1.3-2.2-3.3-1.8-5.1c2.7-11.4,7.2-22,12.1-32.4c5.1-10.4,10.6-20.5,17.9-29.6C985,280.1,991.8,283.5,990.6,288.7
							L990.6,288.7z"/>
					</g>
				</g>
			</g>
			<g>
				<g>
					<g>
						<line class="st268" x1="935.9" y1="305.6" x2="930.7" y2="332.2"/>
					</g>
				</g>
				<g>
					<g>
						<path class="st14" d="M940.8,306.6c0,9.1-1.7,18.2-5.3,26.6c-1.2,2.6-4.3,3.7-6.8,2.5c-4.3-2.1-2.9-7.5-2.7-11.3
							c0.5-4.5,1.4-8.9,2.7-13.3c0.6-2.2,1.3-4.3,2.3-6.5c1.2-2.6,4.2-3.7,6.8-2.6C939.7,302.9,940.8,304.7,940.8,306.6L940.8,306.6
							z"/>
					</g>
				</g>
			</g>
			<g>
				<g>
					<g>
						<line class="st268" x1="1006.4" y1="339.9" x2="981.3" y2="357.1"/>
					</g>
				</g>
				<g>
					<g>
						<path class="st14" d="M1009.2,344c-3.1,4.3-7.1,7.4-11.4,10.2c-4.3,2.8-8.8,5.3-13.7,7c-5,1.7-9-4.3-5.7-8.2
							c3.4-4,7.3-7.2,11.4-10.2c4.2-3,8.5-5.7,13.7-7C1008.3,334.6,1012,340.1,1009.2,344L1009.2,344z"/>
					</g>
				</g>
			</g>
			<g>
				<g>
					<g>
						<polyline class="st268" points="955.9,500.1 973.6,527.6 992.2,556.5 						"/>
					</g>
				</g>
				<g>
					<g>
						<path class="st14" d="M960.1,497.4c12.6,11.5,21.9,25.8,29.8,40.7c2.5,5,4.9,10.2,6.6,15.7c0.8,2.7-0.7,5.6-3.4,6.5
							c-1.8,0.6-3.7,0.1-5-1.1c-8.5-7.7-15.1-16.7-21.4-26.2c-6.1-9.5-11.6-19.3-15-30.3c-0.8-2.8,0.8-5.7,3.5-6.5
							C956.9,495.8,958.8,496.2,960.1,497.4L960.1,497.4z"/>
					</g>
				</g>
			</g>
			<g>
				<g>
					<g>
						<polyline class="st268" points="978.7,490.7 991.8,501.4 1007.2,513.9 						"/>
					</g>
				</g>
				<g>
					<g>
						<path class="st14" d="M981.8,486.8c5.8,2.5,10.7,6.1,15.5,10c4.7,4,9.2,8.1,13,13.1c3.2,4.3-1.5,10-6.3,7.8
							c-8.3-4.1-15.7-9.7-22.4-16.1c-2.2-2.2-4.3-4.4-6.1-7.1c-1.6-2.4-1-5.6,1.3-7.2C978.3,486.3,980.2,486.2,981.8,486.8
							L981.8,486.8z"/>
					</g>
				</g>
			</g>
			<g>
				<g>
					<path class="st2" d="M1039.6,422c-11.1,0-20.2-9-20.2-20.2c0-11.1,9-20.2,20.2-20.2c11.1,0,20.2,9,20.2,20.2
						C1059.8,413,1050.8,422,1039.6,422z M1039.6,391.7c-5.6,0-10.2,4.6-10.2,10.2c0,5.6,4.6,10.2,10.2,10.2
						c5.6,0,10.2-4.6,10.2-10.2C1049.8,396.2,1045.3,391.7,1039.6,391.7z"/>
				</g>
			</g>
			<g>
				<g>
					<path class="st2" d="M1271.5,454c-10,0-18.1-8.1-18.1-18.1s8.1-18.1,18.1-18.1s18.1,8.1,18.1,18.1S1281.5,454,1271.5,454z
						 M1271.5,427.8c-4.5,0-8.1,3.6-8.1,8.1s3.6,8.1,8.1,8.1s8.1-3.6,8.1-8.1S1276,427.8,1271.5,427.8z"/>
				</g>
			</g>
		</g>
		<g>
			<g>
				<g>
					<g>
						<path class="st3" d="M249.6,406.4c-28.5,12.4-54.5,30.4-76.9,51.9c-21.6,20.6-45.5,46.5-52.4,76.3c-3,13-2.3,27.3,4.1,39
							c19.2,35.2,72.1,22.8,102.5,13.2"/>
					</g>
				</g>
				<g>
					<g>
						<path d="M171.7,601.9c-25,0-42.4-8.7-51.8-26c-6.5-12-8.1-27.1-4.5-42.5c7.2-31,31.3-57.2,53.9-78.8
							c23.8-22.7,50.2-40.5,78.4-52.8c2.5-1.1,5.5,0.1,6.6,2.6c1.1,2.5-0.1,5.5-2.6,6.6c-27.2,11.9-52.6,29-75.5,50.9
							c-21.5,20.6-44.4,45.4-51,73.8c-3,13.1-1.8,25.6,3.6,35.5c12.8,23.4,45.3,27.1,96.6,10.9c2.6-0.8,5.4,0.6,6.3,3.3
							c0.8,2.6-0.6,5.4-3.3,6.3C206.4,598.5,187.5,601.9,171.7,601.9z"/>
					</g>
				</g>
			</g>
			<g>
				<g>
					<g>
						<g>
							<g>
								<g>
									<path class="st3" d="M489.9,852.9c3,0,6.1,0.1,9.2,0.1c1.6,0,3.1,0,4.7,0c1.5,0,3,0,4.5,0c26.9-0.1,51.3-1.1,73.5-2.9
										c48.8-3.9,86.1-11.5,112.4-21.7c7.6-3,14.3-6.1,20.1-9.5l4-21.8l3-46.2l-7-65.7c7.8-14.6,8-30.1,8-30.1l-13.1,1.1
										c99.7-18.4,84.6-94.2,84.6-94.2c8.9-12.1,8.7-27.4-0.2-40.7c-10.7-16-38.2-16.7-57-13.8c-5.4-54.8-31.2-110.3-65.9-152.5
										c-94.7-115.3-270-105.8-382.4-21.9c-78.1,58.3-100.1,153-86.5,245.7c7.4,50.4,22.9,101.3,46.1,146.8l58.1,66l34.3,44.8
										c12.7,3.4,27,6.3,42.9,8.7C413.1,849.6,448.8,852.3,489.9,852.9z"/>
								</g>
							</g>
						</g>
						<g class="st1">
							<g>
								<g>
									<path class="st2" d="M745,645.3c59.8-27.5,48.7-83.3,48.7-83.3c8.9-12.1,8.7-27.4-0.2-40.7c-10.7-16-38.2-16.7-57-13.8
										c-5.4-54.8-31.2-110.3-65.9-152.5c-38.9-47.4-91.3-73.7-147.5-82.4c49.6,18.5,110.5,57.2,138.2,102.1
										c27.7,44.9,48.3,95,48.9,147.8c16.6,0.1,31.8,9.8,39.5,24.5c3.7,7.1,5.5,15.2,5.1,23.2c-0.5,9-5.3,14.4-0.7,22.7
										c6.9,12.6,5.7,25.9,0.1,38C753.2,633.2,749.4,640,745,645.3z"/>
								</g>
							</g>
						</g>
					</g>
					<g>
						<g>
							<g>
								<path class="st2" d="M600.3,686.1c-74.8,4.1-132.9,76.2-138.2,166c9,0.4,18.3,0.6,27.8,0.7c3,0,6.1,0.1,9.2,0.1
									c1.6,0,3.1,0,4.7,0c1.5,0,3,0,4.5,0c26.9-0.1,51.3-1.1,73.5-2.9c48.8-3.9,86.1-11.5,112.4-21.7c7.6-3,14.3-6.1,20.1-9.5
									l4-21.8l1.3-19.8C705.8,719,656.5,683,600.3,686.1z"/>
							</g>
						</g>
					</g>
					<g>
						<g>
							<g>
								<g>
									<path d="M247.8,730.5c-1.8,0-3.6-1-4.5-2.7c-22.8-44.7-38.9-96-46.5-148.3c-7.2-49.1-4.1-96.8,9.1-138
										c14.8-46.3,41.5-84.1,79.4-112.4c57.2-42.7,130.4-66.3,200.9-64.7c76.5,1.7,143.4,32.8,188.3,87.5
										c36.1,44,60.2,98.4,66.4,150.1c14.5-1.6,44.1-2.2,56.7,16.6c13.5,20.1,9.1,43.1-10.9,57.2c-27,19-62.2,17.7-86.2,10.2
										c-5.7-1.8-12.2-1.1-17.6,1.8c-13.4,7.3-34.4,16-58.2,16.6c-22.1,0.5-44.5-8.3-58.3-23c-1.9-2-1.8-5.2,0.2-7.1
										c2-1.9,5.2-1.8,7.1,0.2c12,12.7,31.5,20.3,50.8,19.8c21.8-0.5,41.2-8.7,53.7-15.4c7.8-4.2,17.1-5.2,25.4-2.6
										c7.5,2.3,46.5,12.9,77.5-8.9c15.5-10.9,18.8-27.9,8.4-43.4c-8.9-13.2-33.6-14.5-52-11.6l-5.2,0.8l-0.5-5.3
										c-5.1-51.2-28.7-105.8-64.8-149.8C572,242.7,398,257.3,291.2,337.1c-68.7,51.3-99.5,139.1-84.5,240.9
										c7.5,51.2,23.3,101.5,45.6,145.2c1.3,2.5,0.3,5.5-2.2,6.7C249.3,730.3,248.6,730.5,247.8,730.5z"/>
								</g>
							</g>
						</g>
						<g>
							<g>
								<g>
									<path d="M706.3,661.8c-2.4,0-4.5-1.7-4.9-4.2c-0.5-2.7,1.4-5.3,4.1-5.8c33.9-5.8,58-18.7,71.7-38.5
										c16.6-24,11.7-50.1,11.7-50.4c-0.5-2.7,1.2-5.3,3.9-5.9c2.7-0.5,5.3,1.2,5.9,3.9c0.2,1.2,5.8,30.4-13.1,57.9
										c-15.2,22.1-41.6,36.5-78.4,42.8C706.8,661.8,706.5,661.8,706.3,661.8z"/>
								</g>
							</g>
						</g>
						<g>
							<g>
								<g>
									<g>
										<path d="M719.5,686c7.5-14.9,7.7-30,7.7-30.7c0-2.8-2.2-5-4.9-5.1c0,0,0,0-0.1,0c-2.7,0-5,2.2-5,4.9
											c0,0.1-0.3,14.5-7.4,27.7l-0.9,1.6l0.4,1.8c0.1,0.6,13.5,61.1,2.8,131.1l-0.2,1.1c0,0.2,0,0.4,0,0.7l11-6.9
											C731.4,749.3,721.6,696.5,719.5,686z"/>
									</g>
								</g>
							</g>
						</g>
					</g>
					<g>
						<g>
							<g>
								<g>
									<path d="M721.2,608.5c3.6-7.1,5.9-14.8,7-22.6c-10.3-0.6-19.5-2.6-26.2-4.7c-7.2-2.2-14.9-1.4-21.5,2.2
										c-5.9,3.2-12.3,6.2-19.1,8.7c1.9,4.9,4.3,9.6,7.4,13.9c6.3,8.7,15.4,15.7,25.9,18.1c2.6,0.6,5.3,0.9,7.9,0.6
										C711,623.5,717.3,616.1,721.2,608.5z"/>
								</g>
							</g>
						</g>
					</g>
				</g>
			</g>
		</g>
		<g>
			<g>
				<g>
					<polygon class="st270" points="527.3,425 515.5,426.2 281.2,449.3 284.7,484.4 310.4,481.9 313.8,517.1 339.4,514.6 
						342.9,549.7 486.5,535.5 483,500.4 508.6,497.9 505.1,462.6 518.9,461.3 530.8,460.1 544.6,458.7 548.1,494 573.6,491.5 
						577.1,526.6 720.7,512.4 717.3,477.3 742.8,474.8 739.3,439.5 765,437 761.5,401.8 					"/>
				</g>
			</g>
			<g>
				<g>
					<path class="st2" d="M689,409l-22.7,2.2l-18.4,1.8l-11.3,1.1L527.3,425l-11.8,1.2l-49.2,4.9l-22.7,2.2l-18.4,1.8l-11.3,1.1
						l-132.6,13.1l0.4,4.4l-0.2,0l0.7,7.1l121.8-12c2.1-0.2,3.7,1.9,2.9,3.9l-40,94.7l11.3-1.1l41.2-97.5c0.4-1,1.3-1.6,2.3-1.7
						l12-1.2c2.1-0.2,3.7,1.9,2.9,3.9l-40,94.7l22.7-2.2l41.2-97.5c0.4-1,1.3-1.6,2.3-1.7l164-16.2c2.1-0.2,3.7,1.9,2.9,3.9
						l-40,94.7l11.3-1.1l41.2-97.5c0.4-1,1.3-1.6,2.3-1.7l12-1.2c2.1-0.2,3.7,1.9,2.9,3.9l-40,94.7l22.7-2.2l41.2-97.5
						c0.4-1,1.3-1.6,2.3-1.7l77.1-7.6l-0.3-2.7l-0.4-4.4l-0.4-4.4L689,409z"/>
				</g>
			</g>
			<g>
				<g>
					<path class="st14" d="M342.9,554.7c-1.2,0-2.3-0.4-3.2-1.1c-1-0.8-1.7-2.1-1.8-3.4l-3-30.1l-20.6,2c-1.3,0.1-2.6-0.3-3.7-1.1
						c-1-0.8-1.7-2.1-1.8-3.4l-3-30.3l-20.7,2c-2.8,0.3-5.2-1.7-5.5-4.5l-3.5-35.1c-0.3-2.7,1.7-5.2,4.5-5.5L761,396.9
						c1.3-0.1,2.6,0.3,3.7,1.1s1.7,2.1,1.8,3.4l3.5,35.1c0.1,1.3-0.3,2.6-1.1,3.7s-2.1,1.7-3.4,1.8l-20.7,2l3,30.3
						c0.3,2.7-1.7,5.2-4.5,5.5l-20.6,2l3,30.1c0.1,1.3-0.3,2.6-1.1,3.7s-2.1,1.7-3.4,1.8l-143.7,14.2c-2.7,0.3-5.2-1.7-5.5-4.5
						l-3-30.1l-20.6,2c-2.7,0.3-5.2-1.7-5.5-4.5l-3-30.3l-29.5,2.9l3,30.3c0.1,1.3-0.3,2.6-1.1,3.7s-2.1,1.7-3.4,1.8l-20.6,2l3,30.1
						c0.3,2.7-1.7,5.2-4.5,5.5l-143.7,14.2C343.2,554.7,343,554.7,342.9,554.7z M339.4,509.6c1.2,0,2.3,0.4,3.2,1.1
						c1,0.8,1.7,2.1,1.8,3.4l3,30.1L481,531.1l-3-30.1c-0.1-1.3,0.3-2.6,1.1-3.7s2.1-1.7,3.4-1.8l20.6-2l-3-30.3
						c-0.3-2.7,1.7-5.2,4.5-5.5l39.5-3.9c2.8-0.3,5.2,1.7,5.5,4.5l3,30.3l20.6-2c2.8-0.3,5.2,1.7,5.5,4.5l3,30.1l133.7-13.2l-3-30.1
						c-0.3-2.7,1.7-5.2,4.5-5.5l20.6-2l-3-30.3c-0.1-1.3,0.3-2.6,1.1-3.7s2.1-1.7,3.4-1.8l20.7-2l-2.5-25.2L527.8,430l-0.5-5l0.5,5
						l-241.1,23.8l2.5,25.2l20.7-2c2.8-0.3,5.2,1.7,5.5,4.5l3,30.3l20.6-2C339.1,509.6,339.2,509.6,339.4,509.6z"/>
				</g>
			</g>
			<g>
				<g>
					<path class="st14" d="M281.2,449.3l-95,31.7c-3.8,1.3-7.1,3.8-9.2,7.1l-12.6,19.5c-2.5,3.9-1.3,8.9,2.7,11.3l13.2,7.8
						c4,2.4,9.3,1.2,11.9-2.6l3.5-5.2c2.5-3.7,6.2-6.5,10.5-7.9l78.5-26.2L281.2,449.3z"/>
				</g>
				<g>
					<path class="st14" d="M184.9,532.9c-2.4,0-4.9-0.6-7.1-2l-13.2-7.8c-3.1-1.9-5.3-4.8-6.1-8.3c-0.8-3.5-0.2-7,1.8-10l12.6-19.5
						c2.7-4.2,6.9-7.5,11.8-9.1l95-31.7c1.4-0.5,3-0.3,4.3,0.5c1.3,0.8,2.1,2.2,2.3,3.7l3.5,35.4c0.2,2.3-1.2,4.5-3.4,5.2
						l-78.5,26.2c-3.3,1.1-6.1,3.2-7.9,6l-3.5,5.2C193.8,530.7,189.4,532.9,184.9,532.9z M276.9,456l-89,29.7
						c-2.7,0.9-5.1,2.7-6.6,5l-12.6,19.5c-0.6,0.9-0.6,1.8-0.4,2.3c0.2,0.8,0.7,1.5,1.5,2l13.2,7.8c1.7,1,4.1,0.5,5.2-1.1l3.5-5.2
						c3.1-4.6,7.7-8.1,13.1-9.9l74.7-24.9L276.9,456z"/>
				</g>
			</g>
		</g>
		<g>
			<g>
				<g>
					<g>
						<path d="M468.9,912.5c-1.3,24.6,3,49.1,11.4,72.3c2.2,6,11.8,3.4,9.6-2.7c-8.1-22.4-12.3-45.8-11-69.6
							C479.2,906,469.2,906,468.9,912.5L468.9,912.5z"/>
					</g>
				</g>
			</g>
			<g>
				<g>
					<g>
						<path d="M477.6,868.6c-2.3,6.4-4.1,12.9-5.5,19.6c-1.4,6.3,8.3,9,9.6,2.7c1.4-6.7,3.3-13.2,5.5-19.6
							C489.4,865.1,479.8,862.5,477.6,868.6L477.6,868.6z"/>
					</g>
				</g>
			</g>
			<g>
				<g>
					<g>
						<path d="M368.1,861.3c-15.1,32.4-19.2,68.3-11.2,103.3c1.4,6.3,11.1,3.6,9.6-2.7c-7.4-32.1-3.8-65.7,10.2-95.6
							C379.5,860.5,370.8,855.5,368.1,861.3L368.1,861.3z"/>
					</g>
				</g>
			</g>
			<g>
				<g>
					<g>
						<path d="M586.8,877.4c8.8,30.9,8.9,63.2,0.3,94.2c-1.7,6.2,7.9,8.9,9.6,2.7c9.1-32.6,9-66.9-0.3-99.5
							C594.7,868.6,585,871.2,586.8,877.4L586.8,877.4z"/>
					</g>
				</g>
			</g>
			<g>
				<g>
					<g>
						<path d="M690.3,831.4c32.5,42.3,31.9,98.6,9.4,145.4c-2.8,5.8,5.8,10.9,8.6,5c23.9-49.7,25.3-110.2-9.4-155.5
							C695,821.4,686.3,826.3,690.3,831.4L690.3,831.4z"/>
					</g>
				</g>
			</g>
			<g>
				<g>
					<g>
						<path d="M799.7,891.7c-0.5,4.7-1.3,9.4-2.2,14c-1.2,6.3,8.4,9,9.6,2.7c1.1-5.5,1.9-11.1,2.5-16.7c0.3-2.7-2.5-5-5-5
							C801.7,886.7,800,889,799.7,891.7L799.7,891.7z"/>
					</g>
				</g>
			</g>
			<g>
				<g>
					<g>
						<path d="M739.3,799.7c17.2-2,33.8,6.1,44.7,19.3c12.2,14.8,16.2,34.6,16.6,53.3c0.2,6.4,10.2,6.4,10,0
							c-0.5-21.5-5.6-43.5-19.6-60.3c-12.4-14.9-32.2-24.5-51.7-22.2C733,790.4,732.9,800.4,739.3,799.7L739.3,799.7z"/>
					</g>
				</g>
			</g>
			<g>
				<g>
					<g>
						<path d="M734.3,765c17.7-14.4,39-26,62.2-27.7c24.2-1.8,45.5,7.1,61.6,25.2c4.3,4.8,11.3-2.3,7.1-7.1
							c-17.7-19.8-42.1-30.1-68.7-28.1c-26,1.9-49.3,14.4-69.2,30.6C722.3,762,729.4,769.1,734.3,765L734.3,765z"/>
					</g>
				</g>
			</g>
			<g>
				<g>
					<g>
						<path d="M271.3,964.8c-16-48-14.8-107.5,27.8-141.8c5-4-2.1-11.1-7.1-7.1c-45.2,36.4-47.4,100.4-30.3,151.5
							C263.7,973.5,273.3,970.9,271.3,964.8L271.3,964.8z"/>
					</g>
				</g>
			</g>
			<g>
				<g>
					<g>
						<path d="M144.5,869.1c1.8-29.3,14.3-57.6,36.3-77.2c21.1-18.8,49.3-28.6,77.3-30.2c6.4-0.4,6.4-10.4,0-10
							c-30.8,1.8-61.2,12.5-84.4,33.2c-24,21.4-37.3,52.5-39.3,84.3C134.1,875.6,144.1,875.5,144.5,869.1L144.5,869.1z"/>
					</g>
				</g>
			</g>
		</g>
		<g>
			<g>
				<path d="M503.8,1007.6c-2.5,0-5.1,0-7.6,0c-113.5-0.8-208.7-19.4-275.2-53.9c-31.4-16.3-55.9-35.8-72.8-58
					c-16.9-22.1-25.8-46.4-26.5-72c0-1.1-0.1-2.3-0.1-3.4c0-1.1,0-2.2,0.1-3.2c0.7-27.5,10.3-52.4,28.7-73.8
					c18.4-21.4,45.7-39.5,81.1-53.7c2.6-1,5.5,0.2,6.5,2.8c1,2.6-0.2,5.5-2.8,6.5c-67.4,27-102.3,66.9-103.6,118.5
					c0,1-0.1,2-0.1,2.9c0,1,0,2.1,0.1,3.1c1.4,48.3,33.9,90.3,94,121.4c65.1,33.7,158.7,52,270.7,52.8c4.9,0,9.8,0,14.7,0
					c115.4-0.7,210.2-18.9,274.3-52.7c58.1-30.6,89.4-72.7,90.7-121.6c0-1,0.1-2,0.1-2.9c0-1,0-2.1-0.1-3.1
					c-1.5-51.2-39.7-92.5-110.6-119.7c-2.6-1-3.9-3.9-2.9-6.5c1-2.6,3.9-3.9,6.5-2.9c74.9,28.7,115.4,73.2,117,128.7
					c0,1.1,0.1,2.3,0.1,3.4c0,1.1,0,2.2-0.1,3.2c-0.6,25.8-9.1,50.1-25.1,72c-16.3,22.3-40.1,41.9-70.9,58.1
					c-65.5,34.5-162,53.2-278.9,53.9C508.7,1007.6,506.3,1007.6,503.8,1007.6z"/>
			</g>
		</g>
		<g>
			<g>
				<path d="M503.8,858c-1.6,0-3.2,0-4.8,0c-71.3-0.3-131.1-7.4-173-20.5c-41-12.9-63.2-31-64.2-52.3c0-0.5,0-1,0-1.5
					c0-0.5,0-1,0-1.5c0.2-2.8,2.5-4.9,5.3-4.7c2.8,0.2,4.9,2.5,4.7,5.3c0,0.3,0,0.6,0,0.9c0,0.3,0,0.6,0,1
					c0.8,16.6,21.1,32,57.2,43.3c40.9,12.8,99.7,19.8,170,20.1c3.1,0,6.2,0,9.2,0c72.5-0.3,132.1-7.2,172.3-20
					c34.9-11.1,54.5-26.5,55.2-43.3c0-0.4,0-0.7,0-1c0-0.3,0-0.6,0-0.9c-0.4-8.9-6.3-17.3-17.5-25.2c-2.3-1.6-2.8-4.7-1.2-7
					c1.6-2.3,4.7-2.8,7-1.2c13.8,9.7,21.1,20.8,21.7,32.8c0,0.4,0,1,0,1.5c0,0.5,0,1,0,1.4c-0.6,15-11.9,36.4-62.1,52.4
					c-41.2,13.1-101.8,20.2-175.3,20.5C506.9,858,505.4,858,503.8,858z"/>
			</g>
		</g>
		<g>
			<g>
				<path class="st267" d="M854.1,958.8c33.3-27,62-63.6,66.7-107.2c2.9-24.6-1.1-50.7-14.8-71.8c-3.2-4.7,2.5-10.3,7.1-7
					c4.1,3,7.6,6.6,10.7,10.6c15.4,19.9,19.7,46.1,16.3,70.6c-3.5,28.9-17.2,56.5-36.5,77.7c-12.8,14.2-27.8,25.9-43.8,35.4
					C854.5,970,849.5,962.8,854.1,958.8L854.1,958.8z"/>
			</g>
		</g>
		<g>
			<g>
				<path class="st267" d="M232.5,996.8c62.9,20.1,128,32.8,193.8,37.9c77.6,5.9,156.2,3.4,233.1-8.8c47.3-7.7,94-19.6,138.9-36.6
					c2.6-1,5.5,0.3,6.5,2.9c0.9,2.5-0.2,5.2-2.5,6.3c-72.2,33.8-151.6,50.2-230.8,56.2c-45.6,3.2-92.1,3.3-137.6-0.4
					c-33.5-2.9-67.1-7.8-99.9-15.2c-35.8-8-71.1-18.8-104.9-32.9C223.4,1003.6,226.3,995,232.5,996.8L232.5,996.8z"/>
			</g>
		</g>
		<g>
			<g>
				<path class="st267" d="M103.6,774.2c-19.5,27.8-24.7,64.3-14.1,96.4c14.3,43.1,50.4,74.4,87.4,98.6c5.2,3.5,0.7,11.5-5.1,8.6
					c-37.1-19.9-72.3-48.4-91.1-87.1C61.2,851.8,63.4,799,96.1,767.6C100.5,763.5,107.1,769.2,103.6,774.2L103.6,774.2z"/>
			</g>
		</g>
		<g>
			<g>
				<path class="st267" d="M947.9,893c12.9-15.6,18.9-35.6,17.4-55.6c-0.9-20.2-8-40-20.4-56.1c-3.6-4.9,2.8-10.8,7.3-6.8
					c21.6,19.8,30.8,50.9,27.2,79.6c-2.4,17.5-11,34.5-24.5,45.8C950.2,903.9,944,897.7,947.9,893L947.9,893z"/>
			</g>
		</g>
		<g>
			<g>
				<path class="st267" d="M48.5,805.4c-1.8,8.9-3.6,17.5-4.4,26.3c-0.8,8.8-0.6,17.7,0.4,26.5c2.1,18.1,8.1,35.6,16.3,51.9
					c2.6,5.3-4.4,9.9-8.3,5.5c-3.3-3.8-6.3-7.9-9-12.2c-10.9-17.3-17-37.7-17.4-58.2c-0.7-15.7,3.3-32.1,13.5-44.3
					C43.1,796.9,49.7,800.3,48.5,805.4L48.5,805.4z"/>
			</g>
		</g>
		<g>
			<g>
				<g>
					<path d="M511,1002.6c-2.4,0-4.8,0-7.2,0c-2.5,0-5,0-7.5,0c-237.8-1.6-366.8-80.9-369.6-179c0-0.1,0-0.2,0-0.3c0,0,0,0,0,0.1
						c0,1.1-0.1,2.1-0.1,3.2c0,1.2,0,2.3,0.1,3.4c2.8,103,131.8,186.1,369.6,187.9c2.5,0,5,0,7.5,0c2.4,0,4.8,0,7.2,0
						c246.8-1.6,367.5-84.9,369.9-188.1c0-1.1,0.1-2.1,0.1-3.2c0-1.1,0-2.1-0.1-3.2C878.5,921.7,757.8,1001.1,511,1002.6z"/>
				</g>
			</g>
		</g>
		<g>
			<g>
				<g>
					<g>
						<path class="st3" d="M317.4,673.7c-58.3-0.4-111.5,33.7-131,88.7c-5.4,15.3-12.2,38.3-12,54.5c0.2,16.2,2.1,35,8.7,50.8
							c4.8,11.5,12.2,21.4,23.4,27.5c37.4,20.7,68.3-6.8,99.3-33.4c19.5-16.7,43.2-29.6,65.3-35.7c4.8-1.3,9.6-2.4,14.2-3
							L317.4,673.7z"/>
					</g>
				</g>
				<g>
					<g>
						<path class="st2" d="M324.6,819.5c-12.7,2.8-24.9,8.6-35.3,16.1c-14.8,10.6-29.6,22.2-45.9,30.6c-18.8,9.7-40.8,10.5-60.3,1.5
							c4.8,11.5,12.2,21.4,23.4,27.5c37.4,20.7,68.3-6.8,99.3-33.4c19.5-16.7,43.2-29.6,65.3-35.7
							C359.9,816.2,340.8,815.9,324.6,819.5z"/>
					</g>
				</g>
			</g>
			<g>
				<g>
					<g>
						<path d="M384.1,818.4c-17,2.5-33.3,8.9-48.4,17c-16.7,9-30.8,21-45.3,33.1c-13.5,11.3-28.4,23.2-45.8,27.5
							c-16,4-33.8-0.9-45.5-12.7c-10.3-10.5-15-25.2-17.5-39.4c-2.5-14.7-3.2-30-0.4-44.7c6-31.6,18.3-62,41.9-84.4
							c25.3-23.9,59.6-36.3,94.2-36.2c6.4,0,6.4-10,0-10c-33.2-0.1-65.8,10.5-91.9,31.1c-12.6,9.9-23.5,22.1-31.8,35.8
							c-9.1,14.9-14.8,31.7-19.2,48.5c-4.3,16.6-5.8,32.7-4.2,49.8c1.5,15.7,4.8,31.7,13.1,45.3c8.8,14.6,23.7,24.7,40.6,27.5
							c17.8,2.9,34.8-3.5,49.6-13c19.2-12.4,34.9-29.4,54-41.8c17.9-11.7,37.9-20.7,59.2-23.8C393.1,827.1,390.4,817.4,384.1,818.4
							L384.1,818.4z"/>
					</g>
				</g>
			</g>
		</g>
		<g>
			<g>
				<path class="st2" d="M852.6,774.1c13,25.9,13.6,58.3,1.9,84.7c-2.6,5.5-10.8,2.6-9.4-3.3c3.7-14.4,5.3-29.1,4.4-43.9
					c-0.7-11.4-2.9-22.8-6.1-33.8C841.7,772,849.7,768.7,852.6,774.1L852.6,774.1z"/>
			</g>
		</g>
		<g>
			<g>
				<path class="st2" d="M846,877.1c-1.2,3.6-3.4,6.8-6.1,9.5c-2.1,1.9-5.3,1.8-7.3-0.3c-1.4-1.5-1.7-3.5-1-5.3
					c1.3-3.6,3.3-6.9,6.1-9.5C841.6,868.2,847.5,872.3,846,877.1L846,877.1z"/>
			</g>
		</g>
		<g>
			<g>
				<path class="st2" d="M614.7,861.8c10.8-1,21.5-2.4,32-4.7c10.6-2.3,20.8-5.4,31.2-8.7c5.7-1.6,9.1,6,4.1,9.1
					c-12.5,7.5-26.9,11.8-41.3,13.8c-8.6,1.1-17.6,1.4-26.2,0.5C608.6,871,608.7,862.4,614.7,861.8L614.7,861.8z"/>
			</g>
		</g>
	</g>
</g>
</svg>
