<?xml version="1.0" encoding="utf-8"?>
<!-- Generator: Adobe Illustrator 27.1.1, SVG Export Plug-In . SVG Version: 6.00 Build 0)  -->
<svg version="1.1" xmlns="http://www.w3.org/2000/svg" xmlns:xlink="http://www.w3.org/1999/xlink" x="0px" y="0px"
	 viewBox="0 0 895.9 827.6" style="enable-background:new 0 0 895.9 827.6;" xml:space="preserve">
<style type="text/css">
	.st0{fill:#00B7F2;}
	.st1{opacity:0.6;}
	.st2{fill:#FFFFFF;}
	.st3{fill:#F56885;}
	.st4{fill:#68D093;}
	.st5{fill:#215ED5;}
	.st6{fill:#E8370A;}
	.st7{opacity:0.4;}
	.st8{fill:#FBC3CE;}
	.st9{fill:none;stroke:#000000;stroke-width:10;stroke-linecap:round;stroke-miterlimit:10;}
	.st10{fill:#FFDA96;}
	.st11{fill:#FFDA5D;}
	.st12{fill:#FFB82E;}
	.st13{fill:#D6BDA7;}
	.st14{fill:#231815;}
	.st15{clip-path:url(#SVGID_00000050647535344747004940000011274229037478777735_);fill:#FFFFFF;}
	.st16{clip-path:url(#SVGID_00000050647535344747004940000011274229037478777735_);fill:#FFFFFE;}
	.st17{clip-path:url(#SVGID_00000050647535344747004940000011274229037478777735_);fill:#FFFFFD;}
	.st18{clip-path:url(#SVGID_00000050647535344747004940000011274229037478777735_);fill:#FFFEFC;}
	.st19{clip-path:url(#SVGID_00000050647535344747004940000011274229037478777735_);fill:#FFFEFB;}
	.st20{clip-path:url(#SVGID_00000050647535344747004940000011274229037478777735_);fill:#FFFEFA;}
	.st21{clip-path:url(#SVGID_00000050647535344747004940000011274229037478777735_);fill:#FFFEF9;}
	.st22{clip-path:url(#SVGID_00000050647535344747004940000011274229037478777735_);fill:#FFFDF8;}
	.st23{clip-path:url(#SVGID_00000050647535344747004940000011274229037478777735_);fill:#FFFDF7;}
	.st24{clip-path:url(#SVGID_00000050647535344747004940000011274229037478777735_);fill:#FFFDF6;}
	.st25{clip-path:url(#SVGID_00000050647535344747004940000011274229037478777735_);fill:#FFFDF5;}
	.st26{clip-path:url(#SVGID_00000050647535344747004940000011274229037478777735_);fill:#FFFDF4;}
	.st27{clip-path:url(#SVGID_00000050647535344747004940000011274229037478777735_);fill:#FFFCF3;}
	.st28{clip-path:url(#SVGID_00000050647535344747004940000011274229037478777735_);fill:#FFFCF2;}
	.st29{clip-path:url(#SVGID_00000050647535344747004940000011274229037478777735_);fill:#FFFCF1;}
	.st30{clip-path:url(#SVGID_00000050647535344747004940000011274229037478777735_);fill:#FFFCF0;}
	.st31{clip-path:url(#SVGID_00000050647535344747004940000011274229037478777735_);fill:#FFFBEF;}
	.st32{clip-path:url(#SVGID_00000050647535344747004940000011274229037478777735_);fill:#FFFBEE;}
	.st33{clip-path:url(#SVGID_00000050647535344747004940000011274229037478777735_);fill:#FFFBED;}
	.st34{clip-path:url(#SVGID_00000050647535344747004940000011274229037478777735_);fill:#FFFBEC;}
	.st35{clip-path:url(#SVGID_00000050647535344747004940000011274229037478777735_);fill:#FFFBEB;}
	.st36{clip-path:url(#SVGID_00000050647535344747004940000011274229037478777735_);fill:#FFFAEA;}
	.st37{clip-path:url(#SVGID_00000050647535344747004940000011274229037478777735_);fill:#FFFAE9;}
	.st38{clip-path:url(#SVGID_00000050647535344747004940000011274229037478777735_);fill:#FFFAE8;}
	.st39{clip-path:url(#SVGID_00000050647535344747004940000011274229037478777735_);fill:#FFFAE7;}
	.st40{clip-path:url(#SVGID_00000050647535344747004940000011274229037478777735_);fill:#FFF9E6;}
	.st41{clip-path:url(#SVGID_00000050647535344747004940000011274229037478777735_);fill:#FFF9E5;}
	.st42{clip-path:url(#SVGID_00000050647535344747004940000011274229037478777735_);fill:#FFF9E4;}
	.st43{clip-path:url(#SVGID_00000050647535344747004940000011274229037478777735_);fill:#FFF9E3;}
	.st44{clip-path:url(#SVGID_00000050647535344747004940000011274229037478777735_);fill:#FFF9E2;}
	.st45{clip-path:url(#SVGID_00000050647535344747004940000011274229037478777735_);fill:#FFF8E1;}
	.st46{clip-path:url(#SVGID_00000050647535344747004940000011274229037478777735_);fill:#FFF8E0;}
	.st47{clip-path:url(#SVGID_00000050647535344747004940000011274229037478777735_);fill:#FFF8DF;}
	.st48{clip-path:url(#SVGID_00000050647535344747004940000011274229037478777735_);fill:#FFF8DE;}
	.st49{clip-path:url(#SVGID_00000050647535344747004940000011274229037478777735_);fill:#FFF7DD;}
	.st50{clip-path:url(#SVGID_00000050647535344747004940000011274229037478777735_);fill:#FFF7DC;}
	.st51{clip-path:url(#SVGID_00000050647535344747004940000011274229037478777735_);fill:#FFF7DB;}
	.st52{clip-path:url(#SVGID_00000050647535344747004940000011274229037478777735_);fill:#FFF7DA;}
	.st53{clip-path:url(#SVGID_00000050647535344747004940000011274229037478777735_);fill:#FFF7D9;}
	.st54{clip-path:url(#SVGID_00000050647535344747004940000011274229037478777735_);fill:#FFF6D8;}
	.st55{clip-path:url(#SVGID_00000050647535344747004940000011274229037478777735_);fill:#FFF6D7;}
	.st56{clip-path:url(#SVGID_00000050647535344747004940000011274229037478777735_);fill:#FFF6D6;}
	.st57{clip-path:url(#SVGID_00000050647535344747004940000011274229037478777735_);fill:#FFF6D5;}
	.st58{clip-path:url(#SVGID_00000050647535344747004940000011274229037478777735_);fill:#FFF5D4;}
	.st59{clip-path:url(#SVGID_00000050647535344747004940000011274229037478777735_);fill:#FFF5D3;}
	.st60{clip-path:url(#SVGID_00000050647535344747004940000011274229037478777735_);fill:#FFF5D2;}
	.st61{clip-path:url(#SVGID_00000050647535344747004940000011274229037478777735_);fill:#FFF5D1;}
	.st62{clip-path:url(#SVGID_00000050647535344747004940000011274229037478777735_);fill:#FFF5D0;}
	.st63{clip-path:url(#SVGID_00000050647535344747004940000011274229037478777735_);fill:#FFF4CF;}
	.st64{clip-path:url(#SVGID_00000050647535344747004940000011274229037478777735_);fill:#FFF4CE;}
	.st65{clip-path:url(#SVGID_00000050647535344747004940000011274229037478777735_);fill:#FFF4CD;}
	.st66{clip-path:url(#SVGID_00000050647535344747004940000011274229037478777735_);fill:#FFF4CC;}
	.st67{clip-path:url(#SVGID_00000050647535344747004940000011274229037478777735_);fill:#FFF3CB;}
	.st68{clip-path:url(#SVGID_00000050647535344747004940000011274229037478777735_);fill:#FFF3CA;}
	.st69{clip-path:url(#SVGID_00000050647535344747004940000011274229037478777735_);fill:#FFF3C9;}
	.st70{clip-path:url(#SVGID_00000050647535344747004940000011274229037478777735_);fill:#FFF3C8;}
	.st71{clip-path:url(#SVGID_00000050647535344747004940000011274229037478777735_);fill:#FFF3C7;}
	.st72{clip-path:url(#SVGID_00000050647535344747004940000011274229037478777735_);fill:#FFF2C6;}
	.st73{clip-path:url(#SVGID_00000050647535344747004940000011274229037478777735_);fill:#FFF2C5;}
	.st74{clip-path:url(#SVGID_00000050647535344747004940000011274229037478777735_);fill:#FFF2C4;}
	.st75{clip-path:url(#SVGID_00000050647535344747004940000011274229037478777735_);fill:#FFF2C3;}
	.st76{clip-path:url(#SVGID_00000050647535344747004940000011274229037478777735_);fill:#FFF1C2;}
	.st77{clip-path:url(#SVGID_00000050647535344747004940000011274229037478777735_);fill:#FFF1C1;}
	.st78{clip-path:url(#SVGID_00000050647535344747004940000011274229037478777735_);fill:#FFF1C0;}
	.st79{clip-path:url(#SVGID_00000050647535344747004940000011274229037478777735_);fill:#FFF1BF;}
	.st80{clip-path:url(#SVGID_00000050647535344747004940000011274229037478777735_);fill:#FFF1BE;}
	.st81{clip-path:url(#SVGID_00000050647535344747004940000011274229037478777735_);fill:#FFF0BD;}
	.st82{clip-path:url(#SVGID_00000050647535344747004940000011274229037478777735_);fill:#FFF0BC;}
	.st83{clip-path:url(#SVGID_00000050647535344747004940000011274229037478777735_);fill:#FFF0BB;}
	.st84{clip-path:url(#SVGID_00000050647535344747004940000011274229037478777735_);fill:#FFF0BA;}
	.st85{clip-path:url(#SVGID_00000050647535344747004940000011274229037478777735_);fill:#FFEFB9;}
	.st86{clip-path:url(#SVGID_00000050647535344747004940000011274229037478777735_);fill:#FFEFB8;}
	.st87{clip-path:url(#SVGID_00000050647535344747004940000011274229037478777735_);fill:#FFEFB7;}
	.st88{clip-path:url(#SVGID_00000050647535344747004940000011274229037478777735_);fill:#FFEFB6;}
	.st89{clip-path:url(#SVGID_00000050647535344747004940000011274229037478777735_);fill:#FFEFB5;}
	.st90{clip-path:url(#SVGID_00000050647535344747004940000011274229037478777735_);fill:#FFEEB4;}
	.st91{clip-path:url(#SVGID_00000050647535344747004940000011274229037478777735_);fill:#FFEEB3;}
	.st92{clip-path:url(#SVGID_00000050647535344747004940000011274229037478777735_);fill:#FFEEB2;}
	.st93{clip-path:url(#SVGID_00000050647535344747004940000011274229037478777735_);fill:#FFEEB1;}
	.st94{clip-path:url(#SVGID_00000050647535344747004940000011274229037478777735_);fill:#FFEDB0;}
	.st95{clip-path:url(#SVGID_00000050647535344747004940000011274229037478777735_);fill:#FFEDAF;}
	.st96{clip-path:url(#SVGID_00000050647535344747004940000011274229037478777735_);fill:#FFEDAE;}
	.st97{clip-path:url(#SVGID_00000050647535344747004940000011274229037478777735_);fill:#FFEDAD;}
	.st98{clip-path:url(#SVGID_00000050647535344747004940000011274229037478777735_);fill:#FFEDAC;}
	.st99{clip-path:url(#SVGID_00000050647535344747004940000011274229037478777735_);fill:#FFECAB;}
	.st100{clip-path:url(#SVGID_00000050647535344747004940000011274229037478777735_);fill:#FFECAA;}
	.st101{clip-path:url(#SVGID_00000050647535344747004940000011274229037478777735_);fill:#FFECA9;}
	.st102{clip-path:url(#SVGID_00000050647535344747004940000011274229037478777735_);fill:#FFECA8;}
	.st103{clip-path:url(#SVGID_00000050647535344747004940000011274229037478777735_);fill:#FFEBA7;}
	.st104{clip-path:url(#SVGID_00000050647535344747004940000011274229037478777735_);fill:#FFEBA6;}
	.st105{clip-path:url(#SVGID_00000050647535344747004940000011274229037478777735_);fill:#FFEBA5;}
	.st106{clip-path:url(#SVGID_00000050647535344747004940000011274229037478777735_);fill:#FFEBA4;}
	.st107{clip-path:url(#SVGID_00000050647535344747004940000011274229037478777735_);fill:#FFEBA3;}
	.st108{clip-path:url(#SVGID_00000050647535344747004940000011274229037478777735_);fill:#FFEAA2;}
	.st109{clip-path:url(#SVGID_00000050647535344747004940000011274229037478777735_);fill:#FFEAA1;}
	.st110{clip-path:url(#SVGID_00000050647535344747004940000011274229037478777735_);fill:#FFEAA0;}
	.st111{clip-path:url(#SVGID_00000050647535344747004940000011274229037478777735_);fill:#FFEA9F;}
	.st112{clip-path:url(#SVGID_00000050647535344747004940000011274229037478777735_);fill:#FFE99E;}
	.st113{clip-path:url(#SVGID_00000050647535344747004940000011274229037478777735_);fill:#FFE99D;}
	.st114{clip-path:url(#SVGID_00000050647535344747004940000011274229037478777735_);fill:#FFE99C;}
	.st115{clip-path:url(#SVGID_00000050647535344747004940000011274229037478777735_);fill:#FFE99B;}
	.st116{clip-path:url(#SVGID_00000050647535344747004940000011274229037478777735_);fill:#FFE99A;}
	.st117{clip-path:url(#SVGID_00000050647535344747004940000011274229037478777735_);fill:#FFE899;}
	.st118{clip-path:url(#SVGID_00000050647535344747004940000011274229037478777735_);fill:#FFE898;}
	.st119{clip-path:url(#SVGID_00000050647535344747004940000011274229037478777735_);fill:#FFE897;}
	.st120{clip-path:url(#SVGID_00000050647535344747004940000011274229037478777735_);fill:#FFE896;}
	.st121{clip-path:url(#SVGID_00000050647535344747004940000011274229037478777735_);fill:#FFE795;}
	.st122{clip-path:url(#SVGID_00000050647535344747004940000011274229037478777735_);fill:#FFE794;}
	.st123{clip-path:url(#SVGID_00000050647535344747004940000011274229037478777735_);fill:#FFE793;}
	.st124{clip-path:url(#SVGID_00000050647535344747004940000011274229037478777735_);fill:#FFE792;}
	.st125{clip-path:url(#SVGID_00000050647535344747004940000011274229037478777735_);fill:#FFE791;}
	.st126{clip-path:url(#SVGID_00000050647535344747004940000011274229037478777735_);fill:#FFE690;}
	.st127{clip-path:url(#SVGID_00000050647535344747004940000011274229037478777735_);fill:#FFE68F;}
	.st128{clip-path:url(#SVGID_00000050647535344747004940000011274229037478777735_);fill:#FFE68E;}
	.st129{clip-path:url(#SVGID_00000050647535344747004940000011274229037478777735_);fill:#FFE68D;}
	.st130{clip-path:url(#SVGID_00000050647535344747004940000011274229037478777735_);fill:#FFE68C;}
	.st131{clip-path:url(#SVGID_00000050647535344747004940000011274229037478777735_);fill:#FFE58A;}
	.st132{clip-path:url(#SVGID_00000050647535344747004940000011274229037478777735_);fill:#FFE589;}
	.st133{clip-path:url(#SVGID_00000050647535344747004940000011274229037478777735_);fill:#FFE588;}
	.st134{clip-path:url(#SVGID_00000050647535344747004940000011274229037478777735_);fill:#FFE587;}
	.st135{clip-path:url(#SVGID_00000050647535344747004940000011274229037478777735_);fill:#FFE486;}
	.st136{clip-path:url(#SVGID_00000050647535344747004940000011274229037478777735_);fill:#FFE485;}
	.st137{clip-path:url(#SVGID_00000050647535344747004940000011274229037478777735_);fill:#FFE484;}
	.st138{clip-path:url(#SVGID_00000050647535344747004940000011274229037478777735_);fill:#FFE483;}
	.st139{clip-path:url(#SVGID_00000050647535344747004940000011274229037478777735_);fill:#FFE482;}
	.st140{clip-path:url(#SVGID_00000050647535344747004940000011274229037478777735_);fill:#FFE381;}
	.st141{clip-path:url(#SVGID_00000050647535344747004940000011274229037478777735_);fill:#FFE380;}
	.st142{clip-path:url(#SVGID_00000050647535344747004940000011274229037478777735_);fill:#FFE37F;}
	.st143{clip-path:url(#SVGID_00000050647535344747004940000011274229037478777735_);fill:#FFE37E;}
	.st144{clip-path:url(#SVGID_00000050647535344747004940000011274229037478777735_);fill:#FFE27D;}
	.st145{clip-path:url(#SVGID_00000050647535344747004940000011274229037478777735_);fill:#FFE27C;}
	.st146{clip-path:url(#SVGID_00000050647535344747004940000011274229037478777735_);fill:#FFE27B;}
	.st147{clip-path:url(#SVGID_00000050647535344747004940000011274229037478777735_);fill:#FFE27A;}
	.st148{clip-path:url(#SVGID_00000050647535344747004940000011274229037478777735_);fill:#FFE279;}
	.st149{clip-path:url(#SVGID_00000050647535344747004940000011274229037478777735_);fill:#FFE178;}
	.st150{clip-path:url(#SVGID_00000050647535344747004940000011274229037478777735_);fill:#FFE177;}
	.st151{clip-path:url(#SVGID_00000050647535344747004940000011274229037478777735_);fill:#FFE176;}
	.st152{clip-path:url(#SVGID_00000050647535344747004940000011274229037478777735_);fill:#FFE175;}
	.st153{clip-path:url(#SVGID_00000050647535344747004940000011274229037478777735_);fill:#FFE074;}
	.st154{clip-path:url(#SVGID_00000050647535344747004940000011274229037478777735_);fill:#FFE073;}
	.st155{clip-path:url(#SVGID_00000050647535344747004940000011274229037478777735_);fill:#FFE072;}
	.st156{clip-path:url(#SVGID_00000050647535344747004940000011274229037478777735_);fill:#FFE071;}
	.st157{clip-path:url(#SVGID_00000050647535344747004940000011274229037478777735_);fill:#FFE070;}
	.st158{clip-path:url(#SVGID_00000050647535344747004940000011274229037478777735_);fill:#FFDF6F;}
	.st159{clip-path:url(#SVGID_00000050647535344747004940000011274229037478777735_);fill:#FFDF6E;}
	.st160{clip-path:url(#SVGID_00000050647535344747004940000011274229037478777735_);fill:#FFDF6D;}
	.st161{clip-path:url(#SVGID_00000050647535344747004940000011274229037478777735_);fill:#FFDF6C;}
	.st162{clip-path:url(#SVGID_00000050647535344747004940000011274229037478777735_);fill:#FFDE6B;}
	.st163{clip-path:url(#SVGID_00000050647535344747004940000011274229037478777735_);fill:#FFDE6A;}
	.st164{clip-path:url(#SVGID_00000050647535344747004940000011274229037478777735_);fill:#FFDE69;}
	.st165{clip-path:url(#SVGID_00000050647535344747004940000011274229037478777735_);fill:#FFDE68;}
	.st166{clip-path:url(#SVGID_00000050647535344747004940000011274229037478777735_);fill:#FFDE67;}
	.st167{clip-path:url(#SVGID_00000050647535344747004940000011274229037478777735_);fill:#FFDD66;}
	.st168{clip-path:url(#SVGID_00000050647535344747004940000011274229037478777735_);fill:#FFDD65;}
	.st169{clip-path:url(#SVGID_00000050647535344747004940000011274229037478777735_);fill:#FFDD64;}
	.st170{clip-path:url(#SVGID_00000050647535344747004940000011274229037478777735_);fill:#FFDD63;}
	.st171{clip-path:url(#SVGID_00000050647535344747004940000011274229037478777735_);fill:#FFDC62;}
	.st172{clip-path:url(#SVGID_00000050647535344747004940000011274229037478777735_);fill:#FFDC61;}
	.st173{clip-path:url(#SVGID_00000050647535344747004940000011274229037478777735_);fill:#FFDC60;}
	.st174{clip-path:url(#SVGID_00000050647535344747004940000011274229037478777735_);fill:#FFDC5F;}
	.st175{clip-path:url(#SVGID_00000050647535344747004940000011274229037478777735_);fill:#FFDC5E;}
	.st176{clip-path:url(#SVGID_00000050647535344747004940000011274229037478777735_);fill:#FFDB5D;}
	.st177{clip-path:url(#SVGID_00000050647535344747004940000011274229037478777735_);fill:#FFDB5C;}
	.st178{clip-path:url(#SVGID_00000050647535344747004940000011274229037478777735_);fill:#FFDB5B;}
	.st179{clip-path:url(#SVGID_00000050647535344747004940000011274229037478777735_);fill:#FFDB5A;}
	.st180{clip-path:url(#SVGID_00000050647535344747004940000011274229037478777735_);fill:#FFDA59;}
	.st181{clip-path:url(#SVGID_00000050647535344747004940000011274229037478777735_);fill:#FFDA58;}
	.st182{clip-path:url(#SVGID_00000050647535344747004940000011274229037478777735_);fill:#FFDA57;}
	.st183{clip-path:url(#SVGID_00000050647535344747004940000011274229037478777735_);fill:#FFDA56;}
	.st184{clip-path:url(#SVGID_00000050647535344747004940000011274229037478777735_);fill:#FFDA55;}
	.st185{clip-path:url(#SVGID_00000050647535344747004940000011274229037478777735_);fill:#FFD954;}
	.st186{clip-path:url(#SVGID_00000050647535344747004940000011274229037478777735_);fill:#FFD953;}
	.st187{clip-path:url(#SVGID_00000050647535344747004940000011274229037478777735_);fill:#FFD952;}
	.st188{clip-path:url(#SVGID_00000050647535344747004940000011274229037478777735_);fill:#FFD951;}
	.st189{clip-path:url(#SVGID_00000050647535344747004940000011274229037478777735_);fill:#FFD850;}
	.st190{clip-path:url(#SVGID_00000050647535344747004940000011274229037478777735_);fill:#FFD84F;}
	.st191{clip-path:url(#SVGID_00000050647535344747004940000011274229037478777735_);fill:#FFD84E;}
	.st192{clip-path:url(#SVGID_00000050647535344747004940000011274229037478777735_);fill:#FFD84D;}
	.st193{clip-path:url(#SVGID_00000050647535344747004940000011274229037478777735_);fill:#FFD84C;}
	.st194{clip-path:url(#SVGID_00000050647535344747004940000011274229037478777735_);fill:#FFD74B;}
	.st195{clip-path:url(#SVGID_00000050647535344747004940000011274229037478777735_);fill:#FFD74A;}
	.st196{clip-path:url(#SVGID_00000050647535344747004940000011274229037478777735_);fill:#FFD749;}
	.st197{clip-path:url(#SVGID_00000050647535344747004940000011274229037478777735_);fill:#FFD748;}
	.st198{clip-path:url(#SVGID_00000050647535344747004940000011274229037478777735_);fill:#FFD647;}
	.st199{clip-path:url(#SVGID_00000050647535344747004940000011274229037478777735_);fill:#FFD646;}
	.st200{clip-path:url(#SVGID_00000050647535344747004940000011274229037478777735_);fill:#FFD645;}
	.st201{clip-path:url(#SVGID_00000050647535344747004940000011274229037478777735_);fill:#FFD644;}
	.st202{clip-path:url(#SVGID_00000050647535344747004940000011274229037478777735_);fill:#FFD643;}
	.st203{clip-path:url(#SVGID_00000050647535344747004940000011274229037478777735_);fill:#FFD542;}
	.st204{clip-path:url(#SVGID_00000050647535344747004940000011274229037478777735_);fill:#FFD541;}
	.st205{clip-path:url(#SVGID_00000050647535344747004940000011274229037478777735_);fill:#FFD540;}
	.st206{clip-path:url(#SVGID_00000050647535344747004940000011274229037478777735_);fill:#FFD53F;}
	.st207{clip-path:url(#SVGID_00000050647535344747004940000011274229037478777735_);fill:#FFD43E;}
	.st208{clip-path:url(#SVGID_00000050647535344747004940000011274229037478777735_);fill:#FFD43D;}
	.st209{clip-path:url(#SVGID_00000050647535344747004940000011274229037478777735_);fill:#FFD43C;}
	.st210{clip-path:url(#SVGID_00000050647535344747004940000011274229037478777735_);fill:#FFD43B;}
	.st211{clip-path:url(#SVGID_00000050647535344747004940000011274229037478777735_);fill:#FFD43A;}
	.st212{clip-path:url(#SVGID_00000050647535344747004940000011274229037478777735_);fill:#FFD339;}
	.st213{clip-path:url(#SVGID_00000050647535344747004940000011274229037478777735_);fill:#FFD338;}
	.st214{clip-path:url(#SVGID_00000050647535344747004940000011274229037478777735_);fill:#FFD337;}
	.st215{clip-path:url(#SVGID_00000050647535344747004940000011274229037478777735_);fill:#FFD336;}
	.st216{clip-path:url(#SVGID_00000050647535344747004940000011274229037478777735_);fill:#FFD235;}
	.st217{clip-path:url(#SVGID_00000050647535344747004940000011274229037478777735_);fill:#FFD234;}
	.st218{clip-path:url(#SVGID_00000050647535344747004940000011274229037478777735_);fill:#FFD233;}
	.st219{clip-path:url(#SVGID_00000050647535344747004940000011274229037478777735_);fill:#FFD232;}
	.st220{clip-path:url(#SVGID_00000050647535344747004940000011274229037478777735_);fill:#FFD231;}
	.st221{clip-path:url(#SVGID_00000050647535344747004940000011274229037478777735_);fill:#FFD130;}
	.st222{clip-path:url(#SVGID_00000050647535344747004940000011274229037478777735_);fill:#FFD12F;}
	.st223{clip-path:url(#SVGID_00000050647535344747004940000011274229037478777735_);fill:#FFD12E;}
	.st224{clip-path:url(#SVGID_00000050647535344747004940000011274229037478777735_);fill:#FFD12D;}
	.st225{clip-path:url(#SVGID_00000050647535344747004940000011274229037478777735_);fill:#FFD02C;}
	.st226{clip-path:url(#SVGID_00000050647535344747004940000011274229037478777735_);fill:#FFD02B;}
	.st227{clip-path:url(#SVGID_00000050647535344747004940000011274229037478777735_);fill:#FFD02A;}
	.st228{clip-path:url(#SVGID_00000050647535344747004940000011274229037478777735_);fill:#FFD029;}
	.st229{clip-path:url(#SVGID_00000050647535344747004940000011274229037478777735_);fill:#FFD028;}
	.st230{clip-path:url(#SVGID_00000050647535344747004940000011274229037478777735_);fill:#FFCF27;}
	.st231{clip-path:url(#SVGID_00000050647535344747004940000011274229037478777735_);fill:#FFCF26;}
	.st232{clip-path:url(#SVGID_00000050647535344747004940000011274229037478777735_);fill:#FFCF25;}
	.st233{clip-path:url(#SVGID_00000050647535344747004940000011274229037478777735_);fill:#FFCF24;}
	.st234{clip-path:url(#SVGID_00000050647535344747004940000011274229037478777735_);fill:#FFCE23;}
	.st235{clip-path:url(#SVGID_00000050647535344747004940000011274229037478777735_);fill:#FFCE22;}
	.st236{clip-path:url(#SVGID_00000050647535344747004940000011274229037478777735_);fill:#FFCE21;}
	.st237{clip-path:url(#SVGID_00000050647535344747004940000011274229037478777735_);fill:#FFCE20;}
	.st238{clip-path:url(#SVGID_00000050647535344747004940000011274229037478777735_);fill:#FFCE1F;}
	.st239{clip-path:url(#SVGID_00000050647535344747004940000011274229037478777735_);fill:#FFCD1E;}
	.st240{clip-path:url(#SVGID_00000050647535344747004940000011274229037478777735_);fill:#FFCD1D;}
	.st241{clip-path:url(#SVGID_00000050647535344747004940000011274229037478777735_);fill:#FFCD1C;}
	.st242{clip-path:url(#SVGID_00000050647535344747004940000011274229037478777735_);fill:#FFCD1B;}
	.st243{clip-path:url(#SVGID_00000050647535344747004940000011274229037478777735_);fill:#FFCC1A;}
	.st244{clip-path:url(#SVGID_00000050647535344747004940000011274229037478777735_);fill:#FFCC19;}
	.st245{clip-path:url(#SVGID_00000050647535344747004940000011274229037478777735_);fill:#FFCC18;}
	.st246{fill:#584B42;}
	.st247{fill:#DEC3A6;}
	.st248{fill:#FFEAB9;}
	.st249{fill:#BEF9FF;}
	.st250{fill:#FFCC18;}
	.st251{fill:#B973FA;}
	.st252{fill:#E285B5;}
	.st253{fill:#ACACAC;}
	.st254{fill:#D4D4D4;}
	.st255{fill:#FEE63C;}
	.st256{fill:#FFAB30;}
	.st257{fill:#1C1C1C;}
	.st258{fill:#B3E7C9;}
	.st259{fill:#66CC99;}
	.st260{fill:#F9EB67;}
	.st261{fill:#F7A631;}
	.st262{fill:#4ED18B;}
	.st263{fill:#299C60;}
	.st264{fill:#00C6FF;}
	.st265{fill:#6600D0;}
	.st266{fill:#F59F00;}
	.st267{fill:#51D5FF;}
	.st268{fill:#00D096;}
	.st269{fill:#FE263B;}
	.st270{fill:#7B36FF;}
</style>
<g id="레이어_1">
	<g>
		<g>
			<g>
				<path class="st0" d="M867.5,535.1c-9.3-24.8-23.3-47.7-40.5-67.9c8.6-21.7,14.7-44.3,17.3-67.5c5.3-47.3-5-97.4-33.9-135.2
					c-28.9-37.8-77.6-61.5-124.7-54.9l-554.9,25.4c-29-1.5-58.4,8.2-80.8,26.7c-22.4,18.5-37.5,45.5-41.5,74.3
					c-2.5,18.2-0.8,36.8,2.8,54.8c5.3,26.7,14.5,52.7,27.2,76.8c-10.6,44.9-13.2,91.8-4,137c10.9,53.8,39.5,104.9,83.3,137.9
					c33.6,25.4,74.7,39.3,116.3,45.8c41.6,6.5,83.9,5.9,126,4.5c32.4-1.1,65.1-2.7,96.8-9.4l256.6-76.1l56.5,48.4
					c44.1-10.8,80.7-45.4,97.8-87.4C885,626.1,883.5,577.6,867.5,535.1z"/>
				<path d="M314.2,798.6c-26.7,0-53.9-1.2-80.9-5.5c-47.3-7.4-87.2-23.2-118.5-46.8c-42.5-32-73.5-83.4-85.2-140.9
					c-8.7-42.9-7.5-89,3.6-137.3C20.7,444,11.6,418.3,6.4,391.6c-4.2-21.4-5.2-39.9-2.8-56.5c4.2-29.9,19.9-58.2,43.3-77.4
					c23.3-19.2,53.8-29.3,84-27.8l554.4-25.4c47.1-6.5,97.8,15.8,129.2,56.9c27.9,36.6,40.7,87.2,34.9,138.8
					c-2.4,21.6-8,43.8-16.6,66c17.3,20.9,30.6,43.5,39.5,67.1l0,0c17.1,45.4,17.2,95.3,0.3,136.7c-18.3,44.9-57.1,79.5-101.2,90.4
					c-1.6,0.4-3.2,0-4.4-1.1l-54.5-46.6l-254,75.3c-0.1,0-0.3,0.1-0.4,0.1c-32.3,6.8-66,8.4-97.7,9.5
					C345.2,798.2,329.8,798.6,314.2,798.6z M124.9,239.8c-25.9,0-51.7,9.2-71.7,25.7c-21.4,17.7-35.9,43.6-39.7,71.1
					c-2.2,15.5-1.3,32.8,2.8,53.1c5.2,26.3,14.2,51.6,26.7,75.4c0.6,1.1,0.7,2.3,0.4,3.5c-11.2,47.5-12.5,92.9-4,134.8
					c11.2,55.2,40.9,104.3,81.4,134.9c30,22.6,68.4,37.7,114.1,44.9c41.9,6.6,84.8,5.8,125.1,4.4c31.2-1,64.3-2.6,95.8-9.2l256.4-76
					c1.6-0.5,3.4-0.1,4.7,1l54.6,46.7c40.1-10.8,75.2-42.7,91.9-83.8c15.9-39.1,15.8-86.3-0.4-129.4c0,0,0,0,0,0
					c-8.8-23.5-22.1-45.8-39.6-66.5c-1.2-1.4-1.5-3.4-0.8-5.1c8.9-22.3,14.6-44.5,17-66.2c5.5-49.1-6.5-97-32.9-131.6
					c-29.3-38.3-76.4-59.1-120.1-53c-0.2,0-0.3,0-0.5,0L131,239.9c-0.2,0-0.3,0-0.5,0C128.6,239.8,126.8,239.8,124.9,239.8z"/>
			</g>
			<g>
				<path class="st0" d="M867.5,535.1c-9.3-24.8-23.3-47.7-40.5-67.9c8.6-21.7,14.7-44.3,17.3-67.5c5.3-47.3-5-97.4-33.9-135.2
					c-28.9-37.8-77.6-61.5-124.7-54.9l-554.9,25.4c-29-1.5-58.4,8.2-80.8,26.7c-22.4,18.5-37.5,45.5-41.5,74.3
					c-2.5,18.2-0.8,36.8,2.8,54.8c5.3,26.7,14.5,52.7,27.2,76.8c-10.6,44.9-13.2,91.8-4,137c10.9,53.8,39.5,104.9,83.3,137.9
					c33.6,25.4,74.7,39.3,116.3,45.8c41.6,6.5,83.9,5.9,126,4.5c32.4-1.1,65.1-2.7,96.8-9.4l256.6-76.1l56.5,48.4
					c44.1-10.8,80.7-45.4,97.8-87.4C885,626.1,883.5,577.6,867.5,535.1z"/>
			</g>
			<g>
				<path d="M360.1,792.7c6.4-0.2,12.8-0.4,19.1-0.7c-1.9-12.1-5.4-24.1-9.7-35.6c-7-18.9-16.6-37.5-32-50.4
					c-24.1-20.1-61.5-21.2-87.8-4.6c12.6,18.7,20.1,40.9,21.2,63.5c0.5,9.1-0.1,18.3-1.7,27.4C299.4,794.3,329.8,793.7,360.1,792.7z
					"/>
			</g>
			<g>
				<g class="st1">
					<path class="st2" d="M810.4,264.5c-26.7-34.9-70.2-57.8-113.9-55.9c-1.6,5-3.1,10.1-4.8,15.1c50.6,6.5,93.2,46.2,112,93.7
						c16.4,41.6,16.5,88,6.9,131.9l10.8,9.7l5.7,7.7c8.5-21.5,14.5-43.9,17.1-67C849.6,352.4,839.3,302.3,810.4,264.5z"/>
				</g>
			</g>
			<g>
				<path class="st0" d="M786.1,428.1c35.8,27.9,65.4,64.6,81.4,107.1"/>
				<path d="M867.5,540.1c-2,0-3.9-1.2-4.7-3.2c-14.8-39.4-42.4-75.7-79.8-104.9c-2.2-1.7-2.6-4.8-0.9-7c1.7-2.2,4.8-2.6,7-0.9
					c38.8,30.3,67.5,68.1,83,109.2c1,2.6-0.3,5.5-2.9,6.4C868.7,540,868.1,540.1,867.5,540.1z"/>
			</g>
			<g>
				<path d="M314.2,798.6c-26.7,0-53.9-1.2-80.9-5.5c-47.3-7.4-87.2-23.2-118.5-46.8c-42.5-32-73.5-83.4-85.2-140.9
					c-8.7-42.9-7.5-89,3.6-137.3C20.7,444,11.6,418.3,6.4,391.6c-4.2-21.4-5.2-39.9-2.8-56.5c4.2-29.9,19.9-58.2,43.3-77.4
					c23.3-19.2,53.8-29.3,84-27.8l554.4-25.4c47.1-6.5,97.8,15.8,129.2,56.9c27.9,36.6,40.7,87.2,34.9,138.8
					c-2.4,21.6-8,43.8-16.6,66c17.3,20.9,30.6,43.5,39.5,67.1l0,0c17.1,45.4,17.2,95.3,0.3,136.7c-18.3,44.9-57.1,79.5-101.2,90.4
					c-1.6,0.4-3.2,0-4.4-1.1l-54.5-46.6l-254,75.3c-0.1,0-0.3,0.1-0.4,0.1c-32.3,6.8-66,8.4-97.7,9.5
					C345.2,798.2,329.8,798.6,314.2,798.6z M124.9,239.8c-25.9,0-51.7,9.2-71.7,25.7c-21.4,17.7-35.9,43.6-39.7,71.1
					c-2.2,15.5-1.3,32.8,2.8,53.1c5.2,26.3,14.2,51.6,26.7,75.4c0.6,1.1,0.7,2.3,0.4,3.5c-11.2,47.5-12.5,92.9-4,134.8
					c11.2,55.2,40.9,104.3,81.4,134.9c30,22.6,68.4,37.7,114.1,44.9c41.9,6.6,84.8,5.8,125.1,4.4c31.2-1,64.3-2.6,95.8-9.2l256.4-76
					c1.6-0.5,3.4-0.1,4.7,1l54.6,46.7c40.1-10.8,75.2-42.7,91.9-83.8c15.9-39.1,15.8-86.3-0.4-129.4c0,0,0,0,0,0
					c-8.8-23.5-22.1-45.8-39.6-66.5c-1.2-1.4-1.5-3.4-0.8-5.1c8.9-22.3,14.6-44.5,17-66.2c5.5-49.1-6.5-97-32.9-131.6
					c-29.3-38.3-76.4-59.1-120.1-53c-0.2,0-0.3,0-0.5,0L131,239.9c-0.2,0-0.3,0-0.5,0C128.6,239.8,126.8,239.8,124.9,239.8z"/>
			</g>
			<g>
				<g id="XMLID_00000135661220502150443850000002051331225986082477_">
					<g>
						<path d="M188.9,360c14.6,39.5,21.9,81.7,21.1,123.8c-0.1,3.2-0.2,6.4-0.7,9.6c-15.1-13-30.8-26.2-48.8-34.2
							c-2.6-36.7-12.3-72.8-28.3-105.9C149.2,362.7,170.1,365.3,188.9,360z"/>
					</g>
				</g>
				<g>
					<path d="M161.2,482.3c-2.7,0-5-2.2-5-5c-0.3-50.4-14.2-99.9-40-143.2c-1.4-2.4-0.6-5.4,1.7-6.9s5.4-0.6,6.9,1.7
						c26.7,44.8,41,96,41.4,148.2C166.2,480,164,482.3,161.2,482.3C161.2,482.3,161.2,482.3,161.2,482.3z"/>
				</g>
			</g>
			<g>
				<g>
					<path d="M640,525.7c15.1-11.7,32.5-20.4,51-25.2c6.2-1.6,12.8-2.8,18.8-0.5c6.4,2.5,10.7,8.5,14.6,14.2
						c17.1,25.6,33.1,53.2,37,83.8c1.3,10,1.2,20.5-2.5,30c-4.4,11.4-13.5,20.3-23.3,27.8c-15,11.4-32,20.2-50.1,25.8
						c-10.7,3.3-23.9,4.8-31.4-3.5c-4.4-4.9-5.4-11.9-6.3-18.4c-3.9-30.7-7.7-61.4-11.6-92.1c-1.8-14.6-3.4-30.6,4.5-43"/>
				</g>
			</g>
		</g>
		<g>
			<g>
				<path class="st3" d="M227.5,100.3c-37.9,23.7-71.8,53.9-99.6,88.9c-10.4,13-20,27-25.3,42.8s-5.7,33.8,2,48.6
					c2.7,5.2,6.4,9.9,11.1,13.4c6.6,4.7,14.7,6.7,22.7,7.9c20.6,3.1,41.9,2,62.1-3.1"/>
				<path d="M161.7,308.5c-8,0-16.1-0.6-24-1.8c-8-1.2-17.2-3.2-24.9-8.8c-5.1-3.7-9.3-8.7-12.6-15.1c-7.6-14.7-8.5-33.9-2.3-52.5
					c5.8-17.4,16.5-32.1,26.1-44.3c28.3-35.6,62.3-65.9,100.9-90c2.3-1.5,5.4-0.8,6.9,1.6c1.5,2.3,0.8,5.4-1.6,6.9
					c-37.6,23.5-70.7,53.1-98.4,87.8c-9.1,11.5-19.2,25.4-24.5,41.2c-5.3,16.1-4.7,32.4,1.7,44.7c2.6,5,5.8,8.9,9.6,11.6
					c6,4.3,13.7,6,20.5,7c19.9,3,40.6,1.9,60.1-3c2.7-0.7,5.4,0.9,6.1,3.6s-0.9,5.4-3.6,6.1C188.7,306.8,175.2,308.5,161.7,308.5z"
					/>
			</g>
			<g>
				<g>
					<path class="st3" d="M187.4,497.4c-16.3,41.8-18.8,52.3,4.8,90.5c5.4,8.7,11.7,17.2,20,23.2c8,5.7,19.3,8.6,27.5,3.2
						c4-2.6,6.7-6.8,9-11c8.7-15.8,15.3-33.6,16.9-51.6c138.9,14.6,280.8,0,411.4-49.7c7.8-31.2,8.1-65.6-0.2-96.6
						c18.8-19.7,34.1-38.8,40.6-65.2c7.9-32.1,3.2-62-16.8-79.9l0.4,1.1c-9.5-164-128.5-253-274-253
						c-151.6,0-274.6,96.8-274.6,274.6c0,52.7,11.1,98.6,30.8,136.9c2.3,4.4,5.4,8.3,7.1,12.9C197.5,451.8,192.5,476.4,187.4,497.4"
						/>
				</g>
				<g>
					<path class="st2" d="M621.8,520.7c-11.4-35.8-33.8-68.1-64.5-89.7c-41.3-29-97.2-37.2-144-18.3c-46.8,18.9-82,65.3-84.8,115.7
						c15.7,9.5,31.7,19.3,48,28.5C459.5,556.2,542.3,544.5,621.8,520.7z"/>
				</g>
				<g class="st1">
					<path class="st2" d="M701,260.5C691.1,97,572.2,8.2,427.1,8.2c-0.4,0-0.7,0-1.1,0c19.8,4.7,40,7.7,59.5,13.5
						c50.1,15.1,93.6,49.9,121,94.4c27.4,44.5,38.8,98.4,33.7,150.4c5.9-5.9,15-12.5,22.1-8.1c1.9,1.1,3.3,2.9,4.6,4.6
						c12,16.1,18.3,36.3,17.8,56.3c-0.7,27.6-14,53.3-28.3,77c8.4,2.3,16.9,3.5,25.4,3.6c16.5-17.9,29.8-35.9,35.7-60
						C725.2,308.2,720.6,278.4,701,260.5z"/>
				</g>
			</g>
			<g>
				<g>
					<path d="M229.8,622c-7.5,0-15-3.2-20.4-7c-9.8-6.9-16.6-16.8-21.4-24.6c-24.8-40.1-21.6-52.8-5.3-94.6
						c5.3-21.9,9.4-44.5,3.1-61.5c-0.9-2.3-2.3-4.6-3.8-7c-1-1.7-2.1-3.5-3.1-5.3c-20.8-40.5-31.4-87.4-31.4-139.2
						c0-85.7,28.4-157.5,82-207.6c25.1-23.4,55-41.5,89-53.8C352,9.4,388.5,3.2,427.1,3.2c37,0,72.1,5.6,104.4,16.7
						c32.8,11.3,62,27.9,86.8,49.5c52.2,45.4,82.4,110.6,87.6,188.8c18.9,18.5,24.9,48.5,16.4,83c-6.3,25.7-20.5,44.9-39.9,65.5
						c7.6,30.5,7.5,64.6-0.5,96.4c-0.4,1.6-1.5,2.9-3.1,3.5c-64.2,24.4-132.7,41-203.7,49.2c-66.8,7.8-135.7,8.2-205,1.2
						c-2.2,15.7-8,32.3-16.9,48.5c-2.6,4.7-5.7,9.5-10.6,12.7C238.5,621,234.2,622,229.8,622z M427.1,13.2
						c-161.2,0-269.6,108.3-269.6,269.6c0,50.2,10.2,95.5,30.3,134.6c0.8,1.5,1.7,3.1,2.7,4.7c1.7,2.7,3.4,5.5,4.6,8.8
						c7.6,20.5,2.6,45.7-2.8,67.7c-0.1,0.2-0.1,0.4-0.2,0.6c-15.9,40.8-18.1,49.6,4.4,86c4.3,7,10.4,15.9,18.7,21.7
						c6.4,4.5,15.6,7.2,21.9,3.1c3.1-2,5.3-5.6,7.3-9.2c9.2-16.7,14.9-33.9,16.3-49.6c0.1-1.3,0.8-2.6,1.8-3.4
						c1-0.8,2.4-1.2,3.7-1.1c142.2,14.9,282.7-1.8,406.6-48.4c7.1-30.4,6.9-62.8-0.8-91.6c-0.4-1.7,0-3.5,1.2-4.7
						c19.3-20.2,33.3-38.6,39.3-63c7.5-30.5,2.8-56.8-13-72.8c-1.4-0.5-2.6-1.5-3.2-3l-0.4-1.1c-0.4-1.1-0.4-2.2-0.1-3.2
						C685.9,109.5,580.7,13.2,427.1,13.2z M187.4,497.4L187.4,497.4L187.4,497.4z"/>
				</g>
			</g>
			<g>
				<g>
					<g>
						<g>
							<path d="M395.7,315.5c0.3,10-4.8,18.9-13.6,23.7c-5.7,3.1-0.6,11.7,5,8.6c11.8-6.4,19-18.9,18.5-32.3
								C405.5,309.1,395.5,309,395.7,315.5L395.7,315.5z"/>
						</g>
					</g>
					<g>
						<g>
							<path d="M574.2,327.8c-10.1,10-26.2,14-40.1,13.5c-8.3-0.3-16.4-2.3-24.1-5c-7.6-2.7-14.5-5.5-22.6-5.5
								c-7.8,0-14.6,2.5-21.8,5.2c-8,3-16.4,5-24.9,5.3c-13.9,0.5-30-3.5-40.1-13.5c-4.6-4.5-11.7,2.5-7.1,7.1
								c10.7,10.6,26.8,15.7,41.6,16.4c9.1,0.4,18.4-1,27.1-3.6c8.5-2.5,16.3-6.9,25.3-6.9c9,0,16.8,4.3,25.3,6.9
								c8.7,2.6,18,4.1,27.1,3.6c14.8-0.7,30.8-5.8,41.6-16.4C585.9,330.4,578.8,323.3,574.2,327.8L574.2,327.8z"/>
						</g>
					</g>
					<g>
						<g>
							<path d="M569.1,315.5c-0.4,13.4,6.8,25.9,18.5,32.3c5.7,3.1,10.7-5.6,5-8.6c-8.8-4.8-13.9-13.7-13.6-23.7
								C579.3,309.1,569.3,309.1,569.1,315.5L569.1,315.5z"/>
						</g>
					</g>
				</g>
				<g>
					<path d="M512.4,294c-0.7,0-1.3-0.1-2-0.4c-7.1-3.1-15.1-4.8-23-4.8c-7.9,0.1-15.9,1.7-23,4.8c-2.5,1.1-5.5,0-6.6-2.6
						c-1.1-2.5,0-5.5,2.6-6.6c8.3-3.6,17.7-5.6,27-5.7c9.4,0.1,18.7,2,27.1,5.7c2.5,1.1,3.7,4.1,2.6,6.6
						C516.2,292.9,514.3,294,512.4,294z"/>
				</g>
			</g>
			<g>
				<g>
					<g>
						<path class="st4" d="M711.7,177.6h-13c-5.2-15.3-19.7-26.4-36.8-26.4H550.7c-18.3,0-33.6,12.7-37.7,29.7h-51.2
							c-4.1-17-19.4-29.7-37.7-29.7H312.9c-17.1,0-31.6,11-36.8,26.4H175.2c-4.4,0-8.6,1.5-12,4.3l-17.9,14.6
							c-3.6,2.9-6.7,6.2-9.2,10.1c-4.4,6.8-5.2,17.7,1.8,23.1c5.4,4.2,14.2,3.5,19.3-0.9c5-4.3,9.8-8.3,16.9-8.2l3.4-0.1h85.8
							c5.9,0,10.6,4.8,10.6,10.6v9.6c0,29.7,24.1,53.8,53.8,53.8h81.3c29.7,0,53.8-24.1,53.8-53.8v-7.1c0-6.9,4.1-13.1,10.4-15.9
							c5.3-2.3,11.2-3.5,17-3.2c3.5,0.2,7,0.9,10.3,2c6.9,2.4,11.4,9,11.4,16.3v7.9c0,29.7,24.1,53.8,53.8,53.8H647
							c29.7,0,53.8-24.1,53.8-53.8v-20.2h10.9c11.8,0,21.4-9.6,21.4-21.4v0C733.1,187.2,723.5,177.6,711.7,177.6z"/>
					</g>
					<g>
						<g class="st1">
							<g>
								<path class="st2" d="M733.1,199c0-11.8-9.6-21.4-21.4-21.4h-13c-5.2-15.3-19.7-26.4-36.8-26.4H550.7
									c-18.3,0-33.6,12.7-37.7,29.7h-51.2c-4.1-17-19.4-29.7-37.7-29.7H312.9c-17.1,0-31.6,11-36.8,26.4H175.2
									c-4.4,0-8.6,1.5-12,4.3l-17.9,14.6c-3.6,2.9-6.7,6.2-9.2,10.1c-3.1,4.8-4.4,11.6-2.5,17.1c0.6-2,1.4-3.8,2.5-5.4
									c2.5-3.8,5.6-7.2,9.2-10.1l17.9-14.6c3.4-2.8,7.6-4.3,12-4.3h101.5c4.3,0,8.1-2.6,9.7-6.5c4.9-11.9,11.9-19.9,26.4-19.9
									h111.2c15.8,0,23.6,9.5,28.1,23c1.3,4,5,6.7,9.2,6.7l53.3,0c4.3,0,8.1-2.8,9.4-7c4.2-13.4,11-22.7,26.7-22.7h111.2
									c14.8,0,23.3,8.3,28.6,20.5c1.6,3.6,5.1,5.8,9,5.8h12.1c9.8,0,18.1,6.6,20.6,15.6C732.8,203,733.1,201,733.1,199L733.1,199z
									"/>
							</g>
						</g>
					</g>
					<g>
						<g>
							<path d="M711.7,172.6c-4.3,0-8.6,0-13,0c1.6,1.2,3.2,2.4,4.8,3.7c-6.6-18.3-23.1-29.9-42.5-30c-10-0.1-20,0-30,0
								c-26.2,0-52.4-0.1-78.6,0c-20.8,0.1-38.9,12.9-44.2,33.4c1.6-1.2,3.2-2.4,4.8-3.7c-17.1,0-34.1,0-51.2,0
								c1.6,1.2,3.2,2.4,4.8,3.7c-5.1-19.8-22.7-33.1-43-33.4c-9.3-0.1-18.5,0-27.8,0c-26.8,0-53.6,0-80.4,0
								c-20.1,0-37.2,10.8-44.1,30c1.6-1.2,3.2-2.4,4.8-3.7c-24.8,0-49.6,0-74.4,0c-8.8,0-17.6-0.3-26.4,0
								c-9,0.3-14.9,5.2-21.5,10.6c-5.5,4.5-11.5,8.7-16.4,13.8c-7.7,8.1-13.1,20.7-7,31.4c5.9,10.4,20.4,11.6,29.4,4.7
								c4.8-3.7,8.5-7.4,15-7.5c1.3,0,2.6-0.1,3.9-0.1c4.4,0,8.9,0,13.3,0c15.8,0,31.6,0,47.4,0c6.2,0,12.3,0,18.5,0
								c3.9,0,9.2-0.9,10.8,3.8c1,2.9,0.4,6.8,0.4,9.8c0,4.4,0.3,8.8,1.1,13.2c2,10.7,7.3,20.7,14.7,28.7c12,13,28.5,18.6,45.9,18.6
								c25.8,0,51.7,0.1,77.5,0c19.7-0.1,38-9.4,49.3-25.7c6.3-9.1,9.8-20,10.2-31.1c0.1-3-0.1-6.1,0-9.2c0.3-7.1,5.2-11,11.7-12.8
								c11.2-3.2,27.2-1,27.4,13.3c0.1,9.5,0.4,18.7,3.9,27.7c8.2,21,27.7,35.5,50.1,37.5c10.5,0.9,21.2,0.2,31.7,0.2
								c15.3,0,30.6,0,45.9,0c14.6,0,28.6-1.4,41.1-9.9c17.3-11.7,26.2-30.6,26.2-51.2c0-6,0-12,0-17.9c-1.7,1.7-3.3,3.3-5,5
								c5.1,0,10.5,0.4,15.6-0.4c8.7-1.5,16.2-7.6,19.6-15.7C743.4,191.8,730.2,173.1,711.7,172.6c-6.4-0.2-6.4,9.8,0,10
								c13,0.4,21.3,15.3,13.3,26.2c-5.9,8-15.5,6.7-24.2,6.7c-2.7,0-5,2.3-5,5c0,14.7,1.5,29.9-5.8,43.4
								c-8.9,16.4-25.8,25.6-44.2,25.7c-25.4,0.1-50.8,0-76.2,0c-16.2,0-31.2-5.1-41.8-18.1c-6.7-8.2-10.5-18.7-10.8-29.3
								c-0.2-8.1,0.7-15.8-4.6-22.8c-7.9-10.4-23.8-11.5-35.4-8.1c-10.9,3.1-18.6,10.9-19,22.6c-0.3,8.8-0.1,16.9-3.6,25.3
								c-4.1,10.1-11.6,18.6-21,24c-11.3,6.5-23.3,6.4-35.8,6.4c-15.2,0-30.4,0-45.6,0c-9.7,0-19.9,0.8-29.6-0.3
								c-21.8-2.3-39.8-20-42.9-41.7c-1-7,1-14.9-1.3-21.6c-2.5-7.1-9.1-10.4-16.2-10.5c-11.7-0.1-23.3,0-35,0
								c-14.2,0-28.5,0-42.7,0c-2.5,0-5,0-7.5,0c-4.8,0.1-9.3,0.5-13.6,2.8c-5.5,2.8-9.5,9-16,9.2c-5.4,0.1-9-3.5-9.2-8.8
								c-0.3-6.6,3.9-12.1,8.5-16.4c4.7-4.4,10-8.2,14.9-12.3c4.6-3.7,8.3-7.3,14.7-7.3c3.4-0.1,6.8,0,10.3,0c27.7,0,55.5,0,83.2,0
								c2.3,0,4.5,0,6.8,0c2.3,0,4.1-1.6,4.8-3.7c5.4-15,19.1-22.7,34.5-22.7c10.1,0,20.1,0,30.2,0c25,0,49.9,0,74.9,0
								c4.5,0,8.9,0.1,13.4,1.4c11.6,3.5,20.1,13,23.2,24.6c0.6,2.1,2.6,3.7,4.8,3.7c17.1,0,34.1,0,51.2,0c2.2,0,4.3-1.6,4.8-3.7
								c4.2-16.2,18.1-26,34.6-26c9.5,0,18.9,0,28.4,0c25.5,0,50.9,0,76.4,0c3.5,0,7.1-0.1,10.6,0.5c12.1,2.1,22,10.7,26.1,22.2
								c0.8,2.1,2.5,3.7,4.8,3.7c4.3,0,8.6,0,13,0C718.1,182.6,718.1,172.6,711.7,172.6z"/>
						</g>
					</g>
				</g>
				<g>
					<g>
						<g>
							<path class="st5" d="M398.3,272.4h-59.7c-20.5,0-37.2-16.7-37.2-37.2v-35c0-14.8,12-26.8,26.8-26.8h80.4
								c14.8,0,26.8,12,26.8,26.8v35C435.5,255.7,418.8,272.4,398.3,272.4z"/>
						</g>
						<g>
							<path class="st2" d="M416.3,174.4l-94.1,94.1c5,2.4,10.5,3.8,16.4,3.8h12.5l82.3-82.3C430.5,182.5,424.2,176.7,416.3,174.4z"
								/>
						</g>
					</g>
					<g>
						<path d="M398.3,277.4h-59.7c-23.3,0-42.2-18.9-42.2-42.2v-35c0-17.6,14.3-31.8,31.8-31.8h80.4c17.6,0,31.9,14.3,31.9,31.8v35
							C440.5,258.4,421.6,277.4,398.3,277.4z M328.3,178.3c-12,0-21.8,9.8-21.8,21.8v35c0,17.8,14.4,32.2,32.2,32.2h59.7
							c17.8,0,32.2-14.4,32.2-32.2v-35c0-12-9.8-21.8-21.9-21.8H328.3z"/>
					</g>
					<g>
						<path d="M352,243.8c-1.3,0-2.6-0.5-3.5-1.5c-2-2-2-5.1,0-7.1l41.2-41.2c2-2,5.1-2,7.1,0c2,2,2,5.1,0,7.1l-41.2,41.2
							C354.5,243.3,353.3,243.8,352,243.8z"/>
					</g>
					<g>
						<path d="M379,249.6c-1.3,0-2.6-0.5-3.5-1.5c-2-2-2-5.1,0-7.1l20.1-20.1c2-2,5.1-2,7.1,0c2,2,2,5.1,0,7.1l-20.1,20.1
							C381.5,249.1,380.3,249.6,379,249.6z"/>
					</g>
				</g>
				<g>
					<g>
						<g>
							<path class="st6" d="M636.2,272.4h-59.7c-20.5,0-37.2-16.7-37.2-37.2v-35c0-14.8,12-26.8,26.8-26.8h80.4
								c14.8,0,26.8,12,26.8,26.8v35C673.4,255.7,656.7,272.4,636.2,272.4z"/>
						</g>
						<g>
							<path class="st2" d="M654.2,174.4l-94.1,94.1c5,2.4,10.5,3.8,16.4,3.8h12.5l82.3-82.3C668.4,182.5,662,176.7,654.2,174.4z"/>
						</g>
						<g>
							<path class="st2" d="M549.5,260.7l87.4-87.4h-11.9l-80.6,80.6C545.8,256.3,547.5,258.6,549.5,260.7z"/>
						</g>
					</g>
					<g>
						<path d="M636.2,277.4h-59.7c-23.3,0-42.2-18.9-42.2-42.2v-35c0-17.6,14.3-31.8,31.8-31.8h80.4c17.6,0,31.8,14.3,31.8,31.8v35
							C678.4,258.4,659.4,277.4,636.2,277.4z M566.2,178.3c-12,0-21.8,9.8-21.8,21.8v35c0,17.8,14.4,32.2,32.2,32.2h59.7
							c17.8,0,32.2-14.4,32.2-32.2v-35c0-12-9.8-21.8-21.8-21.8H566.2z"/>
					</g>
					<g>
						<path d="M589.9,243.8c-1.3,0-2.6-0.5-3.5-1.5c-2-2-2-5.1,0-7.1l41.2-41.2c2-2,5.1-2,7.1,0c2,2,2,5.1,0,7.1l-41.2,41.2
							C592.4,243.3,591.1,243.8,589.9,243.8z"/>
					</g>
					<g>
						<path d="M616.9,249.6c-1.3,0-2.6-0.5-3.5-1.5c-2-2-2-5.1,0-7.1l20.1-20.1c2-2,5.1-2,7.1,0c2,2,2,5.1,0,7.1l-20.1,20.1
							C619.4,249.1,618.1,249.6,616.9,249.6z"/>
					</g>
				</g>
				<g>
					<path d="M589.9,243.8c-1.3,0-2.6-0.5-3.5-1.5c-2-2-2-5.1,0-7.1l41.2-41.2c2-2,5.1-2,7.1,0c2,2,2,5.1,0,7.1l-41.2,41.2
						C592.4,243.3,591.1,243.8,589.9,243.8z"/>
				</g>
			</g>
			<g>
				<path d="M616.9,249.6c-1.3,0-2.6-0.5-3.5-1.5c-2-2-2-5.1,0-7.1l20.1-20.1c2-2,5.1-2,7.1,0c2,2,2,5.1,0,7.1l-20.1,20.1
					C619.4,249.1,618.1,249.6,616.9,249.6z"/>
			</g>
		</g>
		<g>
			<g>
				<path class="st3" d="M668.9,570c54.1,6.6,112-44.5,104.4-100.6c-1.9-14.3-8.2-27.7-16.3-39.7c-15.7-23.2-38.9-41.5-65.5-50.2
					c-13.1-4.3-26.9-6.2-40.7-6.7c-17-0.7-34.5,0.9-49.7,8.3c-15.3,7.4-28.1,21.5-30.4,38.3c-2.6,18.4-10.6,43.7-10.6,62.3
					c0,15.7-2.8,61.3,13.9,69.4"/>
			</g>
			<g class="st7">
				<path class="st8" d="M773.3,469.4c-1.9-14.3-8.2-27.7-16.3-39.7c-15.7-23.2-38.9-41.5-65.5-50.2c-13.1-4.3-26.9-6.2-40.7-6.7
					c-17-0.7-34.5,0.9-49.7,8.3c-3.5,1.7-6.9,3.8-10.1,6.2c45.5,2.6,90.5,21.4,120.9,55.3c23.5,26.1,37,61.3,36.9,96.2
					C766.3,520.1,776.8,495.3,773.3,469.4z"/>
			</g>
			<g>
				<path class="st2" d="M688.7,501.8c2-7.2,2-14.7,1.1-22.1c-1.7-14.2-6.6-28.3-15.3-39.7c-16.1-21-43.8-30.8-70.3-30.9
					c-10-0.1-24.4,1.2-31.7,9.2c-0.1,0.1-0.9,0.7-2,1.5c-2.6,18.4-10.5,43.5-10.5,61.9c0,3.9-0.2,9.5-0.2,16
					c5,10.3,12.5,19.3,21.9,25.8c11.4,7.9,25.1,12.1,38.8,13.6c13.8,1.5,28.2,0.4,40.9-5.3S685,515.2,688.7,501.8z"/>
			</g>
			<g>
				<g>
					<path d="M671.3,575c33.4,3.7,66.9-12.9,87.4-39c10.1-12.9,17.2-28.1,19.5-44.4c2.6-18.9-1.5-37.3-10.5-54
						c-18.9-35-53.8-60.5-93-67.3c-36-6.2-86.4-3.9-104.5,34.3c-9.4,19.9-3.8,42.5,8.8,59.6c13.6,18.5,33.5,30.6,53.8,40.5
						c5.8,2.8,10.8-5.8,5-8.6c-16.3-7.9-32.3-17-44.7-30.3c-11.6-12.5-20.7-30.2-17-47.7c3.4-15.9,16.5-28.2,31.2-34.1
						c17.8-7.1,38-7.1,56.7-5c36.1,4.1,68.3,23.4,88.7,53.5c10.1,14.8,16.8,31.6,16.3,49.8c-0.4,14.7-5.4,28.9-13.4,41.2
						c-18,27.7-51.1,45.5-84.3,41.8C664.9,564.3,664.9,574.3,671.3,575L671.3,575z"/>
				</g>
			</g>
		</g>
		<g>
			<g>
				<path class="st3" d="M637.7,503.6c-2.6-1.5-5.1-3-8-3.7c-3.7-0.8-7.5-0.2-11.2,0.5c-23.2,4.2-46.3,8.4-69.5,12.5
					c-17.1,3.1-34.3,6.2-50.5,12.4c-18.4,7.1-35.1,18-51,29.6c-6.7,4.9-13.6,10-21.6,12.1c-6.5,1.7-13.4,1.2-20.1,0.8
					c-46.1-3.1-92.3-6.2-137.9-14.2c-4.3-0.8-8.8-1.5-13-0.1c-2.7,1-5,2.9-7.2,4.7c-17,14.5-32.2,31-45.4,49.1
					c-1.6,2.2-3.3,4.6-3.4,7.3c-0.2,3.3,1.7,6.3,3.5,9c14.1,21,31,41.2,42.9,63.5c17.7,33,46.4,59,78,79.1
					c62.9,39.9,138.9,57.6,213.2,53.4c69.4-3.9,128.5-25.4,184.7-65.9c20.2,21.3,51.1,45.2,80.3,50.1c27.5,4.6,64.9,5,81.4-20.9
					c14.6-22.9,0.7-47.3-21-58.6c1.3-17.9-4.3-36.3-15.5-50.4c-5.1-6.5-11.5-12.1-18.5-16.5l0.3-0.5c12.6-18.6,13.6-44.8,1.7-63.8
					c12.4-19,13.1-53.5-4-70.2c-29-28.5-75.2-1.1-95.2,24.2c-17.4,22-30.4,49.9-35.7,77.4l-0.7,2c-5.5-1.9-11.1-3.4-17-4.4
					c-0.4-26.2-4.8-52.4-13.1-77.3c0,0-9.9-27.7-15.2-35.6C643.8,501.2,637.7,503.6,637.7,503.6z"/>
			</g>
			<g>
				<path class="st2" d="M627,714c8.8-2.9,17.4-6.7,25-12c13.4-9.2,23.5-23,28.5-38.4c4.2-13.1,4.6-27.4,1.2-40.8
					c-1.4-0.3-2.9-0.6-4.4-0.9c-0.4-26.2-4.8-52.4-13.1-77.3c0,0-2-5.6-4.6-12.4c-1.4-2-3.1-3.9-5-5.4c-5-4-11.5-5.6-17.8-6.3
					c-16.2-1.7-32.6,2.4-47.1,9.7c-14.5,7.3-27.4,17.6-39.2,28.7c-29.7,28-53.9,61.9-70.9,99.1c-3.1,6.9-6.3,14.2-11.7,19.5
					c29.9,22.3,64.5,39.9,101.6,43.2C588.9,722.4,608.6,720.1,627,714z"/>
			</g>
			<g>
				<path class="st2" d="M882.9,783c14.6-22.9,0.7-47.3-21-58.6c1.3-17.9-4.3-36.3-15.5-50.4c-5.1-6.5-11.5-12.1-18.5-16.5l0.3-0.5
					c12.6-18.6,13.6-44.8,1.7-63.8c12.4-19,13.1-53.5-4-70.2c-3.5-3.4-7.3-6.1-11.2-8c3.6,16.5-0.1,36-7.6,48.8
					c-5.2,8.9-12,17.4-8.8,28.3c4,13.4,3.1,28-2.9,40.7c-5.4,11.3-11,22.2-1.2,33.4c8.8,10.1,19.3,19.1,26.5,30.5
					c6.1,9.6,3.9,34.9,14.9,39.3c12.1,4.7,22.6,13.1,28.1,25.1c6.1,13.4,3.9,25.9-0.1,38.6C871.5,795.9,878.1,790.6,882.9,783z"/>
			</g>
			<g>
				<g>
					<g>
						<path d="M682.4,622c-0.5-26.7-4.9-53.3-13.3-78.7c-2-6.1-11.7-3.5-9.6,2.7c8.1,24.6,12.4,50.1,12.9,76
							C672.5,628.4,682.5,628.5,682.4,622L682.4,622z"/>
					</g>
				</g>
				<g>
					<g>
						<path d="M656.9,625.1c22.6,0.6,42.6,6.9,61.6,19.2c5.4,3.5,10.4-5.2,5-8.6c-20.4-13.2-42.4-19.9-66.7-20.6
							C650.4,614.9,650.4,624.9,656.9,625.1L656.9,625.1z"/>
					</g>
				</g>
				<g>
					<g>
						<path d="M241.1,689.8c17,31.2,43.1,56.2,72.3,75.9c31,20.9,65.7,36.4,101.8,46.3c70,19.2,147.3,18.5,216.2-5.2
							c37.9-13,72.7-33.1,104.4-57.5c5-3.9,0-12.6-5-8.6c-27.1,21-56.7,39-88.7,51.6c-31.8,12.5-65.4,19.8-99.5,22.2
							c-73,5.2-147.8-10.7-210.7-48.7c-33.2-20.1-63.3-46.5-82.1-80.9C246.6,679.1,238,684.2,241.1,689.8L241.1,689.8z"/>
					</g>
				</g>
				<g>
					<g>
						<path d="M699.9,625.8c3.9-19.6,11.1-38.5,21.2-55.7c8.6-14.8,19.1-28.3,33.1-38.3c12.6-9,27.8-16.5,43.6-15.9
							c15.6,0.6,28.8,10.8,33.5,25.6c5.1,15.9,3.3,35-5.7,49.2c-0.9,1.5-0.9,3.6,0,5c10.9,18.1,9.8,41.2-1.7,58.7
							c-3.5,5.4,5.1,10.4,8.6,5c13.4-20.4,14.4-47.8,1.7-68.8c0,1.7,0,3.4,0,5c18-28.4,12.2-75.9-23.1-87.6
							c-17.2-5.7-36.1-0.2-51.3,8.2c-16,8.9-29,21.5-39.5,36.4c-14.7,21-25.1,45.3-30.1,70.4C689,629.4,698.7,632.1,699.9,625.8
							L699.9,625.8z"/>
					</g>
				</g>
				<g>
					<g>
						<path d="M799.6,652c34.9,6.1,59.4,36.9,57.2,72.3c-0.1,1.7,1,3.5,2.5,4.3c13.2,7.1,25.3,20,24.5,36
							c-0.7,14.9-12.5,26.8-25.8,31.9c-13.1,5-27.6,5.4-41.5,4.2c-16.2-1.3-31-5.5-45.3-13.5c-17.4-9.7-32.8-22.7-46.6-37
							c-4.5-4.7-11.5,2.4-7.1,7.1c13.9,14.5,29.6,27.7,47.1,37.8c16.2,9.3,33.2,14.1,51.8,15.7c16,1.3,32.8,0.5,47.7-6
							c15.2-6.6,27.5-20.4,29.4-37.3c2.3-20.5-12.2-38.2-29.3-47.4c0.8,1.4,1.7,2.9,2.5,4.3c2.4-39.5-25.6-75.2-64.6-82
							C796,641.3,793.3,650.9,799.6,652L799.6,652z"/>
					</g>
				</g>
			</g>
		</g>
		<g>
			<g>
				<g>
					<g id="XMLID_00000113348816911299401760000010696925020579213758_">
						<g>
							<g>
								<path class="st10" d="M478.4,428.6c4.2-11.1,14.2-20.1,25.5-24.7c7.6-3.1,16.2-4.6,24.1-2.1c7,2.2,12.5,7.3,16.3,13.7
									c11.6-5.6,26.2-5,37,2.2c9.4,6.3,15.3,17.1,16.2,28.4c5.3-0.1,10.5,1.3,14.8,4.4c3,2.2,5.4,5.2,6.8,8.6
									c5.7-3.2,12.7-4.4,19.1-2.9c9,2.1,16.7,9.2,19.4,18c2,6.6,1.4,13.9-0.8,20.4c-1.8,5.2-4.5,10.1-7.6,14.6
									c-15.1-5.2-31.5-5.6-47.6-5.9c-36.1-0.7-72.2-1.4-108.2-2.1c-33.4-0.6-67.4-1.2-99.5,7.6c-11.8-9.4-15.3-27.6-8.9-41.3
									c4.7-10,14.1-17.6,24.8-20.2c5.3-1.3,10.9-1.3,16.3-0.2c3.9-10.5,12.7-19.3,23.6-22.5C459.2,421.7,469.8,423.4,478.4,428.6z
									"/>
								<path d="M649.1,514.1c-0.5,0-1.1-0.1-1.6-0.3c-14.6-5.1-30.6-5.4-46-5.6l-9.7-0.2c-32.9-0.6-65.7-1.2-98.6-1.9
									c-32.6-0.6-66.3-1.3-98,7.4c-1.5,0.4-3.2,0.1-4.4-0.9c-13.5-10.8-17.9-31.1-10.2-47.3c5.4-11.4,15.9-20,28.2-22.9
									c4.6-1.1,9.5-1.4,14.4-0.9c5.1-10.4,14.5-18.6,25.2-21.7c9-2.6,18.9-1.9,27.8,2.1c5.3-9.7,14.7-17.9,25.9-22.5
									c6.9-2.8,17.2-5.5,27.5-2.2c6.5,2,12.2,6.3,16.7,12.3c12.6-4.5,27.1-3,37.9,4.2c9.3,6.2,15.7,16.4,17.8,27.8
									c4.9,0.6,9.4,2.3,13.3,5.1c2.4,1.7,4.4,3.8,6,6.2c5.8-2.2,12.2-2.7,18.1-1.3c10.7,2.5,19.8,10.9,23,21.4
									c2.2,7.2,1.9,15.3-0.9,23.5c-1.7,5.1-4.4,10.3-8.3,15.8C652.2,513.3,650.7,514.1,649.1,514.1z M467.5,495.8
									c8.7,0,17.3,0.2,25.9,0.3c32.9,0.6,65.7,1.2,98.6,1.9l9.7,0.2c14.3,0.3,30.4,0.6,45.4,5c2.2-3.6,3.9-7,5-10.3
									c2.1-6.1,2.3-12.2,0.8-17.3c-2.2-7.1-8.5-13-15.7-14.6c-5.1-1.2-10.8-0.3-15.6,2.4c-1.2,0.7-2.7,0.8-4.1,0.4
									c-1.3-0.5-2.4-1.5-3-2.8c-1.1-2.6-2.9-4.9-5.2-6.5c-3.2-2.3-7.3-3.5-11.8-3.5c0,0,0,0-0.1,0c-2.6,0-4.8-2-5-4.6
									c-0.8-9.9-6.1-19.4-14-24.6c-9.1-6.1-21.7-6.8-32-1.8c-2.3,1.1-5.1,0.3-6.4-1.9c-2.5-4.1-6.8-9.4-13.6-11.5
									c-7.4-2.4-15.3-0.2-20.7,1.9c-10.7,4.4-19.1,12.5-22.7,21.9c-0.5,1.4-1.6,2.5-3,2.9c-1.4,0.5-2.9,0.3-4.2-0.4
									c-7.6-4.6-16.8-5.9-24.8-3.6c-9,2.6-16.8,10.1-20.3,19.4c-0.9,2.3-3.3,3.7-5.7,3.2c-4.7-1-9.6-0.9-14.1,0.2
									c-9.2,2.2-17.4,8.9-21.5,17.5c-5.3,11.2-2.7,25.4,5.6,33.7C418.9,497.1,443.3,495.8,467.5,495.8z"/>
							</g>
						</g>
					</g>
					<g>
						<path d="M550.8,439.2c-2.4,0-4.6-1.8-4.9-4.3c-1.7-11.3-7.7-24.6-19.5-28.4c-2.6-0.8-4.1-3.6-3.2-6.3s3.6-4.1,6.3-3.2
							c16.2,5.1,24.2,22.2,26.3,36.4c0.4,2.7-1.5,5.3-4.2,5.7C551.3,439.2,551.1,439.2,550.8,439.2z"/>
					</g>
					<g>
						<path d="M468.7,459.9c-1,0-2.1-0.3-3-1c-2.2-1.6-2.7-4.8-1-7c8-10.8,23.4-15.3,35.9-10.5c2.6,1,3.9,3.9,2.9,6.5
							c-1,2.6-3.9,3.9-6.5,2.9c-8.3-3.2-19-0.1-24.3,7.1C471.7,459.2,470.2,459.9,468.7,459.9z"/>
					</g>
				</g>
				<g>
					<g>
						<g>
							<path class="st11" d="M648.8,533.1c-3.5,28.9-7.9,57.6-13.1,86.2c-4.1,22.1-11.8,43.3-29.5,57.3
								c-18.2,14.5-41.7,19.6-64.1,19.7c-0.2,0-0.5,0-0.7,0h-21.2h-21.2c-0.2,0-0.5,0-0.7,0c-22.4-0.1-45.9-5.3-64.1-19.7
								c-17.6-14-25.4-35.2-29.5-57.3c-5.3-28.6-9.6-57.3-13.1-86.2l3.6-19.5l174.5-17.1l71.3,21.4L648.8,533.1z"/>
						</g>
						<g>
							<g>
								<path class="st2" d="M431.9,674.5c0.8,0.7,1.6,1.3,2.4,2c6.4,5.1,13.4,9,20.8,11.9c55-51.1,113.7-98.2,175.7-140.7
									c5.9-4,11.8-8,17.7-12c0.1-0.9,0.2-1.8,0.3-2.8l-7.8-15.2l-8.6-2.6c-69.2,46.2-134.7,97.9-195.6,154.5
									C435.2,671.4,433.6,673,431.9,674.5z"/>
							</g>
							<g>
								<path class="st2" d="M415.7,653.4c55.6-51.9,115.1-99.8,177.9-142.8c2.4-1.6,4.8-3.2,7.1-4.9l-31-9.3l-1.4,0.1
									c-56.8,39.7-111,83.2-162,130.1C408.5,636.1,411.5,645.2,415.7,653.4z"/>
							</g>
							<g>
								<path class="st2" d="M643.9,570c-55.2,38.4-107.8,80.5-157.6,125.7c4,0.4,8.1,0.6,12.1,0.6c0.2,0,0.5,0,0.7,0h21.2
									c0,0,3,0,4.4,0c36.4-31.9,74.2-62.1,113.5-90.4C640.2,593.9,642.1,582,643.9,570z"/>
							</g>
							<g>
								<path class="st2" d="M400.8,596c37.1-33.3,75.9-64.8,116.1-94.3l-49.4,4.8c-24.4,18.9-48.2,38.6-71.4,59
									C397.5,575.7,399.1,585.9,400.8,596z"/>
							</g>
						</g>
					</g>
					<g>
						<g>
							<path d="M386.7,533.1c2.5,21,5.5,41.9,9,62.7c3,18.3,5.5,37,12.9,54.2c6.8,15.7,17.8,28.7,32.7,37.3
								c15.4,8.9,33.1,12.9,50.7,13.8c16.2,0.8,32.7,0.2,49,0.2c32.9-0.1,67.7-10.9,85.5-40.5c10.4-17.1,13.6-37,17-56.4
								c4.1-23.7,7.5-47.5,10.4-71.3c0.8-6.4-9.2-6.3-10,0c-2.4,20.1-5.3,40.1-8.6,60.1c-2.8,17.1-5,34.7-11.6,50.9
								c-6.1,15.2-16.5,27.5-30.9,35.5c-14.7,8.1-31.6,11.4-48.2,11.7c-14.7,0.3-29.4,0-44.1,0c-30.2,0-62.5-9.1-78.5-36.8
								c-9.5-16.4-12.2-35.3-15.3-53.6c-3.8-22.5-7.1-45.1-9.9-67.7C396,526.8,385.9,526.7,386.7,533.1L386.7,533.1z"/>
						</g>
					</g>
					<g>
						<g>
							<path d="M643.8,533.1c-2.6,21.7-5.8,43.3-9.4,64.8c-3.1,18.2-5.6,37.3-14.4,53.9c-16.3,30.7-50.3,39.5-82.7,39.5
								c-18.8,0-38.3,1.4-57-1.2c-17.7-2.6-35.6-9.3-48.4-22.2c-12.3-12.4-18.2-29.3-21.7-46c-4.9-23.6-8.3-47.5-11.5-71.4
								c-0.7-5.2-2.3-11.1-2.3-16.1c0-1.8,0.7-4,1.1-5.8c0.8-4.5,1.7-9,2.5-13.5c-1.6,1.2-3.2,2.4-4.8,3.7
								c33.9-3.3,67.7-6.6,101.6-10c19.9-2,39.8-3.9,59.7-5.9c4.1-0.4,8.7-0.3,12.7-1.2c1-0.3-0.4-0.1-0.8-0.2
								c0.6,0.2,1.2,0.4,1.9,0.6c3.4,1.1,6.9,2.1,10.3,3.1c19.7,5.9,39.4,11.8,59.1,17.7c-1-0.8-2-1.5-3-2.3
								c2.6,5.1,5.2,10.1,7.8,15.2c2.9,5.7,11.6,0.7,8.6-5c-2.2-4.4-4.5-8.8-6.7-13.1c-1.4-2.8-3.1-4.1-6-4.9
								c-9.5-2.8-19-5.7-28.5-8.5c-11.2-3.4-22.5-6.7-33.7-10.1c-3.6-1.1-6.8-2.4-10.5-2.1c-42.2,3.1-84.3,8.3-126.4,12.4
								c-15.4,1.5-30.8,3-46.1,4.5c-2,0.2-4.4,1.4-4.8,3.7c-0.8,4.2-1.5,8.4-2.3,12.6c-0.4,2.1-0.9,4.2-1.2,6.3
								c-0.5,3.8,0.4,7.7,0.9,11.5c2.9,22.9,6.4,45.7,10.4,68.4c3.3,18.7,7.3,37.6,18.2,53.5c10.8,15.7,27.2,26.1,45.4,31.6
								c22.3,6.7,46,5.1,69,5.1c32.6,0,68-4.6,89.7-32c13.3-16.8,18-37.5,21.7-58.1c4.6-25.9,8.4-51.9,11.6-78
								C654.6,526.7,644.6,526.7,643.8,533.1z"/>
						</g>
					</g>
				</g>
				<g>
					<g>
						<path class="st12" d="M520.3,477.9c-35,0-93.1,4-127.6,15.9c-6.1,2.1-11.5,6.7-14.9,12.5c-3.4,5.8-4.1,13.6-0.7,19.5
							c3.3,5.9,9.3,8.7,15.6,7.3c48.4-11.4,78.1-16.4,127.6-15.4c49.6-1,79.2,4,127.6,15.4c6.3,1.5,12.3-1.4,15.6-7.3
							c3.3-5.9,2.6-13.6-0.7-19.5c-3.4-5.8-8.7-10.4-14.9-12.5C613.4,481.9,555.2,477.9,520.3,477.9z"/>
						<path d="M389.4,538.5c-6.8,0-13.1-3.7-16.7-10.2c-4-7.1-3.7-16.7,0.8-24.4c4-6.9,10.4-12.3,17.5-14.8
							c36.8-12.7,98.6-16.2,129.3-16.2h0c30.7,0,92.5,3.5,129.3,16.2c7.1,2.5,13.5,7.8,17.5,14.8c4.5,7.7,4.8,17.3,0.8,24.4
							c-4.4,7.8-12.7,11.6-21.1,9.7c-48-11.3-77.6-16.2-126.4-15.2l-0.1,0l-0.1,0c-48.8-1-78.4,3.9-126.4,15.2
							C392.3,538.3,390.8,538.5,389.4,538.5z M532,512.6c43.1,0,72.2,5.1,117,15.6c4.1,1,7.8-0.9,10.1-4.9c2.3-4,2-9.8-0.7-14.5
							c-2.8-4.9-7.3-8.6-12.2-10.3c-35.6-12.3-95.9-15.6-126-15.7c-30.1,0-90.4,3.4-126,15.7c-4.9,1.7-9.3,5.5-12.2,10.3
							c-2.7,4.6-3,10.5-0.7,14.5c2.3,4,6,5.8,10.1,4.9c48.8-11.5,79-16.5,128.8-15.5C524.3,512.6,528.2,512.6,532,512.6z"/>
					</g>
				</g>
			</g>
			<g>
				<g>
					<path class="st3" d="M270,440.6c11.7,20.2,29.1,36.4,48.8,49.6c23.8,16,51.6,17.5,76.7,31c14.9,8,29.7,21.3,32.6,38.7
						c4.5,26.9-12.2,51.6-33,65.8c-23.7,16.2-52.2,24.2-80.8,24.3c-25.1,0-50.4-6-72.5-18.2"/>
				</g>
				<g>
					<path class="st2" d="M419.2,600.7c7.4-12,11.2-26,8.8-40.7c-2.9-17.4-17.7-30.7-32.6-38.7c-25.1-13.5-53-15-76.7-31
						c-18.9-12.7-35.8-28.3-47.4-47.5c-1.7,10.5,1.1,21.7,6.7,30.9c12.8,21.1,35.2,35,56.8,45.6c21.8,10.6,49.8,15.1,68,31.8
						C417.5,564.6,422.5,579.5,419.2,600.7z"/>
				</g>
				<g>
					<g>
						<path d="M265.6,443.2c13.7,23.3,35.4,44.2,59.4,56.7c25,13,54.8,15.1,77.9,32.1c10.5,7.7,19.2,18.6,20.5,32
							c1.3,13-2.8,25.6-9.9,36.4c-15.5,23.5-44.2,36.6-70.9,42c-33.2,6.7-68.7,1.5-98.4-14.7c-5.7-3.1-10.7,5.5-5,8.6
							c27.9,15.2,60.5,21.6,92.1,17.9c29.1-3.3,60-14.7,80.7-36.2c18.5-19.1,29.5-49.7,15.1-74.4c-15.3-26.2-46.4-34.4-73.3-43
							c-16.9-5.4-31.7-13-45.6-24.1c-13.5-10.8-25.2-23.5-34-38.4C271,432.6,262.4,437.6,265.6,443.2L265.6,443.2z"/>
					</g>
				</g>
				<g>
					<g>
						<path d="M265.6,443.2c13.7,23.3,35.4,44.2,59.4,56.7c25,13,54.8,15.1,77.9,32.1c10.5,7.7,19.2,18.6,20.5,32
							c1.3,13-2.8,25.6-9.9,36.4c-15.5,23.5-44.2,36.6-70.9,42c-33.2,6.7-68.7,1.5-98.4-14.7c-5.7-3.1-10.7,5.5-5,8.6
							c27.9,15.2,60.5,21.6,92.1,17.9c29.1-3.3,60-14.7,80.7-36.2c18.5-19.1,29.5-49.7,15.1-74.4c-15.3-26.2-46.4-34.4-73.3-43
							c-16.9-5.4-31.7-13-45.6-24.1c-13.5-10.8-25.2-23.5-34-38.4C271,432.6,262.4,437.6,265.6,443.2L265.6,443.2z"/>
					</g>
				</g>
			</g>
			<g>
				<path class="st10" d="M410.6,373.5c0.5-3.5,1.7-6.9,5.8-7.7c2-0.4,4.1,0.1,5.9,1.2c2.6,1.6,5.5,3.6,6.9,6.5
					c1.7,3.6,0.5,8.2-2.5,10.7c-3,2.6-7.6,3-11.1,1.3s-4.2-3.8-4.9-7.7l0,0C410.5,376.4,410.4,374.9,410.6,373.5z"/>
				<path d="M420.2,391.5c-2.3,0-4.5-0.5-6.6-1.5c-5.8-2.7-6.9-6.9-7.7-11.4c-0.4-2-0.4-3.9-0.2-5.8c1.2-8.5,6-11.2,9.9-11.9
					c3.2-0.6,6.5,0.1,9.4,1.8c2.3,1.4,6.7,4.1,8.8,8.6c2.6,5.6,1,12.6-3.8,16.7C427.3,390.3,423.7,391.5,420.2,391.5z M417.8,370.7
					c-0.2,0-0.3,0-0.4,0c-0.6,0.1-1.4,0.3-1.8,3.5l0,0c-0.1,0.8-0.1,1.8,0.1,2.7c0.6,3.4,0.7,3.5,2.1,4.1c1.9,0.9,4.3,0.6,5.8-0.6
					c1.3-1.1,1.9-3.3,1.2-4.8c-0.8-1.6-3-3.1-5-4.3C419.1,370.9,418.4,370.7,417.8,370.7z M410.6,373.5L410.6,373.5L410.6,373.5z"/>
			</g>
			<g>
				<path class="st10" d="M345.6,333.7c1-3.8,5.5-6.5,9.4-7.2c3.9-0.7,8.2,1.2,10.1,4.6c2,3.4,1.5,8.2-1.3,11
					c-1.5,1.5-3.6,2.5-5.6,3c-1.6,0.4-3.2,0.5-4.8,0.3C348.2,344.5,344.3,338.8,345.6,333.7z"/>
				<path d="M354.9,350.4c-0.8,0-1.6-0.1-2.3-0.2c-3.8-0.6-7.4-2.9-9.7-6.4s-3.1-7.6-2.2-11.4c0,0,0-0.1,0-0.1
					c1.7-6.1,8.1-9.9,13.3-10.8c6-1.1,12.3,1.8,15.3,7c3.2,5.4,2.3,12.6-2.1,17c-2,2.1-4.7,3.5-8,4.3
					C357.8,350.2,356.3,350.4,354.9,350.4z M350.4,334.9c-0.2,1,0.1,2.3,0.8,3.4c0.7,1.1,1.8,1.9,2.9,2c0.8,0.1,1.8,0,2.9-0.2
					c1.4-0.4,2.6-0.9,3.3-1.6c1.2-1.2,1.4-3.4,0.5-4.9c-0.9-1.6-3.1-2.5-4.9-2.2C353.4,331.8,350.9,333.5,350.4,334.9z"/>
			</g>
			<g>
				<path class="st10" d="M357.8,379.5c-0.4-2.7,2.2-6.7,4.6-8c2.4-1.3,5.5-0.8,7.6,1c2,1.8,2.9,4.7,2.4,7.4c-0.7,3.6-4,6.6-7.7,6.6
					C361,386.5,358.3,383.2,357.8,379.5z"/>
				<path d="M364.7,391.5C364.7,391.5,364.7,391.5,364.7,391.5c-5.8,0-10.9-4.8-11.8-11.3l0,0c-0.7-5.1,3.2-11,7.2-13.1
					c4.2-2.3,9.6-1.6,13.3,1.7c3.3,2.9,4.8,7.6,4,12.1C376.1,386.9,370.7,391.5,364.7,391.5z M362.7,378.9c0.2,1.3,1.1,2.6,1.9,2.6
					c0,0,0,0,0,0c1.2,0,2.5-1.2,2.7-2.5c0.2-1-0.1-2.1-0.8-2.7c-0.5-0.5-1.4-0.6-1.9-0.3C364,376.3,362.9,378.1,362.7,378.9z
					 M362.7,379L362.7,379L362.7,379z"/>
			</g>
		</g>
		<g>
			<g>
				<path class="st2" d="M677.2,659.8c6.4,0,6.4-10,0-10C670.7,649.8,670.7,659.8,677.2,659.8L677.2,659.8z"/>
			</g>
		</g>
		<g>
			<g>
				<path class="st0" d="M249.9,750.5c20.7-66.9,16.5-141.2-11.5-205.4S158.7,427.3,95.5,397l8.1,104.7L170,650.1L249.9,750.5z"/>
			</g>
			<g>
				<g>
					<path d="M93,401.3c45.7,22.1,85.3,56,114.1,97.8c31.3,45.5,48.8,99.5,50.7,154.7c1.1,32.3-3.2,64.5-12.7,95.4
						c-1.9,6.2,7.8,8.8,9.6,2.7c17.3-56.7,17.5-118.4,0.5-175.2c-15.4-51.3-44.9-97.9-84.3-134.2c-21.7-20-46.3-36.8-72.9-49.7
						C92.3,389.9,87.2,398.5,93,401.3L93,401.3z"/>
				</g>
			</g>
		</g>
		<g>
			<path d="M81.9,619c12.8,29.6,29.3,57.1,51.1,80.8c7.2,7.9,14.8,15.4,22.8,22.9c2.1,1.9,2.2,5.1,0.3,7.2c-1.6,1.7-4,2-5.9,1.1
				c-20.7-10.4-38.2-26.8-51.7-45.6c-13.4-18.9-23.1-40.7-26.2-63.7C71.6,615.9,79.5,613.7,81.9,619L81.9,619z"/>
		</g>
		<g>
			<path d="M122.7,640.8c4.9,10.6,11.4,20.2,18.8,29.3c2.6,3.1,5.3,6.1,7.9,8.4c4.2,3.9-0.4,10.7-5.6,8.2
				c-8.4-4.4-14.4-11.2-19.9-18.7c-5-7.4-9.5-15.5-10.8-24.5C112.3,637.7,120.3,635.4,122.7,640.8L122.7,640.8z"/>
		</g>
	</g>
</g>
<g id="레이어_2">
</g>
</svg>
