<?xml version="1.0" encoding="utf-8"?>
<!-- Generator: Adobe Illustrator 27.1.1, SVG Export Plug-In . SVG Version: 6.00 Build 0)  -->
<svg version="1.1" xmlns="http://www.w3.org/2000/svg" xmlns:xlink="http://www.w3.org/1999/xlink" x="0px" y="0px"
	 viewBox="0 0 941.5 1075.2" style="enable-background:new 0 0 941.5 1075.2;" xml:space="preserve">
<style type="text/css">
	.st0{fill:#00B7F2;}
	.st1{opacity:0.6;}
	.st2{fill:#FFFFFF;}
	.st3{fill:#F56885;}
	.st4{fill:#68D093;}
	.st5{fill:#215ED5;}
	.st6{fill:#E8370A;}
	.st7{opacity:0.4;}
	.st8{fill:#FBC3CE;}
	.st9{fill:none;stroke:#000000;stroke-width:10;stroke-linecap:round;stroke-miterlimit:10;}
	.st10{fill:#FFDA96;}
	.st11{fill:#FFDA5D;}
	.st12{fill:#FFB82E;}
	.st13{fill:#D6BDA7;}
	.st14{fill:#231815;}
	.st15{clip-path:url(#SVGID_00000140707936726614861760000013799618806695695018_);fill:#FFFFFF;}
	.st16{clip-path:url(#SVGID_00000140707936726614861760000013799618806695695018_);fill:#FFFFFE;}
	.st17{clip-path:url(#SVGID_00000140707936726614861760000013799618806695695018_);fill:#FFFFFD;}
	.st18{clip-path:url(#SVGID_00000140707936726614861760000013799618806695695018_);fill:#FFFEFC;}
	.st19{clip-path:url(#SVGID_00000140707936726614861760000013799618806695695018_);fill:#FFFEFB;}
	.st20{clip-path:url(#SVGID_00000140707936726614861760000013799618806695695018_);fill:#FFFEFA;}
	.st21{clip-path:url(#SVGID_00000140707936726614861760000013799618806695695018_);fill:#FFFEF9;}
	.st22{clip-path:url(#SVGID_00000140707936726614861760000013799618806695695018_);fill:#FFFDF8;}
	.st23{clip-path:url(#SVGID_00000140707936726614861760000013799618806695695018_);fill:#FFFDF7;}
	.st24{clip-path:url(#SVGID_00000140707936726614861760000013799618806695695018_);fill:#FFFDF6;}
	.st25{clip-path:url(#SVGID_00000140707936726614861760000013799618806695695018_);fill:#FFFDF5;}
	.st26{clip-path:url(#SVGID_00000140707936726614861760000013799618806695695018_);fill:#FFFDF4;}
	.st27{clip-path:url(#SVGID_00000140707936726614861760000013799618806695695018_);fill:#FFFCF3;}
	.st28{clip-path:url(#SVGID_00000140707936726614861760000013799618806695695018_);fill:#FFFCF2;}
	.st29{clip-path:url(#SVGID_00000140707936726614861760000013799618806695695018_);fill:#FFFCF1;}
	.st30{clip-path:url(#SVGID_00000140707936726614861760000013799618806695695018_);fill:#FFFCF0;}
	.st31{clip-path:url(#SVGID_00000140707936726614861760000013799618806695695018_);fill:#FFFBEF;}
	.st32{clip-path:url(#SVGID_00000140707936726614861760000013799618806695695018_);fill:#FFFBEE;}
	.st33{clip-path:url(#SVGID_00000140707936726614861760000013799618806695695018_);fill:#FFFBED;}
	.st34{clip-path:url(#SVGID_00000140707936726614861760000013799618806695695018_);fill:#FFFBEC;}
	.st35{clip-path:url(#SVGID_00000140707936726614861760000013799618806695695018_);fill:#FFFBEB;}
	.st36{clip-path:url(#SVGID_00000140707936726614861760000013799618806695695018_);fill:#FFFAEA;}
	.st37{clip-path:url(#SVGID_00000140707936726614861760000013799618806695695018_);fill:#FFFAE9;}
	.st38{clip-path:url(#SVGID_00000140707936726614861760000013799618806695695018_);fill:#FFFAE8;}
	.st39{clip-path:url(#SVGID_00000140707936726614861760000013799618806695695018_);fill:#FFFAE7;}
	.st40{clip-path:url(#SVGID_00000140707936726614861760000013799618806695695018_);fill:#FFF9E6;}
	.st41{clip-path:url(#SVGID_00000140707936726614861760000013799618806695695018_);fill:#FFF9E5;}
	.st42{clip-path:url(#SVGID_00000140707936726614861760000013799618806695695018_);fill:#FFF9E4;}
	.st43{clip-path:url(#SVGID_00000140707936726614861760000013799618806695695018_);fill:#FFF9E3;}
	.st44{clip-path:url(#SVGID_00000140707936726614861760000013799618806695695018_);fill:#FFF9E2;}
	.st45{clip-path:url(#SVGID_00000140707936726614861760000013799618806695695018_);fill:#FFF8E1;}
	.st46{clip-path:url(#SVGID_00000140707936726614861760000013799618806695695018_);fill:#FFF8E0;}
	.st47{clip-path:url(#SVGID_00000140707936726614861760000013799618806695695018_);fill:#FFF8DF;}
	.st48{clip-path:url(#SVGID_00000140707936726614861760000013799618806695695018_);fill:#FFF8DE;}
	.st49{clip-path:url(#SVGID_00000140707936726614861760000013799618806695695018_);fill:#FFF7DD;}
	.st50{clip-path:url(#SVGID_00000140707936726614861760000013799618806695695018_);fill:#FFF7DC;}
	.st51{clip-path:url(#SVGID_00000140707936726614861760000013799618806695695018_);fill:#FFF7DB;}
	.st52{clip-path:url(#SVGID_00000140707936726614861760000013799618806695695018_);fill:#FFF7DA;}
	.st53{clip-path:url(#SVGID_00000140707936726614861760000013799618806695695018_);fill:#FFF7D9;}
	.st54{clip-path:url(#SVGID_00000140707936726614861760000013799618806695695018_);fill:#FFF6D8;}
	.st55{clip-path:url(#SVGID_00000140707936726614861760000013799618806695695018_);fill:#FFF6D7;}
	.st56{clip-path:url(#SVGID_00000140707936726614861760000013799618806695695018_);fill:#FFF6D6;}
	.st57{clip-path:url(#SVGID_00000140707936726614861760000013799618806695695018_);fill:#FFF6D5;}
	.st58{clip-path:url(#SVGID_00000140707936726614861760000013799618806695695018_);fill:#FFF5D4;}
	.st59{clip-path:url(#SVGID_00000140707936726614861760000013799618806695695018_);fill:#FFF5D3;}
	.st60{clip-path:url(#SVGID_00000140707936726614861760000013799618806695695018_);fill:#FFF5D2;}
	.st61{clip-path:url(#SVGID_00000140707936726614861760000013799618806695695018_);fill:#FFF5D1;}
	.st62{clip-path:url(#SVGID_00000140707936726614861760000013799618806695695018_);fill:#FFF5D0;}
	.st63{clip-path:url(#SVGID_00000140707936726614861760000013799618806695695018_);fill:#FFF4CF;}
	.st64{clip-path:url(#SVGID_00000140707936726614861760000013799618806695695018_);fill:#FFF4CE;}
	.st65{clip-path:url(#SVGID_00000140707936726614861760000013799618806695695018_);fill:#FFF4CD;}
	.st66{clip-path:url(#SVGID_00000140707936726614861760000013799618806695695018_);fill:#FFF4CC;}
	.st67{clip-path:url(#SVGID_00000140707936726614861760000013799618806695695018_);fill:#FFF3CB;}
	.st68{clip-path:url(#SVGID_00000140707936726614861760000013799618806695695018_);fill:#FFF3CA;}
	.st69{clip-path:url(#SVGID_00000140707936726614861760000013799618806695695018_);fill:#FFF3C9;}
	.st70{clip-path:url(#SVGID_00000140707936726614861760000013799618806695695018_);fill:#FFF3C8;}
	.st71{clip-path:url(#SVGID_00000140707936726614861760000013799618806695695018_);fill:#FFF3C7;}
	.st72{clip-path:url(#SVGID_00000140707936726614861760000013799618806695695018_);fill:#FFF2C6;}
	.st73{clip-path:url(#SVGID_00000140707936726614861760000013799618806695695018_);fill:#FFF2C5;}
	.st74{clip-path:url(#SVGID_00000140707936726614861760000013799618806695695018_);fill:#FFF2C4;}
	.st75{clip-path:url(#SVGID_00000140707936726614861760000013799618806695695018_);fill:#FFF2C3;}
	.st76{clip-path:url(#SVGID_00000140707936726614861760000013799618806695695018_);fill:#FFF1C2;}
	.st77{clip-path:url(#SVGID_00000140707936726614861760000013799618806695695018_);fill:#FFF1C1;}
	.st78{clip-path:url(#SVGID_00000140707936726614861760000013799618806695695018_);fill:#FFF1C0;}
	.st79{clip-path:url(#SVGID_00000140707936726614861760000013799618806695695018_);fill:#FFF1BF;}
	.st80{clip-path:url(#SVGID_00000140707936726614861760000013799618806695695018_);fill:#FFF1BE;}
	.st81{clip-path:url(#SVGID_00000140707936726614861760000013799618806695695018_);fill:#FFF0BD;}
	.st82{clip-path:url(#SVGID_00000140707936726614861760000013799618806695695018_);fill:#FFF0BC;}
	.st83{clip-path:url(#SVGID_00000140707936726614861760000013799618806695695018_);fill:#FFF0BB;}
	.st84{clip-path:url(#SVGID_00000140707936726614861760000013799618806695695018_);fill:#FFF0BA;}
	.st85{clip-path:url(#SVGID_00000140707936726614861760000013799618806695695018_);fill:#FFEFB9;}
	.st86{clip-path:url(#SVGID_00000140707936726614861760000013799618806695695018_);fill:#FFEFB8;}
	.st87{clip-path:url(#SVGID_00000140707936726614861760000013799618806695695018_);fill:#FFEFB7;}
	.st88{clip-path:url(#SVGID_00000140707936726614861760000013799618806695695018_);fill:#FFEFB6;}
	.st89{clip-path:url(#SVGID_00000140707936726614861760000013799618806695695018_);fill:#FFEFB5;}
	.st90{clip-path:url(#SVGID_00000140707936726614861760000013799618806695695018_);fill:#FFEEB4;}
	.st91{clip-path:url(#SVGID_00000140707936726614861760000013799618806695695018_);fill:#FFEEB3;}
	.st92{clip-path:url(#SVGID_00000140707936726614861760000013799618806695695018_);fill:#FFEEB2;}
	.st93{clip-path:url(#SVGID_00000140707936726614861760000013799618806695695018_);fill:#FFEEB1;}
	.st94{clip-path:url(#SVGID_00000140707936726614861760000013799618806695695018_);fill:#FFEDB0;}
	.st95{clip-path:url(#SVGID_00000140707936726614861760000013799618806695695018_);fill:#FFEDAF;}
	.st96{clip-path:url(#SVGID_00000140707936726614861760000013799618806695695018_);fill:#FFEDAE;}
	.st97{clip-path:url(#SVGID_00000140707936726614861760000013799618806695695018_);fill:#FFEDAD;}
	.st98{clip-path:url(#SVGID_00000140707936726614861760000013799618806695695018_);fill:#FFEDAC;}
	.st99{clip-path:url(#SVGID_00000140707936726614861760000013799618806695695018_);fill:#FFECAB;}
	.st100{clip-path:url(#SVGID_00000140707936726614861760000013799618806695695018_);fill:#FFECAA;}
	.st101{clip-path:url(#SVGID_00000140707936726614861760000013799618806695695018_);fill:#FFECA9;}
	.st102{clip-path:url(#SVGID_00000140707936726614861760000013799618806695695018_);fill:#FFECA8;}
	.st103{clip-path:url(#SVGID_00000140707936726614861760000013799618806695695018_);fill:#FFEBA7;}
	.st104{clip-path:url(#SVGID_00000140707936726614861760000013799618806695695018_);fill:#FFEBA6;}
	.st105{clip-path:url(#SVGID_00000140707936726614861760000013799618806695695018_);fill:#FFEBA5;}
	.st106{clip-path:url(#SVGID_00000140707936726614861760000013799618806695695018_);fill:#FFEBA4;}
	.st107{clip-path:url(#SVGID_00000140707936726614861760000013799618806695695018_);fill:#FFEBA3;}
	.st108{clip-path:url(#SVGID_00000140707936726614861760000013799618806695695018_);fill:#FFEAA2;}
	.st109{clip-path:url(#SVGID_00000140707936726614861760000013799618806695695018_);fill:#FFEAA1;}
	.st110{clip-path:url(#SVGID_00000140707936726614861760000013799618806695695018_);fill:#FFEAA0;}
	.st111{clip-path:url(#SVGID_00000140707936726614861760000013799618806695695018_);fill:#FFEA9F;}
	.st112{clip-path:url(#SVGID_00000140707936726614861760000013799618806695695018_);fill:#FFE99E;}
	.st113{clip-path:url(#SVGID_00000140707936726614861760000013799618806695695018_);fill:#FFE99D;}
	.st114{clip-path:url(#SVGID_00000140707936726614861760000013799618806695695018_);fill:#FFE99C;}
	.st115{clip-path:url(#SVGID_00000140707936726614861760000013799618806695695018_);fill:#FFE99B;}
	.st116{clip-path:url(#SVGID_00000140707936726614861760000013799618806695695018_);fill:#FFE99A;}
	.st117{clip-path:url(#SVGID_00000140707936726614861760000013799618806695695018_);fill:#FFE899;}
	.st118{clip-path:url(#SVGID_00000140707936726614861760000013799618806695695018_);fill:#FFE898;}
	.st119{clip-path:url(#SVGID_00000140707936726614861760000013799618806695695018_);fill:#FFE897;}
	.st120{clip-path:url(#SVGID_00000140707936726614861760000013799618806695695018_);fill:#FFE896;}
	.st121{clip-path:url(#SVGID_00000140707936726614861760000013799618806695695018_);fill:#FFE795;}
	.st122{clip-path:url(#SVGID_00000140707936726614861760000013799618806695695018_);fill:#FFE794;}
	.st123{clip-path:url(#SVGID_00000140707936726614861760000013799618806695695018_);fill:#FFE793;}
	.st124{clip-path:url(#SVGID_00000140707936726614861760000013799618806695695018_);fill:#FFE792;}
	.st125{clip-path:url(#SVGID_00000140707936726614861760000013799618806695695018_);fill:#FFE791;}
	.st126{clip-path:url(#SVGID_00000140707936726614861760000013799618806695695018_);fill:#FFE690;}
	.st127{clip-path:url(#SVGID_00000140707936726614861760000013799618806695695018_);fill:#FFE68F;}
	.st128{clip-path:url(#SVGID_00000140707936726614861760000013799618806695695018_);fill:#FFE68E;}
	.st129{clip-path:url(#SVGID_00000140707936726614861760000013799618806695695018_);fill:#FFE68D;}
	.st130{clip-path:url(#SVGID_00000140707936726614861760000013799618806695695018_);fill:#FFE68C;}
	.st131{clip-path:url(#SVGID_00000140707936726614861760000013799618806695695018_);fill:#FFE58A;}
	.st132{clip-path:url(#SVGID_00000140707936726614861760000013799618806695695018_);fill:#FFE589;}
	.st133{clip-path:url(#SVGID_00000140707936726614861760000013799618806695695018_);fill:#FFE588;}
	.st134{clip-path:url(#SVGID_00000140707936726614861760000013799618806695695018_);fill:#FFE587;}
	.st135{clip-path:url(#SVGID_00000140707936726614861760000013799618806695695018_);fill:#FFE486;}
	.st136{clip-path:url(#SVGID_00000140707936726614861760000013799618806695695018_);fill:#FFE485;}
	.st137{clip-path:url(#SVGID_00000140707936726614861760000013799618806695695018_);fill:#FFE484;}
	.st138{clip-path:url(#SVGID_00000140707936726614861760000013799618806695695018_);fill:#FFE483;}
	.st139{clip-path:url(#SVGID_00000140707936726614861760000013799618806695695018_);fill:#FFE482;}
	.st140{clip-path:url(#SVGID_00000140707936726614861760000013799618806695695018_);fill:#FFE381;}
	.st141{clip-path:url(#SVGID_00000140707936726614861760000013799618806695695018_);fill:#FFE380;}
	.st142{clip-path:url(#SVGID_00000140707936726614861760000013799618806695695018_);fill:#FFE37F;}
	.st143{clip-path:url(#SVGID_00000140707936726614861760000013799618806695695018_);fill:#FFE37E;}
	.st144{clip-path:url(#SVGID_00000140707936726614861760000013799618806695695018_);fill:#FFE27D;}
	.st145{clip-path:url(#SVGID_00000140707936726614861760000013799618806695695018_);fill:#FFE27C;}
	.st146{clip-path:url(#SVGID_00000140707936726614861760000013799618806695695018_);fill:#FFE27B;}
	.st147{clip-path:url(#SVGID_00000140707936726614861760000013799618806695695018_);fill:#FFE27A;}
	.st148{clip-path:url(#SVGID_00000140707936726614861760000013799618806695695018_);fill:#FFE279;}
	.st149{clip-path:url(#SVGID_00000140707936726614861760000013799618806695695018_);fill:#FFE178;}
	.st150{clip-path:url(#SVGID_00000140707936726614861760000013799618806695695018_);fill:#FFE177;}
	.st151{clip-path:url(#SVGID_00000140707936726614861760000013799618806695695018_);fill:#FFE176;}
	.st152{clip-path:url(#SVGID_00000140707936726614861760000013799618806695695018_);fill:#FFE175;}
	.st153{clip-path:url(#SVGID_00000140707936726614861760000013799618806695695018_);fill:#FFE074;}
	.st154{clip-path:url(#SVGID_00000140707936726614861760000013799618806695695018_);fill:#FFE073;}
	.st155{clip-path:url(#SVGID_00000140707936726614861760000013799618806695695018_);fill:#FFE072;}
	.st156{clip-path:url(#SVGID_00000140707936726614861760000013799618806695695018_);fill:#FFE071;}
	.st157{clip-path:url(#SVGID_00000140707936726614861760000013799618806695695018_);fill:#FFE070;}
	.st158{clip-path:url(#SVGID_00000140707936726614861760000013799618806695695018_);fill:#FFDF6F;}
	.st159{clip-path:url(#SVGID_00000140707936726614861760000013799618806695695018_);fill:#FFDF6E;}
	.st160{clip-path:url(#SVGID_00000140707936726614861760000013799618806695695018_);fill:#FFDF6D;}
	.st161{clip-path:url(#SVGID_00000140707936726614861760000013799618806695695018_);fill:#FFDF6C;}
	.st162{clip-path:url(#SVGID_00000140707936726614861760000013799618806695695018_);fill:#FFDE6B;}
	.st163{clip-path:url(#SVGID_00000140707936726614861760000013799618806695695018_);fill:#FFDE6A;}
	.st164{clip-path:url(#SVGID_00000140707936726614861760000013799618806695695018_);fill:#FFDE69;}
	.st165{clip-path:url(#SVGID_00000140707936726614861760000013799618806695695018_);fill:#FFDE68;}
	.st166{clip-path:url(#SVGID_00000140707936726614861760000013799618806695695018_);fill:#FFDE67;}
	.st167{clip-path:url(#SVGID_00000140707936726614861760000013799618806695695018_);fill:#FFDD66;}
	.st168{clip-path:url(#SVGID_00000140707936726614861760000013799618806695695018_);fill:#FFDD65;}
	.st169{clip-path:url(#SVGID_00000140707936726614861760000013799618806695695018_);fill:#FFDD64;}
	.st170{clip-path:url(#SVGID_00000140707936726614861760000013799618806695695018_);fill:#FFDD63;}
	.st171{clip-path:url(#SVGID_00000140707936726614861760000013799618806695695018_);fill:#FFDC62;}
	.st172{clip-path:url(#SVGID_00000140707936726614861760000013799618806695695018_);fill:#FFDC61;}
	.st173{clip-path:url(#SVGID_00000140707936726614861760000013799618806695695018_);fill:#FFDC60;}
	.st174{clip-path:url(#SVGID_00000140707936726614861760000013799618806695695018_);fill:#FFDC5F;}
	.st175{clip-path:url(#SVGID_00000140707936726614861760000013799618806695695018_);fill:#FFDC5E;}
	.st176{clip-path:url(#SVGID_00000140707936726614861760000013799618806695695018_);fill:#FFDB5D;}
	.st177{clip-path:url(#SVGID_00000140707936726614861760000013799618806695695018_);fill:#FFDB5C;}
	.st178{clip-path:url(#SVGID_00000140707936726614861760000013799618806695695018_);fill:#FFDB5B;}
	.st179{clip-path:url(#SVGID_00000140707936726614861760000013799618806695695018_);fill:#FFDB5A;}
	.st180{clip-path:url(#SVGID_00000140707936726614861760000013799618806695695018_);fill:#FFDA59;}
	.st181{clip-path:url(#SVGID_00000140707936726614861760000013799618806695695018_);fill:#FFDA58;}
	.st182{clip-path:url(#SVGID_00000140707936726614861760000013799618806695695018_);fill:#FFDA57;}
	.st183{clip-path:url(#SVGID_00000140707936726614861760000013799618806695695018_);fill:#FFDA56;}
	.st184{clip-path:url(#SVGID_00000140707936726614861760000013799618806695695018_);fill:#FFDA55;}
	.st185{clip-path:url(#SVGID_00000140707936726614861760000013799618806695695018_);fill:#FFD954;}
	.st186{clip-path:url(#SVGID_00000140707936726614861760000013799618806695695018_);fill:#FFD953;}
	.st187{clip-path:url(#SVGID_00000140707936726614861760000013799618806695695018_);fill:#FFD952;}
	.st188{clip-path:url(#SVGID_00000140707936726614861760000013799618806695695018_);fill:#FFD951;}
	.st189{clip-path:url(#SVGID_00000140707936726614861760000013799618806695695018_);fill:#FFD850;}
	.st190{clip-path:url(#SVGID_00000140707936726614861760000013799618806695695018_);fill:#FFD84F;}
	.st191{clip-path:url(#SVGID_00000140707936726614861760000013799618806695695018_);fill:#FFD84E;}
	.st192{clip-path:url(#SVGID_00000140707936726614861760000013799618806695695018_);fill:#FFD84D;}
	.st193{clip-path:url(#SVGID_00000140707936726614861760000013799618806695695018_);fill:#FFD84C;}
	.st194{clip-path:url(#SVGID_00000140707936726614861760000013799618806695695018_);fill:#FFD74B;}
	.st195{clip-path:url(#SVGID_00000140707936726614861760000013799618806695695018_);fill:#FFD74A;}
	.st196{clip-path:url(#SVGID_00000140707936726614861760000013799618806695695018_);fill:#FFD749;}
	.st197{clip-path:url(#SVGID_00000140707936726614861760000013799618806695695018_);fill:#FFD748;}
	.st198{clip-path:url(#SVGID_00000140707936726614861760000013799618806695695018_);fill:#FFD647;}
	.st199{clip-path:url(#SVGID_00000140707936726614861760000013799618806695695018_);fill:#FFD646;}
	.st200{clip-path:url(#SVGID_00000140707936726614861760000013799618806695695018_);fill:#FFD645;}
	.st201{clip-path:url(#SVGID_00000140707936726614861760000013799618806695695018_);fill:#FFD644;}
	.st202{clip-path:url(#SVGID_00000140707936726614861760000013799618806695695018_);fill:#FFD643;}
	.st203{clip-path:url(#SVGID_00000140707936726614861760000013799618806695695018_);fill:#FFD542;}
	.st204{clip-path:url(#SVGID_00000140707936726614861760000013799618806695695018_);fill:#FFD541;}
	.st205{clip-path:url(#SVGID_00000140707936726614861760000013799618806695695018_);fill:#FFD540;}
	.st206{clip-path:url(#SVGID_00000140707936726614861760000013799618806695695018_);fill:#FFD53F;}
	.st207{clip-path:url(#SVGID_00000140707936726614861760000013799618806695695018_);fill:#FFD43E;}
	.st208{clip-path:url(#SVGID_00000140707936726614861760000013799618806695695018_);fill:#FFD43D;}
	.st209{clip-path:url(#SVGID_00000140707936726614861760000013799618806695695018_);fill:#FFD43C;}
	.st210{clip-path:url(#SVGID_00000140707936726614861760000013799618806695695018_);fill:#FFD43B;}
	.st211{clip-path:url(#SVGID_00000140707936726614861760000013799618806695695018_);fill:#FFD43A;}
	.st212{clip-path:url(#SVGID_00000140707936726614861760000013799618806695695018_);fill:#FFD339;}
	.st213{clip-path:url(#SVGID_00000140707936726614861760000013799618806695695018_);fill:#FFD338;}
	.st214{clip-path:url(#SVGID_00000140707936726614861760000013799618806695695018_);fill:#FFD337;}
	.st215{clip-path:url(#SVGID_00000140707936726614861760000013799618806695695018_);fill:#FFD336;}
	.st216{clip-path:url(#SVGID_00000140707936726614861760000013799618806695695018_);fill:#FFD235;}
	.st217{clip-path:url(#SVGID_00000140707936726614861760000013799618806695695018_);fill:#FFD234;}
	.st218{clip-path:url(#SVGID_00000140707936726614861760000013799618806695695018_);fill:#FFD233;}
	.st219{clip-path:url(#SVGID_00000140707936726614861760000013799618806695695018_);fill:#FFD232;}
	.st220{clip-path:url(#SVGID_00000140707936726614861760000013799618806695695018_);fill:#FFD231;}
	.st221{clip-path:url(#SVGID_00000140707936726614861760000013799618806695695018_);fill:#FFD130;}
	.st222{clip-path:url(#SVGID_00000140707936726614861760000013799618806695695018_);fill:#FFD12F;}
	.st223{clip-path:url(#SVGID_00000140707936726614861760000013799618806695695018_);fill:#FFD12E;}
	.st224{clip-path:url(#SVGID_00000140707936726614861760000013799618806695695018_);fill:#FFD12D;}
	.st225{clip-path:url(#SVGID_00000140707936726614861760000013799618806695695018_);fill:#FFD02C;}
	.st226{clip-path:url(#SVGID_00000140707936726614861760000013799618806695695018_);fill:#FFD02B;}
	.st227{clip-path:url(#SVGID_00000140707936726614861760000013799618806695695018_);fill:#FFD02A;}
	.st228{clip-path:url(#SVGID_00000140707936726614861760000013799618806695695018_);fill:#FFD029;}
	.st229{clip-path:url(#SVGID_00000140707936726614861760000013799618806695695018_);fill:#FFD028;}
	.st230{clip-path:url(#SVGID_00000140707936726614861760000013799618806695695018_);fill:#FFCF27;}
	.st231{clip-path:url(#SVGID_00000140707936726614861760000013799618806695695018_);fill:#FFCF26;}
	.st232{clip-path:url(#SVGID_00000140707936726614861760000013799618806695695018_);fill:#FFCF25;}
	.st233{clip-path:url(#SVGID_00000140707936726614861760000013799618806695695018_);fill:#FFCF24;}
	.st234{clip-path:url(#SVGID_00000140707936726614861760000013799618806695695018_);fill:#FFCE23;}
	.st235{clip-path:url(#SVGID_00000140707936726614861760000013799618806695695018_);fill:#FFCE22;}
	.st236{clip-path:url(#SVGID_00000140707936726614861760000013799618806695695018_);fill:#FFCE21;}
	.st237{clip-path:url(#SVGID_00000140707936726614861760000013799618806695695018_);fill:#FFCE20;}
	.st238{clip-path:url(#SVGID_00000140707936726614861760000013799618806695695018_);fill:#FFCE1F;}
	.st239{clip-path:url(#SVGID_00000140707936726614861760000013799618806695695018_);fill:#FFCD1E;}
	.st240{clip-path:url(#SVGID_00000140707936726614861760000013799618806695695018_);fill:#FFCD1D;}
	.st241{clip-path:url(#SVGID_00000140707936726614861760000013799618806695695018_);fill:#FFCD1C;}
	.st242{clip-path:url(#SVGID_00000140707936726614861760000013799618806695695018_);fill:#FFCD1B;}
	.st243{clip-path:url(#SVGID_00000140707936726614861760000013799618806695695018_);fill:#FFCC1A;}
	.st244{clip-path:url(#SVGID_00000140707936726614861760000013799618806695695018_);fill:#FFCC19;}
	.st245{clip-path:url(#SVGID_00000140707936726614861760000013799618806695695018_);fill:#FFCC18;}
	.st246{fill:#584B42;}
	.st247{fill:#DEC3A6;}
	.st248{fill:#FFEAB9;}
	.st249{fill:#BEF9FF;}
	.st250{fill:#FFCC18;}
	.st251{fill:#B973FA;}
	.st252{fill:#E285B5;}
	.st253{fill:#ACACAC;}
	.st254{fill:#D4D4D4;}
	.st255{fill:#FEE63C;}
	.st256{fill:#FFAB30;}
	.st257{fill:#1C1C1C;}
	.st258{fill:#B3E7C9;}
	.st259{fill:#66CC99;}
	.st260{fill:#F9EB67;}
	.st261{fill:#F7A631;}
	.st262{fill:#4ED18B;}
	.st263{fill:#299C60;}
	.st264{fill:#00C6FF;}
	.st265{fill:#6600D0;}
	.st266{fill:#F59F00;}
	.st267{fill:#51D5FF;}
	.st268{fill:#00D096;}
	.st269{fill:#FE263B;}
	.st270{fill:#7B36FF;}
</style>
<g id="레이어_1">
</g>
<g id="레이어_2">
	<g>
		<g>
			<g>
				<path class="st3" d="M661.6,683.2l3-33.3c34.9-40.7,58.1-95.1,64.1-162.3c15.8-177-98-284.4-249-298c-151-13.5-282.1,72-298,249
					c-5.8,64.3,6,119.8,30.8,165l-3.4,39"/>
			</g>
			<g class="st1">
				<path class="st2" d="M728.6,487.6c15.7-175.1-95.5-282.1-244.2-297.5c86.2,35.5,152.2,83.1,187.3,191.5
					c29.2,90.2,24.8,185.3,0.5,258.7C702.9,600.8,723.1,549.7,728.6,487.6z"/>
			</g>
			<g>
				<path d="M677.5,638.5c-1,0-2-0.3-2.9-0.9c-2.2-1.6-2.8-4.7-1.1-7c2.8-3.9,5.5-7.9,8.1-12c23.5-37.2,37.7-81.4,42.1-131.4
					c7.4-82.5-13.6-153.9-60.7-206.5c-43.6-48.8-108.9-79.3-183.8-86C318.6,180.3,201,278.5,186.7,439.1
					c-4.5,50,1.6,96.1,18.1,136.8c1.8,4.4,3.8,8.9,5.8,13.2c1.2,2.5,0.1,5.5-2.4,6.7c-2.5,1.2-5.5,0.1-6.7-2.4
					c-2.1-4.5-4.2-9.1-6-13.7c-17.1-42.2-23.4-89.8-18.8-141.4c7.6-85.3,42.3-154.3,100.2-199.5c27-21.1,58.5-36.4,93.4-45.6
					c34.4-9,71.3-11.9,109.8-8.5c38.4,3.4,74.3,12.8,106.5,27.8c32.8,15.2,61,35.9,83.8,61.5c49,54.7,70.8,128.7,63.2,214.1
					c-4.6,51.6-19.3,97.3-43.6,135.9c-2.7,4.2-5.5,8.4-8.4,12.4C680.6,637.7,679.1,638.5,677.5,638.5z"/>
			</g>
			<g>
				<path d="M479.2,467.5c-0.8,0-1.6-0.2-2.4-0.6c-6.8-3.7-14.6-6.1-22.5-6.9c-7.9-0.6-16,0.3-23.3,2.8c-2.6,0.9-5.5-0.5-6.3-3.2
					s0.5-5.5,3.2-6.3c8.6-2.9,18.1-4,27.4-3.3c9.4,0.9,18.5,3.7,26.4,8.1c2.4,1.3,3.3,4.4,2,6.8C482.7,466.6,481,467.5,479.2,467.5z
					"/>
			</g>
			<g>
				<g>
					<path d="M500.4,530.5c-0.2,0-0.4,0-0.5,0c-18.2-0.1-36.3-6.9-50.2-18.6c-15.8,9.1-34.7,12.5-52.7,9.4
						c-19.2-3.3-37-14.1-48.9-29.5c-1.7-2.2-1.3-5.3,0.9-7c2.2-1.7,5.3-1.3,7,0.9c10.4,13.5,25.9,22.9,42.6,25.8
						c16.7,2.9,34.5-0.7,48.8-9.9c1.9-1.2,4.5-1,6.1,0.5c12.4,11.6,29.3,18.3,46.3,18.5c0.2,0,0.3,0,0.5,0
						c16.8,0,33.6-6.5,46.1-17.8c2-1.9,5.2-1.7,7.1,0.3c1.9,2,1.7,5.2-0.3,7.1C538.9,523.1,519.7,530.5,500.4,530.5z"/>
				</g>
			</g>
			<g>
				<path d="M449.7,604.7c-2.7,0-5.5-0.1-8.2-0.3c-13.6-1.3-26.9-5.4-38.5-11.8c-2.4-1.3-3.3-4.4-2-6.8c1.3-2.4,4.4-3.3,6.8-2
					c10.5,5.7,22.4,9.4,34.6,10.6c12.1,1,24.6-0.5,35.9-4.3c2.6-0.9,5.5,0.5,6.3,3.2c0.9,2.6-0.5,5.5-3.2,6.3
					C471.4,603,460.5,604.7,449.7,604.7z"/>
			</g>
			<g>
				<g>
					<g>
						<g>
							<path class="st14" d="M352.5,419c12.4-2.3,24.9-3.5,37.5-3.5c4.2,0,6.8-5.5,3.5-8.5c-10.7-10-23.6-15.8-37.8-18.9
								c-6.3-1.4-8.9,8.2-2.7,9.6c12.5,2.8,23.9,7.5,33.3,16.3c1.2-2.8,2.4-5.7,3.5-8.5c-13.5,0-26.9,1.4-40.1,3.8
								C343.5,410.5,346.2,420.2,352.5,419L352.5,419z"/>
						</g>
					</g>
					<g>
						<g>
							<g>
								<path class="st14" d="M564.6,428.1c-12.1-4.8-24.6-8.6-37.3-11.1c0.4,3,0.8,6.1,1.2,9.1c11-6.8,22.9-9.4,35.8-9.7
									c6.4-0.2,6.4-10.2,0-10c-14.5,0.3-28.4,3.4-40.8,11.1c-3.4,2.1-3.2,8.3,1.2,9.1c12.8,2.5,25.2,6.3,37.3,11.1
									C568,440.1,570.6,430.4,564.6,428.1L564.6,428.1z"/>
							</g>
						</g>
					</g>
				</g>
			</g>
			<g>
				<g class="st1">
					<path class="st252" d="M443.3,401.6c-3,33.4-36.7,65.7-72.9,62.5c-18.6-1.7-37.7-9.7-49.8-23.8c-12.2-14.2-20.1-33.5-22.5-51.6
						c0,0-31.3-2.8-31.3-2.8c-13.7,3.7-27.3,7.5-41,11.2c-9.3,2.5-18.5,5.1-27.8,7.6c-3.3,0.9-7.6,1.4-10.7,3.1
						c-6.9,3.9-13,12.6-21.9,7.6c-14.1-7.9-0.5-26.2,8.3-31.9l92.5-38.7l394,35.3l84.1,54.5c7.7,7.1,17.9,27.6,2.5,32.8
						c-9.7,3.3-14.1-6.3-20.2-11.3c-2.7-2.2-6.8-3.5-9.9-4.9c-8.7-4.1-17.4-8.3-26-12.4c-12.8-6.1-25.6-12.2-38.4-18.3
						c0,0-31.3-2.8-31.3-2.8c-5.5,17.4-16.8,35.1-31.3,46.8s-34.7,16.3-53.3,14.6c-36.2-3.2-63.6-41.1-60.6-74.4L443.3,401.6z"/>
				</g>
				<g>
					<g>
						<path class="st2" d="M388.1,355.6l-13.9-1.2c-17.5,26.7-34.9,53.5-52.4,80.2c-0.9,1.3-1.7,2.7-2.6,4c0.5,0.6,0.9,1.1,1.4,1.7
							c2.3,2.6,4.8,5.1,7.5,7.3c18.1-27.7,36.1-55.3,54.2-83C384.2,361.6,386.1,358.6,388.1,355.6z"/>
					</g>
					<g>
						<path class="st2" d="M528,368.2c-15.3,23.4-30.6,46.8-45.8,70.2c3.5,7.5,8.3,14.4,14.1,20.5c19.2-29.4,38.5-58.9,57.7-88.3
							L528,368.2z"/>
					</g>
					<g>
						<path class="st2" d="M337.6,351.1c-11.9,18.2-23.8,36.4-35.7,54.7c2.7,8.6,6.5,17,11.4,24.6c16.8-25.6,33.5-51.3,50.3-76.9
							L337.6,351.1z"/>
					</g>
				</g>
				<g>
					<path d="M544,484.3c-2.7,0-5.4-0.1-8.2-0.4c-18.3-1.6-35.9-11.8-48.5-27.8c-11-14-17-30.9-16.9-47.1l-22.8-2
						c-2.7,15.9-11.7,31.4-25,43.3c-15.2,13.6-34.4,20.4-52.7,18.8c-21.5-1.9-40.9-11.2-53.2-25.6c-11.4-13.3-19.9-31.8-23-50.3
						l-26.5-2.4l-68,18.5c-1.1,0.3-2.3,0.6-3.4,0.8c-2.3,0.5-4.7,1-6.1,1.8c-1.5,0.8-3,2-4.6,3.2c-5.3,4.1-12.6,9.6-22.1,4.3
						c-7-3.9-8.5-9.5-8.7-13.6c-0.3-10.9,9.8-22.4,16.8-26.9c0.2-0.2,0.5-0.3,0.8-0.4l92.5-38.7c0.7-0.3,1.6-0.4,2.4-0.4l394,35.3
						c0.8,0.1,1.6,0.3,2.3,0.8l84.1,54.5c0.2,0.2,0.5,0.3,0.7,0.5c6,5.6,13.9,18.8,11.7,29.4c-0.8,4-3.4,9.2-10.9,11.8
						c-10.3,3.5-16.5-3.2-21-8.2c-1.4-1.5-2.7-2.9-4-4c-1.3-1.1-3.6-2-5.7-2.9c-1.1-0.4-2.2-0.9-3.2-1.4l-63.6-30.3
						c-3.8-0.3-19.2-1.7-26.5-2.4c-6.4,17.6-18,34.3-31.6,45.4C579.9,478.6,562.5,484.3,544,484.3z M443.3,396.6c0.1,0,0.3,0,0.4,0
						l32.3,2.9c2.8,0.2,4.8,2.7,4.5,5.4c-2.6,29.4,21.3,65.9,56.1,69c18.6,1.7,37.2-3.4,49.7-13.5c13.1-10.7,24.2-27.3,29.7-44.5
						c0.7-2.2,2.9-3.7,5.2-3.5l31,2.8c0.8,0.1,1.5,0.3,2.1,0.5l0,0l64.4,30.7c0.8,0.4,1.7,0.8,2.7,1.2c2.7,1.1,5.8,2.4,8.2,4.4
						c1.9,1.5,3.5,3.3,5,5c4.6,5,6.6,6.8,10.4,5.5c3.3-1.1,4.1-3,4.4-4.4c1.3-6-4.1-15.5-8.4-19.7l-82.7-53.6l-391.5-35l-90.9,38
						c-5,3.4-12,11.8-11.8,17.9c0,1.5,0.5,3.4,3.5,5.1c3.5,1.9,5.8,0.6,11.2-3.5c1.8-1.4,3.7-2.9,5.8-4c2.8-1.5,6-2.3,8.9-2.9
						c1.1-0.2,2-0.4,2.9-0.7l68.8-18.8c0.6-0.2,1.2-0.2,1.8-0.2l31.3,2.8c2.3,0.2,4.2,2,4.5,4.3c2.3,17.9,10.3,36.2,21.3,49
						c10.5,12.2,27.9,20.5,46.5,22.1c34.8,3.1,64.8-28.6,67.5-58c0.1-1.3,0.8-2.5,1.8-3.4C441,397,442.1,396.6,443.3,396.6z"/>
				</g>
			</g>
			<g>
				<g id="XMLID_00000085940439340019840000000002192177028896635018_">
					<g>
						<g>
							<path d="M480.4,522.6c-1.2,9.2-4,18.1-9.8,25.3c-7.3,9.1-20.2,14.5-31.2,10.4c-9.6-3.6-15.6-13.4-17.6-23.4
								c-1.2-6-1.1-12.2-0.5-18.4c10.3-1.5,20.2-5.2,28.9-10.9C458.8,513.6,469.2,519.4,480.4,522.6z"/>
						</g>
					</g>
				</g>
			</g>
		</g>
		<g>
			<g>
				<path class="st6" d="M616.4,220.1L600.9,49.4l0.5-1.6l-0.6,0.7l-0.1-0.9l-0.5,1.6L483.9,174.9c7.7,12.3,24.4,34.6,58.6,46.3
					C576.5,232.7,603,225.3,616.4,220.1z"/>
			</g>
			<g>
				<g>
					<path class="st2" d="M615.6,191.1l-13.7,6.7c-2.5,1.2-5.8,0.1-7-2.4l-5.6-11.4c-1.6-3.3-4.5-5.8-8-7c-3.5-1.2-7.3-1-10.6,0.7
						l-11.4,5.6c-2.5,1.2-5.8,0.1-7-2.4l-5.6-11.4c-1.6-3.3-4.5-5.8-8-7c-3.5-1.2-7.3-1-10.6,0.7l-11.4,5.6c-2.5,1.2-5.8,0.1-7-2.4
						l-6.9-14l-6.3,6.8l5.4,11.1c1.6,3.3,4.5,5.8,8,7c3.5,1.2,7.3,1,10.6-0.7l11.4-5.6c2.5-1.2,5.8-0.1,7,2.4l5.6,11.4
						c1.6,3.3,4.5,5.8,8,7c3.5,1.2,7.3,1,10.6-0.7l11.4-5.6c2.5-1.2,5.8-0.1,7,2.4l5.6,11.4c1.6,3.3,4.5,5.8,8,7
						c3.5,1.2,7.3,1,10.6-0.7l10.7-5.3L615.6,191.1z"/>
				</g>
				<g>
					<path class="st2" d="M601.9,116.3c-3.5-1.2-7.3-1-10.6,0.7l-11.4,5.6c-2.5,1.2-5.8,0.1-7-2.4l-5.6-11.4c-1.6-3.3-4.5-5.8-8-7
						c-3.4-1.2-7.1-1-10.3,0.6l-13.8,14.9c2,0,4.1-0.5,6-1.4l11.4-5.6c2.5-1.2,5.8-0.1,7,2.4l5.6,11.4c1.6,3.3,4.5,5.8,8,7
						c3.5,1.2,7.3,1,10.6-0.7l11.4-5.6c2.5-1.2,5.8-0.1,7,2.4l5.6,11.4c0.9,1.7,2.1,3.3,3.5,4.5l-1.9-20.7
						C607.6,119.5,605,117.4,601.9,116.3z"/>
				</g>
				<g>
					<path class="st2" d="M520.1,146.9c3.5,1.2,7.3,1,10.6-0.7l11.4-5.6c2.5-1.2,5.8-0.1,7,2.4l5.6,11.4c1.6,3.3,4.5,5.8,8,7
						c3.5,1.2,7.3,1,10.6-0.7l11.4-5.6c2.5-1.2,5.8-0.1,7,2.4l5.6,11.4c1.6,3.3,4.5,5.8,8,7c2.9,1,6,1,8.8,0l-0.8-9.1l-1.2,0.6
						c-2.5,1.2-5.8,0.1-7-2.4l-5.6-11.4c-1.6-3.3-4.5-5.8-8-7c-3.5-1.2-7.3-1-10.6,0.7l-11.4,5.6c-2.5,1.2-5.8,0.1-7-2.4l-5.6-11.4
						c-1.6-3.3-4.5-5.8-8-7c-3.5-1.2-7.3-1-10.6,0.7l-11.4,5.6c-2.5,1.2-5.8,0.1-7-2.4l-0.7-1.5l-6.2,6.7
						C514.5,143.9,517.1,145.9,520.1,146.9z"/>
				</g>
			</g>
			<g>
				<path class="st2" d="M617.1,228.1l-0.7-7.9c-13.4,5.2-39.9,12.6-74,1c-34.2-11.6-50.9-33.9-58.6-46.3l-5.4,5.9l-8.2,8.9
					c0,0,14.1,35.9,64.9,53.2c50.9,17.3,83.1-2.8,83.1-2.8L617.1,228.1z"/>
				<path d="M575.7,254.9c-12.1,0-26.3-1.9-42.2-7.3c-52.4-17.8-67.3-54.5-67.9-56.1c-0.7-1.8-0.3-3.8,1-5.2l13.6-14.7
					c1.1-1.1,2.6-1.7,4.1-1.6c1.6,0.1,2.9,1,3.8,2.3c13.2,21.2,32,36,56,44.2c23.9,8.1,47.7,7.8,70.6-1c1.5-0.6,3.1-0.4,4.4,0.4
					c1.3,0.8,2.2,2.2,2.3,3.8l0.7,7.9l0,0l1.1,11.9c0.2,1.9-0.7,3.7-2.3,4.7C619.9,244.8,603.4,254.9,575.7,254.9z M476.2,190.5
					c4.4,8.4,20.7,34,60.5,47.5c40,13.6,67.9,3.1,76.2-0.9L612,227c-23.2,7.5-47.1,7.1-71.2-1.1c-24.1-8.2-43.5-22.6-57.7-42.9
					L476.2,190.5z"/>
			</g>
			<g>
				<path d="M578.4,232.3c-12.4,0-25-2.1-37.6-6.4c-26.2-8.9-46.8-25.2-61.2-48.4c-1.2-1.9-1-4.4,0.6-6l115.6-125l0.2-0.6
					c0.8-2.2,3-3.6,5.3-3.4c0.5,0.1,0.9,0.2,1.4,0.4c0.5,0.1,0.9,0.3,1.3,0.5c2,1.2,2.9,3.7,2.2,5.9L606,50l15.4,169.7
					c0.2,2.2-1.1,4.3-3.2,5.1C605.2,229.8,591.9,232.3,578.4,232.3z M490.2,175.4c13.1,19.5,31.2,33.3,53.9,41
					c22.7,7.7,45.2,7.8,67,0.3L596.9,60.1L490.2,175.4z"/>
			</g>
			<g>
				<path class="st2" d="M638.1,35.6c-2-2-4.6-3.5-7.3-4.4c0.6-3.8,0.3-7.7-1.2-11.2C626.2,11.7,617,6.3,608,6.8
					c-7.3,0.4-14.1,4.5-18.3,10.5c-1.4-1.1-3-1.9-4.7-2.5c-3.1-1.1-6.5-1.4-9.6-0.6c-4.8,1.2-8.7,5-10.9,9.5
					c-2.1,4.5-2.6,9.7-2,14.6c0.1,0.7,0.2,1.5,0.3,2.2c-2.8,1-5.4,2.6-7.4,4.8c-4.2,4.6-5.8,11.5-4,17.4c0.8,2.8,2.3,5.3,4.1,7.5
					c2.5,3,5.7,5.6,9.5,6.8c0,0,0.1,0,0.1,0c1,8.7,7.3,16.6,15.6,19.5c7.6,2.6,16.6,0.9,22.8-4.2c3.8,2.2,8.3,3.4,12.7,3.1
					c3.1-0.2,6.1-1.1,8.7-2.7c5.4-3.5,8.2-10.2,8.2-16.7c0-2.9-0.6-5.8-1.5-8.7c3-0.8,5.8-2.2,7.9-4.5c1.5-1.6,2.5-3.6,3.2-5.7
					C645.3,49.9,643.6,41.1,638.1,35.6z"/>
				<path class="st14" d="M588.1,102.8c-3.1,0-6.2-0.5-9.1-1.5c-9.1-3.2-16.2-11.2-18.4-20.6c-3.3-1.6-6.4-4.1-9-7.2
					c-2.4-2.9-4.1-6-5.1-9.3c-2.3-7.7-0.3-16.4,5.1-22.3c1.6-1.8,3.5-3.2,5.6-4.4c-0.4-6,0.4-11.3,2.6-15.9
					c2.9-6.1,8.2-10.7,14.1-12.2c4-1,8.3-0.8,12.5,0.7c0.7,0.2,1.3,0.5,1.9,0.8c5.1-5.3,12.1-8.6,19.2-9c11.3-0.6,22.2,6,26.5,16.3
					c1.3,3.1,1.9,6.5,1.9,10c2,1.1,3.9,2.4,5.5,4c0,0,0,0,0,0c6.7,6.7,9,17.5,5.8,26.9c-1,2.9-2.4,5.4-4.2,7.4
					c-1.6,1.8-3.5,3.2-5.7,4.3c0.3,1.9,0.5,3.7,0.5,5.5c0.1,8.7-3.9,16.7-10.5,20.9c-3.1,2-7,3.2-11.1,3.5
					c-4.3,0.3-8.5-0.5-12.5-2.2C599.2,101.3,593.7,102.8,588.1,102.8z M566.4,72.3c2,0.5,3.4,2.2,3.7,4.2
					c0.8,6.8,5.8,13.1,12.3,15.3c5.9,2.1,13,0.8,17.9-3.3c1.6-1.3,3.9-1.5,5.7-0.5c3.1,1.8,6.6,2.6,9.8,2.4c2.4-0.2,4.6-0.8,6.4-1.9
					c3.6-2.3,5.9-7.2,5.9-12.4c0-2.2-0.4-4.7-1.2-7.2c-0.4-1.3-0.3-2.7,0.4-3.9c0.7-1.2,1.8-2.1,3.1-2.4c2.3-0.6,4.1-1.6,5.4-3
					c0.9-1,1.6-2.3,2.2-4c2-5.7,0.6-12.5-3.4-16.5l0,0c-1.4-1.4-3.2-2.5-5.3-3.2c-2.4-0.8-3.8-3.2-3.4-5.6c0.5-2.9,0.2-5.9-0.9-8.5
					c-2.6-6.3-9.7-10.5-16.7-10.2c-5.5,0.3-11.1,3.5-14.6,8.4c-0.8,1.1-2,1.8-3.3,2c-1.3,0.2-2.7-0.1-3.8-0.9
					c-1-0.7-2.2-1.3-3.4-1.8c-2.3-0.8-4.7-1-6.7-0.4c-3.1,0.8-6,3.4-7.6,6.8c-1.5,3.2-2.1,7.4-1.6,12c0.1,0.6,0.2,1.2,0.3,1.7
					c0.5,2.5-0.9,4.9-3.3,5.7c-2.1,0.7-3.9,1.9-5.3,3.4c-3,3.3-4.2,8.3-2.9,12.6c0.6,1.9,1.7,3.9,3.2,5.8
					C560.9,68.9,563.2,71.2,566.4,72.3z"/>
			</g>
		</g>
		<g>
			<g>
				<g>
					<path class="st260" d="M120.1,382.1c23-2.9,45.2,9.6,45.2,9.6l0,0l-17.9,93.9l-21.7,4l-14.2,2.6l-28.6-92
						C82.8,400.3,92.2,385.7,120.1,382.1z"/>
				</g>
				<g>
					<g>
						<g>
							<path class="st261" d="M111.7,444.3c12.1,7.7,24.1,15.8,35.7,24.2c0.9,0.7,1.8,1.3,2.8,2l-2.1,10.8c-2.3-1.7-4.7-3.4-7-5.1
								c-11.7-8.4-23.6-16.4-35.8-24.1c-2.7-1.7-5.3-3.3-8-5l-4.5-14.4C99.2,436.5,105.5,440.4,111.7,444.3z"/>
						</g>
					</g>
					<g>
						<g>
							<path class="st261" d="M162.8,404.6c-10-7-20.1-13.8-30.4-20.3c-1.4-0.9-2.8-1.7-4.2-2.6c10.3,0.2,19.9,2.9,26.8,5.4
								c3.3,2.2,6.6,4.5,9.9,6.7L162.8,404.6z"/>
						</g>
					</g>
					<g>
						<g>
							<path class="st261" d="M160,419.4l-2,10.7c-11.3-8-22.8-15.8-34.5-23.2c-9.3-5.9-18.7-11.5-28.3-17c3.1-1.8,6.9-3.5,11.5-4.9
								c7.8,4.6,15.5,9.3,23.2,14.1C140,405.6,150.1,412.4,160,419.4z"/>
						</g>
					</g>
					<g>
						<g>
							<path class="st261" d="M114.4,429.5c-9.1-5.7-18.3-11.3-27.7-16.6l-3.9-12.6c0,0,0.2-0.3,0.6-0.8c12.7,7,25.1,14.5,37.4,22.2
								c11.7,7.4,23.1,15.1,34.4,23.2l-2,10.7c-1-0.7-1.9-1.4-2.9-2.1C138.5,445.2,126.6,437.2,114.4,429.5z"/>
						</g>
					</g>
				</g>
				<g>
					<path class="st14" d="M111.4,497.3c-2.2,0-4.1-1.4-4.8-3.5l-28.6-92c-0.4-1.4-0.2-2.9,0.6-4.2c0.4-0.7,11-16.6,40.8-20.4
						c24.4-3.1,47.3,9.6,48.3,10.2c1.9,1.1,2.9,3.2,2.5,5.3l-17.9,93.9c-0.4,2-2,3.6-4,4l-36,6.7C112,497.3,111.7,497.3,111.4,497.3
						z M88.4,401.3l26.5,85.3l28.2-5.2l16.6-86.9c-6.7-3.1-22.8-9.4-39-7.4C101.1,389.6,91.6,397.7,88.4,401.3z"/>
				</g>
			</g>
			<g>
				<g>
					<path class="st260" d="M820.9,433.9c-21.7-8.1-46.2-1-46.2-1l0,0l-3.9,95.5l20.3,8.9l13.3,5.8L853,460
						C853,460,847.2,443.6,820.9,433.9z"/>
				</g>
				<g>
					<g>
						<g>
							<path class="st261" d="M814.8,496.3c-13.6,4.7-27,9.9-40.3,15.4c-1,0.4-2.1,0.9-3.2,1.3l-0.5,10.9c2.7-1.1,5.3-2.2,8-3.3
								c13.3-5.5,26.8-10.6,40.3-15.3c3-1,5.9-2,8.9-3l7.6-13C828.8,491.6,821.8,493.9,814.8,496.3z"/>
						</g>
					</g>
					<g>
						<g>
							<path class="st261" d="M774.1,446c11.3-4.5,22.7-8.8,34.2-12.8c1.6-0.5,3.1-1.1,4.7-1.6c-10.1-2.2-20-1.7-27.3-0.8
								c-3.7,1.4-7.4,2.8-11.1,4.3L774.1,446z"/>
						</g>
					</g>
					<g>
						<g>
							<path class="st261" d="M773.5,461l-0.4,10.9c12.8-5.3,25.8-10.2,38.9-14.7c10.4-3.6,20.9-7,31.4-10.1c-2.6-2.4-5.9-5-10-7.4
								c-8.6,2.7-17.2,5.5-25.8,8.5C796.1,452.2,784.8,456.5,773.5,461z"/>
						</g>
					</g>
					<g>
						<g>
							<path class="st261" d="M815.6,481.3c10.2-3.5,20.4-6.8,30.7-9.9L853,460c0,0-0.1-0.3-0.4-0.9c-13.9,4-27.8,8.4-41.5,13.1
								c-13,4.6-26,9.5-38.7,14.7l-0.5,10.9c1.1-0.5,2.2-0.9,3.3-1.4C788.6,491.1,802,486,815.6,481.3z"/>
						</g>
					</g>
				</g>
				<g class="st1">
					<path class="st2" d="M820.9,433.9c-21.7-8.1-46.2-1-46.2-1l0,0c8.3-0.4,18.4,0.2,27.9,3.8c26.3,9.8,32.1,26.1,32.1,26.1
						L791,537.3l13.3,5.8L853,460C853,460,847.2,443.6,820.9,433.9z"/>
				</g>
				<g>
					<path class="st14" d="M804.2,548.1c-0.7,0-1.4-0.1-2-0.4L768.7,533c-1.9-0.8-3.1-2.7-3-4.8l3.9-95.6c0.1-2.1,1.5-4,3.6-4.6
						c1.1-0.3,26.3-7.5,49.3,1.1c28.2,10.5,34.8,28.4,35.1,29.1c0.5,1.4,0.4,2.9-0.4,4.2l-48.8,83.1
						C807.6,547.2,806,548.1,804.2,548.1z M775.9,525.2l26.3,11.5l45.2-77c-2.4-4.2-9.7-14.3-28.2-21.2c-15.3-5.7-32.4-3.2-39.6-1.7
						L775.9,525.2z"/>
				</g>
			</g>
			<g>
				<path class="st3" d="M753.2,592.8c-11.5-13.2-16.8-32.1-11.6-48.8c5.2-16.7,21.6-29.8,39.1-29.2c10.5,0.4,20.5,5.5,27.9,12.9
					s12.3,17.1,15.2,27.2c3.2,11.3,3.9,23.2,2.1,34.8c-1.6,10.7-5.6,20.8-11.3,30l0,0c-17.1,26.9-37.4,49.6-63.2,68.3
					c-25.8,18.7-53,33.5-82.5,45.7v30.5v48.5l-444.7,24.2v-72.7v-41c0,0-5.4-2.5-24.7-14.6c-27-16.9-47.8-36.9-68.7-61
					c-20.9-24.1-36.6-53.1-47.1-83.2l0,0c-3.4-10.2-5-21-4.1-31.8c0.9-11.7,4.3-23.1,10-33.4c5.1-9.2,12.1-17.5,21-23.1
					c8.9-5.6,19.8-8.2,30.2-6.2c17.2,3.3,30.2,19.9,31.4,37.3c1.2,17.4-8.2,34.7-22.5,44.9"/>
			</g>
			<g>
				<g>
					<path class="st3" d="M167.3,505.4c33.6,9.8,65.6,25.2,94.4,45.2c7.4,5.2,14,10.5,19.8,16.4l161.1,58.4l179.1-48.2
						c7-4.5,14.6-8.1,23-11.5c32.5-13,67.2-20.6,102.2-22.5l33.9,23.9l-6,49.9l-90.4,60.9c0,0-103,20.3-108.6,21.4
						c-5.6,1.1-278.3,0-278.3,0l-64.2-35.3l-66-47l-34.6-45l-4.5-28.8l26.9-37.7H167.3z"/>
				</g>
				<g>
					<g>
						<path class="st2" d="M741.6,544c-35,1.9-64.4,8.7-96.9,21.7c-6,2.4-11.6,4.9-16.8,7.8c8.2,20.5,31,38.5,63.1,32.9
							c29.9-5.2,36.4-7.5,55.9-23.4l-7.2-22.7L741.6,544z"/>
					</g>
					<g>
						<path class="st2" d="M271.4,557.9c-3.1-2.5-6.3-4.9-9.7-7.3c-28.7-20.1-60.8-35.4-94.4-45.2l2.5,8.5l-3,18.7l-11.7,15.4
							c13.8,16.2,15.8,22.6,31.6,29.7c18.7,8.4,41.1,9.9,59.6,1C256.3,573.8,264.4,566.4,271.4,557.9z"/>
					</g>
				</g>
			</g>
			<g>
				<path class="st2" d="M780.7,514.8c-17.5-0.7-33.9,12.5-39.1,29.2c-5.2,16.7,0.1,35.7,11.6,48.8c-4-16.3-1.9-30.3,5.2-45.5
					c6.1-13,16.1-24.2,28.3-31.8C784.7,515.1,782.7,514.9,780.7,514.8z"/>
			</g>
			<g>
				<g>
					<path class="st14" d="M624.2,581.5c16.9-10.8,36.8-17.2,56-22.5c20.1-5.5,40.7-9,61.5-10.6c6.4-0.5,6.4-10.5,0-10
						c-21.7,1.6-43.2,5.2-64.2,10.9c-20,5.5-40.8,12.3-58.4,23.5C613.7,576.3,618.7,584.9,624.2,581.5L624.2,581.5z"/>
				</g>
			</g>
			<g>
				<g>
					<path class="st14" d="M756.8,589.3c-15.7-18.4-17.4-48.5,4-63.3c9.7-6.8,21.7-8,32.5-3c11.8,5.5,19.9,16.6,24.2,28.6
						c4.7,13.3,5.8,28.1,2.7,41.9c-2.8,12.6-9.1,23.2-16.4,33.7c-15,21.7-33.4,41.1-54.8,56.6c-25.2,18.3-52.6,33.2-81.3,45.2
						c-2.1,0.9-3.7,2.4-3.7,4.8c0,10.2,0,20.4,0,30.5c0,6.4,10,6.4,10,0c0-10.2,0-20.4,0-30.5c-1.2,1.6-2.4,3.2-3.7,4.8
						c29.5-12.3,57.7-27.4,83.6-46.2c24.5-17.8,45-40,61.7-65.1c17.1-25.8,21.7-58.1,8-86.5c-12.1-25.3-42.8-40.8-68-23.5
						c-27.1,18.6-26,55.6-6,79C753.9,601.3,760.9,594.2,756.8,589.3L756.8,589.3z"/>
				</g>
			</g>
			<g>
				<g>
					<path class="st2" d="M121.4,471.4c16.7,6.9,29.7,16.3,33.7,34c4,17.8,2.7,28.1-3.2,45.3l0,0c13-10.3,21.5-26.7,20.3-43.3
						c-1.2-17.4-14.3-34-31.4-37.3C134.4,468.8,127.7,469.4,121.4,471.4z"/>
				</g>
			</g>
			<g>
				<g>
					<path class="st14" d="M285,563.5c-14.7-15-33.5-26.4-51.9-36.4c-19-10.3-38.9-18.6-59.5-25c-6.2-1.9-8.8,7.7-2.7,9.6
						c19.8,6.2,38.9,14.2,57.1,24c17.7,9.6,35.7,20.4,49.9,34.8C282.4,575.2,289.5,568.1,285,563.5L285,563.5z"/>
				</g>
			</g>
			<g>
				<g>
					<path class="st14" d="M152.3,556.6c24.9-18.4,34.7-54.6,11.9-78.8c-10.6-11.3-26.1-15.6-41.1-12.1
						c-15.8,3.7-28.4,15.4-36.5,29.1c-8.9,15-13.3,33.1-11.8,50.5c1.5,17.3,8.6,33.7,16,49.3c15.1,31.9,36.8,59.4,62.1,83.8
						c13.6,13,28.4,24.7,44.3,34.8c8,5,16.1,10.5,24.7,14.6c-0.8-1.4-1.7-2.9-2.5-4.3c0,13.7,0,27.3,0,41c0,6.4,10,6.4,10,0
						c0-13.7,0-27.3,0-41c0-1.6-0.9-3.6-2.5-4.3c-4.7-2.2-9.1-5.1-13.5-7.7c-12.8-7.7-25.3-15.8-36.8-25.3
						c-23.2-19.1-44.8-42-61-67.4c-8.4-13.2-15.7-27.1-21.6-41.6c-6-14.6-10.5-29.2-9.1-45.2c1.3-15.1,7.3-30.5,17.5-41.9
						c9.7-10.8,24.5-18.5,39.3-14.7c13.9,3.6,24.3,17.2,25.6,31.3c1.6,16.1-7.2,31.9-19.9,41.3C142.1,551.8,147.1,560.5,152.3,556.6
						L152.3,556.6z"/>
				</g>
			</g>
			<g>
				
					<ellipse transform="matrix(6.506030e-02 -0.9979 0.9979 6.506030e-02 -391.874 1171.8085)" class="st2" cx="429.4" cy="795" rx="161.4" ry="149.3"/>
			</g>
		</g>
		<g>
			<g>
				<path class="st2" d="M693,764.4H205.4c-6.4,0-11.7,4.4-13.2,10.4c1-0.2,2.1-0.4,3.2-0.4H683c7.5,0,13.5,6.1,13.5,13.5V1026
					c0,1.1-0.1,2.1-0.4,3.2c6-1.4,10.4-6.8,10.4-13.2V777.9C706.6,770.5,700.5,764.4,693,764.4z"/>
			</g>
			<g>
				<path class="st262" d="M696.6,787.9c0-7.5-6.1-13.5-13.5-13.5H195.4c-1.1,0-2.1,0.1-3.2,0.4c-0.2,1-0.4,2.1-0.4,3.2V1016
					c0,7.5,6.1,13.5,13.5,13.5H693c1.1,0,2.1-0.1,3.2-0.4c0.2-1,0.4-2.1,0.4-3.2V787.9z"/>
			</g>
			<g>
				<path class="st14" d="M693,1034.6H205.4c-10.2,0-18.5-8.3-18.5-18.5V777.9c0-10.2,8.3-18.5,18.5-18.5H693
					c10.2,0,18.5,8.3,18.5,18.5V1016C711.6,1026.3,703.3,1034.6,693,1034.6z M205.4,769.4c-4.7,0-8.5,3.8-8.5,8.5V1016
					c0,4.7,3.8,8.5,8.5,8.5H693c4.7,0,8.5-3.8,8.5-8.5V777.9c0-4.7-3.8-8.5-8.5-8.5H205.4z"/>
			</g>
			<g>
				<rect x="405.9" y="774.4" class="st260" width="76.6" height="255.5"/>
			</g>
			<g>
				<path class="st2" d="M492.5,764.4h-86.6v10h53.6c12.7,0,23.1,10.3,23.1,23.1v232.5h10V764.4z"/>
			</g>
			<g>
				<path class="st14" d="M497.5,1034.9h-96.6V759.4h96.6V1034.9z M410.9,1024.9h76.6V769.4h-76.6V1024.9z"/>
			</g>
			<g>
				<g>
					<g>
						<path class="st260" d="M817.6,935.9l-16.1-24.8c-18.9-20.5-55.9-17.5-76.3,1.5c-9.6,9-34.2,36.8-36.3,39.3l-2.7,11.7l14,24.9
							l9.7,17.4l88.2-1.6l2.2-1.2l0.4-12.4l9.6-5.2c5-2.7,9.2-6.4,12.5-10.5c2.2-2.8,4-5.8,5.4-9C829,955.4,825.6,944.5,817.6,935.9
							z"/>
					</g>
					<g>
						<path class="st2" d="M821,922l-16.1-24.8c-18.9-20.5-55.9-17.5-76.3,1.5c-10.1,9.4-36.4,39.4-36.4,39.4l-1.2,16.2
							c2.1-2.4,26.6-30.3,36.3-39.3c20.4-19,55.4-24.4,74.3-4l16.1,24.8c7.9,8.6,11.4,19.5,10.7,30C834.5,951.7,832.5,934.5,821,922
							z"/>
					</g>
					<g>
						<path class="st14" d="M710,1010.8c-1.8,0-3.5-1-4.4-2.6L681.9,966c-0.6-1.1-0.8-2.4-0.5-3.6l5.8-25.4c0.2-0.8,0.6-1.6,1.1-2.2
							c1.1-1.2,26.7-30.4,36.8-39.8c12.1-11.2,29.6-17.6,46.9-16.9c14.7,0.6,27.6,6.1,36.4,15.7c0.2,0.2,0.4,0.4,0.5,0.7l15.9,24.5
							c15.1,16.7,15.9,41.4,2,59.1c-3.8,4.9-8.6,8.8-14.1,11.8l-7.1,3.9l-0.4,10.6c-0.1,2.7-2.2,4.8-4.9,4.8L710,1010.8
							C710.1,1010.8,710.1,1010.8,710,1010.8z M691.6,962.8l21.3,38l82.6-1.5l0.3-8.8c0.1-1.8,1.1-3.4,2.6-4.2l9.6-5.2
							c4.3-2.3,8-5.4,11-9.2c11-13.9,10.2-33.4-1.8-46.4c-0.2-0.2-0.4-0.4-0.5-0.7l-15.8-24.4c-7-7.4-17.3-11.7-29.2-12.2
							c-14.7-0.6-29.6,4.8-39.7,14.2c-8.8,8.2-30.7,33-35.3,38.1L691.6,962.8z"/>
					</g>
					<g>
						<g>
							<path class="st261" d="M810.5,985.4l-9.6,5.2l-0.5,13.5l-90.3,1.7l-9.7-17.4c27.9-12.8,61.9-37.6,87.6-39.7
								c30.1-2.4,35.2,14.3,35.1,26.1C819.7,979.1,815.5,982.7,810.5,985.4z"/>
						</g>
						<g>
							<path class="st14" d="M710,1010.8c-1.8,0-3.5-1-4.4-2.6l-9.7-17.4c-0.7-1.2-0.8-2.7-0.4-4c0.4-1.3,1.4-2.4,2.7-3
								c8.8-4,18.1-9.2,28-14.7c21-11.7,42.8-23.9,61.3-25.4c14.1-1.1,24.7,1.6,31.7,8c5.8,5.4,8.9,13.4,8.8,23.1
								c0,1.1-0.4,2.2-1.1,3.1c-3.8,4.9-8.6,8.8-14.1,11.8c0,0,0,0,0,0l-7.1,3.9l-0.4,10.6c-0.1,2.7-2.2,4.8-4.9,4.8L710,1010.8
								C710.1,1010.8,710.1,1010.8,710,1010.8z M707.3,990.7l5.7,10.1l82.6-1.5l0.3-8.8c0.1-1.8,1.1-3.4,2.6-4.2l9.6-5.2
								c3.8-2.1,7.1-4.7,9.9-7.9c-0.3-6.1-2.1-10.7-5.6-14c-4.8-4.5-12.9-6.3-24.1-5.4c-16.3,1.3-37.1,12.9-57.3,24.1
								C722.8,982.5,714.9,986.9,707.3,990.7z M810.5,985.4L810.5,985.4L810.5,985.4z"/>
						</g>
					</g>
					<g>
						<g>
							<path class="st260" d="M615.3,938.1c0,0-26.4-30.1-36.4-39.4c-20.4-19-57.4-22-76.3-1.5L486.5,922c-14.1,15.3-14,37.8-2,52.9
								c3.3,4.2,7.5,7.8,12.5,10.5l9.6,5.2l0.5,13.5l90.3,1.7l9.7-17.4l14-24.9L615.3,938.1z"/>
						</g>
						<g>
							<path class="st14" d="M597.5,1010.8C597.4,1010.8,597.4,1010.8,597.5,1010.8l-90.4-1.7c-2.7,0-4.8-2.2-4.9-4.8l-0.4-10.6
								l-7.1-3.9c-5.5-3-10.2-7-14.1-11.8c-14-17.7-13.1-42.4,2-59.1l15.9-24.5c0.2-0.2,0.3-0.5,0.5-0.7
								c8.8-9.5,21.7-15.1,36.4-15.7c17.3-0.7,34.9,5.7,46.9,16.9c10.1,9.5,35.7,38.6,36.8,39.8c0.5,0.6,0.9,1.4,1.1,2.2l5.8,25.4
								c0.3,1.2,0.1,2.5-0.5,3.6l-23.7,42.3C600.9,1009.8,599.3,1010.8,597.5,1010.8z M512,999.2l82.6,1.5l21.3-38l-5.1-22.3
								c-4.5-5.2-26.5-30-35.3-38.1c-10.2-9.5-25-14.8-39.8-14.2c-11.8,0.4-22.2,4.8-29.2,12.2l-15.9,24.4c-0.2,0.2-0.3,0.5-0.5,0.7
								c-12,13-12.8,32.6-1.8,46.4c3,3.8,6.7,6.9,11,9.2l9.6,5.2c1.6,0.8,2.5,2.4,2.6,4.2L512,999.2z"/>
						</g>
					</g>
					<g>
						<path class="st14" d="M606.7,965.4c-1.1,0-2.3-0.4-3.2-1.2c-38.7-32.9-59.2-35.9-59.4-35.9c-2.7-0.4-4.7-2.8-4.3-5.6
							c0.3-2.7,2.8-4.7,5.5-4.4c0.9,0.1,23.1,3,64.7,38.2c2.1,1.8,2.4,4.9,0.6,7C609.5,964.8,608.1,965.4,606.7,965.4z"/>
					</g>
					<g>
						<g>
							<path class="st261" d="M497,985.4l9.6,5.2l0.5,13.5l90.3,1.7l9.7-17.4c-27.9-12.8-61.9-37.6-87.6-39.7
								c-30.1-2.4-35.2,14.3-35.1,26.1C487.8,979.1,492,982.7,497,985.4z"/>
						</g>
						<g>
							<path class="st14" d="M597.5,1010.8C597.4,1010.8,597.4,1010.8,597.5,1010.8l-90.4-1.7c-2.7,0-4.8-2.2-4.9-4.8l-0.4-10.6
								l-7.1-3.9l0,0c-5.5-3-10.2-7-14.1-11.8c-0.7-0.9-1.1-1.9-1.1-3.1c-0.1-9.7,3-17.7,8.8-23.1c7-6.5,17.6-9.2,31.7-8
								c18.5,1.5,40.3,13.6,61.3,25.4c9.9,5.5,19.2,10.7,28,14.7c1.3,0.6,2.2,1.7,2.7,3c0.4,1.3,0.3,2.8-0.4,4l-9.7,17.4
								C600.9,1009.8,599.3,1010.8,597.5,1010.8z M512,999.2l82.6,1.5l5.7-10.1c-7.6-3.8-15.5-8.2-23.8-12.8
								c-20.1-11.2-40.9-22.8-57.3-24.1c-11.2-0.9-19.3,0.9-24.1,5.4c-3.5,3.2-5.3,7.9-5.6,14c2.8,3.2,6.1,5.8,9.9,7.9l9.6,5.2
								c1.6,0.8,2.5,2.4,2.6,4.2L512,999.2z"/>
						</g>
					</g>
					<g>
						<path class="st14" d="M702,965.4c-1.4,0-2.8-0.6-3.8-1.8c-1.8-2.1-1.5-5.3,0.6-7c41.6-35.3,63.8-38.1,64.7-38.2
							c2.8-0.3,5.2,1.7,5.5,4.4c0.3,2.7-1.6,5.2-4.4,5.5c-0.4,0.1-20.9,3.2-59.4,35.9C704.2,965,703.1,965.4,702,965.4z"/>
					</g>
					<g>
						<g>
							<path class="st2" d="M701.5,938.8c-17.8-16.4-31.8-17.6-47.8-17.6s-29.9,1.2-47.8,17.6c-1.7,1.6-3.2,3.4-4.4,5.2
								c15.2-11.9,27.9-12.8,42.2-12.8c15.9,0,29.9,1.2,47.8,17.6c17.8,16.4,7.1,51.9,7.1,51.9l-0.9,2.8h6.9l4-12.8
								C708.6,990.7,719.3,955.2,701.5,938.8z"/>
						</g>
						<g>
							<path class="st260" d="M691.5,948.8c-17.8-16.4-31.8-17.6-47.8-17.6c-14.2,0-26.9,1-42.2,12.8c-11.4,17.7-2.7,46.6-2.7,46.6
								l3.7,12.8h95.3l0.9-2.8C698.6,1000.7,709.3,965.2,691.5,948.8z"/>
						</g>
					</g>
					<g>
						<path class="st14" d="M704.7,1008.4H602.5c-2.2,0-4.2-1.5-4.8-3.6L594,992c-0.5-1.5-11.3-38.6,8.6-56.9
							c19-17.5,34.4-18.9,51.1-18.9s32.1,1.4,51.1,18.9c19.9,18.3,9,55.4,8.5,57c0,0,0,0,0,0l-4,12.8
							C708.8,1007,706.9,1008.4,704.7,1008.4z M606.3,998.4H701l2.9-9.2c0.2-0.8,9.4-32.8-5.7-46.7c-16.4-15.1-28.7-16.3-44.4-16.3
							s-28,1.2-44.4,16.3c-15.3,14.1-5.8,46.4-5.7,46.7L606.3,998.4z M708.6,990.7L708.6,990.7L708.6,990.7z M708.6,990.7
							L708.6,990.7L708.6,990.7z"/>
					</g>
					<g>
						<g>
							<g>
								<polygon class="st260" points="800.4,1004.2 800.4,1003 798.2,1004.2 								"/>
							</g>
							<g>
								<path class="st14" d="M798.2,1009.2c-2.3,0-4.3-1.5-4.8-3.7c-0.6-2.2,0.4-4.6,2.4-5.7l2.2-1.2c1.6-0.9,3.5-0.8,5,0.1
									c1.5,0.9,2.4,2.6,2.4,4.4l0,1.1c-0.1,2.7-2.2,4.8-4.9,4.8L798.2,1009.2C798.3,1009.2,798.3,1009.2,798.2,1009.2z"/>
							</g>
						</g>
					</g>
				</g>
				<g>
					<g>
						<path class="st263" d="M912.8,990.7H394.7c-7.2,0-13.2,5.2-14.5,12c-0.2,0.9-0.3,1.8-0.3,2.7v49c0,8.2,6.6,14.8,14.8,14.8
							h518.1c3.6,0,7-1.3,9.5-3.5c3.2-2.7,5.3-6.8,5.3-11.3v-49C927.6,997.3,921,990.7,912.8,990.7z"/>
					</g>
					<g>
						<path class="st263" d="M922.6,1014c0-8.2-6.6-14.8-14.8-14.8H389.7c-3.6,0-7,1.3-9.5,3.5c-0.2,0.9-0.3,1.8-0.3,2.7v49
							c0,8.2,6.6,14.8,14.8,14.8h518.1c3.6,0,7-1.3,9.5-3.5c0.2-0.9,0.3-1.8,0.3-2.7V1014z"/>
					</g>
					<g>
						<path class="st2" d="M912.8,990.7H394.7c-7.2,0-13.2,5.2-14.5,12v8.6c0.1-3.9,3.4-6.3,6.6-7.8c3-1.3,6.2-1.9,9.4-1.9l506.8-1
							c8.2,0,14.8,7.6,14.8,15.8v52.2c0,0.9-0.1,1.8-0.3,2.7c3.2-2.7,10-6.8,10-11.3v-54.6C927.6,997.3,921,990.7,912.8,990.7z"/>
					</g>
				</g>
				<g>
					<path class="st2" d="M610.4,990.7v10h56.9c10.9,0,19.7,8.8,19.7,19.7v48.9h10v-78.5H610.4z"/>
				</g>
				<g>
					<path class="st260" d="M667.4,1000.7h-56.9v68.5H687v-48.9C687,1009.5,678.2,1000.7,667.4,1000.7z"/>
				</g>
				<g>
					<path class="st14" d="M912.8,1074.2H394.7c-10.9,0-19.8-8.9-19.8-19.8v-49c0-10.9,8.9-19.8,19.8-19.8h518.1
						c10.9,0,19.8,8.9,19.8,19.8v49C932.6,1065.3,923.7,1074.2,912.8,1074.2z M394.7,995.7c-5.4,0-9.8,4.4-9.8,9.8v49
						c0,5.4,4.4,9.8,9.8,9.8h518.1c5.4,0,9.8-4.4,9.8-9.8v-49c0-5.4-4.4-9.8-9.8-9.8H394.7z"/>
				</g>
				<g>
					<path class="st14" d="M697,1074.2h-86.6c-2.8,0-5-2.2-5-5v-78.5c0-2.8,2.2-5,5-5H697c2.8,0,5,2.2,5,5v78.5
						C702,1071.9,699.8,1074.2,697,1074.2z M615.4,1064.2H692v-68.5h-76.6V1064.2z"/>
				</g>
			</g>
		</g>
		<g>
			<g id="XMLID_00000060713870252509239360000018288771978774228631_">
				<g>
					<path class="st262" d="M806.1,339.1c9.7,17.2,12.6,38.1,8.3,57.4c-5.3-0.6-10.7-0.7-16-0.1c-0.7-17.5-5.7-34.8-14.5-50
						c5.4-3.9,11.4-7,17.7-9.1c0.8-0.3,1.8-0.5,2.6-0.2C805,337.4,805.6,338.3,806.1,339.1z"/>
					<path class="st14" d="M814.3,401.5c-0.2,0-0.4,0-0.6,0c-4.9-0.6-9.9-0.6-14.9-0.1c-1.4,0.1-2.7-0.3-3.8-1.2
						c-1-0.9-1.7-2.2-1.7-3.6c-0.6-16.7-5.4-33.2-13.9-47.6c-1.3-2.2-0.7-5,1.4-6.5c5.8-4.3,12.3-7.6,19.1-9.8
						c1-0.3,3.3-1.1,5.8-0.2c2.7,1,4.1,3.3,4.6,4.3c10.2,18.1,13.4,40.3,8.8,60.9C818.7,399.9,816.7,401.5,814.3,401.5z M805.8,391
						c1.5,0,3,0,4.5,0.1c2.7-16.7-0.2-34.2-8.1-48.8c-4.1,1.4-8,3.3-11.7,5.6c7,13.3,11.4,28,12.6,43.1C804,391,804.9,391,805.8,391
						z M803.5,341.9L803.5,341.9L803.5,341.9z M801.4,341.1L801.4,341.1L801.4,341.1z"/>
				</g>
			</g>
			<g id="XMLID_00000075881453770616221710000005083061969419993748_">
				<g>
					<path class="st264" d="M881.5,369.3c3.9,6.5,8,12.8,12.3,19c-13.8,7.2-26.8,15.9-36,28c-3.9-4.4-7.9-8.8-11.8-13.2
						C855.1,389.3,867.3,377.6,881.5,369.3z"/>
					<path class="st14" d="M857.8,421.3c-1.4,0-2.8-0.6-3.7-1.7c-3.5-4-7.1-7.9-10.6-11.9l-1.2-1.4c-1.5-1.7-1.7-4.2-0.5-6.1
						c9.5-14.4,22.3-26.6,37.2-35.3c2.4-1.4,5.4-0.6,6.8,1.7c3.8,6.4,7.9,12.7,12.1,18.7c0.8,1.2,1.1,2.7,0.7,4
						c-0.3,1.4-1.3,2.6-2.5,3.2c-16,8.3-26.9,16.8-34.3,26.6c-0.9,1.2-2.3,1.9-3.8,2C858,421.3,857.9,421.3,857.8,421.3z
						 M852.3,402.6c1.8,2,3.6,4,5.3,6c7.1-8,16.5-15.2,28.9-22.1c-2.3-3.4-4.5-6.9-6.7-10.3C869.2,383.2,859.8,392.2,852.3,402.6z"
						/>
				</g>
			</g>
			<g>
				<g>
					<polygon class="st260" points="823.5,317.5 854.5,303.1 852.6,337.5 					"/>
				</g>
				<g>
					<path class="st14" d="M852.6,342.5c-1,0-2-0.3-2.8-0.9l-29.1-20.1c-1.5-1-2.3-2.8-2.1-4.5c0.2-1.8,1.3-3.4,2.9-4.1l31-14.4
						c1.6-0.7,3.5-0.6,4.9,0.4c1.5,1,2.3,2.7,2.2,4.4l-1.9,34.5c-0.1,1.8-1.2,3.4-2.8,4.2C854.1,342.4,853.4,342.5,852.6,342.5z
						 M833.6,318.3l14.6,10l1-17.2L833.6,318.3z"/>
				</g>
			</g>
			<g>
				<g>
					<polygon class="st262" points="70.5,196.8 106.9,172.1 111.7,216.3 					"/>
				</g>
				<g>
					<path class="st14" d="M111.7,221.3c-0.7,0-1.5-0.2-2.1-0.5l-41.2-19.4c-1.6-0.8-2.7-2.3-2.8-4.1c-0.1-1.8,0.7-3.5,2.2-4.5
						l36.4-24.8c1.5-1,3.3-1.1,4.9-0.4c1.6,0.7,2.7,2.3,2.9,4l4.8,44.2c0.2,1.8-0.6,3.6-2.1,4.6C113.7,221,112.7,221.3,111.7,221.3z
						 M80.6,196.1l25.2,11.9l-2.9-27.1L80.6,196.1z"/>
				</g>
			</g>
			<g>
				<g>
					<polygon class="st264" points="108.8,351.7 137.4,334.2 139.3,368 					"/>
				</g>
				<g>
					<path class="st14" d="M139.3,373c-0.8,0-1.6-0.2-2.4-0.6l-30.6-16.3c-1.6-0.8-2.6-2.5-2.6-4.3s0.9-3.5,2.4-4.4l28.6-17.5
						c1.5-0.9,3.4-1,4.9-0.2c1.6,0.8,2.6,2.4,2.7,4.1l2,33.8c0.1,1.8-0.8,3.5-2.3,4.5C141.2,372.7,140.3,373,139.3,373z
						 M118.8,351.4l15,8l-1-16.6L118.8,351.4z"/>
				</g>
			</g>
			<g>
				<g>
					<polygon class="st261" points="793.2,273.4 799.9,239.9 826.6,261.7 					"/>
				</g>
				<g>
					<path class="st14" d="M793.2,278.4c-1.2,0-2.4-0.4-3.3-1.2c-1.4-1.2-2-3-1.6-4.7l6.6-33.5c0.3-1.7,1.6-3.1,3.2-3.7
						c1.7-0.6,3.5-0.3,4.9,0.8l26.7,21.8c1.4,1.1,2.1,3,1.8,4.7c-0.3,1.8-1.6,3.3-3.3,3.9l-33.4,11.7
						C794.4,278.3,793.8,278.4,793.2,278.4z M803.2,249l-3.3,16.8l16.7-5.9L803.2,249z"/>
				</g>
			</g>
			<g>
				<g>
					<polygon class="st262" points="854.8,266.1 884.8,249.8 885,284.4 					"/>
				</g>
				<g>
					<path class="st14" d="M885,289.4c-0.9,0-1.8-0.2-2.6-0.7l-30.3-18.3c-1.5-0.9-2.5-2.6-2.4-4.4c0-1.8,1-3.4,2.6-4.3l30.1-16.3
						c1.5-0.8,3.4-0.8,4.9,0.1c1.5,0.9,2.4,2.5,2.5,4.3l0.2,34.5c0,1.8-1,3.5-2.5,4.4C886.7,289.1,885.9,289.4,885,289.4z
						 M864.8,266.3l15.1,9.1l-0.1-17.3L864.8,266.3z"/>
				</g>
			</g>
			<g>
				<g>
					<circle class="st260" cx="921.6" cy="237" r="13.9"/>
				</g>
				<g>
					<path class="st14" d="M921.6,255.9c-10.4,0-18.9-8.5-18.9-18.9s8.5-18.9,18.9-18.9s18.9,8.5,18.9,18.9S932,255.9,921.6,255.9z
						 M921.6,228.1c-4.9,0-8.9,4-8.9,8.9s4,8.9,8.9,8.9s8.9-4,8.9-8.9S926.5,228.1,921.6,228.1z"/>
				</g>
			</g>
			<g>
				<circle class="st264" cx="907.7" cy="334.2" r="13.9"/>
				<path class="st14" d="M907.7,353.1c-10.4,0-18.9-8.5-18.9-18.9s8.5-18.9,18.9-18.9s18.9,8.5,18.9,18.9S918.1,353.1,907.7,353.1z
					 M907.7,325.3c-4.9,0-8.9,4-8.9,8.9s4,8.9,8.9,8.9s8.9-4,8.9-8.9S912.6,325.3,907.7,325.3z"/>
			</g>
			<g>
				<g>
					<path class="st262" d="M69.8,332.7c4.9,4.7,9.2,10.2,12.3,16.2c-4.9,5.3-9.4,11-13.5,16.8c-9.1-11.8-21.6-21-35.6-26.1
						c4.7-7.6,9.9-14.8,15.7-21.7C56.4,321.9,63.6,326.7,69.8,332.7z"/>
				</g>
				<g>
					<path class="st14" d="M68.7,370.7c-1.5,0-3-0.7-4-1.9c-8.6-11.1-20.4-19.8-33.4-24.5c-1.4-0.5-2.5-1.6-3-3.1s-0.3-3,0.5-4.3
						c4.8-7.8,10.2-15.3,16.1-22.3c1.5-1.8,4.1-2.3,6.2-1.2c8.7,4.5,16.2,9.8,22.3,15.6c5.5,5.2,9.9,11.1,13.3,17.4
						c1,1.9,0.7,4.2-0.7,5.7c-4.7,5.2-9.1,10.7-13.1,16.3c-0.9,1.3-2.4,2.1-4,2.1C68.8,370.7,68.7,370.7,68.7,370.7z M40.5,337.2
						C51,342,60.6,349,68.4,357.6c2.4-3.2,5-6.3,7.6-9.4c-2.6-4.3-5.9-8.2-9.7-11.9c0,0,0,0,0,0c-4.6-4.4-10.1-8.4-16.4-12
						C46.7,328.4,43.5,332.8,40.5,337.2z"/>
				</g>
			</g>
			<g>
				<g>
					<path class="st260" d="M114,246.5c8.8,2.8,17.6,5.9,26.1,9.6c-9.2,15.7-14.7,33.6-15.9,51.8c-7.4-1-14.8-1.7-22.2-1.9
						C101.1,285.5,105.2,264.9,114,246.5z"/>
				</g>
				<g>
					<path class="st14" d="M124.2,312.8c-0.2,0-0.5,0-0.7,0c-7.1-1-14.4-1.6-21.6-1.8c-2.6-0.1-4.7-2.2-4.8-4.8
						c-0.9-21.3,3.4-42.6,12.5-61.8c1.1-2.2,3.6-3.4,6-2.6c9,2.8,18,6.1,26.6,9.7c1.3,0.6,2.3,1.7,2.8,3s0.3,2.9-0.4,4.1
						c-8.8,15.1-14.1,32.2-15.3,49.6c-0.1,1.4-0.8,2.7-1.8,3.5C126.4,312.4,125.3,312.8,124.2,312.8z M106.8,301.1
						c4.3,0.2,8.6,0.6,12.8,1.1c1.7-15.2,6.3-30.1,13.4-43.6c-5.3-2.1-10.8-4.1-16.3-5.9C110.1,267.9,106.7,284.5,106.8,301.1z"/>
				</g>
			</g>
			<g>
				<g>
					<path class="st264" d="M60,248c-4.8,5-9.7,9.9-14.5,14.9C36,250.6,22.1,241.7,7,238.3c3.9-9.3,8.5-18.4,13.7-27.1
						c8.1,3.8,15.8,8.3,22.6,14.2C50.4,231.5,56.4,239.3,60,248z"/>
				</g>
				<g>
					<path class="st14" d="M45.5,267.9c-0.1,0-0.2,0-0.3,0c-1.4-0.1-2.8-0.8-3.7-1.9c-8.7-11.3-21.7-19.6-35.6-22.8
						c-1.4-0.3-2.7-1.3-3.3-2.6c-0.7-1.3-0.7-2.9-0.2-4.2c4-9.5,8.7-18.9,14-27.8c1.3-2.2,4.1-3.1,6.4-2c9.4,4.4,17.2,9.3,23.7,14.9
						c8.1,7.1,14.4,15.5,18.2,24.5c0.8,1.8,0.4,4-1,5.4c-4.8,5-9.7,9.9-14.5,14.9C48.1,267.3,46.8,267.9,45.5,267.9z M13.9,235
						c12.1,3.9,23.3,11.1,31.9,20.4c2.8-2.8,5.5-5.7,8.3-8.5c-3.2-6.5-8.1-12.6-14.1-17.8c-4.9-4.2-10.6-8-17.3-11.4
						C19.5,223.3,16.6,229.1,13.9,235z"/>
				</g>
			</g>
			<g>
				<g>
					<circle class="st261" cx="164.9" cy="229.3" r="13"/>
				</g>
				<g>
					<path class="st14" d="M164.9,247.3c-9.9,0-18-8.1-18-18c0-9.9,8.1-18,18-18c9.9,0,18,8.1,18,18
						C182.9,239.2,174.8,247.3,164.9,247.3z M164.9,221.3c-4.4,0-8,3.6-8,8s3.6,8,8,8s8-3.6,8-8S169.3,221.3,164.9,221.3z"/>
				</g>
			</g>
		</g>
	</g>
</g>
</svg>
