<?xml version="1.0" encoding="utf-8"?>
<!-- Generator: Adobe Illustrator 27.1.1, SVG Export Plug-In . SVG Version: 6.00 Build 0)  -->
<svg version="1.1" xmlns="http://www.w3.org/2000/svg" xmlns:xlink="http://www.w3.org/1999/xlink" x="0px" y="0px"
	 viewBox="0 0 908.2 848.4" style="enable-background:new 0 0 908.2 848.4;" xml:space="preserve">
<style type="text/css">
	.st0{fill:#00B7F2;}
	.st1{opacity:0.6;}
	.st2{fill:#FFFFFF;}
	.st3{fill:#F56885;}
	.st4{fill:#68D093;}
	.st5{fill:#215ED5;}
	.st6{fill:#E8370A;}
	.st7{opacity:0.4;}
	.st8{fill:#FBC3CE;}
	.st9{fill:none;stroke:#000000;stroke-width:10;stroke-linecap:round;stroke-miterlimit:10;}
	.st10{fill:#FFDA96;}
	.st11{fill:#FFDA5D;}
	.st12{fill:#FFB82E;}
	.st13{fill:#D6BDA7;}
	.st14{fill:#231815;}
	.st15{clip-path:url(#SVGID_00000014605276365803835660000014928632099402433432_);fill:#FFFFFF;}
	.st16{clip-path:url(#SVGID_00000014605276365803835660000014928632099402433432_);fill:#FFFFFE;}
	.st17{clip-path:url(#SVGID_00000014605276365803835660000014928632099402433432_);fill:#FFFFFD;}
	.st18{clip-path:url(#SVGID_00000014605276365803835660000014928632099402433432_);fill:#FFFEFC;}
	.st19{clip-path:url(#SVGID_00000014605276365803835660000014928632099402433432_);fill:#FFFEFB;}
	.st20{clip-path:url(#SVGID_00000014605276365803835660000014928632099402433432_);fill:#FFFEFA;}
	.st21{clip-path:url(#SVGID_00000014605276365803835660000014928632099402433432_);fill:#FFFEF9;}
	.st22{clip-path:url(#SVGID_00000014605276365803835660000014928632099402433432_);fill:#FFFDF8;}
	.st23{clip-path:url(#SVGID_00000014605276365803835660000014928632099402433432_);fill:#FFFDF7;}
	.st24{clip-path:url(#SVGID_00000014605276365803835660000014928632099402433432_);fill:#FFFDF6;}
	.st25{clip-path:url(#SVGID_00000014605276365803835660000014928632099402433432_);fill:#FFFDF5;}
	.st26{clip-path:url(#SVGID_00000014605276365803835660000014928632099402433432_);fill:#FFFDF4;}
	.st27{clip-path:url(#SVGID_00000014605276365803835660000014928632099402433432_);fill:#FFFCF3;}
	.st28{clip-path:url(#SVGID_00000014605276365803835660000014928632099402433432_);fill:#FFFCF2;}
	.st29{clip-path:url(#SVGID_00000014605276365803835660000014928632099402433432_);fill:#FFFCF1;}
	.st30{clip-path:url(#SVGID_00000014605276365803835660000014928632099402433432_);fill:#FFFCF0;}
	.st31{clip-path:url(#SVGID_00000014605276365803835660000014928632099402433432_);fill:#FFFBEF;}
	.st32{clip-path:url(#SVGID_00000014605276365803835660000014928632099402433432_);fill:#FFFBEE;}
	.st33{clip-path:url(#SVGID_00000014605276365803835660000014928632099402433432_);fill:#FFFBED;}
	.st34{clip-path:url(#SVGID_00000014605276365803835660000014928632099402433432_);fill:#FFFBEC;}
	.st35{clip-path:url(#SVGID_00000014605276365803835660000014928632099402433432_);fill:#FFFBEB;}
	.st36{clip-path:url(#SVGID_00000014605276365803835660000014928632099402433432_);fill:#FFFAEA;}
	.st37{clip-path:url(#SVGID_00000014605276365803835660000014928632099402433432_);fill:#FFFAE9;}
	.st38{clip-path:url(#SVGID_00000014605276365803835660000014928632099402433432_);fill:#FFFAE8;}
	.st39{clip-path:url(#SVGID_00000014605276365803835660000014928632099402433432_);fill:#FFFAE7;}
	.st40{clip-path:url(#SVGID_00000014605276365803835660000014928632099402433432_);fill:#FFF9E6;}
	.st41{clip-path:url(#SVGID_00000014605276365803835660000014928632099402433432_);fill:#FFF9E5;}
	.st42{clip-path:url(#SVGID_00000014605276365803835660000014928632099402433432_);fill:#FFF9E4;}
	.st43{clip-path:url(#SVGID_00000014605276365803835660000014928632099402433432_);fill:#FFF9E3;}
	.st44{clip-path:url(#SVGID_00000014605276365803835660000014928632099402433432_);fill:#FFF9E2;}
	.st45{clip-path:url(#SVGID_00000014605276365803835660000014928632099402433432_);fill:#FFF8E1;}
	.st46{clip-path:url(#SVGID_00000014605276365803835660000014928632099402433432_);fill:#FFF8E0;}
	.st47{clip-path:url(#SVGID_00000014605276365803835660000014928632099402433432_);fill:#FFF8DF;}
	.st48{clip-path:url(#SVGID_00000014605276365803835660000014928632099402433432_);fill:#FFF8DE;}
	.st49{clip-path:url(#SVGID_00000014605276365803835660000014928632099402433432_);fill:#FFF7DD;}
	.st50{clip-path:url(#SVGID_00000014605276365803835660000014928632099402433432_);fill:#FFF7DC;}
	.st51{clip-path:url(#SVGID_00000014605276365803835660000014928632099402433432_);fill:#FFF7DB;}
	.st52{clip-path:url(#SVGID_00000014605276365803835660000014928632099402433432_);fill:#FFF7DA;}
	.st53{clip-path:url(#SVGID_00000014605276365803835660000014928632099402433432_);fill:#FFF7D9;}
	.st54{clip-path:url(#SVGID_00000014605276365803835660000014928632099402433432_);fill:#FFF6D8;}
	.st55{clip-path:url(#SVGID_00000014605276365803835660000014928632099402433432_);fill:#FFF6D7;}
	.st56{clip-path:url(#SVGID_00000014605276365803835660000014928632099402433432_);fill:#FFF6D6;}
	.st57{clip-path:url(#SVGID_00000014605276365803835660000014928632099402433432_);fill:#FFF6D5;}
	.st58{clip-path:url(#SVGID_00000014605276365803835660000014928632099402433432_);fill:#FFF5D4;}
	.st59{clip-path:url(#SVGID_00000014605276365803835660000014928632099402433432_);fill:#FFF5D3;}
	.st60{clip-path:url(#SVGID_00000014605276365803835660000014928632099402433432_);fill:#FFF5D2;}
	.st61{clip-path:url(#SVGID_00000014605276365803835660000014928632099402433432_);fill:#FFF5D1;}
	.st62{clip-path:url(#SVGID_00000014605276365803835660000014928632099402433432_);fill:#FFF5D0;}
	.st63{clip-path:url(#SVGID_00000014605276365803835660000014928632099402433432_);fill:#FFF4CF;}
	.st64{clip-path:url(#SVGID_00000014605276365803835660000014928632099402433432_);fill:#FFF4CE;}
	.st65{clip-path:url(#SVGID_00000014605276365803835660000014928632099402433432_);fill:#FFF4CD;}
	.st66{clip-path:url(#SVGID_00000014605276365803835660000014928632099402433432_);fill:#FFF4CC;}
	.st67{clip-path:url(#SVGID_00000014605276365803835660000014928632099402433432_);fill:#FFF3CB;}
	.st68{clip-path:url(#SVGID_00000014605276365803835660000014928632099402433432_);fill:#FFF3CA;}
	.st69{clip-path:url(#SVGID_00000014605276365803835660000014928632099402433432_);fill:#FFF3C9;}
	.st70{clip-path:url(#SVGID_00000014605276365803835660000014928632099402433432_);fill:#FFF3C8;}
	.st71{clip-path:url(#SVGID_00000014605276365803835660000014928632099402433432_);fill:#FFF3C7;}
	.st72{clip-path:url(#SVGID_00000014605276365803835660000014928632099402433432_);fill:#FFF2C6;}
	.st73{clip-path:url(#SVGID_00000014605276365803835660000014928632099402433432_);fill:#FFF2C5;}
	.st74{clip-path:url(#SVGID_00000014605276365803835660000014928632099402433432_);fill:#FFF2C4;}
	.st75{clip-path:url(#SVGID_00000014605276365803835660000014928632099402433432_);fill:#FFF2C3;}
	.st76{clip-path:url(#SVGID_00000014605276365803835660000014928632099402433432_);fill:#FFF1C2;}
	.st77{clip-path:url(#SVGID_00000014605276365803835660000014928632099402433432_);fill:#FFF1C1;}
	.st78{clip-path:url(#SVGID_00000014605276365803835660000014928632099402433432_);fill:#FFF1C0;}
	.st79{clip-path:url(#SVGID_00000014605276365803835660000014928632099402433432_);fill:#FFF1BF;}
	.st80{clip-path:url(#SVGID_00000014605276365803835660000014928632099402433432_);fill:#FFF1BE;}
	.st81{clip-path:url(#SVGID_00000014605276365803835660000014928632099402433432_);fill:#FFF0BD;}
	.st82{clip-path:url(#SVGID_00000014605276365803835660000014928632099402433432_);fill:#FFF0BC;}
	.st83{clip-path:url(#SVGID_00000014605276365803835660000014928632099402433432_);fill:#FFF0BB;}
	.st84{clip-path:url(#SVGID_00000014605276365803835660000014928632099402433432_);fill:#FFF0BA;}
	.st85{clip-path:url(#SVGID_00000014605276365803835660000014928632099402433432_);fill:#FFEFB9;}
	.st86{clip-path:url(#SVGID_00000014605276365803835660000014928632099402433432_);fill:#FFEFB8;}
	.st87{clip-path:url(#SVGID_00000014605276365803835660000014928632099402433432_);fill:#FFEFB7;}
	.st88{clip-path:url(#SVGID_00000014605276365803835660000014928632099402433432_);fill:#FFEFB6;}
	.st89{clip-path:url(#SVGID_00000014605276365803835660000014928632099402433432_);fill:#FFEFB5;}
	.st90{clip-path:url(#SVGID_00000014605276365803835660000014928632099402433432_);fill:#FFEEB4;}
	.st91{clip-path:url(#SVGID_00000014605276365803835660000014928632099402433432_);fill:#FFEEB3;}
	.st92{clip-path:url(#SVGID_00000014605276365803835660000014928632099402433432_);fill:#FFEEB2;}
	.st93{clip-path:url(#SVGID_00000014605276365803835660000014928632099402433432_);fill:#FFEEB1;}
	.st94{clip-path:url(#SVGID_00000014605276365803835660000014928632099402433432_);fill:#FFEDB0;}
	.st95{clip-path:url(#SVGID_00000014605276365803835660000014928632099402433432_);fill:#FFEDAF;}
	.st96{clip-path:url(#SVGID_00000014605276365803835660000014928632099402433432_);fill:#FFEDAE;}
	.st97{clip-path:url(#SVGID_00000014605276365803835660000014928632099402433432_);fill:#FFEDAD;}
	.st98{clip-path:url(#SVGID_00000014605276365803835660000014928632099402433432_);fill:#FFEDAC;}
	.st99{clip-path:url(#SVGID_00000014605276365803835660000014928632099402433432_);fill:#FFECAB;}
	.st100{clip-path:url(#SVGID_00000014605276365803835660000014928632099402433432_);fill:#FFECAA;}
	.st101{clip-path:url(#SVGID_00000014605276365803835660000014928632099402433432_);fill:#FFECA9;}
	.st102{clip-path:url(#SVGID_00000014605276365803835660000014928632099402433432_);fill:#FFECA8;}
	.st103{clip-path:url(#SVGID_00000014605276365803835660000014928632099402433432_);fill:#FFEBA7;}
	.st104{clip-path:url(#SVGID_00000014605276365803835660000014928632099402433432_);fill:#FFEBA6;}
	.st105{clip-path:url(#SVGID_00000014605276365803835660000014928632099402433432_);fill:#FFEBA5;}
	.st106{clip-path:url(#SVGID_00000014605276365803835660000014928632099402433432_);fill:#FFEBA4;}
	.st107{clip-path:url(#SVGID_00000014605276365803835660000014928632099402433432_);fill:#FFEBA3;}
	.st108{clip-path:url(#SVGID_00000014605276365803835660000014928632099402433432_);fill:#FFEAA2;}
	.st109{clip-path:url(#SVGID_00000014605276365803835660000014928632099402433432_);fill:#FFEAA1;}
	.st110{clip-path:url(#SVGID_00000014605276365803835660000014928632099402433432_);fill:#FFEAA0;}
	.st111{clip-path:url(#SVGID_00000014605276365803835660000014928632099402433432_);fill:#FFEA9F;}
	.st112{clip-path:url(#SVGID_00000014605276365803835660000014928632099402433432_);fill:#FFE99E;}
	.st113{clip-path:url(#SVGID_00000014605276365803835660000014928632099402433432_);fill:#FFE99D;}
	.st114{clip-path:url(#SVGID_00000014605276365803835660000014928632099402433432_);fill:#FFE99C;}
	.st115{clip-path:url(#SVGID_00000014605276365803835660000014928632099402433432_);fill:#FFE99B;}
	.st116{clip-path:url(#SVGID_00000014605276365803835660000014928632099402433432_);fill:#FFE99A;}
	.st117{clip-path:url(#SVGID_00000014605276365803835660000014928632099402433432_);fill:#FFE899;}
	.st118{clip-path:url(#SVGID_00000014605276365803835660000014928632099402433432_);fill:#FFE898;}
	.st119{clip-path:url(#SVGID_00000014605276365803835660000014928632099402433432_);fill:#FFE897;}
	.st120{clip-path:url(#SVGID_00000014605276365803835660000014928632099402433432_);fill:#FFE896;}
	.st121{clip-path:url(#SVGID_00000014605276365803835660000014928632099402433432_);fill:#FFE795;}
	.st122{clip-path:url(#SVGID_00000014605276365803835660000014928632099402433432_);fill:#FFE794;}
	.st123{clip-path:url(#SVGID_00000014605276365803835660000014928632099402433432_);fill:#FFE793;}
	.st124{clip-path:url(#SVGID_00000014605276365803835660000014928632099402433432_);fill:#FFE792;}
	.st125{clip-path:url(#SVGID_00000014605276365803835660000014928632099402433432_);fill:#FFE791;}
	.st126{clip-path:url(#SVGID_00000014605276365803835660000014928632099402433432_);fill:#FFE690;}
	.st127{clip-path:url(#SVGID_00000014605276365803835660000014928632099402433432_);fill:#FFE68F;}
	.st128{clip-path:url(#SVGID_00000014605276365803835660000014928632099402433432_);fill:#FFE68E;}
	.st129{clip-path:url(#SVGID_00000014605276365803835660000014928632099402433432_);fill:#FFE68D;}
	.st130{clip-path:url(#SVGID_00000014605276365803835660000014928632099402433432_);fill:#FFE68C;}
	.st131{clip-path:url(#SVGID_00000014605276365803835660000014928632099402433432_);fill:#FFE58A;}
	.st132{clip-path:url(#SVGID_00000014605276365803835660000014928632099402433432_);fill:#FFE589;}
	.st133{clip-path:url(#SVGID_00000014605276365803835660000014928632099402433432_);fill:#FFE588;}
	.st134{clip-path:url(#SVGID_00000014605276365803835660000014928632099402433432_);fill:#FFE587;}
	.st135{clip-path:url(#SVGID_00000014605276365803835660000014928632099402433432_);fill:#FFE486;}
	.st136{clip-path:url(#SVGID_00000014605276365803835660000014928632099402433432_);fill:#FFE485;}
	.st137{clip-path:url(#SVGID_00000014605276365803835660000014928632099402433432_);fill:#FFE484;}
	.st138{clip-path:url(#SVGID_00000014605276365803835660000014928632099402433432_);fill:#FFE483;}
	.st139{clip-path:url(#SVGID_00000014605276365803835660000014928632099402433432_);fill:#FFE482;}
	.st140{clip-path:url(#SVGID_00000014605276365803835660000014928632099402433432_);fill:#FFE381;}
	.st141{clip-path:url(#SVGID_00000014605276365803835660000014928632099402433432_);fill:#FFE380;}
	.st142{clip-path:url(#SVGID_00000014605276365803835660000014928632099402433432_);fill:#FFE37F;}
	.st143{clip-path:url(#SVGID_00000014605276365803835660000014928632099402433432_);fill:#FFE37E;}
	.st144{clip-path:url(#SVGID_00000014605276365803835660000014928632099402433432_);fill:#FFE27D;}
	.st145{clip-path:url(#SVGID_00000014605276365803835660000014928632099402433432_);fill:#FFE27C;}
	.st146{clip-path:url(#SVGID_00000014605276365803835660000014928632099402433432_);fill:#FFE27B;}
	.st147{clip-path:url(#SVGID_00000014605276365803835660000014928632099402433432_);fill:#FFE27A;}
	.st148{clip-path:url(#SVGID_00000014605276365803835660000014928632099402433432_);fill:#FFE279;}
	.st149{clip-path:url(#SVGID_00000014605276365803835660000014928632099402433432_);fill:#FFE178;}
	.st150{clip-path:url(#SVGID_00000014605276365803835660000014928632099402433432_);fill:#FFE177;}
	.st151{clip-path:url(#SVGID_00000014605276365803835660000014928632099402433432_);fill:#FFE176;}
	.st152{clip-path:url(#SVGID_00000014605276365803835660000014928632099402433432_);fill:#FFE175;}
	.st153{clip-path:url(#SVGID_00000014605276365803835660000014928632099402433432_);fill:#FFE074;}
	.st154{clip-path:url(#SVGID_00000014605276365803835660000014928632099402433432_);fill:#FFE073;}
	.st155{clip-path:url(#SVGID_00000014605276365803835660000014928632099402433432_);fill:#FFE072;}
	.st156{clip-path:url(#SVGID_00000014605276365803835660000014928632099402433432_);fill:#FFE071;}
	.st157{clip-path:url(#SVGID_00000014605276365803835660000014928632099402433432_);fill:#FFE070;}
	.st158{clip-path:url(#SVGID_00000014605276365803835660000014928632099402433432_);fill:#FFDF6F;}
	.st159{clip-path:url(#SVGID_00000014605276365803835660000014928632099402433432_);fill:#FFDF6E;}
	.st160{clip-path:url(#SVGID_00000014605276365803835660000014928632099402433432_);fill:#FFDF6D;}
	.st161{clip-path:url(#SVGID_00000014605276365803835660000014928632099402433432_);fill:#FFDF6C;}
	.st162{clip-path:url(#SVGID_00000014605276365803835660000014928632099402433432_);fill:#FFDE6B;}
	.st163{clip-path:url(#SVGID_00000014605276365803835660000014928632099402433432_);fill:#FFDE6A;}
	.st164{clip-path:url(#SVGID_00000014605276365803835660000014928632099402433432_);fill:#FFDE69;}
	.st165{clip-path:url(#SVGID_00000014605276365803835660000014928632099402433432_);fill:#FFDE68;}
	.st166{clip-path:url(#SVGID_00000014605276365803835660000014928632099402433432_);fill:#FFDE67;}
	.st167{clip-path:url(#SVGID_00000014605276365803835660000014928632099402433432_);fill:#FFDD66;}
	.st168{clip-path:url(#SVGID_00000014605276365803835660000014928632099402433432_);fill:#FFDD65;}
	.st169{clip-path:url(#SVGID_00000014605276365803835660000014928632099402433432_);fill:#FFDD64;}
	.st170{clip-path:url(#SVGID_00000014605276365803835660000014928632099402433432_);fill:#FFDD63;}
	.st171{clip-path:url(#SVGID_00000014605276365803835660000014928632099402433432_);fill:#FFDC62;}
	.st172{clip-path:url(#SVGID_00000014605276365803835660000014928632099402433432_);fill:#FFDC61;}
	.st173{clip-path:url(#SVGID_00000014605276365803835660000014928632099402433432_);fill:#FFDC60;}
	.st174{clip-path:url(#SVGID_00000014605276365803835660000014928632099402433432_);fill:#FFDC5F;}
	.st175{clip-path:url(#SVGID_00000014605276365803835660000014928632099402433432_);fill:#FFDC5E;}
	.st176{clip-path:url(#SVGID_00000014605276365803835660000014928632099402433432_);fill:#FFDB5D;}
	.st177{clip-path:url(#SVGID_00000014605276365803835660000014928632099402433432_);fill:#FFDB5C;}
	.st178{clip-path:url(#SVGID_00000014605276365803835660000014928632099402433432_);fill:#FFDB5B;}
	.st179{clip-path:url(#SVGID_00000014605276365803835660000014928632099402433432_);fill:#FFDB5A;}
	.st180{clip-path:url(#SVGID_00000014605276365803835660000014928632099402433432_);fill:#FFDA59;}
	.st181{clip-path:url(#SVGID_00000014605276365803835660000014928632099402433432_);fill:#FFDA58;}
	.st182{clip-path:url(#SVGID_00000014605276365803835660000014928632099402433432_);fill:#FFDA57;}
	.st183{clip-path:url(#SVGID_00000014605276365803835660000014928632099402433432_);fill:#FFDA56;}
	.st184{clip-path:url(#SVGID_00000014605276365803835660000014928632099402433432_);fill:#FFDA55;}
	.st185{clip-path:url(#SVGID_00000014605276365803835660000014928632099402433432_);fill:#FFD954;}
	.st186{clip-path:url(#SVGID_00000014605276365803835660000014928632099402433432_);fill:#FFD953;}
	.st187{clip-path:url(#SVGID_00000014605276365803835660000014928632099402433432_);fill:#FFD952;}
	.st188{clip-path:url(#SVGID_00000014605276365803835660000014928632099402433432_);fill:#FFD951;}
	.st189{clip-path:url(#SVGID_00000014605276365803835660000014928632099402433432_);fill:#FFD850;}
	.st190{clip-path:url(#SVGID_00000014605276365803835660000014928632099402433432_);fill:#FFD84F;}
	.st191{clip-path:url(#SVGID_00000014605276365803835660000014928632099402433432_);fill:#FFD84E;}
	.st192{clip-path:url(#SVGID_00000014605276365803835660000014928632099402433432_);fill:#FFD84D;}
	.st193{clip-path:url(#SVGID_00000014605276365803835660000014928632099402433432_);fill:#FFD84C;}
	.st194{clip-path:url(#SVGID_00000014605276365803835660000014928632099402433432_);fill:#FFD74B;}
	.st195{clip-path:url(#SVGID_00000014605276365803835660000014928632099402433432_);fill:#FFD74A;}
	.st196{clip-path:url(#SVGID_00000014605276365803835660000014928632099402433432_);fill:#FFD749;}
	.st197{clip-path:url(#SVGID_00000014605276365803835660000014928632099402433432_);fill:#FFD748;}
	.st198{clip-path:url(#SVGID_00000014605276365803835660000014928632099402433432_);fill:#FFD647;}
	.st199{clip-path:url(#SVGID_00000014605276365803835660000014928632099402433432_);fill:#FFD646;}
	.st200{clip-path:url(#SVGID_00000014605276365803835660000014928632099402433432_);fill:#FFD645;}
	.st201{clip-path:url(#SVGID_00000014605276365803835660000014928632099402433432_);fill:#FFD644;}
	.st202{clip-path:url(#SVGID_00000014605276365803835660000014928632099402433432_);fill:#FFD643;}
	.st203{clip-path:url(#SVGID_00000014605276365803835660000014928632099402433432_);fill:#FFD542;}
	.st204{clip-path:url(#SVGID_00000014605276365803835660000014928632099402433432_);fill:#FFD541;}
	.st205{clip-path:url(#SVGID_00000014605276365803835660000014928632099402433432_);fill:#FFD540;}
	.st206{clip-path:url(#SVGID_00000014605276365803835660000014928632099402433432_);fill:#FFD53F;}
	.st207{clip-path:url(#SVGID_00000014605276365803835660000014928632099402433432_);fill:#FFD43E;}
	.st208{clip-path:url(#SVGID_00000014605276365803835660000014928632099402433432_);fill:#FFD43D;}
	.st209{clip-path:url(#SVGID_00000014605276365803835660000014928632099402433432_);fill:#FFD43C;}
	.st210{clip-path:url(#SVGID_00000014605276365803835660000014928632099402433432_);fill:#FFD43B;}
	.st211{clip-path:url(#SVGID_00000014605276365803835660000014928632099402433432_);fill:#FFD43A;}
	.st212{clip-path:url(#SVGID_00000014605276365803835660000014928632099402433432_);fill:#FFD339;}
	.st213{clip-path:url(#SVGID_00000014605276365803835660000014928632099402433432_);fill:#FFD338;}
	.st214{clip-path:url(#SVGID_00000014605276365803835660000014928632099402433432_);fill:#FFD337;}
	.st215{clip-path:url(#SVGID_00000014605276365803835660000014928632099402433432_);fill:#FFD336;}
	.st216{clip-path:url(#SVGID_00000014605276365803835660000014928632099402433432_);fill:#FFD235;}
	.st217{clip-path:url(#SVGID_00000014605276365803835660000014928632099402433432_);fill:#FFD234;}
	.st218{clip-path:url(#SVGID_00000014605276365803835660000014928632099402433432_);fill:#FFD233;}
	.st219{clip-path:url(#SVGID_00000014605276365803835660000014928632099402433432_);fill:#FFD232;}
	.st220{clip-path:url(#SVGID_00000014605276365803835660000014928632099402433432_);fill:#FFD231;}
	.st221{clip-path:url(#SVGID_00000014605276365803835660000014928632099402433432_);fill:#FFD130;}
	.st222{clip-path:url(#SVGID_00000014605276365803835660000014928632099402433432_);fill:#FFD12F;}
	.st223{clip-path:url(#SVGID_00000014605276365803835660000014928632099402433432_);fill:#FFD12E;}
	.st224{clip-path:url(#SVGID_00000014605276365803835660000014928632099402433432_);fill:#FFD12D;}
	.st225{clip-path:url(#SVGID_00000014605276365803835660000014928632099402433432_);fill:#FFD02C;}
	.st226{clip-path:url(#SVGID_00000014605276365803835660000014928632099402433432_);fill:#FFD02B;}
	.st227{clip-path:url(#SVGID_00000014605276365803835660000014928632099402433432_);fill:#FFD02A;}
	.st228{clip-path:url(#SVGID_00000014605276365803835660000014928632099402433432_);fill:#FFD029;}
	.st229{clip-path:url(#SVGID_00000014605276365803835660000014928632099402433432_);fill:#FFD028;}
	.st230{clip-path:url(#SVGID_00000014605276365803835660000014928632099402433432_);fill:#FFCF27;}
	.st231{clip-path:url(#SVGID_00000014605276365803835660000014928632099402433432_);fill:#FFCF26;}
	.st232{clip-path:url(#SVGID_00000014605276365803835660000014928632099402433432_);fill:#FFCF25;}
	.st233{clip-path:url(#SVGID_00000014605276365803835660000014928632099402433432_);fill:#FFCF24;}
	.st234{clip-path:url(#SVGID_00000014605276365803835660000014928632099402433432_);fill:#FFCE23;}
	.st235{clip-path:url(#SVGID_00000014605276365803835660000014928632099402433432_);fill:#FFCE22;}
	.st236{clip-path:url(#SVGID_00000014605276365803835660000014928632099402433432_);fill:#FFCE21;}
	.st237{clip-path:url(#SVGID_00000014605276365803835660000014928632099402433432_);fill:#FFCE20;}
	.st238{clip-path:url(#SVGID_00000014605276365803835660000014928632099402433432_);fill:#FFCE1F;}
	.st239{clip-path:url(#SVGID_00000014605276365803835660000014928632099402433432_);fill:#FFCD1E;}
	.st240{clip-path:url(#SVGID_00000014605276365803835660000014928632099402433432_);fill:#FFCD1D;}
	.st241{clip-path:url(#SVGID_00000014605276365803835660000014928632099402433432_);fill:#FFCD1C;}
	.st242{clip-path:url(#SVGID_00000014605276365803835660000014928632099402433432_);fill:#FFCD1B;}
	.st243{clip-path:url(#SVGID_00000014605276365803835660000014928632099402433432_);fill:#FFCC1A;}
	.st244{clip-path:url(#SVGID_00000014605276365803835660000014928632099402433432_);fill:#FFCC19;}
	.st245{clip-path:url(#SVGID_00000014605276365803835660000014928632099402433432_);fill:#FFCC18;}
	.st246{fill:#584B42;}
	.st247{fill:#DEC3A6;}
	.st248{fill:#FFEAB9;}
	.st249{fill:#BEF9FF;}
	.st250{fill:#FFCC18;}
	.st251{fill:#B973FA;}
	.st252{fill:#E285B5;}
	.st253{fill:#ACACAC;}
	.st254{fill:#D4D4D4;}
	.st255{fill:#FEE63C;}
	.st256{fill:#FFAB30;}
	.st257{fill:#1C1C1C;}
	.st258{fill:#B3E7C9;}
	.st259{fill:#66CC99;}
	.st260{fill:#F9EB67;}
	.st261{fill:#F7A631;}
	.st262{fill:#4ED18B;}
	.st263{fill:#299C60;}
	.st264{fill:#00C6FF;}
	.st265{fill:#6600D0;}
	.st266{fill:#F59F00;}
	.st267{fill:#51D5FF;}
	.st268{fill:#00D096;}
	.st269{fill:#FE263B;}
	.st270{fill:#7B36FF;}
</style>
<g id="레이어_1">
</g>
<g id="레이어_2">
	<g>
		<g class="st7">
			<path class="st3" d="M897.2,259.9c-6.3-10.5-18.1-16.1-29.4-15.3c-7.2,0.5-14.2,3.4-20.1,8c-3.5-9.7-10.2-18.1-19.5-22.4
				c-12.4-5.7-28.3-1.5-36.2,9.7c-5.7,8.2-6.9,21.1-6.8,28.3c0.3,13.8,5.4,25.5,13.7,34.9c12.1,13.6,29.8,20.7,48,20
				c8-0.3,15.8-1.3,21.5-2.8c11.8-3,22.9-10.7,29-22.2C903.5,286.6,903.9,271.1,897.2,259.9z"/>
		</g>
		<g class="st7">
			<path class="st3" d="M831.8,72.4c4.9-13.6,2.9-30.5-6.2-41.7C817,20.3,803.1,16,790.9,18.7c-7.8,1.7-15,6-20.8,11.9
				c-5.3-10-14.1-18.2-24.9-21.4c-11.9-3.5-25.1,0.9-33.4,10.2c-9.3,10.5-9.9,24.9-7.6,38.2c9.4,55.9,100.2,72,125.6,19.6
				C830.5,75.6,831.2,74,831.8,72.4z"/>
		</g>
		<g class="st7">
			<path class="st3" d="M164,97.9c-10.1-7.2-23.5-7.7-33.8-2.4c-6.6,3.4-11.9,9-15.6,15.6c-7.2-7.6-17-12.8-27.4-13
				c-13.9-0.3-27.2,10.1-30,23.8c-2,10,1.5,23.6,4.6,30.2c5.9,12.9,16.5,21.9,28.2,27.3c16.8,7.8,33.7,10,51.1,3.6
				c8.1-3,16.4-10.2,20.8-14.3c9.8-9.2,16.8-21.9,17.8-35.2C180.7,120.3,174.9,105.7,164,97.9z"/>
		</g>
		<g class="st7">
			<path class="st3" d="M105.3,321.6c-11.6-4.6-24.6-1.8-33.3,5.8c-5.6,4.9-9.4,11.5-11.4,18.9c-8.8-5.7-19.5-8.4-29.6-6.1
				c-16.2,3.7-24,18.5-22.8,34.3c1.4,18.2,12.4,32.7,29.2,39.4c5.1,2,10.3,3.4,15.7,4.4c39.1,7.7,83-22.8,75.9-65.9
				C126.8,339.3,117.6,326.5,105.3,321.6z"/>
		</g>
		<g class="st7">
			<path class="st3" d="M109.7,123.3c3.1-11.8,10.3-22.4,20.5-27.7"/>
		</g>
		<g class="st7">
			<circle class="st3" cx="776.1" cy="155.8" r="14.1"/>
		</g>
		<g class="st7">
			<circle class="st3" cx="186.7" cy="52.6" r="15"/>
		</g>
		<g class="st7">
			<circle class="st3" cx="121" cy="258.5" r="15"/>
		</g>
		<g class="st7">
			<circle class="st3" cx="71.7" cy="285.1" r="11.6"/>
		</g>
		<g class="st7">
			<path class="st3" d="M745.2,9.2c7,2,13.2,6.2,18.1,11.7c3.6,4,6.4,8.6,8.4,13.6c0,0,1.8,3.6,4.4,10.7"/>
		</g>
		<g>
			<g>
				<path class="st3" d="M299.6,605.6c-24.1,2.8-47.6,10-69.2,21c0,0-22.3,109.5-22.6,109.5s58.5,11.2,58.5,11.2l42.1-45.6
					L299.6,605.6z"/>
			</g>
			<g>
				<g>
					<g>
						<path class="st3" d="M249.4,552.4c-12.9-21.4-32.5-39.2-56-47.6c-2.2-0.8-4.4-1.5-6.7-2.1c-4.4-1.1-8.9-1.6-13.3-1.2
							c-11.1,1.1-21,8.5-26.7,18.2c-6.9,11.7-7.7,26.8-2.3,39.2c-14.8,16.6-24.1,46-17.8,68.7c-8.3,3-15.9,7.7-22.2,13.9
							c-9.6,9.3-16.1,21.8-18.2,35c-11.6,0-21.2,8.6-25.5,18.9c-5.3,12.7-1.8,26.3,7,36.5c1.3,1.5,2.6,2.8,3.9,4.2
							c27.8,27.9,73,32,109.8,23.5c25.6-5.9,49.7-17.2,72.5-30.3l16.4-105.6C268.7,598.7,262.3,573.8,249.4,552.4z"/>
					</g>
					<g>
						<path class="st2" d="M96.5,703.2c5.5-3.4,11-6,15-11.4c5-6.6,7.2-15.5,11.5-22.7c5.8-9.6,13.7-18,23-24.2
							c5.4-3.6,15.4-5.7,16.9-13c1.3-6.3-2.4-13.5-3.1-19.8c-0.9-8.3-1-17,1.9-24.9c3.3-9.3,13.7-16.4,14.7-26.5
							c0.6-6.2-1.7-12.3-2.1-18.4c-0.4-5.7,0.1-11.5,1.5-17.1c2-8.1,5.7-15.9,10.9-22.4c-4.4-1.1-8.9-1.6-13.3-1.2
							c-11.1,1.1-21,8.5-26.7,18.2c-6.9,11.7-7.7,26.8-2.3,39.2c-14.8,16.6-24.1,46-17.8,68.7c-8.3,3-15.9,7.7-22.2,13.9
							c-9.6,9.3-16.1,21.8-18.2,35c-11.6,0-21.2,8.6-25.5,18.9c-5.3,12.7-1.8,26.3,7,36.5c1.3,1.5,2.6,2.8,3.9,4.2
							c2.2-7.8,6.2-15.1,11.4-21.3C86.9,710.2,91.4,706.3,96.5,703.2z"/>
					</g>
				</g>
				<g>
					<g>
						<path d="M131.4,626.3c-5.7-21.6,2.1-47.2,16.6-63.8c1.1-1.2,2-3.2,1.3-4.9c-5.4-13-4.4-28.6,4.8-39.7
							c9.7-11.8,23.3-13.4,37.2-8.6c25.6,8.9,46,29.4,58.2,53.2c7.8,15.2,12.5,32.1,14.7,49c0.8,6.3,10.8,6.4,10,0
							c-4.4-33.5-17.5-66.1-42.8-89.3c-21.5-19.7-59.5-39.1-83.4-12.5c-12.2,13.6-15.3,33.8-8.3,50.6c0.4-1.6,0.9-3.2,1.3-4.9
							c-16.9,19.3-25.7,48.3-19.1,73.5C123.4,635.2,133,632.6,131.4,626.3L131.4,626.3z"/>
					</g>
				</g>
				<g>
					<g>
						<path d="M138.5,619.6c-29,4.1-52.2,26.8-57.2,55.6c1.6-1.2,3.2-2.4,4.8-3.7c-18.8,0.5-32.9,18-33,36.2
							C53.2,727,68,742.1,83.3,751.8c30,19.1,69.2,20.2,102.9,11.7c24.8-6.2,48.1-17.3,70.2-29.9c5.6-3.2,0.6-11.8-5-8.6
							c-31.2,17.8-65.4,32.9-101.9,33.5c-15.2,0.3-30.5-1.8-44.7-7.2c-14-5.3-29-14.7-36.9-27.8c-5-8.4-6.2-18.6-1.9-27.5
							c3.9-8,11.1-14.2,20.3-14.5c2-0.1,4.4-1.5,4.8-3.7c4.4-25.8,24.3-45,50.2-48.7C147.6,628.3,144.9,618.7,138.5,619.6
							L138.5,619.6z"/>
					</g>
				</g>
			</g>
			<g>
				<g>
					<path d="M233,630.9c20.9-10.5,43.5-17.5,66.7-20.3c6.3-0.8,6.4-10.8,0-10c-25.1,3.1-49.2,10.3-71.7,21.7
						C222.2,625.2,227.2,633.8,233,630.9L233,630.9z"/>
				</g>
			</g>
			<g>
				<path class="st3" d="M268.3,513.5c-0.1,4.8-0.1,9.6-0.1,14.4c0.5,46.9,8.2,93.7,22.7,138.2l-90.5,67.3c5,3.8,10.1,7.6,15.2,11.3
					c62,45.2,126.2,80.5,203.2,91c50.1,6.9,107.2,7.9,155.1-10.2c33.5-12.7,63.3-32.7,87.1-59.5c30.8-34.9,52.2-78,61.6-123.6
					c10.3-50.3,4.2-102.1-4.5-152.1l-7.2-36.1c7.2-13,12.3-19.9,18.3-35.8c15.3-40.3,15.9-81.8,8.2-134
					c-26.1-175.8-162-253.5-312-231.2s-257.4,136.1-231.2,312c7.8,52.2,19.9,85.6,46.2,119.8c9.5,12.4,22.7,26.1,33.5,33.8"/>
			</g>
			<g>
				<path class="st3" d="M720.6,605c3.3-38.1,2.7-76.8-4-114.5l-4.9-33c24.3-47.7,34.1-106,24.2-172.8
					C709.8,108.8,574,31.1,424,53.3s-257.4,136.1-231.2,312c9.5,63.9,40.8,111.7,75.4,149.8l-1,42.1"/>
			</g>
			<g class="st1">
				<g>
					<path class="st2" d="M737.4,284.6C715.8,139.4,619.4,61.1,502,50.8c69,29.5,128.9,85.7,163.2,152.1
						c35.2,68.2,44.9,155.7,7.8,252.9c17.4,54.5,28.6,115.6,23.1,172.6c-5.5,57-27.2,113.4-66.7,154.7
						c-14.5,15.2-31.1,28.1-48.6,39.8c30.7-12.7,58.1-31.8,80.2-56.8c30.8-34.9,52.2-78,61.6-123.6c10.3-50.3,4.2-102.1-4.5-152.1
						l-7.2-36.1c7.2-13,12.3-19.9,18.3-35.8C744.5,378.3,745.1,336.7,737.4,284.6z"/>
				</g>
			</g>
			<g>
				<path class="st2" d="M351.8,588.2c4.1,124.4,70.8,187.1,150.6,184.5s142.2-69.6,138.2-194L571,522.9l-23.7-28.3l-51-2.1
					l-86.1,40.5L351.8,588.2z"/>
			</g>
			<g>
				<path d="M291,671.2c-2.1,0-4.1-1.3-4.8-3.5c-14.7-45.1-22.4-92.2-23-139.7c0-4,0-8,0-12.1c0-2.7,2.3-4.9,5-4.9c0,0,0.1,0,0.1,0
					c2.8,0,5,2.3,4.9,5.1c-0.1,3.9-0.1,7.9,0,11.8c0.5,46.5,8.1,92.5,22.5,136.7c0.9,2.6-0.6,5.4-3.2,6.3
					C292,671.1,291.5,671.2,291,671.2z"/>
			</g>
			<g>
				<path d="M481.9,845.4c-19.9,0-41.1-1.5-63.7-4.6c-86.7-11.9-155.4-55.4-205.5-91.9c-6-4.3-10.8-8-15.3-11.4
					c-2.2-1.7-2.6-4.8-0.9-7c1.7-2.2,4.8-2.6,7-0.9c4.4,3.4,9.2,7,15.1,11.3c73.1,53.3,135.1,81.1,201,90.1
					c61.6,8.4,113,5.1,152.6-9.9c33.6-12.7,62.2-32.3,85.1-58.1c30.2-34.2,51.1-76.1,60.4-121.3c10.3-50.3,3.9-101.9-4.6-150.2
					l-7.5-37.8l0.9-1.6c1.8-3.2,3.4-6,5-8.7c4.8-8.3,8.6-14.8,13-26.4c13.8-36.5,16.2-75.8,7.9-131.5
					c-23.7-159.5-146.8-250.7-306.3-227C266.7,82,175.5,205.1,199.2,364.6c7.9,53,20.1,84.9,45.2,117.5
					c9.8,12.8,22.6,25.7,32.5,32.8c2.2,1.6,2.7,4.7,1.1,7c-1.6,2.2-4.7,2.7-7,1.1c-10.6-7.6-24.2-21.3-34.5-34.8
					c-26.2-34.1-39-67.2-47.2-122.1c-12.6-84.8,4.9-159.9,50.6-217.4c21.3-26.8,48.3-49.1,80.1-66.3c31.3-16.9,66.6-28.3,104.7-34
					c38.2-5.7,75.2-5,110.1,2c35.4,7.1,67.7,20.6,95.9,40.1c60.4,41.7,99,108.5,111.6,193.3c8.5,57.5,6,98.3-8.5,136.5
					c-4.7,12.4-8.9,19.6-13.7,27.9c-1.3,2.2-2.6,4.5-4,7l6.9,34.4c8.7,49.3,15.2,102.1,4.5,154c-9.6,46.8-31.3,90.4-62.7,125.9
					c-24,27.1-53.9,47.6-89,60.9C549.2,840.4,517.8,845.4,481.9,845.4z"/>
			</g>
			<g>
				<path d="M439.6,331c-1.7,0-3.3-0.8-4.2-2.3c-1.5-2.3-0.8-5.4,1.6-6.9c7.7-4.8,16.6-8.1,25.8-9.6c9.3-1.3,18.8-0.7,27.6,1.6
					c2.7,0.7,4.2,3.5,3.5,6.1s-3.5,4.2-6.1,3.5c-7.5-2-15.6-2.5-23.5-1.4c-7.8,1.2-15.4,4.1-22,8.2C441.4,330.8,440.5,331,439.6,331
					z"/>
			</g>
			<g>
				<g>
					<path d="M418,395.2c-17.8,0-35.6-6.2-49.5-17.4c-2.1-1.7-2.5-4.9-0.8-7c1.7-2.1,4.9-2.5,7-0.8c13.2,10.7,30.5,16.2,47.5,15
						c17-1.1,33.4-8.8,45.1-21.1c1.6-1.7,4.1-2,6.1-0.9c14.8,8.4,32.8,10.9,49.3,7.1c16.5-3.9,31.5-14.2,41.1-28.2
						c1.6-2.3,4.7-2.9,6.9-1.3c2.3,1.6,2.9,4.7,1.3,6.9c-10.9,16.1-28.1,27.9-47.1,32.3c-17.7,4.1-36.9,1.8-53.1-6.3
						c-13.2,12.5-30.8,20.3-49,21.5C421.3,395.2,419.6,395.2,418,395.2z"/>
				</g>
			</g>
			<g>
				<g>
					<circle cx="376.7" cy="287.8" r="17.7"/>
				</g>
				<g>
					<g>
						<path class="st2" d="M387.4,283.1c-0.5-2.4-2.5-4.7-4.8-5.9c-2.5-1.3-7.2-1.9-9.4,0.4c-1.4,1.5-1.8,3.8-1,5.6
							c1.7,3.8,8.4,7.6,12.4,5.4C387.2,287.4,387.9,285.2,387.4,283.1z"/>
					</g>
					<g>
						<path class="st2" d="M365.9,294.2c0.4,1.8,1.9,3.6,3.7,4.5c1.9,1,5.5,1.4,7.2-0.3c1.1-1.2,1.4-2.9,0.8-4.3
							c-1.3-2.9-6.4-5.8-9.5-4.1C366.1,291,365.6,292.6,365.9,294.2z"/>
					</g>
				</g>
			</g>
			<g>
				<g>
					<circle cx="538.1" cy="263.8" r="17.7"/>
				</g>
				<g>
					<g>
						<path class="st2" d="M548.9,259.1c-0.5-2.4-2.5-4.7-4.8-5.9c-2.5-1.3-7.2-1.9-9.4,0.4c-1.4,1.5-1.8,3.8-1,5.6
							c1.7,3.8,8.4,7.6,12.4,5.4C548.7,263.4,549.3,261.2,548.9,259.1z"/>
					</g>
					<g>
						<path class="st2" d="M527.4,270.2c0.4,1.8,1.9,3.6,3.7,4.5c1.9,1,5.5,1.4,7.2-0.3c1.1-1.2,1.4-2.9,0.8-4.3
							c-1.3-2.9-6.4-5.8-9.5-4.1C527.5,267,527,268.6,527.4,270.2z"/>
					</g>
				</g>
			</g>
			<g>
				<path d="M471,367.4c-8.6,9.1-19.6,15.8-31.6,19.5c1.2,5.9,2.9,11.6,5.5,17c4.7,9.8,13,18.4,23.5,21.1c9.5,2.4,20.2-0.6,27.1-7.6
					c5.4-5.4,8.3-12.8,10.2-20.2c1.7-6.6,2.8-13.5,3.1-20.3C495.8,377.1,482.5,373.9,471,367.4z"/>
			</g>
			<g>
				<g>
					<g>
						<path class="st14" d="M238.9,354.7c6.7,5.4,13.3,10.9,20,16.3c4.9,4,12.1-3,7.1-7.1c-6.7-5.4-13.3-10.9-20-16.3
							C241.1,343.6,233.9,350.6,238.9,354.7L238.9,354.7z"/>
					</g>
				</g>
				<g>
					<g>
						<path class="st14" d="M271.4,350.4c6.7,5.4,13.3,10.9,20,16.3c4.9,4,12.1-3,7.1-7.1c-6.7-5.4-13.3-10.9-20-16.3
							C273.5,339.3,266.4,346.3,271.4,350.4L271.4,350.4z"/>
					</g>
				</g>
				<g>
					<g>
						<path class="st14" d="M304.3,346.5c6.7,5.4,13.3,10.9,20,16.3c4.9,4,12.1-3,7.1-7.1c-6.7-5.4-13.3-10.9-20-16.3
							C306.4,335.4,299.3,342.4,304.3,346.5L304.3,346.5z"/>
					</g>
				</g>
			</g>
			<g>
				<g>
					<g>
						<path class="st14" d="M619.2,296.2c6.7,5.4,13.3,10.9,20,16.3c4.9,4,12.1-3,7.1-7.1c-6.7-5.4-13.3-10.9-20-16.3
							C621.4,285.1,614.3,292.1,619.2,296.2L619.2,296.2z"/>
					</g>
				</g>
				<g>
					<g>
						<path class="st14" d="M651.7,291.9c6.7,5.4,13.3,10.9,20,16.3c4.9,4,12.1-3,7.1-7.1c-6.7-5.4-13.3-10.9-20-16.3
							C653.8,280.8,646.7,287.9,651.7,291.9L651.7,291.9z"/>
					</g>
				</g>
				<g>
					<g>
						<path class="st14" d="M684.6,288c6.7,5.4,13.3,10.9,20,16.3c4.9,4,12.1-3,7.1-7.1c-6.7-5.4-13.3-10.9-20-16.3
							C686.7,276.9,679.6,284,684.6,288L684.6,288z"/>
					</g>
				</g>
			</g>
			<g>
				<g class="st1">
					<path class="st252" d="M439.8,267.9c4.9,33.1-20.2,72.5-56.2,77.8c-18.5,2.7-38.9-0.6-54-11.5s-27.4-27.9-34-44.9
						c0,0-31.1,4.6-31.1,4.6c-12.4,6.8-24.8,13.7-37.3,20.5c-8.4,4.6-16.8,9.3-25.3,13.9c-3,1.7-7.1,3.2-9.6,5.5
						c-5.8,5.4-9.6,15.3-19.5,12.5c-15.6-4.4-6.7-25.4,0.6-32.9l80.8-59.3L645.5,196l94.6,33.2c9.2,5.1,23.8,22.6,10.2,31.3
						c-8.6,5.5-15.2-2.8-22.3-6.3c-3.1-1.5-7.5-1.8-10.8-2.5c-9.4-2-18.8-4-28.2-6c-13.9-2.9-27.7-5.9-41.6-8.8
						c0,0-31.1,4.6-31.1,4.6c-1.3,18.2-8.1,38-19.4,52.9c-11.3,14.8-29.9,24-48.4,26.7c-36,5.4-71.5-25-76.4-58.1L439.8,267.9z"/>
				</g>
				<g>
					<g>
						<path class="st2" d="M375.4,236.2l-13.8,2.1c-10.7,30.1-21.4,60.2-32.1,90.3c-0.5,1.5-1.1,3-1.6,4.5c0.6,0.4,1.1,0.9,1.7,1.3
							c2.8,2,5.8,3.8,9,5.3c11.1-31.1,22.1-62.2,33.2-93.4C373,242.9,374.2,239.5,375.4,236.2z"/>
					</g>
					<g>
						<path class="st2" d="M514.3,215.5c-9.4,26.3-18.7,52.6-28.1,79c5.2,6.4,11.5,12.1,18.5,16.6c11.8-33.1,23.6-66.2,35.4-99.4
							L514.3,215.5z"/>
					</g>
					<g>
						<path class="st2" d="M325.2,243.6c-7.3,20.5-14.6,41-21.9,61.5c4.6,7.7,10.4,15,16.8,21.2c10.3-28.9,20.5-57.7,30.8-86.6
							L325.2,243.6z"/>
					</g>
				</g>
				<g>
					<path d="M176.2,351.9c-1.5,0-3-0.2-4.7-0.7c-7.7-2.1-10.5-7.3-11.6-11.2c-2.8-10.5,4.3-24.1,10-30c0.2-0.2,0.4-0.4,0.6-0.6
						l80.8-59.3c0.7-0.5,1.4-0.8,2.2-0.9l391.3-58.2c0.8-0.1,1.6,0,2.4,0.2l94.6,33.2c0.3,0.1,0.5,0.2,0.8,0.3
						c7.2,4,18,15,18.3,25.8c0.1,4.1-1.1,9.8-7.9,14.1c-9.2,5.9-16.8,0.7-22.4-3c-1.7-1.1-3.3-2.2-4.8-3c-1.5-0.7-3.9-1.1-6.2-1.5
						c-1.1-0.2-2.3-0.4-3.4-0.6l-68.9-14.5l-26.3,3.9c-2.1,18.6-9.4,37.6-20.1,51.5c-11.5,15-30.3,25.4-51.6,28.6
						c-18.1,2.7-37.7-3-53.7-15.7c-14-11.1-23.8-26.1-27.5-41.8l-22.6,3.4c1.1,16.1-4,33.3-14.1,48c-11.6,16.7-28.7,27.9-46.8,30.6
						c-21.3,3.2-42.4-1.3-57.7-12.4c-14.2-10.2-26.8-26.3-34.2-43.5l-26.3,3.9l-61.7,34c-1,0.6-2.1,1.1-3.1,1.6
						c-2.1,1-4.3,2.1-5.5,3.2c-1.2,1.1-2.5,2.6-3.7,4.2C188.4,346.2,183.8,351.9,176.2,351.9z M176.7,317.2
						c-4.1,4.5-8.9,14.3-7.3,20.2c0.4,1.4,1.3,3.2,4.7,4.2c3.8,1.1,5.8-0.8,10-6.1c1.5-1.8,3-3.7,4.7-5.3c2.3-2.2,5.3-3.6,8-4.9
						c1-0.5,1.9-0.9,2.7-1.3l62.5-34.4c0.5-0.3,1.1-0.5,1.7-0.6l31.1-4.6c2.3-0.3,4.6,1,5.4,3.2c6.4,16.8,18.5,32.8,32.2,42.7
						c13,9.4,31.9,13.3,50.4,10.6c34.6-5.1,56.3-43,52-72.2c-0.4-2.7,1.5-5.3,4.2-5.7l32.1-4.8c2.7-0.4,5.3,1.5,5.7,4.2
						c2.2,15,11.2,29.7,24.7,40.3c13.8,10.9,30.6,15.9,46,13.6c18.5-2.8,35.4-12,45.1-24.8c10.3-13.5,17.2-32.2,18.4-50.2
						c0.2-2.3,1.9-4.3,4.3-4.6l31.1-4.6c0.6-0.1,1.2-0.1,1.8,0.1l69.8,14.7c0.9,0.2,1.9,0.3,2.9,0.5c2.9,0.5,6.2,1,9,2.4
						c2.2,1,4.1,2.4,6.1,3.7c5.6,3.8,8,5,11.4,2.9c3-1.9,3.3-3.8,3.2-5.3c-0.2-6.1-7.6-14.1-12.8-17.2l-93-32.7l-388.8,57.8
						L176.7,317.2z"/>
				</g>
			</g>
			<g>
				<g>
					<g>
						<path class="st3" d="M640.6,451.6c0.5,0.1,0.9,0.1,1.4,0.2l5.4,19.9c0,0,28.2,102,4,112.1c-17.6,7.3-52,4.8-52,4.8
							l-13.8-126.2C613.8,464,630.4,461.3,640.6,451.6z"/>
					</g>
					<g>
						<path class="st2" d="M640.6,451.6c-10.1,9.8-26.7,12.4-55,10.8l-2.4-12.1C602.2,448,621.6,448.5,640.6,451.6z"/>
					</g>
				</g>
				<g>
					<g>
						<path class="st14" d="M643.3,447c-20-3.3-40.1-4-60.2-1.7c-6.3,0.7-6.4,10.7,0,10c19.2-2.2,38.5-1.8,57.5,1.3
							C646.9,457.7,649.6,448,643.3,447L643.3,447z"/>
					</g>
				</g>
				<g>
					<g>
						<path class="st3" d="M475.2,457c-0.4-14.1,1.8-28.5,8.5-40.9c6.2-11.5,16.7-21,29.2-24.6c1-0.3,2-0.5,3-0.7
							c14.2-2.9,29.1,1.9,41.2,9.9c21.6,14.1,36,37.3,43.2,62.1c0.6,2.2,1.2,4.4,1.7,6.6l26.2,113.1c-23.1,6.9-52,6.2-74.5-2.4
							c-22.5-8.6-42-24.8-54.6-45.3c-8.6-14.1-14-29.9-18.7-45.7C477.4,475.3,475.7,471,475.2,457z"/>
					</g>
					<g>
						<path class="st2" d="M582.8,468.7c-6.5-3.2-13.4-15.4-17.3-21.5c-3.9-6-6.9-12.6-10.4-18.9c-7.2-12.9-16.8-24.9-29.8-32
							c-3.9-2.1-8.1-3.7-12.4-4.8c1-0.3,2-0.5,3-0.7c14.2-2.9,29.1,1.9,41.2,9.9c21.6,14.1,39.9,43.4,44.9,68.7
							C596.1,472.2,588.8,471.7,582.8,468.7z"/>
					</g>
				</g>
				<g>
					<g>
						<path class="st14" d="M606.9,468c-6.8-28.1-22.1-55-46.6-71.2c-12.8-8.5-28.6-13.8-44.1-11.1c-13.9,2.4-25.7,11.4-33.6,22.8
							c-17.8,25.5-13.8,59.9-5.2,87.9c4.8,15.6,10.7,31.3,19.9,44.9c8.1,12,18.4,22.4,30.3,30.6c29,20.2,66.2,24.5,100.5,20.2
							c6.3-0.8,6.4-10.8,0-10c-27.3,3.5-57.1,1.8-82-10.8c-25-12.6-42.9-34.1-53.1-60c-9.8-25.1-17.7-54.1-9.9-80.8
							c3.8-13,11.8-24.7,23.9-31.2c12.7-6.8,27.6-4.7,40.1,1.6c26.9,13.5,43,41.6,49.9,69.9C598.7,476.9,608.4,474.3,606.9,468
							L606.9,468z"/>
					</g>
				</g>
			</g>
			<g>
				<g>
					<g>
						<path class="st3" d="M335.8,488.8c-0.4,0.2-0.9,0.3-1.3,0.5l-1.4,20.5c0,0-8.4,98.5,17.3,103.7c18.7,3.7,51.9,0,51.9,0
							l-10.4-125C364.4,495.7,347.6,496.4,335.8,488.8z"/>
					</g>
					<g>
						<path class="st2" d="M335.8,488.8c11.8,7.6,28.6,6.9,56.1-0.3v-12.3C372.7,477.7,353.8,482,335.8,488.8z"/>
					</g>
				</g>
				<g>
					<g>
						<path class="st14" d="M335.8,494.1c18-6.9,36.8-11.3,56.1-12.9c6.4-0.5,6.4-10.5,0-10c-20.1,1.7-39.8,6.1-58.7,13.3
							C327.2,486.7,329.8,496.4,335.8,494.1L335.8,494.1z"/>
					</g>
				</g>
				<g>
					<g>
						<path class="st3" d="M498.9,461.5c-2.4-13.9-7.4-27.6-16.4-38.4c-8.4-10-20.5-17.3-33.4-18.3c-1-0.1-2-0.1-3.1-0.1
							c-14.5-0.1-28.1,7.6-38.5,17.8c-18.4,18.1-27.9,43.6-30.1,69.4c-0.2,2.3-0.3,4.5-0.4,6.8l-3.4,116c24,2.2,52.2-4.2,72.6-17
							c20.3-12.9,36.3-32.6,44.6-55.1c5.7-15.5,7.8-32,9.3-48.5C500.4,479.9,501.3,475.3,498.9,461.5z"/>
					</g>
					<g>
						<path class="st2" d="M395.8,494.2c5.7-4.4,10.1-17.8,12.7-24.5c2.7-6.7,4.3-13.7,6.5-20.6c4.5-14.1,11.6-27.7,22.9-37.2
							c3.4-2.9,7.2-5.3,11.2-7.1c-1-0.1-2-0.1-3.1-0.1c-14.5-0.1-28.1,7.6-38.5,17.8c-18.4,18.1-30.5,50.4-30.5,76.2
							C383.5,500.3,390.5,498.3,395.8,494.2z"/>
					</g>
				</g>
				<g>
					<g>
						<path class="st14" d="M382.1,498.6c1.1-26.5,9.7-53.7,29-72.7c9.7-9.5,22.6-16.9,36.5-16.3c13.6,0.6,26,9.1,33.7,20
							c16.2,22.7,15.7,52.5,12.3,78.9c-3.7,28.5-14.3,54.5-35.9,74.1c-22.5,20.4-54,29.5-84,27c-6.4-0.5-6.4,9.5,0,10
							c29.9,2.5,61.5-6.2,85.1-24.8c25-19.8,39.1-48.3,43.9-79.4c4.5-29.7,5.7-63.3-11.8-89.4c-8.1-12.2-20.5-22.1-35-25.2
							c-14.9-3.2-29.9,1.3-42.1,10c-27.8,19.9-40.3,54.7-41.7,87.8C371.8,505,381.8,505,382.1,498.6L382.1,498.6z"/>
					</g>
				</g>
			</g>
		</g>
		<g>
			<path class="st3" d="M844.5,328.1c-19.1,0-37-7.8-49.4-21.7c-9.6-10.8-14.7-23.6-15-38.1c-0.1-3.3,0-20.2,7.7-31.2
				c9.1-13,27.7-18,42.4-11.4c8.2,3.7,15.2,10.7,19.7,19.5c5.6-3.2,11.6-5.1,17.6-5.5c13.7-1,27,6,34.1,17.7l0,0
				c7.3,12.2,7.5,29.5,0.3,43.1c-6.4,12.2-18.2,21.2-32.2,24.7c-6.2,1.6-14.4,2.6-22.6,2.9C846.2,328.1,845.3,328.1,844.5,328.1z
				 M816.2,232.7c-7.8,0-15.6,3.7-20.1,10.1c-4.6,6.6-6,17.7-5.9,25.3c0.3,12,4.5,22.6,12.5,31.6c10.9,12.3,27,19,44.1,18.3
				c7.4-0.3,15-1.3,20.5-2.6c11.3-2.9,20.7-10,25.8-19.7c5.6-10.5,5.6-23.9,0-33.2c-5.1-8.5-14.9-13.6-24.8-12.9
				c-6,0.4-12,2.8-17.5,7c-1.3,1-2.9,1.3-4.4,0.8c-1.5-0.5-2.7-1.6-3.3-3.1c-3.2-9-9.4-16.1-16.9-19.5
				C822.9,233.4,819.5,232.7,816.2,232.7z"/>
		</g>
		<g>
			<path class="st3" d="M774.2,114.1c-4,0-8.1-0.3-12.2-0.9c-27.3-3.9-57.3-22.4-62.8-54.8c-3-18.1-0.1-32.3,8.8-42.3
				C717.9,5,733,0.4,746.6,4.4c9.6,2.8,18.4,9.4,24.6,18.4c5.7-4.5,12-7.6,18.6-9.1c14.6-3.2,30.1,2.2,39.6,13.8
				c9.9,12.1,12.7,30.8,7.1,46.6c0,0,0,0,0,0c-0.6,1.8-1.4,3.5-2.2,5.2C823.7,101.2,800.9,114.1,774.2,114.1z M736.8,13
				c-7.8,0-15.8,3.5-21.3,9.7c-6.9,7.7-9,18.9-6.4,34c4.6,27.5,30.6,43.2,54.3,46.6c21.8,3.1,49.4-2.7,61.8-28.3
				c0.7-1.4,1.2-2.8,1.8-4.2l0,0c4.5-12.6,2.3-27.4-5.4-36.9c-7.1-8.7-18.7-12.7-29.7-10.3c-6.6,1.4-12.9,5.1-18.3,10.5
				c-1.1,1.1-2.7,1.7-4.3,1.4c-1.6-0.2-2.9-1.2-3.7-2.6c-5-9.4-13-16.3-21.9-18.9C741.5,13.3,739.2,13,736.8,13z M831.8,72.4
				L831.8,72.4L831.8,72.4z"/>
		</g>
		<g>
			<path class="st3" d="M120.4,191.9c-10.5,0-21.2-2.6-32.5-7.8c-13.9-6.4-24.7-17-30.6-29.8c-3.3-7.1-7.3-21.9-5-33.3
				c3.2-15.9,18.6-28,35-27.8c9.2,0.2,18.6,3.9,26.3,10.3c4-5.3,8.8-9.5,14.3-12.4c12.4-6.4,27.7-5.4,39,2.7l0,0
				c11.8,8.4,18.9,24.6,17.7,40.1c-1.1,13.9-8.1,27.9-19.3,38.5c-5.6,5.3-14.1,12.3-22.5,15.3C135.5,190.5,128,191.9,120.4,191.9z
				 M86.7,103.2c-11.5,0-22.3,8.6-24.6,19.8c-1.8,8.6,1.4,21,4.2,27.2c6.3,13.6,17.5,21,25.7,24.9c16.8,7.8,32.3,8.9,47.3,3.4
				c5.4-2,12-6.6,19.1-13.2c9.4-8.9,15.3-20.5,16.2-32c1-12.2-4.5-24.7-13.6-31.2c0,0,0,0,0,0c-8.3-5.9-19.5-6.7-28.6-2
				c-5.4,2.8-10.1,7.5-13.6,13.7c-0.8,1.4-2.2,2.3-3.8,2.5c-1.6,0.2-3.2-0.4-4.2-1.5c-6.7-7.1-15.4-11.3-23.8-11.4
				C87,103.2,86.9,103.2,86.7,103.2z"/>
		</g>
		<g>
			<path class="st3" d="M65.4,424.6c-4.5,0-9-0.4-13.4-1.3c-6.3-1.2-11.7-2.8-16.5-4.7c-18.7-7.4-30.8-23.8-32.4-43.7
				c-1.6-19.7,9.1-35.6,26.6-39.6c9-2,18.9-0.7,28,3.7c2.6-6.1,6.3-11.3,10.9-15.4c10.5-9.2,25.5-11.8,38.5-6.7l0,0
				c13.5,5.4,24.2,19.3,26.8,34.7c3.2,19.6-3,38.3-17.7,52.5C102.7,417.2,84.1,424.6,65.4,424.6z M38.3,344.4
				c-2.1,0-4.2,0.2-6.3,0.7c-15.4,3.5-19.8,17.8-18.9,29c1.3,16.3,10.8,29.1,26.1,35.2c4.3,1.7,9.1,3.1,14.8,4.2
				c19.3,3.8,41-2.7,55.2-16.5c12.2-11.9,17.5-27.4,14.8-43.7c-2-12-10.3-22.9-20.6-27l0,0c-9.4-3.8-20.5-1.8-28.2,4.9
				c-4.6,4-8,9.7-9.9,16.5c-0.4,1.5-1.6,2.8-3,3.3c-1.5,0.6-3.1,0.4-4.5-0.5C51.6,346.5,44.8,344.4,38.3,344.4z"/>
		</g>
		<g>
			<path class="st3" d="M109.7,128.3c-0.4,0-0.8-0.1-1.3-0.2c-2.7-0.7-4.3-3.4-3.6-6.1c3.6-13.9,12-25.1,23-30.9
				c2.4-1.3,5.5-0.3,6.7,2.1c1.3,2.5,0.3,5.5-2.1,6.7c-8.5,4.4-15.1,13.4-18,24.5C114,126.8,112,128.3,109.7,128.3z"/>
		</g>
		<g>
			<path class="st3" d="M776.1,174.9c-10.2,0-18.7-8-19.1-18.3c-0.2-5.1,1.6-10,5-13.7c3.5-3.8,8.2-6,13.3-6.2
				c10.5-0.4,19.5,7.8,19.9,18.3v0c0.4,10.5-7.8,19.5-18.3,19.9C776.6,174.9,776.3,174.9,776.1,174.9z M776.1,146.7
				c-0.1,0-0.3,0-0.4,0c-2.4,0.1-4.7,1.1-6.3,2.9c-1.6,1.8-2.5,4.1-2.4,6.6c0.1,2.4,1.1,4.7,2.9,6.3c1.8,1.6,4.1,2.5,6.6,2.4
				c5-0.2,8.9-4.5,8.7-9.5l0,0C785,150.5,780.9,146.7,776.1,146.7z"/>
		</g>
		<g>
			<path class="st3" d="M186.7,72.5c-0.9,0-1.9-0.1-2.8-0.2c-5.3-0.7-10-3.5-13.2-7.8c-3.2-4.3-4.6-9.5-3.8-14.8
				c1.5-10.9,11.6-18.5,22.6-17c5.3,0.7,10,3.5,13.2,7.8c3.2,4.3,4.6,9.5,3.8,14.8l0,0c-0.7,5.3-3.5,10-7.8,13.2
				C195.2,71.1,191,72.5,186.7,72.5z M186.7,42.6c-4.9,0-9.2,3.6-9.9,8.6c-0.8,5.4,3,10.5,8.5,11.3c2.6,0.4,5.3-0.3,7.4-1.9
				c2.1-1.6,3.5-3.9,3.9-6.6c0,0,0,0,0,0c0.8-5.4-3-10.5-8.5-11.3C187.6,42.6,187.1,42.6,186.7,42.6z"/>
		</g>
		<g>
			<path class="st3" d="M121,278.5c-11,0-20-9-20-20c0-11,9-20,20-20s20,9,20,20C141,269.5,132.1,278.5,121,278.5z M121,248.6
				c-5.5,0-10,4.5-10,10c0,5.5,4.5,10,10,10s10-4.5,10-10C131,253,126.5,248.6,121,248.6z"/>
		</g>
		<g>
			<path class="st3" d="M71.7,301.8c-9.2,0-16.6-7.5-16.6-16.6s7.5-16.6,16.6-16.6s16.6,7.5,16.6,16.6S80.8,301.8,71.7,301.8z
				 M71.7,278.5c-3.7,0-6.6,3-6.6,6.6s3,6.6,6.6,6.6c3.7,0,6.6-3,6.6-6.6S75.3,278.5,71.7,278.5z"/>
		</g>
		<g>
			<path class="st3" d="M60.2,369.2c-2.2,0-4.2-1.4-4.8-3.6c-1.4-4.7-0.5-12.8-0.3-14.6c0.8-7.7,3.4-14.8,7.6-20.7
				c1.8-2.5,3.8-4.7,6-6.7c10.5-9.2,25.5-11.8,38.5-6.7c2.6,1,3.8,3.9,2.8,6.5c-1,2.6-3.9,3.8-6.5,2.8c-9.4-3.8-20.5-1.8-28.2,4.9
				c-1.7,1.5-3.2,3.1-4.5,5c-3.2,4.4-5.2,9.9-5.7,15.9c0,0,0,0.1,0,0.1c-0.4,3.1-0.6,8.5,0,10.6c0.8,2.6-0.7,5.4-3.4,6.2
				C61.1,369.1,60.6,369.2,60.2,369.2z"/>
		</g>
		<g>
			<path class="st3" d="M776.1,50.2c-2.1,0-4-1.3-4.7-3.3c-2.4-6.7-4.1-10.1-4.1-10.2c-0.1-0.1-0.1-0.2-0.2-0.4
				c-1.9-4.7-4.4-8.8-7.5-12.1c-4.5-5-10-8.5-15.8-10.2c-2.7-0.8-4.2-3.5-3.4-6.2s3.5-4.2,6.2-3.4c7.6,2.2,14.7,6.7,20.4,13.1
				c3.8,4.2,6.9,9.2,9.3,14.9c0.4,0.9,2.2,4.6,4.5,11.1c0.9,2.6-0.4,5.5-3,6.4C777.2,50.1,776.6,50.2,776.1,50.2z"/>
		</g>
		<g>
			<path class="st2" d="M154,107.3c10.6,5.4,13.9,21.4,6.4,30.6c-2.7,3.3-8.4,1.8-9.2-2.4c-0.9-4-1.3-7.5-2.1-11.2
				c-0.8-3.8-1.8-7.2-2.6-11.1C145.6,109,150.2,105.3,154,107.3L154,107.3z"/>
		</g>
		<g>
			<path class="st2" d="M147,160.8c-0.3,0-0.6,0-0.9-0.1c-1.8-0.3-3.3-1.7-3.8-3.4c-0.7-2.4-0.2-5.1,1.4-7c1.1-1.3,2.8-2.1,4.4-2.1
				c0,0,0,0,0,0c1.6,0,3.1,0.7,4.1,1.9c0.3,0.4,0.6,0.8,0.8,1.2c0.2,0.3,0.3,0.6,0.4,0.9c0.8,2.2,0,4.6-1.8,5.9l-0.7,0.8
				C149.9,160.2,148.4,160.8,147,160.8z"/>
		</g>
		<g>
			<path class="st2" d="M100.8,337.1c9.6,3.2,16.5,14.1,14.7,24.1c-1.1,5-7.7,5.6-9.9,1.1c-3.4-5.9-6.3-11.3-10.3-16.8
				C92.1,341.4,95.8,335.6,100.8,337.1L100.8,337.1z"/>
		</g>
		<g>
			<path class="st2" d="M814.6,43.8c7.2,7.9,5.8,20.8-0.3,28.9c-3.1,4.2-11.2,10.8-14.8,3.7c-0.7-1.7-0.4-3.4,0.3-4.9
				c2.6-5.8,4.2-11.2,4.8-17.4c0.1-0.5,0.8-7,0.9-7.3C805.9,42.4,811.6,40.6,814.6,43.8L814.6,43.8z"/>
		</g>
		<g>
			<path class="st2" d="M784.8,91.8c-1.9,0-3.7-1.1-4.6-3c-1-2.3-0.2-4.9,1.8-6.2c0.8-1.2,2.2-2,3.7-2.1l1.8-0.1
				c2.4-0.2,4.6,1.4,5.2,3.8s-0.6,4.8-2.8,5.8l-3,1.4C786.2,91.7,785.5,91.8,784.8,91.8z"/>
		</g>
		<g>
			<path class="st2" d="M882.9,264.7c7.7,7,6.9,19.8,0.9,27.6c-3.1,4.3-11.3,10.1-14.5,3c-0.6-1.6-0.2-3.3,0.4-4.7
				c0.8-2,1.4-3.7,1.9-5.4c1.6-4.9,1.9-10.7,2.5-15.8c0,0,0.1-1.2,0.1-1.2C874.5,263.9,879.8,261.9,882.9,264.7L882.9,264.7z"/>
		</g>
		<g>
			<path class="st2" d="M852.4,309.9c-0.5,0-1,0-1.5-0.1c-2.7-0.5-4.5-3.1-4-5.8c0.4-2.2,2.2-3.7,4.2-4c1.4-0.6,3.1-0.7,4.6-0.2
				c1.8,0.6,3.1,2.2,3.3,4.1s-0.7,3.8-2.3,4.8C855.5,309.4,853.9,309.9,852.4,309.9z"/>
		</g>
	</g>
</g>
</svg>
