<?xml version="1.0" encoding="utf-8"?>
<!-- Generator: Adobe Illustrator 27.1.1, SVG Export Plug-In . SVG Version: 6.00 Build 0)  -->
<svg version="1.1" xmlns="http://www.w3.org/2000/svg" xmlns:xlink="http://www.w3.org/1999/xlink" x="0px" y="0px"
	 viewBox="0 0 781.4 1361.4" style="enable-background:new 0 0 781.4 1361.4;" xml:space="preserve">
<style type="text/css">
	.st0{fill:#00B7F2;}
	.st1{opacity:0.6;}
	.st2{fill:#FFFFFF;}
	.st3{fill:#F56885;}
	.st4{fill:#68D093;}
	.st5{fill:#215ED5;}
	.st6{fill:#E8370A;}
	.st7{opacity:0.4;}
	.st8{fill:#FBC3CE;}
	.st9{fill:none;stroke:#000000;stroke-width:10;stroke-linecap:round;stroke-miterlimit:10;}
	.st10{fill:#FFDA96;}
	.st11{fill:#FFDA5D;}
	.st12{fill:#FFB82E;}
	.st13{fill:#D6BDA7;}
	.st14{fill:#231815;}
	.st15{clip-path:url(#SVGID_00000177483448467482518460000001121283443126131890_);fill:#FFFFFF;}
	.st16{clip-path:url(#SVGID_00000177483448467482518460000001121283443126131890_);fill:#FFFFFE;}
	.st17{clip-path:url(#SVGID_00000177483448467482518460000001121283443126131890_);fill:#FFFFFD;}
	.st18{clip-path:url(#SVGID_00000177483448467482518460000001121283443126131890_);fill:#FFFEFC;}
	.st19{clip-path:url(#SVGID_00000177483448467482518460000001121283443126131890_);fill:#FFFEFB;}
	.st20{clip-path:url(#SVGID_00000177483448467482518460000001121283443126131890_);fill:#FFFEFA;}
	.st21{clip-path:url(#SVGID_00000177483448467482518460000001121283443126131890_);fill:#FFFEF9;}
	.st22{clip-path:url(#SVGID_00000177483448467482518460000001121283443126131890_);fill:#FFFDF8;}
	.st23{clip-path:url(#SVGID_00000177483448467482518460000001121283443126131890_);fill:#FFFDF7;}
	.st24{clip-path:url(#SVGID_00000177483448467482518460000001121283443126131890_);fill:#FFFDF6;}
	.st25{clip-path:url(#SVGID_00000177483448467482518460000001121283443126131890_);fill:#FFFDF5;}
	.st26{clip-path:url(#SVGID_00000177483448467482518460000001121283443126131890_);fill:#FFFDF4;}
	.st27{clip-path:url(#SVGID_00000177483448467482518460000001121283443126131890_);fill:#FFFCF3;}
	.st28{clip-path:url(#SVGID_00000177483448467482518460000001121283443126131890_);fill:#FFFCF2;}
	.st29{clip-path:url(#SVGID_00000177483448467482518460000001121283443126131890_);fill:#FFFCF1;}
	.st30{clip-path:url(#SVGID_00000177483448467482518460000001121283443126131890_);fill:#FFFCF0;}
	.st31{clip-path:url(#SVGID_00000177483448467482518460000001121283443126131890_);fill:#FFFBEF;}
	.st32{clip-path:url(#SVGID_00000177483448467482518460000001121283443126131890_);fill:#FFFBEE;}
	.st33{clip-path:url(#SVGID_00000177483448467482518460000001121283443126131890_);fill:#FFFBED;}
	.st34{clip-path:url(#SVGID_00000177483448467482518460000001121283443126131890_);fill:#FFFBEC;}
	.st35{clip-path:url(#SVGID_00000177483448467482518460000001121283443126131890_);fill:#FFFBEB;}
	.st36{clip-path:url(#SVGID_00000177483448467482518460000001121283443126131890_);fill:#FFFAEA;}
	.st37{clip-path:url(#SVGID_00000177483448467482518460000001121283443126131890_);fill:#FFFAE9;}
	.st38{clip-path:url(#SVGID_00000177483448467482518460000001121283443126131890_);fill:#FFFAE8;}
	.st39{clip-path:url(#SVGID_00000177483448467482518460000001121283443126131890_);fill:#FFFAE7;}
	.st40{clip-path:url(#SVGID_00000177483448467482518460000001121283443126131890_);fill:#FFF9E6;}
	.st41{clip-path:url(#SVGID_00000177483448467482518460000001121283443126131890_);fill:#FFF9E5;}
	.st42{clip-path:url(#SVGID_00000177483448467482518460000001121283443126131890_);fill:#FFF9E4;}
	.st43{clip-path:url(#SVGID_00000177483448467482518460000001121283443126131890_);fill:#FFF9E3;}
	.st44{clip-path:url(#SVGID_00000177483448467482518460000001121283443126131890_);fill:#FFF9E2;}
	.st45{clip-path:url(#SVGID_00000177483448467482518460000001121283443126131890_);fill:#FFF8E1;}
	.st46{clip-path:url(#SVGID_00000177483448467482518460000001121283443126131890_);fill:#FFF8E0;}
	.st47{clip-path:url(#SVGID_00000177483448467482518460000001121283443126131890_);fill:#FFF8DF;}
	.st48{clip-path:url(#SVGID_00000177483448467482518460000001121283443126131890_);fill:#FFF8DE;}
	.st49{clip-path:url(#SVGID_00000177483448467482518460000001121283443126131890_);fill:#FFF7DD;}
	.st50{clip-path:url(#SVGID_00000177483448467482518460000001121283443126131890_);fill:#FFF7DC;}
	.st51{clip-path:url(#SVGID_00000177483448467482518460000001121283443126131890_);fill:#FFF7DB;}
	.st52{clip-path:url(#SVGID_00000177483448467482518460000001121283443126131890_);fill:#FFF7DA;}
	.st53{clip-path:url(#SVGID_00000177483448467482518460000001121283443126131890_);fill:#FFF7D9;}
	.st54{clip-path:url(#SVGID_00000177483448467482518460000001121283443126131890_);fill:#FFF6D8;}
	.st55{clip-path:url(#SVGID_00000177483448467482518460000001121283443126131890_);fill:#FFF6D7;}
	.st56{clip-path:url(#SVGID_00000177483448467482518460000001121283443126131890_);fill:#FFF6D6;}
	.st57{clip-path:url(#SVGID_00000177483448467482518460000001121283443126131890_);fill:#FFF6D5;}
	.st58{clip-path:url(#SVGID_00000177483448467482518460000001121283443126131890_);fill:#FFF5D4;}
	.st59{clip-path:url(#SVGID_00000177483448467482518460000001121283443126131890_);fill:#FFF5D3;}
	.st60{clip-path:url(#SVGID_00000177483448467482518460000001121283443126131890_);fill:#FFF5D2;}
	.st61{clip-path:url(#SVGID_00000177483448467482518460000001121283443126131890_);fill:#FFF5D1;}
	.st62{clip-path:url(#SVGID_00000177483448467482518460000001121283443126131890_);fill:#FFF5D0;}
	.st63{clip-path:url(#SVGID_00000177483448467482518460000001121283443126131890_);fill:#FFF4CF;}
	.st64{clip-path:url(#SVGID_00000177483448467482518460000001121283443126131890_);fill:#FFF4CE;}
	.st65{clip-path:url(#SVGID_00000177483448467482518460000001121283443126131890_);fill:#FFF4CD;}
	.st66{clip-path:url(#SVGID_00000177483448467482518460000001121283443126131890_);fill:#FFF4CC;}
	.st67{clip-path:url(#SVGID_00000177483448467482518460000001121283443126131890_);fill:#FFF3CB;}
	.st68{clip-path:url(#SVGID_00000177483448467482518460000001121283443126131890_);fill:#FFF3CA;}
	.st69{clip-path:url(#SVGID_00000177483448467482518460000001121283443126131890_);fill:#FFF3C9;}
	.st70{clip-path:url(#SVGID_00000177483448467482518460000001121283443126131890_);fill:#FFF3C8;}
	.st71{clip-path:url(#SVGID_00000177483448467482518460000001121283443126131890_);fill:#FFF3C7;}
	.st72{clip-path:url(#SVGID_00000177483448467482518460000001121283443126131890_);fill:#FFF2C6;}
	.st73{clip-path:url(#SVGID_00000177483448467482518460000001121283443126131890_);fill:#FFF2C5;}
	.st74{clip-path:url(#SVGID_00000177483448467482518460000001121283443126131890_);fill:#FFF2C4;}
	.st75{clip-path:url(#SVGID_00000177483448467482518460000001121283443126131890_);fill:#FFF2C3;}
	.st76{clip-path:url(#SVGID_00000177483448467482518460000001121283443126131890_);fill:#FFF1C2;}
	.st77{clip-path:url(#SVGID_00000177483448467482518460000001121283443126131890_);fill:#FFF1C1;}
	.st78{clip-path:url(#SVGID_00000177483448467482518460000001121283443126131890_);fill:#FFF1C0;}
	.st79{clip-path:url(#SVGID_00000177483448467482518460000001121283443126131890_);fill:#FFF1BF;}
	.st80{clip-path:url(#SVGID_00000177483448467482518460000001121283443126131890_);fill:#FFF1BE;}
	.st81{clip-path:url(#SVGID_00000177483448467482518460000001121283443126131890_);fill:#FFF0BD;}
	.st82{clip-path:url(#SVGID_00000177483448467482518460000001121283443126131890_);fill:#FFF0BC;}
	.st83{clip-path:url(#SVGID_00000177483448467482518460000001121283443126131890_);fill:#FFF0BB;}
	.st84{clip-path:url(#SVGID_00000177483448467482518460000001121283443126131890_);fill:#FFF0BA;}
	.st85{clip-path:url(#SVGID_00000177483448467482518460000001121283443126131890_);fill:#FFEFB9;}
	.st86{clip-path:url(#SVGID_00000177483448467482518460000001121283443126131890_);fill:#FFEFB8;}
	.st87{clip-path:url(#SVGID_00000177483448467482518460000001121283443126131890_);fill:#FFEFB7;}
	.st88{clip-path:url(#SVGID_00000177483448467482518460000001121283443126131890_);fill:#FFEFB6;}
	.st89{clip-path:url(#SVGID_00000177483448467482518460000001121283443126131890_);fill:#FFEFB5;}
	.st90{clip-path:url(#SVGID_00000177483448467482518460000001121283443126131890_);fill:#FFEEB4;}
	.st91{clip-path:url(#SVGID_00000177483448467482518460000001121283443126131890_);fill:#FFEEB3;}
	.st92{clip-path:url(#SVGID_00000177483448467482518460000001121283443126131890_);fill:#FFEEB2;}
	.st93{clip-path:url(#SVGID_00000177483448467482518460000001121283443126131890_);fill:#FFEEB1;}
	.st94{clip-path:url(#SVGID_00000177483448467482518460000001121283443126131890_);fill:#FFEDB0;}
	.st95{clip-path:url(#SVGID_00000177483448467482518460000001121283443126131890_);fill:#FFEDAF;}
	.st96{clip-path:url(#SVGID_00000177483448467482518460000001121283443126131890_);fill:#FFEDAE;}
	.st97{clip-path:url(#SVGID_00000177483448467482518460000001121283443126131890_);fill:#FFEDAD;}
	.st98{clip-path:url(#SVGID_00000177483448467482518460000001121283443126131890_);fill:#FFEDAC;}
	.st99{clip-path:url(#SVGID_00000177483448467482518460000001121283443126131890_);fill:#FFECAB;}
	.st100{clip-path:url(#SVGID_00000177483448467482518460000001121283443126131890_);fill:#FFECAA;}
	.st101{clip-path:url(#SVGID_00000177483448467482518460000001121283443126131890_);fill:#FFECA9;}
	.st102{clip-path:url(#SVGID_00000177483448467482518460000001121283443126131890_);fill:#FFECA8;}
	.st103{clip-path:url(#SVGID_00000177483448467482518460000001121283443126131890_);fill:#FFEBA7;}
	.st104{clip-path:url(#SVGID_00000177483448467482518460000001121283443126131890_);fill:#FFEBA6;}
	.st105{clip-path:url(#SVGID_00000177483448467482518460000001121283443126131890_);fill:#FFEBA5;}
	.st106{clip-path:url(#SVGID_00000177483448467482518460000001121283443126131890_);fill:#FFEBA4;}
	.st107{clip-path:url(#SVGID_00000177483448467482518460000001121283443126131890_);fill:#FFEBA3;}
	.st108{clip-path:url(#SVGID_00000177483448467482518460000001121283443126131890_);fill:#FFEAA2;}
	.st109{clip-path:url(#SVGID_00000177483448467482518460000001121283443126131890_);fill:#FFEAA1;}
	.st110{clip-path:url(#SVGID_00000177483448467482518460000001121283443126131890_);fill:#FFEAA0;}
	.st111{clip-path:url(#SVGID_00000177483448467482518460000001121283443126131890_);fill:#FFEA9F;}
	.st112{clip-path:url(#SVGID_00000177483448467482518460000001121283443126131890_);fill:#FFE99E;}
	.st113{clip-path:url(#SVGID_00000177483448467482518460000001121283443126131890_);fill:#FFE99D;}
	.st114{clip-path:url(#SVGID_00000177483448467482518460000001121283443126131890_);fill:#FFE99C;}
	.st115{clip-path:url(#SVGID_00000177483448467482518460000001121283443126131890_);fill:#FFE99B;}
	.st116{clip-path:url(#SVGID_00000177483448467482518460000001121283443126131890_);fill:#FFE99A;}
	.st117{clip-path:url(#SVGID_00000177483448467482518460000001121283443126131890_);fill:#FFE899;}
	.st118{clip-path:url(#SVGID_00000177483448467482518460000001121283443126131890_);fill:#FFE898;}
	.st119{clip-path:url(#SVGID_00000177483448467482518460000001121283443126131890_);fill:#FFE897;}
	.st120{clip-path:url(#SVGID_00000177483448467482518460000001121283443126131890_);fill:#FFE896;}
	.st121{clip-path:url(#SVGID_00000177483448467482518460000001121283443126131890_);fill:#FFE795;}
	.st122{clip-path:url(#SVGID_00000177483448467482518460000001121283443126131890_);fill:#FFE794;}
	.st123{clip-path:url(#SVGID_00000177483448467482518460000001121283443126131890_);fill:#FFE793;}
	.st124{clip-path:url(#SVGID_00000177483448467482518460000001121283443126131890_);fill:#FFE792;}
	.st125{clip-path:url(#SVGID_00000177483448467482518460000001121283443126131890_);fill:#FFE791;}
	.st126{clip-path:url(#SVGID_00000177483448467482518460000001121283443126131890_);fill:#FFE690;}
	.st127{clip-path:url(#SVGID_00000177483448467482518460000001121283443126131890_);fill:#FFE68F;}
	.st128{clip-path:url(#SVGID_00000177483448467482518460000001121283443126131890_);fill:#FFE68E;}
	.st129{clip-path:url(#SVGID_00000177483448467482518460000001121283443126131890_);fill:#FFE68D;}
	.st130{clip-path:url(#SVGID_00000177483448467482518460000001121283443126131890_);fill:#FFE68C;}
	.st131{clip-path:url(#SVGID_00000177483448467482518460000001121283443126131890_);fill:#FFE58A;}
	.st132{clip-path:url(#SVGID_00000177483448467482518460000001121283443126131890_);fill:#FFE589;}
	.st133{clip-path:url(#SVGID_00000177483448467482518460000001121283443126131890_);fill:#FFE588;}
	.st134{clip-path:url(#SVGID_00000177483448467482518460000001121283443126131890_);fill:#FFE587;}
	.st135{clip-path:url(#SVGID_00000177483448467482518460000001121283443126131890_);fill:#FFE486;}
	.st136{clip-path:url(#SVGID_00000177483448467482518460000001121283443126131890_);fill:#FFE485;}
	.st137{clip-path:url(#SVGID_00000177483448467482518460000001121283443126131890_);fill:#FFE484;}
	.st138{clip-path:url(#SVGID_00000177483448467482518460000001121283443126131890_);fill:#FFE483;}
	.st139{clip-path:url(#SVGID_00000177483448467482518460000001121283443126131890_);fill:#FFE482;}
	.st140{clip-path:url(#SVGID_00000177483448467482518460000001121283443126131890_);fill:#FFE381;}
	.st141{clip-path:url(#SVGID_00000177483448467482518460000001121283443126131890_);fill:#FFE380;}
	.st142{clip-path:url(#SVGID_00000177483448467482518460000001121283443126131890_);fill:#FFE37F;}
	.st143{clip-path:url(#SVGID_00000177483448467482518460000001121283443126131890_);fill:#FFE37E;}
	.st144{clip-path:url(#SVGID_00000177483448467482518460000001121283443126131890_);fill:#FFE27D;}
	.st145{clip-path:url(#SVGID_00000177483448467482518460000001121283443126131890_);fill:#FFE27C;}
	.st146{clip-path:url(#SVGID_00000177483448467482518460000001121283443126131890_);fill:#FFE27B;}
	.st147{clip-path:url(#SVGID_00000177483448467482518460000001121283443126131890_);fill:#FFE27A;}
	.st148{clip-path:url(#SVGID_00000177483448467482518460000001121283443126131890_);fill:#FFE279;}
	.st149{clip-path:url(#SVGID_00000177483448467482518460000001121283443126131890_);fill:#FFE178;}
	.st150{clip-path:url(#SVGID_00000177483448467482518460000001121283443126131890_);fill:#FFE177;}
	.st151{clip-path:url(#SVGID_00000177483448467482518460000001121283443126131890_);fill:#FFE176;}
	.st152{clip-path:url(#SVGID_00000177483448467482518460000001121283443126131890_);fill:#FFE175;}
	.st153{clip-path:url(#SVGID_00000177483448467482518460000001121283443126131890_);fill:#FFE074;}
	.st154{clip-path:url(#SVGID_00000177483448467482518460000001121283443126131890_);fill:#FFE073;}
	.st155{clip-path:url(#SVGID_00000177483448467482518460000001121283443126131890_);fill:#FFE072;}
	.st156{clip-path:url(#SVGID_00000177483448467482518460000001121283443126131890_);fill:#FFE071;}
	.st157{clip-path:url(#SVGID_00000177483448467482518460000001121283443126131890_);fill:#FFE070;}
	.st158{clip-path:url(#SVGID_00000177483448467482518460000001121283443126131890_);fill:#FFDF6F;}
	.st159{clip-path:url(#SVGID_00000177483448467482518460000001121283443126131890_);fill:#FFDF6E;}
	.st160{clip-path:url(#SVGID_00000177483448467482518460000001121283443126131890_);fill:#FFDF6D;}
	.st161{clip-path:url(#SVGID_00000177483448467482518460000001121283443126131890_);fill:#FFDF6C;}
	.st162{clip-path:url(#SVGID_00000177483448467482518460000001121283443126131890_);fill:#FFDE6B;}
	.st163{clip-path:url(#SVGID_00000177483448467482518460000001121283443126131890_);fill:#FFDE6A;}
	.st164{clip-path:url(#SVGID_00000177483448467482518460000001121283443126131890_);fill:#FFDE69;}
	.st165{clip-path:url(#SVGID_00000177483448467482518460000001121283443126131890_);fill:#FFDE68;}
	.st166{clip-path:url(#SVGID_00000177483448467482518460000001121283443126131890_);fill:#FFDE67;}
	.st167{clip-path:url(#SVGID_00000177483448467482518460000001121283443126131890_);fill:#FFDD66;}
	.st168{clip-path:url(#SVGID_00000177483448467482518460000001121283443126131890_);fill:#FFDD65;}
	.st169{clip-path:url(#SVGID_00000177483448467482518460000001121283443126131890_);fill:#FFDD64;}
	.st170{clip-path:url(#SVGID_00000177483448467482518460000001121283443126131890_);fill:#FFDD63;}
	.st171{clip-path:url(#SVGID_00000177483448467482518460000001121283443126131890_);fill:#FFDC62;}
	.st172{clip-path:url(#SVGID_00000177483448467482518460000001121283443126131890_);fill:#FFDC61;}
	.st173{clip-path:url(#SVGID_00000177483448467482518460000001121283443126131890_);fill:#FFDC60;}
	.st174{clip-path:url(#SVGID_00000177483448467482518460000001121283443126131890_);fill:#FFDC5F;}
	.st175{clip-path:url(#SVGID_00000177483448467482518460000001121283443126131890_);fill:#FFDC5E;}
	.st176{clip-path:url(#SVGID_00000177483448467482518460000001121283443126131890_);fill:#FFDB5D;}
	.st177{clip-path:url(#SVGID_00000177483448467482518460000001121283443126131890_);fill:#FFDB5C;}
	.st178{clip-path:url(#SVGID_00000177483448467482518460000001121283443126131890_);fill:#FFDB5B;}
	.st179{clip-path:url(#SVGID_00000177483448467482518460000001121283443126131890_);fill:#FFDB5A;}
	.st180{clip-path:url(#SVGID_00000177483448467482518460000001121283443126131890_);fill:#FFDA59;}
	.st181{clip-path:url(#SVGID_00000177483448467482518460000001121283443126131890_);fill:#FFDA58;}
	.st182{clip-path:url(#SVGID_00000177483448467482518460000001121283443126131890_);fill:#FFDA57;}
	.st183{clip-path:url(#SVGID_00000177483448467482518460000001121283443126131890_);fill:#FFDA56;}
	.st184{clip-path:url(#SVGID_00000177483448467482518460000001121283443126131890_);fill:#FFDA55;}
	.st185{clip-path:url(#SVGID_00000177483448467482518460000001121283443126131890_);fill:#FFD954;}
	.st186{clip-path:url(#SVGID_00000177483448467482518460000001121283443126131890_);fill:#FFD953;}
	.st187{clip-path:url(#SVGID_00000177483448467482518460000001121283443126131890_);fill:#FFD952;}
	.st188{clip-path:url(#SVGID_00000177483448467482518460000001121283443126131890_);fill:#FFD951;}
	.st189{clip-path:url(#SVGID_00000177483448467482518460000001121283443126131890_);fill:#FFD850;}
	.st190{clip-path:url(#SVGID_00000177483448467482518460000001121283443126131890_);fill:#FFD84F;}
	.st191{clip-path:url(#SVGID_00000177483448467482518460000001121283443126131890_);fill:#FFD84E;}
	.st192{clip-path:url(#SVGID_00000177483448467482518460000001121283443126131890_);fill:#FFD84D;}
	.st193{clip-path:url(#SVGID_00000177483448467482518460000001121283443126131890_);fill:#FFD84C;}
	.st194{clip-path:url(#SVGID_00000177483448467482518460000001121283443126131890_);fill:#FFD74B;}
	.st195{clip-path:url(#SVGID_00000177483448467482518460000001121283443126131890_);fill:#FFD74A;}
	.st196{clip-path:url(#SVGID_00000177483448467482518460000001121283443126131890_);fill:#FFD749;}
	.st197{clip-path:url(#SVGID_00000177483448467482518460000001121283443126131890_);fill:#FFD748;}
	.st198{clip-path:url(#SVGID_00000177483448467482518460000001121283443126131890_);fill:#FFD647;}
	.st199{clip-path:url(#SVGID_00000177483448467482518460000001121283443126131890_);fill:#FFD646;}
	.st200{clip-path:url(#SVGID_00000177483448467482518460000001121283443126131890_);fill:#FFD645;}
	.st201{clip-path:url(#SVGID_00000177483448467482518460000001121283443126131890_);fill:#FFD644;}
	.st202{clip-path:url(#SVGID_00000177483448467482518460000001121283443126131890_);fill:#FFD643;}
	.st203{clip-path:url(#SVGID_00000177483448467482518460000001121283443126131890_);fill:#FFD542;}
	.st204{clip-path:url(#SVGID_00000177483448467482518460000001121283443126131890_);fill:#FFD541;}
	.st205{clip-path:url(#SVGID_00000177483448467482518460000001121283443126131890_);fill:#FFD540;}
	.st206{clip-path:url(#SVGID_00000177483448467482518460000001121283443126131890_);fill:#FFD53F;}
	.st207{clip-path:url(#SVGID_00000177483448467482518460000001121283443126131890_);fill:#FFD43E;}
	.st208{clip-path:url(#SVGID_00000177483448467482518460000001121283443126131890_);fill:#FFD43D;}
	.st209{clip-path:url(#SVGID_00000177483448467482518460000001121283443126131890_);fill:#FFD43C;}
	.st210{clip-path:url(#SVGID_00000177483448467482518460000001121283443126131890_);fill:#FFD43B;}
	.st211{clip-path:url(#SVGID_00000177483448467482518460000001121283443126131890_);fill:#FFD43A;}
	.st212{clip-path:url(#SVGID_00000177483448467482518460000001121283443126131890_);fill:#FFD339;}
	.st213{clip-path:url(#SVGID_00000177483448467482518460000001121283443126131890_);fill:#FFD338;}
	.st214{clip-path:url(#SVGID_00000177483448467482518460000001121283443126131890_);fill:#FFD337;}
	.st215{clip-path:url(#SVGID_00000177483448467482518460000001121283443126131890_);fill:#FFD336;}
	.st216{clip-path:url(#SVGID_00000177483448467482518460000001121283443126131890_);fill:#FFD235;}
	.st217{clip-path:url(#SVGID_00000177483448467482518460000001121283443126131890_);fill:#FFD234;}
	.st218{clip-path:url(#SVGID_00000177483448467482518460000001121283443126131890_);fill:#FFD233;}
	.st219{clip-path:url(#SVGID_00000177483448467482518460000001121283443126131890_);fill:#FFD232;}
	.st220{clip-path:url(#SVGID_00000177483448467482518460000001121283443126131890_);fill:#FFD231;}
	.st221{clip-path:url(#SVGID_00000177483448467482518460000001121283443126131890_);fill:#FFD130;}
	.st222{clip-path:url(#SVGID_00000177483448467482518460000001121283443126131890_);fill:#FFD12F;}
	.st223{clip-path:url(#SVGID_00000177483448467482518460000001121283443126131890_);fill:#FFD12E;}
	.st224{clip-path:url(#SVGID_00000177483448467482518460000001121283443126131890_);fill:#FFD12D;}
	.st225{clip-path:url(#SVGID_00000177483448467482518460000001121283443126131890_);fill:#FFD02C;}
	.st226{clip-path:url(#SVGID_00000177483448467482518460000001121283443126131890_);fill:#FFD02B;}
	.st227{clip-path:url(#SVGID_00000177483448467482518460000001121283443126131890_);fill:#FFD02A;}
	.st228{clip-path:url(#SVGID_00000177483448467482518460000001121283443126131890_);fill:#FFD029;}
	.st229{clip-path:url(#SVGID_00000177483448467482518460000001121283443126131890_);fill:#FFD028;}
	.st230{clip-path:url(#SVGID_00000177483448467482518460000001121283443126131890_);fill:#FFCF27;}
	.st231{clip-path:url(#SVGID_00000177483448467482518460000001121283443126131890_);fill:#FFCF26;}
	.st232{clip-path:url(#SVGID_00000177483448467482518460000001121283443126131890_);fill:#FFCF25;}
	.st233{clip-path:url(#SVGID_00000177483448467482518460000001121283443126131890_);fill:#FFCF24;}
	.st234{clip-path:url(#SVGID_00000177483448467482518460000001121283443126131890_);fill:#FFCE23;}
	.st235{clip-path:url(#SVGID_00000177483448467482518460000001121283443126131890_);fill:#FFCE22;}
	.st236{clip-path:url(#SVGID_00000177483448467482518460000001121283443126131890_);fill:#FFCE21;}
	.st237{clip-path:url(#SVGID_00000177483448467482518460000001121283443126131890_);fill:#FFCE20;}
	.st238{clip-path:url(#SVGID_00000177483448467482518460000001121283443126131890_);fill:#FFCE1F;}
	.st239{clip-path:url(#SVGID_00000177483448467482518460000001121283443126131890_);fill:#FFCD1E;}
	.st240{clip-path:url(#SVGID_00000177483448467482518460000001121283443126131890_);fill:#FFCD1D;}
	.st241{clip-path:url(#SVGID_00000177483448467482518460000001121283443126131890_);fill:#FFCD1C;}
	.st242{clip-path:url(#SVGID_00000177483448467482518460000001121283443126131890_);fill:#FFCD1B;}
	.st243{clip-path:url(#SVGID_00000177483448467482518460000001121283443126131890_);fill:#FFCC1A;}
	.st244{clip-path:url(#SVGID_00000177483448467482518460000001121283443126131890_);fill:#FFCC19;}
	.st245{clip-path:url(#SVGID_00000177483448467482518460000001121283443126131890_);fill:#FFCC18;}
	.st246{fill:#584B42;}
	.st247{fill:#DEC3A6;}
	.st248{fill:#FFEAB9;}
	.st249{fill:#BEF9FF;}
	.st250{fill:#FFCC18;}
	.st251{fill:#B973FA;}
	.st252{fill:#E285B5;}
	.st253{fill:#ACACAC;}
	.st254{fill:#D4D4D4;}
	.st255{fill:#FEE63C;}
	.st256{fill:#FFAB30;}
	.st257{fill:#1C1C1C;}
	.st258{fill:#B3E7C9;}
	.st259{fill:#66CC99;}
	.st260{fill:#F9EB67;}
	.st261{fill:#F7A631;}
	.st262{fill:#4ED18B;}
	.st263{fill:#299C60;}
	.st264{fill:#00C6FF;}
	.st265{fill:#6600D0;}
	.st266{fill:#F59F00;}
	.st267{fill:#51D5FF;}
	.st268{fill:#00D096;}
	.st269{fill:#FE263B;}
	.st270{fill:#7B36FF;}
</style>
<g id="레이어_1">
</g>
<g id="레이어_2">
	<g>
		<g>
			<circle class="st257" cx="556.2" cy="159.7" r="141.5"/>
			<path class="st257" d="M556.2,306.2c-80.8,0-146.5-65.7-146.5-146.5S475.5,13.2,556.2,13.2s146.5,65.7,146.5,146.5
				S637,306.2,556.2,306.2z M556.2,23.2c-75.3,0-136.5,61.2-136.5,136.5c0,75.3,61.2,136.5,136.5,136.5s136.5-61.2,136.5-136.5
				C692.7,84.4,631.5,23.2,556.2,23.2z"/>
		</g>
		<g>
			<path class="st2" d="M556.2,6c-78.2,0-141.5,63.4-141.5,141.5c0,58.9,36,109.4,87.2,130.7v55.9l41.1-45.8
				c4.3,0.4,8.7,0.6,13.2,0.6c78.2,0,141.5-63.4,141.5-141.5S634.4,6,556.2,6z"/>
			<path class="st257" d="M501.9,339.1c-0.6,0-1.2-0.1-1.8-0.3c-1.9-0.7-3.2-2.6-3.2-4.7v-52.6c-53.1-23.5-87.2-75.7-87.2-134
				C409.7,66.7,475.5,1,556.2,1s146.5,65.7,146.5,146.5S637,294,556.2,294c-3.7,0-7.4-0.1-11.1-0.4l-39.5,43.9
				C504.7,338.6,503.3,339.1,501.9,339.1z M556.2,11C481,11,419.7,72.2,419.7,147.5c0,55.3,33,104.8,84.1,126.1
				c1.9,0.8,3.1,2.6,3.1,4.6v42.9l32.4-36c1.1-1.2,2.6-1.8,4.2-1.6c4.3,0.4,8.6,0.6,12.7,0.6c75.3,0,136.5-61.2,136.5-136.5
				C692.7,72.2,631.5,11,556.2,11z"/>
		</g>
		<g>
			<path d="M551.4,127.9c1.7,0.4,4.2,0.7,7.6,0.8c3.3,0.1,6.7-0.2,10.2-1c3.4-0.6,6.6-1.9,9.6-3.9c2.9-1.9,4.9-4.8,5.8-8.7
				c1.1-4.5,0.1-8.6-2.8-12.3c-3-3.7-8.8-6.6-17.5-8.7c-7.9-1.9-14.8-2.4-20.7-1.4c-5.9,1-11.1,2-15.7,3.2c-2.5,0.7-4.4,0.4-5.7-0.9
				c-1.3-1.3-2.1-3.2-2.3-5.7L519,72.3c-0.1-3,0.3-5.2,1.3-6.7c0.9-1.5,2.6-2.6,4.9-3.4c3.6-1.1,7.2-2,10.9-2.8
				c3.7-0.7,7.7-1.3,12.1-1.5c4.3-0.3,9.1-0.2,14.2,0.3c5.1,0.5,10.9,1.5,17.3,3.1c8.2,2,15.7,4.7,22.3,8.2
				c6.6,3.5,12.1,7.8,16.5,13c4.2,5.3,6.9,11.4,8.4,18.3c1.4,6.9,1.1,14.9-1.1,23.9c-1.8,7.3-4.3,13.2-7.7,17.7
				c-3.4,4.5-7,8-10.9,10.5c-3.9,2.5-7.9,4.3-11.9,5.4c-4,1.1-7.7,1.8-10.9,2.2c-2.6,0.4-4.4,0.6-5.5,0.8c-1.1,0.1-2.2,0.2-3.4,0.3
				l-4.7,19.6c-1,4-2.3,6.6-3.9,7.8c-1.6,1.2-4.1,1.4-7.5,0.5l-21.2-5.1c-3.3-0.8-5.4-2.1-6.3-3.9c-1-1.8-1-4.7,0-8.7l8.5-36.2
				c0.9-3.6,2.1-5.9,3.8-7.1C545.7,127.3,548.1,127.1,551.4,127.9z M521.5,213.9c1.3-5.4,4.2-9.4,8.5-11.9c4.4-2.5,9.3-3.1,14.7-1.7
				c5.3,1.3,9.3,4,12.2,8.2c2.8,4.2,3.6,9,2.3,14.5c-1.3,5.3-4.1,9.1-8.6,11.6c-4.5,2.5-9.3,3-14.6,1.8c-5.4-1.3-9.5-4.1-12.3-8.3
				C521,223.9,520.3,219.2,521.5,213.9z"/>
		</g>
		<g>
			<g>
				<g>
					<g>
						<g>
							<path class="st2" d="M477.8,1327.2c-11.5,8.8-27.4,9.2-41.6,6.4c-7.8-1.6-15.5-4-22.1-8.3c-2.5-1.6-4.9-3.5-7.1-5.6
								c-5.2-4.8-12.1-7.5-19.2-7.4c-15.1,0.2-30.4-5.5-41.8-15.4c-6.9-6-16.4-8.1-25.3-5.7c-7.1,1.9-14.4,3.1-21.8,2.8
								c-7.8-0.3-15.8-2.3-22.5-6.2c-5.5-3.2-11.9-4.5-18.1-3.5c-13.6,2.2-28.4,2.6-40.6-1.2c-14.9-4.6-28.4-15.4-34-29.8
								c-1-2.5-1.5-5.1-1.8-7.8c-0.3-2.7-0.2-5.5,0.2-8.2c-3.4,6.1-5.9,12.7-7.1,19.5c-0.5,2.8-0.6,5.7-0.3,8.6
								c0.3,2.7,0.8,5.3,1.8,7.8c5.6,14.4,19.1,25.2,34,29.8c15.5,4.8,35.1,2.8,51.3-0.9c7.8,7.5,19,11.4,30,11.8
								c12.8,0.5,25.4-3.3,37.3-8.1c13.4,19.8,39.2,30.2,62.6,25.2c4.6,5.3,9.4,10.4,15.3,14.2c6.6,4.3,14.3,6.8,22.1,8.3
								c14.2,2.9,30.2,2.5,41.6-6.4c8.5-6.5,13.3-16.9,15.1-27.5c0.1-0.4,0.1-0.9,0.2-1.3C483.7,1321.7,481,1324.8,477.8,1327.2z"/>
						</g>
						<g>
							<path class="st3" d="M485,1287.7c-0.9-6.4-1.9-12.7-3.9-18.9c-2.5-7.8-6.3-15-10.5-22c-5-8.3-10.6-16.3-16.6-23.9
								c-7-8.8-20.9-22.3-30.6-28.1l-120-30c-38.1,4.1-74.7,21.3-102.1,48c-7.4,7.2-14.2,15.4-19.2,24.4c-0.4,2.7-0.5,5.5-0.2,8.2
								c0.3,2.7,0.8,5.3,1.8,7.8c5.6,14.4,19.1,25.2,34,29.8c12.3,3.8,27,3.4,40.6,1.2c6.3-1,12.6,0.3,18.1,3.5
								c6.7,3.9,14.7,6,22.5,6.2c7.4,0.3,14.7-0.9,21.8-2.8c8.9-2.4,18.3-0.3,25.3,5.7c11.4,10,26.6,15.6,41.8,15.4
								c7.1-0.1,14,2.6,19.2,7.4c2.2,2,4.6,3.9,7.1,5.6c6.6,4.3,14.3,6.8,22.1,8.3c14.2,2.9,30.2,2.5,41.6-6.4
								c3.2-2.5,5.9-5.5,8.1-8.9C487.4,1308.2,486.4,1297.9,485,1287.7z"/>
						</g>
					</g>
					<g id="XMLID_00000129179366720343720060000010488567283427445690_">
						<g>
							<g>
								<path d="M444.2,1360.1c-5.8,0-11.3-0.7-16.1-1.7c-9.7-1.9-17.5-4.9-23.8-9c-5.6-3.6-10.2-8.3-14.4-13
									c-23.2,3.7-48-6.1-62.5-24.6c-13.8,5.2-25,7.4-35.7,7c-11.9-0.4-23.1-4.5-31.2-11.4c-14.6,3.2-34.5,5.5-51.3,0.3
									c-17.4-5.4-31.3-17.6-37.2-32.7c-1.1-2.7-1.8-5.8-2.1-9.1c-0.4-3.4-0.3-6.8,0.3-10c2.8-15.7,12.1-31.4,27.7-46.6
									c28.3-27.7,65.6-45.2,105-49.4c0.6-0.1,1.2,0,1.7,0.1l120,30c0.5,0.1,0.9,0.3,1.4,0.6c10.2,6.1,24.5,19.9,32,29.2
									c6.2,7.7,11.9,16,17,24.5c3.6,6,8.1,14.1,11,23.1c2.1,6.5,3.2,13.3,4.1,19.7c1.5,10.7,2.6,22.2,0.7,33.5
									c-2.2,13-8.2,23.8-17,30.6C464.8,1357.9,454.1,1360.1,444.2,1360.1z M391.7,1325.9c1.4,0,2.8,0.6,3.8,1.7
									c4.2,4.8,8.8,9.8,14.2,13.3c5.3,3.4,11.9,5.9,20.3,7.6c11.1,2.2,26.5,3.1,37.6-5.4c6.8-5.2,11.5-13.9,13.2-24.3
									c1.7-10,0.6-20.5-0.8-30.4c-1-6.9-2-12.6-3.7-18.1c-2-6.3-5.1-12.7-10-21c-4.9-8.1-10.4-16-16.3-23.4
									c-6.8-8.5-19.7-21-28.6-26.5L303,1169.9c-36.9,4.1-71.7,20.6-98.2,46.6c-14.1,13.8-22.5,27.6-24.9,41.2
									c-0.4,2.3-0.5,4.7-0.2,7.2c0.2,2.4,0.7,4.6,1.5,6.5c4.7,12.1,16.5,22.4,30.8,26.8c12.3,3.8,29.5,3.4,48.7-1
									c1.6-0.4,3.4,0.1,4.6,1.3c6.5,6.2,16.2,10,26.7,10.4c10.2,0.4,21.1-2,35.2-7.7c2.2-0.9,4.7-0.1,6,1.8
									c12.3,18.2,35.9,27.7,57.4,23.1C391,1326,391.3,1325.9,391.7,1325.9z"/>
							</g>
						</g>
					</g>
				</g>
				<g>
					<g>
						<path class="st3" d="M223.2,1034c8.9,59.6,33.1,118.4,76.2,160.5l104.8,13.5c50.3-25,100-73.1,126.7-122.5L396.4,1047
							L223.2,1034z"/>
					</g>
					<g class="st1">
						<g>
							<path class="st2" d="M530.9,1085.6l-34.7-10c-12.6,45.8-46.3,93.7-82.2,127.3C460.9,1176.8,506,1131.8,530.9,1085.6z"/>
						</g>
					</g>
					<g>
						<g>
							<g>
								<path class="st257" d="M302.9,1191c-42.8-42.1-66-99.7-74.9-158.3c-1-6.3-10.6-3.6-9.6,2.7c9.1,60.3,33.5,119.5,77.5,162.7
									C300.5,1202.6,307.5,1195.6,302.9,1191L302.9,1191z"/>
							</g>
						</g>
						<g>
							<g>
								<path class="st257" d="M526.6,1083.1c-27.7,50.9-73.1,94.7-124.9,120.7c-5.8,2.9-0.7,11.5,5,8.6
									c53.2-26.7,100-72,128.5-124.3C538.3,1082.5,529.7,1077.4,526.6,1083.1L526.6,1083.1z"/>
							</g>
						</g>
					</g>
					<g>
						<path class="st2" d="M299.4,1032.2c-5.3,27.2,5.5,71.9,26.7,89.8c21.2,17.9,52.5,23.1,78.2,12.6c27.1-11,63.4-51.8,73.5-81.9"
							/>
					</g>
				</g>
				<g>
					<g>
						<g>
							<path class="st2" d="M770.1,868.8c-2.7-3.8-6.3-6.9-10.1-9.6c-13.9-9.9-31-15.1-48-14.8l-1.5,20.2
								c12.7,1.6,25.4,3.9,37.3,8.5c10.2,3.9,19.8,9.8,27.4,17.6C776.1,883,774.5,875,770.1,868.8z"/>
						</g>
						<g>
							<path class="st3" d="M710.4,864.6l-5.7,75c11.5-6.8,24.7-10,37-15c12.4-5,24.7-12.4,30.5-24.5c1.4-3,2.4-6.2,2.8-9.4
								c-7.5-7.8-17.2-13.6-27.4-17.6C735.7,868.5,723.1,866.2,710.4,864.6z"/>
						</g>
					</g>
					<g>
						<g>
							<path class="st257" d="M711.9,849.4c22.8-0.2,65.8,13.2,57.5,43.8c-3.5,13-15.8,20.9-27.4,25.9c-13.2,5.7-27.3,8.9-39.9,16.2
								c-5.6,3.2-0.5,11.9,5,8.6c25.2-14.6,69-17.2,73-53.8c3.8-34.9-40.1-50.9-68.2-50.7C705.5,839.5,705.5,849.5,711.9,849.4
								L711.9,849.4z"/>
						</g>
					</g>
				</g>
				<g>
					<g>
						<g>
							<path class="st2" d="M14.2,860.6c3.1-3.5,7-6.2,11.1-8.5c14.8-8.4,32.4-11.9,49.3-9.8L74,862.5c-12.8,0.3-25.6,1.3-38,4.7
								c-10.5,2.9-20.7,7.7-29,14.7C6.8,874.2,9.2,866.4,14.2,860.6z"/>
						</g>
						<g>
							<path class="st3" d="M74,862.5l-1.9,75.2c-10.7-8-23.5-12.5-35.3-18.7c-11.8-6.2-23.3-14.9-27.9-27.4
								c-1.1-3.1-1.7-6.4-1.9-9.7c8.3-7,18.5-11.8,29-14.7C48.4,863.8,61.2,862.8,74,862.5z"/>
						</g>
					</g>
					<g>
						<g>
							<path class="st257" d="M74.6,837.3c-28-3.1-73.3,8.9-72.5,44c0.8,36.5,44,43.6,67.6,60.7c5.2,3.8,10.2-4.9,5-8.6
								c-11.7-8.5-25.5-13.1-38-20.2c-11-6.2-22.5-15.4-24.4-28.8c-4.3-31.2,39.6-39.7,62.3-37.2C80.9,848,80.9,838,74.6,837.3
								L74.6,837.3z"/>
						</g>
					</g>
				</g>
				<g>
					<g>
						<g>
							<path class="st3" d="M621.4,797.2c29.7-44.6,46.1-101.4,43.9-168.9c-5.7-177.7-131.7-270.5-283.3-265.6
								S110.8,468.3,116.5,646c2.1,64.5,20.5,118.2,50.5,160.1"/>
						</g>
						<g class="st1">
							<g>
								<path class="st2" d="M482,374.9c68.7,51.6,118,128.7,134.9,213c14,70.1,5.4,144.3-22.9,209.9l27.5-0.5
									c29.7-44.6,46.1-101.4,43.9-168.9C661,491.8,585.5,405.3,482,374.9z"/>
							</g>
						</g>
						<g>
							<path d="M151.7,786.8c-1.8,0-3.5-0.9-4.4-2.6c-22.1-39.8-34.1-86.3-35.8-138.1c-2.8-85.6,23.3-158.3,75.3-210.1
								c24.3-24.2,53.6-43.3,87.2-56.6c33.1-13.1,69.4-20.4,107.9-21.7c38.6-1.2,75.3,3.7,109.1,14.7c34.4,11.2,64.9,28.3,90.7,50.9
								c55.2,48.4,85.9,119.2,88.6,204.9c1.7,51.8-7.4,99-26.9,140.1c-1.2,2.5-4.2,3.6-6.7,2.4c-2.5-1.2-3.6-4.2-2.4-6.7
								c18.8-39.7,27.5-85.3,25.9-135.5c-5.2-161.2-117-265.9-278.1-260.8c-75.1,2.4-142.1,29.2-188.4,75.4
								c-50,49.8-75,119.9-72.4,202.7c1.6,50.2,13.2,95.2,34.6,133.6c1.3,2.4,0.5,5.5-1.9,6.8C153.3,786.6,152.5,786.8,151.7,786.8z
								"/>
						</g>
						<g>
							<path d="M364.8,640.2c-1.9,0-3.7-1.1-4.5-2.9c-1.2-2.5-0.1-5.5,2.4-6.7c8.2-3.9,17.5-6.2,26.8-6.5c9.4-0.2,18.8,1.4,27.2,4.8
								c2.6,1,3.8,3.9,2.8,6.5c-1,2.6-3.9,3.8-6.5,2.8c-7.2-2.9-15.2-4.3-23.2-4.1c-7.9,0.3-15.8,2.2-22.8,5.6
								C366.2,640.1,365.5,640.2,364.8,640.2z"/>
						</g>
						<g>
							<g>
								<path d="M344.1,702c-1.3,0-2.5,0-3.8-0.1c-19.5-1-38.4-9.5-52.1-23.4c-1.9-2-1.9-5.1,0.1-7.1c2-1.9,5.1-1.9,7.1,0.1
									c11.9,12.1,28.5,19.6,45.4,20.4c16.9,0.9,34.2-4.9,47.3-15.8c1.8-1.5,4.3-1.5,6.1-0.2c13.7,10,31.3,14.7,48.2,12.7
									c16.9-1.9,32.9-10.4,44-23.3c1.8-2.1,5-2.3,7.1-0.5c2.1,1.8,2.3,5,0.5,7.1c-12.7,14.7-31.1,24.5-50.5,26.7
									c-18.1,2.1-36.8-2.4-52.1-12.4C377.9,696.3,361,702,344.1,702z"/>
							</g>
						</g>
						<g>
							<g>
								<circle cx="306.7" cy="590.1" r="11"/>
							</g>
							<g>
								<circle cx="469.8" cy="584.8" r="11"/>
							</g>
						</g>
						<g>
							<g class="st1">
								<path class="st252" d="M371.7,577.5c1.1,33.5-28.4,69.7-64.8,70.9c-18.7,0.6-38.6-5-52.4-17.6
									c-13.8-12.6-24.1-30.8-28.6-48.5c0,0-31.5,1-31.5,1c-13.1,5.4-26.2,10.7-39.4,16.1c-8.9,3.6-17.8,7.3-26.7,10.9
									c-3.2,1.3-7.4,2.3-10.2,4.4c-6.4,4.7-11.3,14.1-20.8,10.2c-15-6.1-3.7-26,4.4-32.6l87.1-49.6l395.4-12.7l90.1,43.9
									c8.5,6.1,21.1,25.2,6.5,32.3c-9.2,4.5-14.8-4.6-21.4-8.8c-2.9-1.9-7.2-2.6-10.5-3.7c-9.1-3.1-18.2-6.1-27.3-9.2
									c-13.4-4.5-26.9-9-40.3-13.5c0,0-31.5,1-31.5,1c-3.4,17.9-12.4,36.8-25.4,50.3s-32.5,20.4-51.1,21
									c-36.4,1.2-68.1-33.1-69.2-66.5L371.7,577.5z"/>
							</g>
							<g>
								<g>
									<path class="st2" d="M311.3,538.6l-14,0.4c-14.1,28.7-28.2,57.3-42.3,86c-0.7,1.4-1.4,2.9-2.1,4.3c0.5,0.5,1,1,1.6,1.5
										c2.6,2.4,5.4,4.5,8.3,6.3c14.6-29.6,29.2-59.3,43.7-88.9C308.2,544.9,309.7,541.7,311.3,538.6z"/>
								</g>
								<g>
									<path class="st2" d="M451.7,534c-12.3,25.1-24.7,50.1-37,75.2c4.4,7,10,13.3,16.5,18.6c15.5-31.5,31-63.1,46.6-94.6
										L451.7,534z"/>
								</g>
								<g>
									<path class="st2" d="M260.6,540.2c-9.6,19.5-19.2,39.1-28.8,58.6c3.7,8.2,8.6,16.1,14.3,23c13.5-27.5,27-55,40.6-82.5
										L260.6,540.2z"/>
								</g>
							</g>
							<g>
								<path d="M304.1,653.4c-20.5,0-39.6-6.8-52.9-19c-13-11.8-23.6-29.2-29-47.1c-18.5,0.6-24.6,0.8-26.6,0.9l-65.2,26.6
									c-1.1,0.4-2.2,0.8-3.3,1.2c-2.2,0.8-4.5,1.6-5.9,2.6c-1.4,1-2.7,2.3-4.2,3.8c-4.8,4.7-11.4,11.1-21.5,7
									c-7.4-3-9.6-8.4-10.2-12.4c-1.6-10.7,7-23.5,13.4-28.7c0.2-0.2,0.5-0.3,0.7-0.5l87.1-49.6c0.7-0.4,1.5-0.6,2.3-0.7
									l395.4-12.7c0.8,0,1.6,0.1,2.4,0.5l90.1,43.9c0.3,0.1,0.5,0.3,0.7,0.4c6.7,4.8,16.1,16.9,15.2,27.8c-0.3,4-2.3,9.6-9.4,13.1
									c-9.8,4.8-16.8-1.2-21.9-5.6c-1.6-1.3-3-2.6-4.4-3.5c-1.4-0.9-3.8-1.6-6-2.2c-1.1-0.3-2.3-0.6-3.4-1l-66.8-22.4l-26.6,0.9
									c-4.2,18.2-13.7,36.3-25.9,48.9c-13.1,13.6-33,21.8-54.6,22.5c-18.3,0.6-37.1-7.3-51.5-21.7c-12.6-12.6-20.7-28.6-22.5-44.7
									l-22.9,0.7c-0.8,16.1-7.8,32.6-19.6,46c-13.5,15.3-31.7,24.4-50,25C306.1,653.4,305.1,653.4,304.1,653.4z M226,577.2
									c2.3,0,4.3,1.5,4.8,3.8c4.4,17.5,14.6,34.7,27.1,46.1c11.9,10.8,30.1,16.9,48.8,16.3c34.9-1.1,60.9-36.2,60-65.7
									c0-1.3,0.4-2.6,1.3-3.6c0.9-1,2.2-1.5,3.5-1.6l32.5-1c2.8-0.1,5.1,2.1,5.2,4.8c0.9,29.5,29.1,62.8,64.1,61.7
									c18.7-0.6,36.5-7.9,47.7-19.4c11.8-12.2,20.8-30,24.1-47.7c0.4-2.3,2.4-4,4.8-4.1l31.5-1c0.6,0,1.2,0.1,1.8,0.3l67.7,22.7
									c0.8,0.3,1.8,0.6,2.9,0.8c2.8,0.8,6,1.7,8.7,3.4c2,1.3,3.8,2.8,5.6,4.4c5.1,4.4,7.4,5.9,11,4.2c3.2-1.5,3.7-3.4,3.8-4.9
									c0.5-6.1-5.9-14.9-10.7-18.6l-88.6-43.1l-392.9,12.6l-85.6,48.7c-4.6,4-10.4,13.2-9.5,19.2c0.2,1.5,0.9,3.4,4.1,4.7
									c3.7,1.5,5.8-0.1,10.7-4.9c1.7-1.6,3.4-3.3,5.3-4.7c2.6-1.9,5.7-3,8.5-3.9c1-0.4,2-0.7,2.8-1l66.1-27
									c0.6-0.2,1.1-0.3,1.7-0.4l31.5-1C225.9,577.2,225.9,577.2,226,577.2z"/>
							</g>
						</g>
						<g>
							<path d="M392,779.1c-12.8,0-25.6-2.4-37.2-7c-2.6-1-3.8-3.9-2.8-6.5c1-2.6,3.9-3.8,6.5-2.8c11.1,4.4,23.4,6.6,35.6,6.3
								c12.2-0.5,24.3-3.5,35.1-8.6c2.5-1.2,5.5-0.1,6.7,2.4c1.2,2.5,0.1,5.5-2.4,6.7c-12,5.7-25.5,9-39.1,9.5
								C393.6,779,392.8,779.1,392,779.1z"/>
						</g>
						<g>
							<g id="XMLID_00000016064398789096263250000000891693278430442667_">
								<g>
									<g>
										<path d="M417.7,692.1c-0.5,7.9-3.8,15.7-9.7,21c-6.5,5.9-16.2,8.3-24.4,5.2c-5-1.9-9.1-5.6-12.7-9.6
											c-3.7-4.1-7.1-8.8-8.7-13.9c10.6-2.7,20.6-7.7,29-14.7C399.1,685.7,408.2,689.8,417.7,692.1z"/>
									</g>
								</g>
							</g>
						</g>
					</g>
					<g>
						<g>
							<path class="st257" d="M423.6,487.7c7.2,17.2,31,17.7,45,9.2c5.5-3.3,0.5-12-5-8.6c-5.1,3.1-10.9,4.6-16.9,4
								c-4.7-0.5-11.4-2.4-13.4-7.2C430.8,479.2,421.1,481.8,423.6,487.7L423.6,487.7z"/>
						</g>
					</g>
				</g>
			</g>
			<g>
				<g>
					<g>
						<path class="st258" d="M684.1,860.8c0.4-6.6,1.9-13.1,4-19.5c-1.1-1-2.3-1.8-3.5-2.4l0-0.9c-2.6-10.8-5.4-26-11-37.7
							c10.3-17.1,12.4-41.3,0.9-57.3c-12.2-17-33.3-26.4-54.3-27.1c-10.3-0.3-20.6,1.2-30.6,3.4c-69.9,14.9-129,66-198.6,85.9
							c-14.5-3.2-28.7-9-41.8-16.1c-23.6-12.8-44.7-29.7-67-44.7c-22.3-15-46.5-28.3-73-32.6c-26.5-4.3-55.9,1.9-74.6,21.2
							c-4.8,5-8.9,10.9-11.3,17.4c-3.2,8.7-3.3,18.4-0.8,27.2c1-0.1,1.9-0.2,2.9-0.3c-9.6,7.5-17,17.2-24.3,27.4
							c-5.1,7.1-9.4,15-11,23.6l-0.3,2.1c-0.3-0.2-0.6-0.3-0.9-0.5c4.3,3.6,8,6.1,8,6.1s-0.8,13.5-1.6,20.2
							c-2.7,22.3-12.2,45.2-26.5,63.3c-4.2,5.3-8.9,10.4-14,15.2c1.8,4.2,11.1,25.1,19.9,31.8c9.8,7.5,21.9,11.5,34.1,13
							c18.5,2.2,37.6-1.7,54-10.5c5.3,19.3,15.4,41.8,30.1,50.6c14.3-4.5,28.8-8,43.5-10.7c118.8-21.6,188.8-15.1,268.2,19.6
							c19.5,8.5,39.2,18.1,57.5,29.5c-0.2-0.7-0.3-1.1-0.4-1.1c23.7-11.6,39.7-35.5,46.8-60.9c2.6-9.1,4.1-18.4,4.9-27.8
							c18.6,8.2,48.9,12.3,65.7,8.7c21.1-4.5,29.3-24.5,30.7-28.6c-3.3-4.6-6.3-9.4-9.1-14.4C688.5,911.6,682.7,886,684.1,860.8z"/>
					</g>
					<g class="st1">
						<path class="st2" d="M608.4,995.9c2.4-8.5,3.9-17.3,4.8-26.1l1-21.7l-6.8-87.4l0.4-16.4c-4.8,36.5-6.4,66.1-14.8,102.3
							c-8.3,35.9-21.5,72.5-53.7,98.2c0,0,0,0,0,0.1c7.7,4.1,15.4,8.4,22.8,13c-0.2-0.7-0.3-1.1-0.4-1.1
							C585.4,1045.3,601.3,1021.3,608.4,995.9z"/>
					</g>
					<g>
						<path class="st259" d="M68.7,919.5c14.3-18.1,23.8-41,26.5-63.3c0.8-6.7,1.6-20.2,1.6-20.2s-3.7-2.5-8-6.1
							c-2.6-1.5-5.3-2.6-8.1-3c-7.2-1.1-15,2.6-18.5,9.1c-2.1,4-2.5,8.7-2.5,13.2c0.1,5.9,0.7,11.8-0.4,17.7
							c-1.1,5.8-2.5,11.5-4.1,17.2c-3.2,11.3-7.6,22.1-11.3,33.3c-1.2,3.8-3,10.1-0.8,13.9c1.6,2.7,3.5,3.9,6.6,4.3
							c1.1,0.1,4.2-0.5,4.5-1.5c0,0,0.1,0.3,0.3,0.8C59.8,929.9,64.5,924.8,68.7,919.5z"/>
					</g>
					<g>
						<path class="st259" d="M726.7,945.5c3.8-4.1,3.2-9.8,2.5-15.4c-0.7-5.5-2.8-10.8-4.4-16.2c-3.1-10.4-4.2-21.5-3.3-32.3
							c0.7-8.8,2.8-17.5,2-26.3c-0.7-8.8-5.1-18-13.2-21.4c-1.9-0.8-5.6-1.3-7.6-1.1c-5,0.6-11.5,5-14,8.8c-0.2-0.2-0.4-0.3-0.6-0.5
							c-2.2,6.4-3.6,13-4,19.5c-1.4,25.3,4.4,50.9,16.6,73c2.8,5,5.8,9.8,9.1,14.4c0.2-0.5,0.3-0.7,0.3-0.7
							C714.8,950.8,722.9,949.7,726.7,945.5z"/>
					</g>
					<g>
						<path class="st259" d="M236.3,1008.9c-14.6,2.7-29.2,6.2-43.5,10.7c0.2,0.1,0.4,0.3,0.6,0.4c0,0-5.7,10.9-2.8,21.2
							c1.2,4.2,2.7,8.4,4.9,12.2c5.7,9.8,16.1,16.5,27.3,18.7c11.2,2.2,22.9,0,33.1-5c4.8,6.8,11,10.3,19.2,10.6
							c8.3,0.4,15.7-5.7,20.6-11.2c0,0,21.4,6.3,32.2,5.5c23.7-2,47.6-0.9,71.2,2.6c34.2,5.1,65.6,16.2,97.9,28
							c16.4,6,34.9,12.4,51.5,3.5c9.4-5,17.7-14.8,17.8-25.8c0-1.5-3.1-18-4.3-22.4c-18.3-11.4-38.1-21-57.5-29.5
							C425.1,993.8,355.1,987.2,236.3,1008.9z"/>
					</g>
					<g class="st1">
						<g>
							<path class="st2" d="M562.1,1057.9c-7.4-4.6-15-8.9-22.8-13c3,7.8,3.7,22.5,2.4,30.7c-1.8,11.6-9.2,14.5-19.7,19.6
								c-8,3.9-16.9,5.7-25.7,7.1c0.3,0.1,0.6,0.2,0.9,0.3c16.4,6,34.9,12.4,51.5,3.5c9.4-5,17.7-14.8,17.8-25.8
								C566.4,1078.8,563.4,1062.3,562.1,1057.9z"/>
						</g>
					</g>
					<g class="st1">
						<g>
							<path class="st2" d="M688.1,841.2C688.1,841.2,688.1,841.2,688.1,841.2c-0.1-0.1-0.1-0.1-0.2-0.2
								C688,841.1,688.1,841.2,688.1,841.2z"/>
						</g>
						<g>
							<path class="st2" d="M684.7,838.8l0-0.9c-2.6-10.8-5.4-26-11-37.7c4.5-7.5,7.5-16.4,8.4-25.4c-3.4-7.7-6.3-14.5-6.3-14.5
								l-43.7-10.9l-34.4,11.4l-7.6,26c2.6-4.2,7.7-6.5,12.7-6.7c5-0.2,9.9,1.4,14.4,3.4c16.4,7.3,29.9,20.8,37.3,37.1
								c3.1,6.9,5.1,14.3,6,21.8c2.5-1.9,4.9-3.3,7.1-4.1c6.5-2.2,12.2-2.4,17.5,0.6C684.9,838.9,684.8,838.9,684.7,838.8z"/>
						</g>
						<g>
							<path class="st2" d="M685.2,839.1c0.3,0.2,0.6,0.4,0.9,0.6C685.8,839.5,685.5,839.3,685.2,839.1z"/>
						</g>
						<g>
							<path class="st2" d="M686.4,839.9c0.3,0.2,0.6,0.4,0.9,0.7C687,840.3,686.7,840.1,686.4,839.9z"/>
						</g>
					</g>
				</g>
				<g>
					<g>
						<path class="st257" d="M72.3,923c15.2-19.5,24.8-42.4,28-66.9c0.8-6.4-9.2-6.3-10,0c-2.8,21.6-11.7,42.6-25,59.8
							C61.3,921,68.3,928.1,72.3,923L72.3,923z"/>
					</g>
				</g>
				<g>
					<g>
						<path class="st257" d="M158.9,965.4c-22.5,11.3-51.2,14-73.9,1.7c-8.6-4.6-13.6-11.1-18.3-19.6c-2-3.5-3.8-7.1-5.5-10.8
							c-0.5-1.1-1-2.3-1.5-3.4c-0.2-0.5-1.1-2.7-0.3-0.8c-1.7-4.1-6.5-4.9-9.1-1.2c2-2.8,0.6,0-0.6-1.1c-1.1-1.1-1.9-1.1-2.2-3.1
							c-0.5-2.8,0.8-6,1.6-8.6c2.4-7.6,5.3-15.1,7.9-22.7c2.5-7.4,4.7-14.9,6.4-22.6c1.7-7.9,1.8-15.3,1.6-23.3
							c-0.1-7.2,1-14.4,8.5-17.4c6.9-2.7,13.3,1.2,18.6,5.4c3.2,2.5,4.3,2.9,8.3,2.6c3.3-0.2,6.5,0.1,9.7,1
							c6.6,1.7,12.7,5.6,16.9,11.1c3.9,5,12.5,0.1,8.6-5c-9-11.8-23.2-18.5-38.1-16.7c1.2,0.5,2.4,1,3.5,1.5
							c-10.9-9.1-25.1-15.7-37.6-5.2c-6.1,5.1-8.2,12.5-8.3,20.2c-0.2,8.9,0.2,17-1.8,25.8c-2,8.6-4.7,16.9-7.6,25.2
							c-2.7,7.7-6.3,15.5-7.6,23.6c-1.1,6.3,0.3,13.3,6.3,16.7c4.7,2.7,11.4,2.2,14.7-2.3c-3-0.4-6.1-0.8-9.1-1.2
							c6.8,16.5,15.2,32.9,31.7,41.3c25.9,13,57.2,10.2,82.6-2.5C169.7,971.1,164.6,962.5,158.9,965.4L158.9,965.4z"/>
					</g>
				</g>
				<g>
					<g>
						<path class="st257" d="M237.7,1013.7c70.6-12.8,143.2-19.2,213.1,0.6c17.5,4.9,34.6,11.2,51.2,18.5c5.8,2.5,10.9-6.1,5-8.6
							c-30.1-13.1-61.4-23.3-93.9-28.3c-34.7-5.4-69.9-5.3-104.8-2.1c-24.6,2.3-49.1,6-73.4,10.4
							C228.7,1005.2,231.4,1014.8,237.7,1013.7L237.7,1013.7z"/>
					</g>
				</g>
				<g>
					<g>
						<path class="st257" d="M602,838.4c-1.5,60.2,23.9,129.3-10.8,184.4c-7.9,12.6-18.7,23-32,29.6c-3.2,1.6-3.3,7,0,8.6
							c-3.2-1.5-2-3.6-1.5-0.7c0.2,1.3,0.6,2.6,0.9,3.9c0.7,3.2,1.3,6.5,1.9,9.8c0.3,1.7,1,5.6,1,5.8c0.2,4.7-1.9,9.3-4.7,13
							c-15.6,20.5-41.9,10.8-61.8,3.6c-23.2-8.4-46.5-16.6-70.6-22.2c-23.9-5.5-48.6-8.4-73.2-8.3c-11.5,0-23.1,2.1-34.5,0.2
							c-6.6-1.1-13.1-2.6-19.5-4.5c-1.6-0.5-3.7,0-4.9,1.3c-4.4,4.8-10.1,9.9-17.1,9.7c-6.1-0.2-11.3-3.3-14.9-8.1
							c-1.7-2.3-4.2-3.1-6.8-1.8c-15,7.1-33.8,7.5-46.8-3.8c-10.1-8.8-15.1-24.1-8.9-36.5c1.2-2.4,0.6-5.4-1.8-6.8
							c-11.3-6.7-18.1-19.7-22.9-31.5c-5.3-13.1-8.9-27.2-9.9-41.3c-1.3-18.7,1.2-37.4,3.2-56c2.2-19.3,4.4-38.6,6.5-58
							c0.7-6.4-9.3-6.3-10,0c-2.3,20.6-4.6,41.2-7,61.8c-2.2,19.8-4.6,39.9-2.1,59.8c1.8,14.3,5.9,28.3,11.7,41.5
							c5.5,12.5,13.2,25.2,25.3,32.3c-0.6-2.3-1.2-4.6-1.8-6.8c-8.3,16.3-3.2,36.6,10.4,48.6c16.6,14.6,39.7,14.5,58.9,5.4
							c-2.3-0.6-4.6-1.2-6.8-1.8c5.5,7.4,12.7,12.2,22.1,13c10.2,0.8,19-5.4,25.6-12.5c-1.6,0.4-3.2,0.9-4.9,1.3
							c6,1.8,12.1,3.2,18.2,4.3c11,1.9,21.5,0.7,32.6,0.4c27.8-0.6,55.7,2.7,82.6,9.4c25.9,6.5,50.6,16.3,75.9,24.8
							c11.6,3.9,24,6.7,36.2,4.2c10.9-2.3,21.1-9.4,26.9-19c4.8-8,4.7-15.4,3.1-24.1c-0.7-3.8-1.4-7.7-2.3-11.5
							c-0.5-2.4-1-6.2-3.6-7.4c0,2.9,0,5.8,0,8.6c24.4-12.2,40.7-36.1,48.5-61.7c9.9-32.9,6.5-67.7,3-101.3
							c-2.1-19.8-4.1-39.7-3.6-59.7C612.1,832,602.1,832,602,838.4L602,838.4z"/>
					</g>
				</g>
				<g>
					<g>
						<g>
							<path class="st257" d="M611.4,972.6c11.7,5,24,7.9,36.5,9.4c11.6,1.4,24.5,2.2,35.8-1.3c14.6-4.5,26.6-17.4,31.1-31.9
								c-2.4,1-4.9,2-7.3,3c5.6,3.4,12.9,3.4,18.7,0.3c6.4-3.5,8.7-10.3,8.4-17.4c-0.5-9-3.8-17-6-25.6c-2.3-9.3-2.9-18.9-2.1-28.4
								c1.4-15.7,5.6-33.3-6.6-46c-10.8-11.2-27-7-35.6,4.5c2.6-0.3,5.2-0.7,7.9-1c-17.4-14.9-38.9-0.4-48.8,16
								c-3.3,5.5,5.3,10.5,8.6,5c6.2-10.1,21.2-24.2,33.1-14c2.7,2.3,5.8,1.7,7.9-1c7-9.3,18.8-7.4,23.4,2.8
								c5.3,11.6,0.6,25.3,0,37.4c-0.7,12.8,1.8,25,5.6,37.2c1.6,5.2,3.8,12.1,2.5,17.6c-1.2,5.2-7.7,6.5-11.8,4
								c-2.9-1.7-6.4,0-7.3,3c-3.4,10.8-13.4,22.1-25.5,25.3c-9.7,2.6-20.5,1.9-30.4,0.8c-11.2-1.3-22.6-3.8-33-8.2
								C610.6,961.5,605.5,970.1,611.4,972.6L611.4,972.6z"/>
						</g>
					</g>
				</g>
				<g>
					<g>
						<path class="st257" d="M679.1,860.8c-1.3,26.3,4.7,52.4,17.3,75.5c3.1,5.7,11.7,0.6,8.6-5c-11.8-21.6-17.2-45.9-16-70.5
							C689.5,854.3,679.5,854.3,679.1,860.8L679.1,860.8z"/>
					</g>
				</g>
				<g>
					<g>
						<g>
							<g>
								<path class="st259" d="M674.5,743c-12.2-17-33.3-26.4-54.3-27.1c-10.3-0.3-20.5,1.2-30.6,3.4c-69.9,15-129,66-198.6,85.9
									c-14.5-3.2-28.7-9-41.8-16.1c-23.6-12.8-44.7-29.7-67-44.7c-22.3-15-46.5-28.3-73-32.6s-55.9,1.9-74.6,21.2
									c-4.8,5-8.9,10.9-11.3,17.4c-3.2,8.7-3.3,18.4-0.8,27.2c44.3-4.6,93.4,1,134.2,18.9c24.2,10.6,46.6,24.7,70.2,36.3
									c23.7,11.6,49.4,20.6,75.8,19.8c66.3-2,117.4-64.1,183.1-73.5c32.9-4.7,60,3.3,85.7,24.4C683.6,786.2,686.7,760,674.5,743z"
									/>
							</g>
						</g>
						<g class="st1">
							<g>
								<path class="st2" d="M671.6,803.4c12-17.2,15.1-43.4,2.9-60.4c-12.2-17-33.3-26.4-54.3-27.1c-0.2,0-0.4,0-0.5,0
									c7.8,8.5,14,18.4,17.5,29.4c4,12.3,4.3,26,0.6,38.3C649.6,787.9,660.7,794.5,671.6,803.4z"/>
							</g>
						</g>
					</g>
					<g>
						<g>
							<g>
								<path d="M399.4,857.6c-22.4,0-46.2-6.5-74.6-20.3c-10.1-4.9-20-10.4-29.7-15.6c-13.1-7.1-26.6-14.5-40.4-20.6
									c-37.7-16.5-85.7-23.2-131.7-18.5c-2.4,0.2-4.6-1.3-5.3-3.6c-2.9-10.1-2.6-20.9,0.9-30.4c2.5-6.7,6.7-13.2,12.4-19.1
									c18.5-19.1,48-27.6,79-22.6c29.6,4.8,55.6,20.3,75,33.4c7.2,4.8,14.3,9.9,21.2,14.8c14.5,10.4,29.6,21.1,45.4,29.6
									c13.5,7.3,26.6,12.5,39.2,15.3c31.6-9.2,61.7-25.2,90.8-40.7c34-18.1,69.1-36.8,106.9-44.9c12.7-2.7,22.6-3.8,31.8-3.5
									c23.8,0.8,45.6,11.7,58.2,29.1c14.3,19.9,9.2,48.9-2.8,66.2c-0.8,1.1-2,1.9-3.4,2.1c-1.4,0.2-2.8-0.2-3.9-1.1
									c-24.9-20.4-50.9-27.8-81.8-23.3c-29.9,4.3-57.5,20.4-84.2,35.9c-31,18-63,36.6-99.4,37.7
									C401.8,857.6,400.6,857.6,399.4,857.6z M152.1,771.1c38,0,75.6,7.2,106.7,20.8c14.2,6.2,27.9,13.7,41.2,21
									c9.5,5.2,19.4,10.6,29.3,15.4c28.3,13.8,51.7,20,73.4,19.3c33.9-1,63.4-18.2,94.7-36.4c27.5-16,56-32.5,87.8-37.1
									c32.1-4.6,59.3,2.4,85.1,21.9c8-14.6,10.6-35.5,0.1-50.1c-10.6-14.8-29.9-24.3-50.4-25c-8.4-0.3-17.5,0.7-29.4,3.3
									c-36.5,7.8-71,26.2-104.3,43.9c-23.3,12.4-47.3,25.2-72.4,34.7c4,0,8-0.2,11.9-0.7c2.7-0.4,5.2,1.6,5.6,4.3
									c0.4,2.7-1.6,5.2-4.3,5.6c-24.7,3.2-51.7-3.1-80.2-18.5c-16.4-8.9-31.6-19.8-46.4-30.3c-6.8-4.9-13.9-9.9-21-14.7
									c-18.5-12.5-43.4-27.4-71-31.8c-27.3-4.4-54.2,3.2-70.2,19.7c-4.8,4.9-8.2,10.2-10.2,15.6c-2.3,6.2-2.8,13.3-1.6,20.1
									C135,771.5,143.5,771.1,152.1,771.1z"/>
							</g>
						</g>
					</g>
				</g>
				<g>
					<g>
						<g>
							<path class="st258" d="M101.1,804.7c9.4-13.1,19.1-25.6,33.3-33.3c5.3-2.9,10.9-5.3,16.7-6.8c13.1-3.3,30.2,0.3,41.9,7
								c11.7,6.7,20.7,18.2,24.4,31.2"/>
						</g>
						<g>
							<path class="st258" d="M584.9,795c7.8-13.4,23-21.7,38.5-22.4c15.5-0.7,30.9,5.7,42.2,16.2c6.4,5.9,10.4,15.8,13.4,26.1"/>
						</g>
						<g>
							<path class="st2" d="M688.1,841.2C688.1,841.2,688.1,841.2,688.1,841.2c-0.1-0.1-0.1-0.1-0.2-0.2
								C688,841.1,688.1,841.2,688.1,841.2z"/>
						</g>
						<g>
							<path class="st2" d="M685.2,839.1c0.3,0.2,0.6,0.4,0.9,0.6C685.8,839.5,685.5,839.3,685.2,839.1z"/>
						</g>
						<g>
							<path class="st2" d="M686.4,839.9c0.3,0.2,0.6,0.4,0.9,0.7C687,840.3,686.7,840.1,686.4,839.9z"/>
						</g>
						<g class="st1">
							<g>
								<path class="st2" d="M679,814.7c-0.1-0.3-0.2-0.6-0.3-0.9c-0.1-0.4-0.3-0.9-0.4-1.3c-0.1-0.3-0.2-0.7-0.3-1
									c-0.1-0.4-0.3-0.9-0.4-1.3c-0.1-0.3-0.2-0.6-0.3-0.9c-0.2-0.7-0.5-1.4-0.7-2.1c-0.1-0.2-0.1-0.4-0.2-0.5
									c-0.2-0.5-0.4-1.1-0.6-1.6c-0.1-0.2-0.2-0.5-0.3-0.7c-0.2-0.5-0.4-1-0.6-1.5c-0.1-0.2-0.2-0.4-0.3-0.6
									c-0.3-0.7-0.6-1.4-0.9-2c0,0,0,0,0,0c-2.2-4.6-4.8-8.6-8-11.5c-11.4-10.5-26.8-16.9-42.2-16.2c-8.9,0.4-17.8,3.4-25.2,8.4
									c1.5-0.4,3-0.7,4.5-0.8c5-0.2,9.9,1.4,14.4,3.4c11.9,5.3,22.4,13.9,30,24.5l31.8,6.7C679,814.8,679,814.8,679,814.7z"/>
							</g>
						</g>
					</g>
					<g>
						<g>
							<path class="st257" d="M94.9,829.7c2.8-13.7,12-25.4,20.8-35.8c9.4-11,20.9-20,35-23.9c25.6-7.2,54.3,9.1,62,34.2
								c1.9,6.1,11.5,3.5,9.6-2.7c-9-29.4-40.8-48.3-71.1-42c-16.3,3.4-30.7,13.7-41.5,26.1c-10.4,11.9-21.2,25.7-24.5,41.5
								C84,833.3,93.6,836,94.9,829.7L94.9,829.7z"/>
						</g>
					</g>
					<g>
						<g>
							<path class="st257" d="M589.2,797.5c13.3-21.8,42.1-24.7,62.9-12.5c9.8,5.8,15.8,13.3,19.7,23.9c3.6,9.8,5.6,20.2,8,30.3
								c1.5,6.3,11.1,3.6,9.6-2.7c-2.8-12-5.2-24.1-10-35.4c-5.3-12.4-14.4-21.2-26.5-27.1c-25.2-12.3-57.2-6.5-72.4,18.4
								C577.2,798,585.8,803,589.2,797.5L589.2,797.5z"/>
						</g>
					</g>
				</g>
				<g>
					<g>
						<g>
							<path class="st2" d="M355.3,822.9c-5.9-1.5-11.9,2.2-13.3,8.1c-4.2,17.5-6.5,35.5-7.1,53.5c-0.3,9.1-0.1,18.2,0.6,27.3
								c0.2,2.6,0.6,5.4,1.1,8.2c0.3,1.4,0.7,2.8,1.1,4.1c1,3.2,4.1,5.6,7.2,6.4c3.2,0.8,6.8,0.5,9.6-1.2c3.5-2,4.9-4.9,5.3-8.1
								c0.4-2.9,0.1-6.1-0.1-9.2c-0.7-8.5-1-16.9-1-25.4c0.1-17.2,1.6-34.3,4.6-51.2C364.5,829.8,360.9,824.3,355.3,822.9z"/>
						</g>
						<g>
							<g>
								<path class="st257" d="M356.7,818.1c-7.1-1.3-14.4,1.2-18,7.8c-2.1,3.9-2.7,8.9-3.5,13.2c-1,5.1-1.9,10.1-2.6,15.2
									c-2.8,20.1-4.2,41.2-1.6,61.4c1,7.8,2.7,15.7,10.8,18.9c7.2,2.9,16.3,0.8,20.7-5.9c4.8-7.3,2.3-17.3,1.9-25.5
									c-0.5-10.3-0.5-20.6,0-30.9c0.6-11.6,2-23.2,3.8-34.7C369.5,828.7,365.6,821,356.7,818.1c-6.1-2-8.8,7.7-2.7,9.6
									c5.1,1.6,4.7,5.7,4,10.1c-0.7,4.2-1.3,8.4-1.8,12.7c-1.1,8.8-1.8,17.7-2.1,26.6c-0.3,9.7-0.2,19.4,0.3,29.1
									c0.4,6.3,3.9,21.1-7.2,19.6c-8-1.1-7-15.8-7.2-21.8c-0.4-9.4-0.3-18.8,0.3-28.2c0.6-9.5,1.7-19,3.4-28.4
									c1-5.8,1.3-21.4,10.3-19.7C360.3,828.9,363,819.3,356.7,818.1z"/>
							</g>
						</g>
					</g>
					<g>
						<g>
							<path class="st2" d="M346.1,940.8c-3.6-0.3-7.2-1.4-10-3.6c-0.2,0.3-0.3,0.6-0.4,1c-0.7,1.9-0.7,4-0.6,6
								c0.1,1.5,0.4,3.1,0.9,4.5c2,5,6.2,7.5,11.6,7.5c2.7,0,5.5-0.6,7.5-2.3c2.3-1.9,5.1-4.9,5.1-7.9c0-2.9,0.1-6.1-1.4-8.6
								c-1,0.8-2.2,1.5-3.4,2.1C352.5,940.7,349.2,941,346.1,940.8z"/>
						</g>
						<g>
							<g>
								<path class="st257" d="M346.1,935.8c-2.8-0.3-5.2-1.3-7.5-2.9c-2-1.4-5.8-0.5-6.8,1.8c-5.2,11.8,1.7,25.9,15.1,26.5
									c14.2,0.6,22.3-14,16.2-26.2c-1.1-2.2-4.8-3.3-6.8-1.8C353.1,935.5,350,936,346.1,935.8c-6.4-0.3-6.4,9.7,0,10
									c5.4,0.3,10.8-0.7,15.2-4c-2.3-0.6-4.6-1.2-6.8-1.8c2.8,5.6-1.3,11.6-7.5,11.2c-5.3-0.4-8.7-6.5-6.5-11.5
									c-2.3,0.6-4.6,1.2-6.8,1.8c3.8,2.7,8,3.8,12.5,4.3C352.5,946.5,352.4,936.5,346.1,935.8z"/>
							</g>
						</g>
					</g>
					<g>
						<g>
							<path class="st2" d="M360,921.3c-0.5,3.2-1.9,6.1-5.3,8.1c-2.9,1.7-6.4,2-9.6,1.2c-3.2-0.8-6.2-3.2-7.2-6.4
								c-0.4-1.3-0.8-2.7-1.1-4.1c-0.4,0.3-0.8,0.5-1.2,0.8l-1.3,1.9c-3.2,3.2-2.9,8.9-0.1,12.4c0.6,0.7,1.3,1.4,2,2
								c2.8,2.2,6.4,3.3,10,3.6c3.1,0.3,6.4,0,9.3-1.3c1.2-0.5,2.4-1.2,3.4-2.1c1.4-1.2,2.6-2.6,3.3-4.3
								C363.7,929.2,362.7,924.5,360,921.3z"/>
						</g>
						<g>
							<g>
								<path class="st257" d="M355.1,920c-0.7,3.7-2.8,6.1-6.9,6c-4.6-0.1-5.9-3.3-6.8-7.3c-0.7-3-4.7-4.8-7.3-3
									c-5,3.5-8.2,9.7-7,15.8c1.5,7.9,8.6,12.6,16.1,13.9c7.5,1.3,15.9-0.3,21-6.4c4.9-5.9,4.5-14.3,0.1-20.3
									c-3.8-5.1-12.5-0.1-8.6,5c6,8.1-2.7,13-10.4,11.8c-3.4-0.5-7.7-2.2-8.3-6.1c-0.3-1.9,0.5-2.8,1.5-4.2c0.5-0.7,2-1.8,0.7-0.9
									c-2.4-1-4.9-2-7.3-3c1.9,8.4,7.3,14.5,16.4,14.6c8.1,0.1,15-5.4,16.5-13.3C366,916.3,356.4,913.6,355.1,920z"/>
							</g>
						</g>
					</g>
					<g>
						<g>
							<g>
								<path class="st2" d="M437.6,822.7c6.1-0.5,9.7,4.4,11.9,10.1c6,15.3,9.4,38.8,7.1,56.6c-1.2,9-2.8,18-4.9,26.9
									c-0.6,2.6-1.4,5.3-2.4,7.9c-0.5,1.4-1.1,2.7-1.7,3.9c-1.5,3-4.9,4.9-8.2,5.2c-3.3,0.3-6.8-0.6-9.3-2.7c-3.1-2.5-4-5.6-4-8.8
									c0-3,0.8-6.1,1.6-9.1c2-8.2,3.7-16.6,5-25c2.6-17-1.4-34.7-5-54C426.5,828.1,431.9,823.2,437.6,822.7z"/>
							</g>
							<g>
								<g>
									<path class="st257" d="M437.6,827.7c6.1-0.1,8,8.4,9.4,13c1.9,6.3,3.3,12.8,4.2,19.3c2,14.7,0.9,29-1.8,43.5
										c-1.3,7-2.4,15.1-5.8,21.4c-1.7,3.1-5.1,4.1-8.4,2.8c-4.1-1.6-4.3-5.4-3.7-9.2c2.6-15.5,7.6-30.3,6.9-46.3
										c-0.3-8.3-1.6-16.5-3.1-24.7c-0.8-4.6-2.3-9.5-2.7-14.1c-0.3-3.8,2.9-5.4,6.3-5.9c6.3-0.9,3.6-10.6-2.7-9.6
										c-7.5,1.1-14.1,7.3-13.7,15.2c0.2,5.1,1.9,10.3,2.8,15.2c1,5.3,1.9,10.6,2.5,16c1.2,10.8,0.4,21.1-1.6,31.8
										c-1,5.1-2.1,10.2-3.3,15.3c-1.1,4.7-2.4,9.7-1.3,14.5c1.9,8.1,9.9,13,17.9,12.4c9.6-0.6,13.5-8.5,16-16.7
										c5.7-18.8,8.2-39.5,6-59c-1.1-9.7-2.9-19.4-6.2-28.6c-3-8.3-7.8-16.5-17.7-16.3C431.2,817.9,431.1,827.9,437.6,827.7z"/>
								</g>
							</g>
						</g>
						<g>
							<g>
								<path class="st2" d="M436.7,943.2c3.6,0.3,7.4-0.3,10.4-2c0.1,0.3,0.2,0.7,0.3,1c0.4,2,0.1,4-0.4,6c-0.4,1.5-0.8,3-1.6,4.3
									c-2.8,4.6-7.3,6.4-12.6,5.6c-2.6-0.4-5.3-1.5-7.1-3.4c-2-2.2-4.2-5.7-3.7-8.6c0.5-2.9,0.9-6.1,2.8-8.2c0.9,1,1.9,1.9,3,2.6
									C430.4,942.2,433.5,943,436.7,943.2z"/>
							</g>
							<g>
								<g>
									<path class="st257" d="M436.7,948.2c4.6,0.2,8.8-0.6,13-2.7c-2.4-1-4.9-2-7.3-3c1.4,5.4-2.4,11.3-8.1,10.8
										c-7-0.6-8.9-7.8-5.2-12.9c-2.6,0.3-5.2,0.7-7.9,1C425.4,945.9,430.7,947.6,436.7,948.2c6.4,0.7,6.3-9.3,0-10
										c-3.3-0.4-6.1-1.4-8.4-3.8c-2.4-2.5-6-1.5-7.9,1c-8,11.1-0.9,26.1,12.4,27.8c12.9,1.6,22.4-11,19.2-23.3
										c-0.9-3.3-4.5-4.4-7.3-3c-2.6,1.3-5.1,1.4-7.9,1.3C430.2,937.9,430.3,948,436.7,948.2z"/>
								</g>
							</g>
						</g>
						<g>
							<g>
								<path class="st2" d="M426.1,921.8c0,3.2,0.9,6.3,4,8.8c2.6,2.1,6,2.9,9.3,2.7c3.2-0.3,6.7-2.2,8.2-5.2
									c0.6-1.2,1.2-2.6,1.7-3.9c0.4,0.3,0.7,0.7,1.1,1l1,2.1c2.7,3.6,1.5,9.2-1.9,12.3c-0.7,0.6-1.5,1.2-2.3,1.6
									c-3.1,1.7-6.9,2.3-10.4,2c-3.1-0.2-6.3-1-9-2.7c-1.1-0.7-2.1-1.6-3-2.6c-1.2-1.4-2.1-3-2.6-4.8
									C421.1,929.1,422.9,924.6,426.1,921.8z"/>
							</g>
							<g>
								<g>
									<path class="st257" d="M421.1,921.8c0.3,8.6,6.1,15.3,14.8,16.4c9.4,1.1,15-4.5,18.2-12.6c-2.8,0.7-5.6,1.5-8.4,2.2
										c5.8,5.6-1.9,10.6-7.5,10.5c-7.1,0-15.7-6-8.6-13c4.6-4.5-2.5-11.6-7.1-7.1c-5.3,5.2-7.5,13.2-3.7,20
										c3.9,6.9,11.8,10,19.4,10.1c7.6,0.1,15.5-3.3,18.4-10.7c2.3-5.8,0.6-12.7-3.8-16.9c-2.9-2.8-7-1.2-8.4,2.2
										c-1.4,3.4-3.1,5.8-7.2,5.4c-3.7-0.4-6-2.8-6.2-6.5C430.8,915.4,420.8,915.4,421.1,921.8z"/>
								</g>
							</g>
						</g>
					</g>
				</g>
			</g>
		</g>
	</g>
</g>
</svg>
