<?xml version="1.0" encoding="utf-8"?>
<!-- Generator: Adobe Illustrator 27.1.1, SVG Export Plug-In . SVG Version: 6.00 Build 0)  -->
<svg version="1.1" xmlns="http://www.w3.org/2000/svg" xmlns:xlink="http://www.w3.org/1999/xlink" x="0px" y="0px"
	 viewBox="0 0 825.9 1062.9" style="enable-background:new 0 0 825.9 1062.9;" xml:space="preserve">
<style type="text/css">
	.st0{fill:#00B7F2;}
	.st1{opacity:0.6;}
	.st2{fill:#FFFFFF;}
	.st3{fill:#F56885;}
	.st4{fill:#68D093;}
	.st5{fill:#215ED5;}
	.st6{fill:#E8370A;}
	.st7{opacity:0.4;}
	.st8{fill:#FBC3CE;}
	.st9{fill:none;stroke:#000000;stroke-width:10;stroke-linecap:round;stroke-miterlimit:10;}
	.st10{fill:#FFDA96;}
	.st11{fill:#FFDA5D;}
	.st12{fill:#FFB82E;}
	.st13{fill:#D6BDA7;}
	.st14{fill:#231815;}
	.st15{clip-path:url(#SVGID_00000150100754078896428510000000229505286097662650_);fill:#FFFFFF;}
	.st16{clip-path:url(#SVGID_00000150100754078896428510000000229505286097662650_);fill:#FFFFFE;}
	.st17{clip-path:url(#SVGID_00000150100754078896428510000000229505286097662650_);fill:#FFFFFD;}
	.st18{clip-path:url(#SVGID_00000150100754078896428510000000229505286097662650_);fill:#FFFEFC;}
	.st19{clip-path:url(#SVGID_00000150100754078896428510000000229505286097662650_);fill:#FFFEFB;}
	.st20{clip-path:url(#SVGID_00000150100754078896428510000000229505286097662650_);fill:#FFFEFA;}
	.st21{clip-path:url(#SVGID_00000150100754078896428510000000229505286097662650_);fill:#FFFEF9;}
	.st22{clip-path:url(#SVGID_00000150100754078896428510000000229505286097662650_);fill:#FFFDF8;}
	.st23{clip-path:url(#SVGID_00000150100754078896428510000000229505286097662650_);fill:#FFFDF7;}
	.st24{clip-path:url(#SVGID_00000150100754078896428510000000229505286097662650_);fill:#FFFDF6;}
	.st25{clip-path:url(#SVGID_00000150100754078896428510000000229505286097662650_);fill:#FFFDF5;}
	.st26{clip-path:url(#SVGID_00000150100754078896428510000000229505286097662650_);fill:#FFFDF4;}
	.st27{clip-path:url(#SVGID_00000150100754078896428510000000229505286097662650_);fill:#FFFCF3;}
	.st28{clip-path:url(#SVGID_00000150100754078896428510000000229505286097662650_);fill:#FFFCF2;}
	.st29{clip-path:url(#SVGID_00000150100754078896428510000000229505286097662650_);fill:#FFFCF1;}
	.st30{clip-path:url(#SVGID_00000150100754078896428510000000229505286097662650_);fill:#FFFCF0;}
	.st31{clip-path:url(#SVGID_00000150100754078896428510000000229505286097662650_);fill:#FFFBEF;}
	.st32{clip-path:url(#SVGID_00000150100754078896428510000000229505286097662650_);fill:#FFFBEE;}
	.st33{clip-path:url(#SVGID_00000150100754078896428510000000229505286097662650_);fill:#FFFBED;}
	.st34{clip-path:url(#SVGID_00000150100754078896428510000000229505286097662650_);fill:#FFFBEC;}
	.st35{clip-path:url(#SVGID_00000150100754078896428510000000229505286097662650_);fill:#FFFBEB;}
	.st36{clip-path:url(#SVGID_00000150100754078896428510000000229505286097662650_);fill:#FFFAEA;}
	.st37{clip-path:url(#SVGID_00000150100754078896428510000000229505286097662650_);fill:#FFFAE9;}
	.st38{clip-path:url(#SVGID_00000150100754078896428510000000229505286097662650_);fill:#FFFAE8;}
	.st39{clip-path:url(#SVGID_00000150100754078896428510000000229505286097662650_);fill:#FFFAE7;}
	.st40{clip-path:url(#SVGID_00000150100754078896428510000000229505286097662650_);fill:#FFF9E6;}
	.st41{clip-path:url(#SVGID_00000150100754078896428510000000229505286097662650_);fill:#FFF9E5;}
	.st42{clip-path:url(#SVGID_00000150100754078896428510000000229505286097662650_);fill:#FFF9E4;}
	.st43{clip-path:url(#SVGID_00000150100754078896428510000000229505286097662650_);fill:#FFF9E3;}
	.st44{clip-path:url(#SVGID_00000150100754078896428510000000229505286097662650_);fill:#FFF9E2;}
	.st45{clip-path:url(#SVGID_00000150100754078896428510000000229505286097662650_);fill:#FFF8E1;}
	.st46{clip-path:url(#SVGID_00000150100754078896428510000000229505286097662650_);fill:#FFF8E0;}
	.st47{clip-path:url(#SVGID_00000150100754078896428510000000229505286097662650_);fill:#FFF8DF;}
	.st48{clip-path:url(#SVGID_00000150100754078896428510000000229505286097662650_);fill:#FFF8DE;}
	.st49{clip-path:url(#SVGID_00000150100754078896428510000000229505286097662650_);fill:#FFF7DD;}
	.st50{clip-path:url(#SVGID_00000150100754078896428510000000229505286097662650_);fill:#FFF7DC;}
	.st51{clip-path:url(#SVGID_00000150100754078896428510000000229505286097662650_);fill:#FFF7DB;}
	.st52{clip-path:url(#SVGID_00000150100754078896428510000000229505286097662650_);fill:#FFF7DA;}
	.st53{clip-path:url(#SVGID_00000150100754078896428510000000229505286097662650_);fill:#FFF7D9;}
	.st54{clip-path:url(#SVGID_00000150100754078896428510000000229505286097662650_);fill:#FFF6D8;}
	.st55{clip-path:url(#SVGID_00000150100754078896428510000000229505286097662650_);fill:#FFF6D7;}
	.st56{clip-path:url(#SVGID_00000150100754078896428510000000229505286097662650_);fill:#FFF6D6;}
	.st57{clip-path:url(#SVGID_00000150100754078896428510000000229505286097662650_);fill:#FFF6D5;}
	.st58{clip-path:url(#SVGID_00000150100754078896428510000000229505286097662650_);fill:#FFF5D4;}
	.st59{clip-path:url(#SVGID_00000150100754078896428510000000229505286097662650_);fill:#FFF5D3;}
	.st60{clip-path:url(#SVGID_00000150100754078896428510000000229505286097662650_);fill:#FFF5D2;}
	.st61{clip-path:url(#SVGID_00000150100754078896428510000000229505286097662650_);fill:#FFF5D1;}
	.st62{clip-path:url(#SVGID_00000150100754078896428510000000229505286097662650_);fill:#FFF5D0;}
	.st63{clip-path:url(#SVGID_00000150100754078896428510000000229505286097662650_);fill:#FFF4CF;}
	.st64{clip-path:url(#SVGID_00000150100754078896428510000000229505286097662650_);fill:#FFF4CE;}
	.st65{clip-path:url(#SVGID_00000150100754078896428510000000229505286097662650_);fill:#FFF4CD;}
	.st66{clip-path:url(#SVGID_00000150100754078896428510000000229505286097662650_);fill:#FFF4CC;}
	.st67{clip-path:url(#SVGID_00000150100754078896428510000000229505286097662650_);fill:#FFF3CB;}
	.st68{clip-path:url(#SVGID_00000150100754078896428510000000229505286097662650_);fill:#FFF3CA;}
	.st69{clip-path:url(#SVGID_00000150100754078896428510000000229505286097662650_);fill:#FFF3C9;}
	.st70{clip-path:url(#SVGID_00000150100754078896428510000000229505286097662650_);fill:#FFF3C8;}
	.st71{clip-path:url(#SVGID_00000150100754078896428510000000229505286097662650_);fill:#FFF3C7;}
	.st72{clip-path:url(#SVGID_00000150100754078896428510000000229505286097662650_);fill:#FFF2C6;}
	.st73{clip-path:url(#SVGID_00000150100754078896428510000000229505286097662650_);fill:#FFF2C5;}
	.st74{clip-path:url(#SVGID_00000150100754078896428510000000229505286097662650_);fill:#FFF2C4;}
	.st75{clip-path:url(#SVGID_00000150100754078896428510000000229505286097662650_);fill:#FFF2C3;}
	.st76{clip-path:url(#SVGID_00000150100754078896428510000000229505286097662650_);fill:#FFF1C2;}
	.st77{clip-path:url(#SVGID_00000150100754078896428510000000229505286097662650_);fill:#FFF1C1;}
	.st78{clip-path:url(#SVGID_00000150100754078896428510000000229505286097662650_);fill:#FFF1C0;}
	.st79{clip-path:url(#SVGID_00000150100754078896428510000000229505286097662650_);fill:#FFF1BF;}
	.st80{clip-path:url(#SVGID_00000150100754078896428510000000229505286097662650_);fill:#FFF1BE;}
	.st81{clip-path:url(#SVGID_00000150100754078896428510000000229505286097662650_);fill:#FFF0BD;}
	.st82{clip-path:url(#SVGID_00000150100754078896428510000000229505286097662650_);fill:#FFF0BC;}
	.st83{clip-path:url(#SVGID_00000150100754078896428510000000229505286097662650_);fill:#FFF0BB;}
	.st84{clip-path:url(#SVGID_00000150100754078896428510000000229505286097662650_);fill:#FFF0BA;}
	.st85{clip-path:url(#SVGID_00000150100754078896428510000000229505286097662650_);fill:#FFEFB9;}
	.st86{clip-path:url(#SVGID_00000150100754078896428510000000229505286097662650_);fill:#FFEFB8;}
	.st87{clip-path:url(#SVGID_00000150100754078896428510000000229505286097662650_);fill:#FFEFB7;}
	.st88{clip-path:url(#SVGID_00000150100754078896428510000000229505286097662650_);fill:#FFEFB6;}
	.st89{clip-path:url(#SVGID_00000150100754078896428510000000229505286097662650_);fill:#FFEFB5;}
	.st90{clip-path:url(#SVGID_00000150100754078896428510000000229505286097662650_);fill:#FFEEB4;}
	.st91{clip-path:url(#SVGID_00000150100754078896428510000000229505286097662650_);fill:#FFEEB3;}
	.st92{clip-path:url(#SVGID_00000150100754078896428510000000229505286097662650_);fill:#FFEEB2;}
	.st93{clip-path:url(#SVGID_00000150100754078896428510000000229505286097662650_);fill:#FFEEB1;}
	.st94{clip-path:url(#SVGID_00000150100754078896428510000000229505286097662650_);fill:#FFEDB0;}
	.st95{clip-path:url(#SVGID_00000150100754078896428510000000229505286097662650_);fill:#FFEDAF;}
	.st96{clip-path:url(#SVGID_00000150100754078896428510000000229505286097662650_);fill:#FFEDAE;}
	.st97{clip-path:url(#SVGID_00000150100754078896428510000000229505286097662650_);fill:#FFEDAD;}
	.st98{clip-path:url(#SVGID_00000150100754078896428510000000229505286097662650_);fill:#FFEDAC;}
	.st99{clip-path:url(#SVGID_00000150100754078896428510000000229505286097662650_);fill:#FFECAB;}
	.st100{clip-path:url(#SVGID_00000150100754078896428510000000229505286097662650_);fill:#FFECAA;}
	.st101{clip-path:url(#SVGID_00000150100754078896428510000000229505286097662650_);fill:#FFECA9;}
	.st102{clip-path:url(#SVGID_00000150100754078896428510000000229505286097662650_);fill:#FFECA8;}
	.st103{clip-path:url(#SVGID_00000150100754078896428510000000229505286097662650_);fill:#FFEBA7;}
	.st104{clip-path:url(#SVGID_00000150100754078896428510000000229505286097662650_);fill:#FFEBA6;}
	.st105{clip-path:url(#SVGID_00000150100754078896428510000000229505286097662650_);fill:#FFEBA5;}
	.st106{clip-path:url(#SVGID_00000150100754078896428510000000229505286097662650_);fill:#FFEBA4;}
	.st107{clip-path:url(#SVGID_00000150100754078896428510000000229505286097662650_);fill:#FFEBA3;}
	.st108{clip-path:url(#SVGID_00000150100754078896428510000000229505286097662650_);fill:#FFEAA2;}
	.st109{clip-path:url(#SVGID_00000150100754078896428510000000229505286097662650_);fill:#FFEAA1;}
	.st110{clip-path:url(#SVGID_00000150100754078896428510000000229505286097662650_);fill:#FFEAA0;}
	.st111{clip-path:url(#SVGID_00000150100754078896428510000000229505286097662650_);fill:#FFEA9F;}
	.st112{clip-path:url(#SVGID_00000150100754078896428510000000229505286097662650_);fill:#FFE99E;}
	.st113{clip-path:url(#SVGID_00000150100754078896428510000000229505286097662650_);fill:#FFE99D;}
	.st114{clip-path:url(#SVGID_00000150100754078896428510000000229505286097662650_);fill:#FFE99C;}
	.st115{clip-path:url(#SVGID_00000150100754078896428510000000229505286097662650_);fill:#FFE99B;}
	.st116{clip-path:url(#SVGID_00000150100754078896428510000000229505286097662650_);fill:#FFE99A;}
	.st117{clip-path:url(#SVGID_00000150100754078896428510000000229505286097662650_);fill:#FFE899;}
	.st118{clip-path:url(#SVGID_00000150100754078896428510000000229505286097662650_);fill:#FFE898;}
	.st119{clip-path:url(#SVGID_00000150100754078896428510000000229505286097662650_);fill:#FFE897;}
	.st120{clip-path:url(#SVGID_00000150100754078896428510000000229505286097662650_);fill:#FFE896;}
	.st121{clip-path:url(#SVGID_00000150100754078896428510000000229505286097662650_);fill:#FFE795;}
	.st122{clip-path:url(#SVGID_00000150100754078896428510000000229505286097662650_);fill:#FFE794;}
	.st123{clip-path:url(#SVGID_00000150100754078896428510000000229505286097662650_);fill:#FFE793;}
	.st124{clip-path:url(#SVGID_00000150100754078896428510000000229505286097662650_);fill:#FFE792;}
	.st125{clip-path:url(#SVGID_00000150100754078896428510000000229505286097662650_);fill:#FFE791;}
	.st126{clip-path:url(#SVGID_00000150100754078896428510000000229505286097662650_);fill:#FFE690;}
	.st127{clip-path:url(#SVGID_00000150100754078896428510000000229505286097662650_);fill:#FFE68F;}
	.st128{clip-path:url(#SVGID_00000150100754078896428510000000229505286097662650_);fill:#FFE68E;}
	.st129{clip-path:url(#SVGID_00000150100754078896428510000000229505286097662650_);fill:#FFE68D;}
	.st130{clip-path:url(#SVGID_00000150100754078896428510000000229505286097662650_);fill:#FFE68C;}
	.st131{clip-path:url(#SVGID_00000150100754078896428510000000229505286097662650_);fill:#FFE58A;}
	.st132{clip-path:url(#SVGID_00000150100754078896428510000000229505286097662650_);fill:#FFE589;}
	.st133{clip-path:url(#SVGID_00000150100754078896428510000000229505286097662650_);fill:#FFE588;}
	.st134{clip-path:url(#SVGID_00000150100754078896428510000000229505286097662650_);fill:#FFE587;}
	.st135{clip-path:url(#SVGID_00000150100754078896428510000000229505286097662650_);fill:#FFE486;}
	.st136{clip-path:url(#SVGID_00000150100754078896428510000000229505286097662650_);fill:#FFE485;}
	.st137{clip-path:url(#SVGID_00000150100754078896428510000000229505286097662650_);fill:#FFE484;}
	.st138{clip-path:url(#SVGID_00000150100754078896428510000000229505286097662650_);fill:#FFE483;}
	.st139{clip-path:url(#SVGID_00000150100754078896428510000000229505286097662650_);fill:#FFE482;}
	.st140{clip-path:url(#SVGID_00000150100754078896428510000000229505286097662650_);fill:#FFE381;}
	.st141{clip-path:url(#SVGID_00000150100754078896428510000000229505286097662650_);fill:#FFE380;}
	.st142{clip-path:url(#SVGID_00000150100754078896428510000000229505286097662650_);fill:#FFE37F;}
	.st143{clip-path:url(#SVGID_00000150100754078896428510000000229505286097662650_);fill:#FFE37E;}
	.st144{clip-path:url(#SVGID_00000150100754078896428510000000229505286097662650_);fill:#FFE27D;}
	.st145{clip-path:url(#SVGID_00000150100754078896428510000000229505286097662650_);fill:#FFE27C;}
	.st146{clip-path:url(#SVGID_00000150100754078896428510000000229505286097662650_);fill:#FFE27B;}
	.st147{clip-path:url(#SVGID_00000150100754078896428510000000229505286097662650_);fill:#FFE27A;}
	.st148{clip-path:url(#SVGID_00000150100754078896428510000000229505286097662650_);fill:#FFE279;}
	.st149{clip-path:url(#SVGID_00000150100754078896428510000000229505286097662650_);fill:#FFE178;}
	.st150{clip-path:url(#SVGID_00000150100754078896428510000000229505286097662650_);fill:#FFE177;}
	.st151{clip-path:url(#SVGID_00000150100754078896428510000000229505286097662650_);fill:#FFE176;}
	.st152{clip-path:url(#SVGID_00000150100754078896428510000000229505286097662650_);fill:#FFE175;}
	.st153{clip-path:url(#SVGID_00000150100754078896428510000000229505286097662650_);fill:#FFE074;}
	.st154{clip-path:url(#SVGID_00000150100754078896428510000000229505286097662650_);fill:#FFE073;}
	.st155{clip-path:url(#SVGID_00000150100754078896428510000000229505286097662650_);fill:#FFE072;}
	.st156{clip-path:url(#SVGID_00000150100754078896428510000000229505286097662650_);fill:#FFE071;}
	.st157{clip-path:url(#SVGID_00000150100754078896428510000000229505286097662650_);fill:#FFE070;}
	.st158{clip-path:url(#SVGID_00000150100754078896428510000000229505286097662650_);fill:#FFDF6F;}
	.st159{clip-path:url(#SVGID_00000150100754078896428510000000229505286097662650_);fill:#FFDF6E;}
	.st160{clip-path:url(#SVGID_00000150100754078896428510000000229505286097662650_);fill:#FFDF6D;}
	.st161{clip-path:url(#SVGID_00000150100754078896428510000000229505286097662650_);fill:#FFDF6C;}
	.st162{clip-path:url(#SVGID_00000150100754078896428510000000229505286097662650_);fill:#FFDE6B;}
	.st163{clip-path:url(#SVGID_00000150100754078896428510000000229505286097662650_);fill:#FFDE6A;}
	.st164{clip-path:url(#SVGID_00000150100754078896428510000000229505286097662650_);fill:#FFDE69;}
	.st165{clip-path:url(#SVGID_00000150100754078896428510000000229505286097662650_);fill:#FFDE68;}
	.st166{clip-path:url(#SVGID_00000150100754078896428510000000229505286097662650_);fill:#FFDE67;}
	.st167{clip-path:url(#SVGID_00000150100754078896428510000000229505286097662650_);fill:#FFDD66;}
	.st168{clip-path:url(#SVGID_00000150100754078896428510000000229505286097662650_);fill:#FFDD65;}
	.st169{clip-path:url(#SVGID_00000150100754078896428510000000229505286097662650_);fill:#FFDD64;}
	.st170{clip-path:url(#SVGID_00000150100754078896428510000000229505286097662650_);fill:#FFDD63;}
	.st171{clip-path:url(#SVGID_00000150100754078896428510000000229505286097662650_);fill:#FFDC62;}
	.st172{clip-path:url(#SVGID_00000150100754078896428510000000229505286097662650_);fill:#FFDC61;}
	.st173{clip-path:url(#SVGID_00000150100754078896428510000000229505286097662650_);fill:#FFDC60;}
	.st174{clip-path:url(#SVGID_00000150100754078896428510000000229505286097662650_);fill:#FFDC5F;}
	.st175{clip-path:url(#SVGID_00000150100754078896428510000000229505286097662650_);fill:#FFDC5E;}
	.st176{clip-path:url(#SVGID_00000150100754078896428510000000229505286097662650_);fill:#FFDB5D;}
	.st177{clip-path:url(#SVGID_00000150100754078896428510000000229505286097662650_);fill:#FFDB5C;}
	.st178{clip-path:url(#SVGID_00000150100754078896428510000000229505286097662650_);fill:#FFDB5B;}
	.st179{clip-path:url(#SVGID_00000150100754078896428510000000229505286097662650_);fill:#FFDB5A;}
	.st180{clip-path:url(#SVGID_00000150100754078896428510000000229505286097662650_);fill:#FFDA59;}
	.st181{clip-path:url(#SVGID_00000150100754078896428510000000229505286097662650_);fill:#FFDA58;}
	.st182{clip-path:url(#SVGID_00000150100754078896428510000000229505286097662650_);fill:#FFDA57;}
	.st183{clip-path:url(#SVGID_00000150100754078896428510000000229505286097662650_);fill:#FFDA56;}
	.st184{clip-path:url(#SVGID_00000150100754078896428510000000229505286097662650_);fill:#FFDA55;}
	.st185{clip-path:url(#SVGID_00000150100754078896428510000000229505286097662650_);fill:#FFD954;}
	.st186{clip-path:url(#SVGID_00000150100754078896428510000000229505286097662650_);fill:#FFD953;}
	.st187{clip-path:url(#SVGID_00000150100754078896428510000000229505286097662650_);fill:#FFD952;}
	.st188{clip-path:url(#SVGID_00000150100754078896428510000000229505286097662650_);fill:#FFD951;}
	.st189{clip-path:url(#SVGID_00000150100754078896428510000000229505286097662650_);fill:#FFD850;}
	.st190{clip-path:url(#SVGID_00000150100754078896428510000000229505286097662650_);fill:#FFD84F;}
	.st191{clip-path:url(#SVGID_00000150100754078896428510000000229505286097662650_);fill:#FFD84E;}
	.st192{clip-path:url(#SVGID_00000150100754078896428510000000229505286097662650_);fill:#FFD84D;}
	.st193{clip-path:url(#SVGID_00000150100754078896428510000000229505286097662650_);fill:#FFD84C;}
	.st194{clip-path:url(#SVGID_00000150100754078896428510000000229505286097662650_);fill:#FFD74B;}
	.st195{clip-path:url(#SVGID_00000150100754078896428510000000229505286097662650_);fill:#FFD74A;}
	.st196{clip-path:url(#SVGID_00000150100754078896428510000000229505286097662650_);fill:#FFD749;}
	.st197{clip-path:url(#SVGID_00000150100754078896428510000000229505286097662650_);fill:#FFD748;}
	.st198{clip-path:url(#SVGID_00000150100754078896428510000000229505286097662650_);fill:#FFD647;}
	.st199{clip-path:url(#SVGID_00000150100754078896428510000000229505286097662650_);fill:#FFD646;}
	.st200{clip-path:url(#SVGID_00000150100754078896428510000000229505286097662650_);fill:#FFD645;}
	.st201{clip-path:url(#SVGID_00000150100754078896428510000000229505286097662650_);fill:#FFD644;}
	.st202{clip-path:url(#SVGID_00000150100754078896428510000000229505286097662650_);fill:#FFD643;}
	.st203{clip-path:url(#SVGID_00000150100754078896428510000000229505286097662650_);fill:#FFD542;}
	.st204{clip-path:url(#SVGID_00000150100754078896428510000000229505286097662650_);fill:#FFD541;}
	.st205{clip-path:url(#SVGID_00000150100754078896428510000000229505286097662650_);fill:#FFD540;}
	.st206{clip-path:url(#SVGID_00000150100754078896428510000000229505286097662650_);fill:#FFD53F;}
	.st207{clip-path:url(#SVGID_00000150100754078896428510000000229505286097662650_);fill:#FFD43E;}
	.st208{clip-path:url(#SVGID_00000150100754078896428510000000229505286097662650_);fill:#FFD43D;}
	.st209{clip-path:url(#SVGID_00000150100754078896428510000000229505286097662650_);fill:#FFD43C;}
	.st210{clip-path:url(#SVGID_00000150100754078896428510000000229505286097662650_);fill:#FFD43B;}
	.st211{clip-path:url(#SVGID_00000150100754078896428510000000229505286097662650_);fill:#FFD43A;}
	.st212{clip-path:url(#SVGID_00000150100754078896428510000000229505286097662650_);fill:#FFD339;}
	.st213{clip-path:url(#SVGID_00000150100754078896428510000000229505286097662650_);fill:#FFD338;}
	.st214{clip-path:url(#SVGID_00000150100754078896428510000000229505286097662650_);fill:#FFD337;}
	.st215{clip-path:url(#SVGID_00000150100754078896428510000000229505286097662650_);fill:#FFD336;}
	.st216{clip-path:url(#SVGID_00000150100754078896428510000000229505286097662650_);fill:#FFD235;}
	.st217{clip-path:url(#SVGID_00000150100754078896428510000000229505286097662650_);fill:#FFD234;}
	.st218{clip-path:url(#SVGID_00000150100754078896428510000000229505286097662650_);fill:#FFD233;}
	.st219{clip-path:url(#SVGID_00000150100754078896428510000000229505286097662650_);fill:#FFD232;}
	.st220{clip-path:url(#SVGID_00000150100754078896428510000000229505286097662650_);fill:#FFD231;}
	.st221{clip-path:url(#SVGID_00000150100754078896428510000000229505286097662650_);fill:#FFD130;}
	.st222{clip-path:url(#SVGID_00000150100754078896428510000000229505286097662650_);fill:#FFD12F;}
	.st223{clip-path:url(#SVGID_00000150100754078896428510000000229505286097662650_);fill:#FFD12E;}
	.st224{clip-path:url(#SVGID_00000150100754078896428510000000229505286097662650_);fill:#FFD12D;}
	.st225{clip-path:url(#SVGID_00000150100754078896428510000000229505286097662650_);fill:#FFD02C;}
	.st226{clip-path:url(#SVGID_00000150100754078896428510000000229505286097662650_);fill:#FFD02B;}
	.st227{clip-path:url(#SVGID_00000150100754078896428510000000229505286097662650_);fill:#FFD02A;}
	.st228{clip-path:url(#SVGID_00000150100754078896428510000000229505286097662650_);fill:#FFD029;}
	.st229{clip-path:url(#SVGID_00000150100754078896428510000000229505286097662650_);fill:#FFD028;}
	.st230{clip-path:url(#SVGID_00000150100754078896428510000000229505286097662650_);fill:#FFCF27;}
	.st231{clip-path:url(#SVGID_00000150100754078896428510000000229505286097662650_);fill:#FFCF26;}
	.st232{clip-path:url(#SVGID_00000150100754078896428510000000229505286097662650_);fill:#FFCF25;}
	.st233{clip-path:url(#SVGID_00000150100754078896428510000000229505286097662650_);fill:#FFCF24;}
	.st234{clip-path:url(#SVGID_00000150100754078896428510000000229505286097662650_);fill:#FFCE23;}
	.st235{clip-path:url(#SVGID_00000150100754078896428510000000229505286097662650_);fill:#FFCE22;}
	.st236{clip-path:url(#SVGID_00000150100754078896428510000000229505286097662650_);fill:#FFCE21;}
	.st237{clip-path:url(#SVGID_00000150100754078896428510000000229505286097662650_);fill:#FFCE20;}
	.st238{clip-path:url(#SVGID_00000150100754078896428510000000229505286097662650_);fill:#FFCE1F;}
	.st239{clip-path:url(#SVGID_00000150100754078896428510000000229505286097662650_);fill:#FFCD1E;}
	.st240{clip-path:url(#SVGID_00000150100754078896428510000000229505286097662650_);fill:#FFCD1D;}
	.st241{clip-path:url(#SVGID_00000150100754078896428510000000229505286097662650_);fill:#FFCD1C;}
	.st242{clip-path:url(#SVGID_00000150100754078896428510000000229505286097662650_);fill:#FFCD1B;}
	.st243{clip-path:url(#SVGID_00000150100754078896428510000000229505286097662650_);fill:#FFCC1A;}
	.st244{clip-path:url(#SVGID_00000150100754078896428510000000229505286097662650_);fill:#FFCC19;}
	.st245{clip-path:url(#SVGID_00000150100754078896428510000000229505286097662650_);fill:#FFCC18;}
	.st246{fill:#584B42;}
	.st247{fill:#DEC3A6;}
	.st248{fill:#FFEAB9;}
	.st249{fill:#BEF9FF;}
	.st250{fill:#FFCC18;}
	.st251{fill:#B973FA;}
	.st252{fill:#E285B5;}
	.st253{fill:#ACACAC;}
	.st254{fill:#D4D4D4;}
	.st255{fill:#FEE63C;}
	.st256{fill:#FFAB30;}
	.st257{fill:#1C1C1C;}
	.st258{fill:#B3E7C9;}
	.st259{fill:#66CC99;}
	.st260{fill:#F9EB67;}
	.st261{fill:#F7A631;}
	.st262{fill:#4ED18B;}
	.st263{fill:#299C60;}
	.st264{fill:#00C6FF;}
	.st265{fill:#6600D0;}
	.st266{fill:#F59F00;}
	.st267{fill:#51D5FF;}
	.st268{fill:#00D096;}
	.st269{fill:#FE263B;}
	.st270{fill:#7B36FF;}
</style>
<g id="레이어_1">
</g>
<g id="레이어_2">
	<g>
		<g>
			<g>
				<path class="st3" d="M759.5,663.8c-36.5,37.4-78.5,79.3-117,99c-2.2-8.2-16.5-111.4-18-117L614,577.6
					c15.7-13.4,32-26.2,49.6-36.9c0,0,0,0,0,0c30.5-17.7,67.8-33.8,103.5-24.3C837.3,538.3,790.1,622,759.5,663.8z"/>
			</g>
			<g>
				<path class="st2" d="M774.2,519.1c-33.7-15.3-80.3,3.6-110.6,21.7l0,0c-17.6,10.6-33.9,23.5-49.6,36.9c0,0,9.7,83.4,10.5,86.2
					c28.7-12.2,65.4-40.2,88.3-61.3C738.3,578.9,759.2,550.4,774.2,519.1z"/>
			</g>
			<g>
				<path d="M642.5,767.8c-1.7,0-3.3-0.8-4.3-2.4c-1.5-2.3-0.7-5.4,1.6-6.9c36.5-22.6,88.7-61.8,115.6-97.8
					c19-25.3,49.8-72.9,42.9-106.7c-2.5-12.1-9.5-21.2-21.3-28c-7.9-4.5-17.4-7.1-27.3-7.5c-24.3-0.9-49.5,8.7-66.3,17
					c-25.6,12.5-47.8,30.2-66.2,45.9c-2.1,1.8-5.3,1.5-7-0.6c-1.8-2.1-1.5-5.3,0.6-7c18.8-16.1,41.7-34.3,68.3-47.2
					c17.9-8.7,44.8-18.9,71.1-18c11.5,0.4,22.5,3.5,31.9,8.8c14.3,8.2,23.1,19.8,26.2,34.7c7.4,35.8-20.2,82.1-44.6,114.7
					c-27.8,37-81.1,77.2-118.4,100.2C644.3,767.6,643.4,767.8,642.5,767.8z"/>
			</g>
		</g>
		<g>
			<g>
				<path class="st3" d="M165.3,412.2c-27.1,13.9-51.4,33-72.1,55.3c-19.8,21.4-41.7,48.2-46.7,77.7c-2.2,12.9-0.7,26.8,6.3,37.9
					c20.9,33.3,71.8,18,100.9,6.8"/>
				<path d="M94.9,608.3c-21.4,0-36.9-7.5-46.3-22.5c-7.1-11.3-9.6-26-7-41.4c5.2-30.7,27.2-57.8,48-80.3
					c21.9-23.6,46.6-42.6,73.5-56.3c2.5-1.3,5.5-0.3,6.7,2.2c1.3,2.5,0.3,5.5-2.2,6.7c-25.8,13.2-49.6,31.4-70.7,54.2
					c-19.8,21.4-40.7,47-45.4,75.2c-2.2,12.9-0.2,25.1,5.6,34.4c7.5,11.9,20.2,17.9,38,17.9c15.2,0,34.2-4.4,56.9-13.1
					c2.6-1,5.5,0.3,6.5,2.9c1,2.6-0.3,5.5-2.9,6.5C131.8,603.7,111.6,608.3,94.9,608.3z"/>
			</g>
			<g>
				<g>
					<g>
						<g>
							<path class="st3" d="M186.7,817.1c-13.4-24.6-33-54.6-49.5-65.7c-11.3-7.6-24.2-13.7-37.8-14.5c-4.3-0.2-8.6,0.1-12.8,1.1
								c-9.2,2.1-17.7,7.1-22.9,14.9c-8.9,13.4-6.4,31.3-1.9,46.8c0.6,1.9,1.1,3.9,1,5.9c-0.1,1.3-0.5,2.6-0.9,3.9
								c-8.1,26.9-7.5,52.8,5.3,77.9l0.1,0c-11.2,5.9-21,14.4-28.3,24.7c-9.9,13.9-15.3,31-15.2,48.1c-7.3,6.6-12.1,16.8-14.5,26.3
								c-2.4,9.6-1.3,20.2,4,28.5c4.6,7.3,12,12.4,20.2,15.2c4.1,1.4,8.4,2.3,12.7,2.7c12.9,1,25.4-0.1,37.8-3.9
								c26.6-8.2,51.8-26.8,66.1-48l75.3-30.4l12.8-124.3L186.7,817.1z"/>
						</g>
						<g>
							<path class="st2" d="M38.9,984.4c3.5-5.6,9.7-9.5,12.8-15c1.2-2.2,1.4-4.9,1.6-7.5c2.3-25.9,17.1-50.5,38.9-64.7
								c3.7-2.4,7.7-4.7,9.9-8.5c2.2-3.8-5.7-15.1-6.1-15.6c-9.9-11.5-14.2-26.7-12.6-41.7c0.8-7.6,3.1-15,6.6-21.8
								c1.4-2.8,4.7-6.2,5.3-9.3c0.7-4.2-2.2-8.3-3.9-11.9c-2.3-5.1-4-10.4-5.2-15.8c-2.4-11.4-2.3-23.3,0.3-34.7
								c-9.2,2.1-17.7,7.1-22.9,14.9c-8.9,13.4-6.4,31.3-1.9,46.8c0.6,1.9,1.1,3.9,1,5.9c-0.1,1.3-0.5,2.6-0.9,3.9
								c-8.1,26.9-7.5,52.8,5.3,77.9l0.1,0c-11.2,5.9-21,14.4-28.3,24.7c-9.9,13.9-15.3,31-15.2,48.1c-7.3,6.6-12.1,16.8-14.5,26.3
								c-2.4,9.6-1.3,20.2,4,28.5c4.6,7.3,12,12.4,20.2,15.2C28.4,1015.2,30.4,998.1,38.9,984.4z"/>
						</g>
					</g>
					<g>
						<g>
							<path d="M71.4,884.9c-9.4-18.9-12-39.9-8.1-60.6c0.9-4.8,2.3-9.3,3.5-14c1.2-4.5,0.7-8.1-0.5-12.6
								c-2.6-9.2-4.6-18.9-3.4-28.5c2.5-19,20.1-28.7,38.1-27.2c17.5,1.5,34.3,12.1,45.9,24.9c14.2,15.6,25.3,34.2,35.5,52.7
								c3.1,5.6,11.7,0.6,8.6-5c-18.7-34.1-43.1-75.3-85.3-81.9c-18.7-2.9-40.2,3.9-48.8,22c-4.4,9.3-5,19.7-3.6,29.8
								c0.7,5.1,1.8,10.2,3.1,15.1c0.6,2.3,1.4,4.4,1.1,6.7c-0.4,3-1.8,6.1-2.5,9.1c-6.2,25.4-3.9,51.1,7.7,74.6
								C65.7,895.7,74.3,890.6,71.4,884.9L71.4,884.9z"/>
						</g>
					</g>
					<g>
						<g>
							<path d="M145.7,978.6c-21.6,31.6-65.1,56.3-104.1,48.8c-8.9-1.7-17.8-6-23.2-13.5c-5.9-8.2-6.4-18.8-3.7-28.2
								c1.3-4.5,3.1-8.9,5.5-12.9c1.3-2.2,2.7-4.2,4.4-6.1c1.7-1.9,3.6-3.1,4.1-5.7c1-4.7,0.4-9.9,1.2-14.6c1-5.3,2.5-10.6,4.5-15.6
								c8.3-20.6,25.6-36.5,46.5-43.7c6.1-2.1,3.5-11.7-2.7-9.6c-35.5,12.2-59.4,45.3-59.4,82.9c0.5-1.2,1-2.4,1.5-3.5
								C9.5,966.8,2.4,983.2,3,998c0.6,15.2,9.5,28.2,23.2,34.8c14.3,6.8,31.3,6.6,46.6,4.1c15.8-2.6,31.1-9.3,44.6-17.9
								c14.5-9.3,27.2-21.1,36.9-35.3C157.9,978.3,149.3,973.3,145.7,978.6L145.7,978.6z"/>
						</g>
					</g>
				</g>
				<g>
					<g>
						<path d="M129.2,864.6c19.6-11.6,40.2-21.5,61.6-29.4c6-2.2,3.4-11.9-2.7-9.6c-22.2,8.2-43.6,18.3-63.9,30.4
							C118.7,859.3,123.7,867.9,129.2,864.6L129.2,864.6z"/>
					</g>
				</g>
				<g>
					<g>
						<path d="M106.6,947.6c3.2,4.3,6.6,8.5,10.4,12.3c4.5,4.6,11.6-2.5,7.1-7.1c-3.2-3.2-6.1-6.7-8.8-10.3
							c-1.6-2.2-4.3-3.3-6.8-1.8C106.3,942,105,945.4,106.6,947.6L106.6,947.6z"/>
					</g>
				</g>
			</g>
			<g>
				<path class="st3" d="M243.4,785.2l-60.7-61c-25.4-43.1-43.5-91.9-53.8-140.7c-18.8-89.7-2.9-183.6,69.9-245.3
					c104.8-88.7,275.6-108.5,375-1.4c36.4,39.2,65,91.9,73.5,145.1c18.1-4,45.1-4.9,56.5,10.1c9.6,12.6,10.6,27.4,2.6,39.8l0,0
					c0,0,19.3,73.2-77.1,97.2l12.7-1.8c0,0,0.8,15.2-6,29.9l5.3,64.1c0,0-61.6,98-195.9,277L243.4,785.2z"/>
			</g>
			<g class="st1">
				<path class="st2" d="M703.8,492.1c-11.4-15-38.4-14.1-56.5-10.1c-8.6-53.3-37.1-105.9-73.5-145.1
					c-47.1-50.7-110.2-73-174.8-72.9c55.9,11.3,111,40.9,151.2,84.1c38.2,41,57.7,96.2,69.8,151.5c7.1-0.1,14.2,0.6,20.9,2.8
					c10.1,3.3,19.3,10.4,23.1,20.3c3,7.8,2.4,16.5,0.3,24.5c-0.5,2.1-1.2,4.3-1.9,6.3c1,1.5,2,3,2.8,4.6c6.5,12.4,7.6,27.6,3,40.8
					c-3.1,8.8-8.6,16.7-15.8,22.6c69.9-28.9,53.9-89.7,53.9-89.7C714.4,519.5,713.4,504.6,703.8,492.1z"/>
			</g>
			<g>
				<path d="M285.1,374.4c18.1-14.8,33.3-34.1,45.4-54.5c6.4-10.7,12-21.9,17.5-33.1c2.8-5.7,7.2-12.9,10.4-19.9
					c-58.1,8.2-114.9,33.5-159.6,71.4c-29.2,24.7-49.2,54.6-61.5,87.3C190.2,425.2,244,407.9,285.1,374.4z"/>
			</g>
			<g>
				<path class="st2" d="M646,794.9c-29-60.3-80.7-97.5-139.8-88C426.9,719.6,375.5,809.7,391.3,908"/>
			</g>
			<g>
				<path d="M182.7,729.2c-1.7,0-3.4-0.9-4.3-2.5c-24.9-42.4-43.7-91.6-54.4-142.2c-10-47.6-9.7-94.4,0.6-135.4
					c11.7-46.1,35.5-84.7,70.9-114.7c53.4-45.2,123.6-72.6,192.6-75.3c74.9-2.9,142.2,23.5,189.3,74.3
					c37.9,40.9,64.7,92.6,73.9,142.7c14.1-2.4,43-4.8,56.4,12.9c14.4,18.9,11.5,41.7-7.3,56.7C667.7,572,622.6,564,608,558.2
					c-12.8,9.1-36.3,22.9-64.3,25.3c-21.6,1.8-44-5.4-58.5-19c-2-1.9-2.1-5.1-0.2-7.1c1.9-2,5.1-2.1,7.1-0.2
					c12.5,11.7,31.9,17.9,50.8,16.3c27.4-2.3,50.4-16.8,61.6-25.1l2.7-2l2.9,1.7c7.3,4.3,52.5,15.2,84.2-10.1
					c14.4-11.5,16.6-28.3,5.6-42.8c-9.4-12.4-33.6-12.2-51.4-8.2l-5.2,1.1l-0.8-5.2c-8-49.8-34.3-101.7-72.2-142.5
					C470.7,233.1,301.6,257.8,202,342c-64,54.2-88.9,141.8-68.2,240.4c10.4,49.6,28.8,97.7,53.2,139.2c1.4,2.4,0.6,5.4-1.8,6.8
					C184.4,729,183.5,729.2,182.7,729.2z"/>
			</g>
			<g>
				<path d="M626.7,634.7c-2.3,0-4.3-1.6-4.9-3.9c-0.6-2.7,1-5.4,3.7-6c32.8-7.6,55.6-21.7,67.7-41.8c14.7-24.4,8.4-49.6,8.4-49.9
					c-0.7-2.7,0.9-5.4,3.6-6.1c2.7-0.7,5.4,0.9,6.1,3.6c0.3,1.2,7.5,29.4-9.4,57.4c-13.6,22.6-38.5,38.2-74.1,46.5
					C627.4,634.7,627,634.7,626.7,634.7z"/>
			</g>
			<g>
				<path class="st3" d="M642.2,627.2c0,0,0.8,15.2-6,29.9c8.7,50.1,12.9,107.4,7.7,158.4c-3.1,30.8-10.3,61.4-22.6,89.8
					c-25.6,58.8-75.8,105.3-135.8,127.8c-33.4,12.5-68.7,20.3-104.3,22.5c-34.1,2.1-69.1-0.9-102.3-10.5
					c-52.5-15.2-99.4-46.1-144.1-76.7l71.8-89.3c-20.4-49-34.8-119.2-31.7-168.7"/>
			</g>
			<g>
				<g>
					<ellipse transform="matrix(0.9873 -0.1588 0.1588 0.9873 -71.8503 71.36)" cx="410.7" cy="485.4" rx="11" ry="11"/>
				</g>
				<g>
					<ellipse transform="matrix(0.9873 -0.1588 0.1588 0.9873 -66.055 95.1293)" cx="562.4" cy="461" rx="11" ry="11"/>
				</g>
			</g>
			<g>
				<path d="M206.5,883.9c-2,0-3.8-1.2-4.6-3.1c-21.9-52.4-35.1-122.7-32.1-171c0.2-2.8,2.6-4.9,5.3-4.7c2.8,0.2,4.9,2.5,4.7,5.3
					c-2.9,46.1,10.3,116.1,31.3,166.5c1.1,2.5-0.1,5.5-2.7,6.5C207.8,883.8,207.2,883.9,206.5,883.9z"/>
			</g>
			<g>
				<g>
					<g class="st1">
						<path class="st252" d="M654,435.7l-14,2.3c-0.9,18.2-7.2,38-18,53c-10.8,14.9-28.6,24.2-46.5,27
							c-34.8,5.6-69.7-24.5-75.1-57.6l-31.1,5c5.3,33.1-18.4,72.6-53.2,78.2c-17.9,2.9-37.7-0.3-52.6-11.1
							c-14.9-10.8-27.1-27.7-33.7-44.7l-33.9,4.9c0,0-164.8,34.1-167.2,36.5c-5.6,5.4-18.1,19.2-28.1,9.6
							c-10.8-10.4,5.6-28.7,12.6-36.3l176-49.5l358.3-57.6c11.1-1.8,21.6,5.8,23.4,16.9v0C672.7,423.4,665.1,433.9,654,435.7z"/>
					</g>
					<g>
						<g>
							<path class="st2" d="M554.2,410.3l-32.5,5.2c-5.6,19.9-11.2,39.9-16.7,59.8c4.9,11.2,13,21.4,23,29
								c6.4-23.1,12.8-46.2,19.3-69.3C549.5,426.8,551.8,418.6,554.2,410.3z"/>
						</g>
						<g>
							<path class="st2" d="M395.2,435.9c-9.4,33-18.6,66.1-27.6,99.2c2.9,1.7,5.9,3.2,9.1,4.5c7.9-28.7,15.8-57.4,23.9-86
								c1.8-6.5,3.7-12.9,5.5-19.4L395.2,435.9z"/>
						</g>
						<g>
							<path class="st2" d="M387,437.2l-32.5,5.2c-5.7,20.3-11.4,40.6-17,60.9c6.2,10.3,14.2,19.9,23.5,27.2
								c6.3-22.9,12.6-45.7,19.1-68.5C382.3,453.7,384.7,445.5,387,437.2z"/>
						</g>
					</g>
				</g>
				<g>
					<path d="M403.3,549.6c-15.9,0-31-4.5-42.8-13.1c-14-10.1-26.4-26.1-33.9-43.2l-29.9,4.3c-61.8,12.8-155.1,32.5-165.3,35.8
						c-0.2,0.2-0.3,0.3-0.5,0.5c-3.2,3.1-8,7.9-13.4,10.7c-7.6,4-14.9,3.2-20.4-2.2c-14.4-14,5-35.2,12.4-43.3
						c0.6-0.7,1.4-1.2,2.3-1.4l176-49.5c0.2-0.1,0.4-0.1,0.6-0.1l358.3-57.6c6.7-1.1,13.4,0.5,18.9,4.5c5.5,4,9.1,9.9,10.2,16.6
						c1.1,6.7-0.5,13.4-4.5,18.9c-4,5.5-9.9,9.1-16.6,10.2l-14.1,2.3c-1.1,17.9-4,36.2-14.6,50.9c-10.9,15.1-29,25.7-49.7,29
						c-17.6,2.8-36.7-2.7-52.5-15.3c-13.7-11-23.5-25.9-27.3-41.5l-21.6,3.5c1.3,16-3.3,33.3-12.9,48c-11,16.9-27.5,28.2-45.1,31
						C412.4,549.2,407.8,549.6,403.3,549.6z M329.8,482.8c2,0,3.9,1.2,4.7,3.2c6.5,16.8,18.5,32.6,31.9,42.4
						c12.8,9.3,31,13.1,48.9,10.2c14.8-2.4,28.8-12.1,38.3-26.6c9.3-14.2,13.2-30.9,10.8-45.9c-0.4-2.7,1.4-5.3,4.1-5.7l31.1-5
						c2.7-0.4,5.3,1.4,5.7,4.1c4.7,29.1,36,58.8,69.3,53.4c17.8-2.9,34-12.2,43.2-25c9.9-13.7,12.1-32,13-49.6
						c0.1-2.4,1.9-4.3,4.2-4.7l18.1-2.9l0,0c4.1-0.7,7.6-2.9,10.1-6.2s3.4-7.4,2.7-11.5s-2.9-7.6-6.2-10.1
						c-3.3-2.4-7.4-3.4-11.5-2.7l-358,57.6l-174.3,49.1c-5.7,6.3-18.8,21.5-11.8,28.3c4.8,4.6,11.4,0,19.9-8.4
						c0.4-0.4,0.8-0.8,1.2-1.2c1.5-1.5,2.6-2.5,87-20.4c41-8.7,82.3-17.3,82.7-17.4c0.1,0,0.2,0,0.3-0.1l33.9-4.9
						C329.4,482.8,329.6,482.8,329.8,482.8z"/>
				</g>
			</g>
			<g>
				<path class="st2" d="M621.2,905.2c12.4-28.4,19.5-59,22.6-89.8c4.1-40.6,2.3-85.1-3-126.9c-18.6-12.9-41.5-20-64.2-18.5
					c-7.5,0.5-14.9,1.9-22.1,4c-38.6,11.8-65.5,46.1-68,85.5c-2.4,38.7-7.2,76.1-22,112.5c-6.6,16.3-15.4,31.8-22.1,48.1
					c-11.2,27.1-17,56.8-12.6,85.7c2.1,13.9,6.8,27.6,13.8,39.9c14.2-3.5,28.2-7.8,41.9-12.9C545.4,1010.5,595.6,964.1,621.2,905.2z
					"/>
			</g>
			<g>
				<g>
					<g>
						<path d="M360.3,1061.1c-29,0-56.8-3.8-82.8-11.4c-51.9-15-98.4-45.2-145.5-77.4c-2.3-1.6-2.9-4.7-1.3-6.9
							c1.6-2.3,4.7-2.9,6.9-1.3c46.4,31.7,92.2,61.4,142.7,76c31.2,9.1,65.1,12.5,100.6,10.3c34.8-2.2,69.4-9.6,102.9-22.2
							c59.6-22.3,108-67.9,132.9-125.1c11.5-26.4,19-56.1,22.3-88.3c4.7-45.9,1.9-101.6-7.7-157l-0.3-1.5l0.7-1.4
							c6.2-13.3,5.6-27.4,5.6-27.5c-0.1-2.8,2-5.1,4.8-5.2c2.8-0.1,5.1,2,5.2,4.7c0,0.6,0.7,15.6-5.8,30.7
							c9.6,55.7,12.2,111.9,7.5,158.2c-3.4,33.2-11.1,63.9-23,91.3c-26,59.6-76.5,107.2-138.6,130.4c-34.4,12.9-70,20.6-105.8,22.8
							C374.3,1060.9,367.3,1061.1,360.3,1061.1z"/>
					</g>
				</g>
			</g>
			<g>
				<path d="M607.5,552.4c-8.8,6.5-19.4,13-31.3,17.9c2.6,6.8,6.1,13.1,11.2,18.2c7.2,7.4,17.6,12,27.8,10.5
					c9.6-1.4,18-8.2,22.7-16.7c4-7,5.7-15.1,6-23.2C626.3,559.1,611.8,554.9,607.5,552.4z"/>
			</g>
			<g>
				<g>
					<path class="st259" d="M174.6,302.6c-11.2,7.4-22.5,15.2-29.7,26.4c-7.5,11.6-9.5,28-0.9,38.9c5.5,7,14.3,10.5,22.9,12.7
						c51.5,13.6,110.7-11.2,137.2-57.3C260.4,332.4,213.3,325,174.6,302.6z"/>
				</g>
				<g>
					<path class="st265" d="M377.2,249.4c-1.5-12.9-5.7-25.7-14-35.7c-6.5-7.8-13.7-13.5-24.4-16.8c-4.8-1.5-9.8-2.3-14.8-2.6
						c-26.4-1.4-56,0.9-80.1,8.5c-16.5,5.2-32.7,13.1-43.9,26.2c-16.3,19.1-21.7,47.8-24.2,72.8c-0.4,0.3-0.8,0.5-1.2,0.8
						c16.9,9.8,35.5,16.7,54.6,20.7c24.6,5.1,50.3,5.2,74.9,0c0.2-0.3,0.4-0.6,0.5-0.9c15.5-6.3,28-12.4,42.6-20.6
						c10.3-5.8,23-18.1,27.7-29C378.1,265.5,378.1,257.2,377.2,249.4z"/>
				</g>
			</g>
			<g>
				<g>
					<path d="M305.9,327.1c25.2-10.4,53.7-21.6,69.5-45.1c7.9-11.8,8.2-25.5,5.8-39c-2.4-14-8.5-27.2-18.5-37.3
						c-9.7-9.7-22.4-14.9-35.9-16.2c-15.3-1.4-31.2-0.7-46.4,1c-27.4,3-57.4,10-78.3,29.2c-22.5,20.6-28.3,53.2-31.3,82.2
						c0.8-1.4,1.7-2.9,2.5-4.3c-16.8,11.1-35.4,24.2-39.2,45.5c-1.6,8.9-0.5,18.6,4.7,26.2c5.6,8.1,14.5,12.6,23.7,15.4
						c34.6,10.5,73.8,3.2,104.1-15.9c17.4-11,32.1-25.9,42.3-43.8c3.2-5.6-5.4-10.6-8.6-5c-18.5,32.5-53.2,54.3-90.2,58.7
						c-17.8,2.1-40.3,1.4-56-8.4c-9.1-5.7-12.2-15.8-10.1-26c2.2-10.8,9.4-19.3,17.7-26.2c3.9-3.3,8.2-6.2,12.5-9.1
						c1.8-1.2,4.8-2.6,6-4.6c1.3-2.1,1-5.4,1.3-7.8c1.2-10.3,2.9-20.5,5.7-30.5c5.8-20.9,16.8-38.5,36.1-49.2
						c19.7-11,42.9-15.4,65.2-17.1c11.8-0.9,23.7-1.2,35.5-0.4c10.8,0.7,21.4,4.1,29.6,11.5c9.3,8.4,14.8,19.5,17.4,31.6
						c2.7,12.6,2.8,25.1-5,35.9c-7,9.8-16.4,16.6-26.9,22.3c-11.6,6.3-23.6,11.9-35.8,17C297.4,319.9,300,329.6,305.9,327.1z"/>
				</g>
			</g>
			<g>
				<g>
					<path d="M237,231.2c10.7,3.3,21.7,5.5,32.8,6.7c11.6,1.2,23.2,0.5,34.9,1c19.7,0.8,21.7,23.3,21.9,38.6c0.1,6.4,10.1,6.4,10,0
						c-0.2-17.7-3-40-22.1-46.9c-4.9-1.8-9.9-1.7-15.1-1.8c-6.7-0.1-13.4,0-20.1-0.3c-13.5-0.6-26.7-3-39.6-7
						C233.5,219.6,230.8,229.3,237,231.2L237,231.2z"/>
				</g>
			</g>
			<g>
				<g>
					<path d="M186.9,314.6c26.5,12,55.1,18,84.2,17.5c6.4-0.1,6.4-10.1,0-10c-27.3,0.5-54.3-4.8-79.2-16.1
						C186.1,303.3,181,311.9,186.9,314.6L186.9,314.6z"/>
				</g>
			</g>
			<g>
				<path class="st2" d="M360.6,236.6c-1.8-4.9-5.6-11.6-10.2-14.5c-2.4-1.5-5.5-1.9-7.9-0.5c-6.6,4,1.5,24,4.2,28.9
					c2.6,4.7,9.2,9.3,13.6,3.8C363.9,249.9,362.3,241.5,360.6,236.6z"/>
			</g>
			<g>
				<g>
					<path d="M397.2,388.4c13.1,4.6,25.7,10.2,38,16.7c5.7,3,10.7-5.6,5-8.6c-13-6.9-26.5-12.8-40.4-17.7
						C393.8,376.7,391.2,386.3,397.2,388.4L397.2,388.4z"/>
				</g>
			</g>
			<g>
				<path d="M773.4,440.3c0.9,7.2,0.7,14.3,0.1,21.4c-0.6,7.2-1.7,14.2-4.3,21c-1.9,4.8-9,4.1-10-1c-1.7-10.7-0.4-21.4,1.5-32
					c0.7-3.5,1.5-7,2.7-10.4c0.9-2.7,3.8-4.1,6.5-3.2C771.9,436.8,773.2,438.4,773.4,440.3L773.4,440.3z"/>
			</g>
			<g>
				<path d="M785.8,483.8c3.1-11.3,9.6-20.8,17.4-29.3c2.7-2.7,5.5-5.4,8.9-7.5c2.5-1.6,5.9-0.8,7.4,1.7c0.8,1.3,1,2.8,0.7,4.1
					c-1,4-2.5,7.5-4.3,10.9c-5.5,10.1-12.4,19.4-22.1,25.9C789.9,492.2,784.6,488.3,785.8,483.8L785.8,483.8z"/>
			</g>
		</g>
		<g>
			<g>
				<path class="st3" d="M403.7,690.9c-11-3.9-24.1-4.3-39.2,0.1c-31.5,9.3-63.2,32.9-78.3,62.4c-0.2,0.4-0.4,0.8-0.6,1.2
					l-51.3-56.2c-4.1,9.6-7.4,19.5-9.9,29.6c-9.4,37.6-6.6,80.6,14.5,114.2c22,35,60.6,53.8,101.5,45.5c47.1-9.5,89.2-49,101.6-95.5
					C452.5,752.9,439.1,703.6,403.7,690.9z"/>
			</g>
			<g>
				<path class="st3" d="M403.7,690.9c-18.3,2.1-37,10.7-47.8,22.6c-14.3,15.8-18.1,26.5-28.9,44.9c-3.9,6.6-8.5,13.8-15.9,15.9
					c-7.8,2.2-16.4-2.5-20.8-9.3c-2.2-3.5-3.5-7.4-4.2-11.5c-0.2,0.4-0.4,0.8-0.6,1.2l-51.3-56.2c-4.1,9.6-7.4,19.5-9.9,29.6
					c-9.4,37.6-6.6,80.6,14.5,114.2c22,35,60.6,53.8,101.5,45.5c47.1-9.5,89.2-49,101.6-95.5C452.5,752.9,439.1,703.6,403.7,690.9z"
					/>
			</g>
			<g>
				<path class="st2" d="M311.1,774.1c0.3-0.1,0.6-0.1,0.9-0.2c10.3-2.9,14.6-14.7,19.5-23.2c5.6-9.5,11.2-18.9,18-27.6
					c13.7-17.6,31.7-29.6,54.2-32.2c-11-3.9-24.1-4.3-39.2,0.1c-31.5,9.3-63.2,32.9-78.3,62.4c0.7,4.1,2,8,4.2,11.5
					C294.8,772,302.9,775.9,311.1,774.1z"/>
			</g>
		</g>
		<g>
			<g>
				<path class="st14" d="M229.4,697.1c-20.5,49.2-23,110.7,10.2,155.2c14.1,18.9,33.9,33.3,56.9,39.3c22.9,6,46.9,2.8,68.6-6.3
					c42.2-17.7,77.6-57.9,84.1-104c4.7-33.5-5.1-77.2-38.5-92.9c-22.1-10.4-46.4-4.5-67.5,5.5c-25.8,12.2-49,32.5-62,58.2
					c-2.9,5.7,5.7,10.8,8.6,5c10.9-21.5,29.1-38.5,49.9-50.2c16.8-9.4,37.7-17.4,57.1-12.8c32.7,7.8,44.6,45.7,43.4,75.5
					c-1.7,41.9-30.2,79.9-66,100.1c-18.9,10.6-40.6,16.7-62.3,14.6c-21.3-2.1-41.1-12.5-55.9-27.8c-40.2-41.6-38-106.6-17.1-156.7
					C241.5,693.8,231.8,691.2,229.4,697.1L229.4,697.1z"/>
			</g>
		</g>
		<g>
			<g>
				<path d="M367.1,118.6l-19.9-0.7c-2.9-0.1-4.9-0.7-6.1-1.7c-1.2-1-1.7-2.9-1.6-5.6l1.1-30.6c0.1-2.7,0.8-4.5,2-5.4
					c1.2-0.9,3.3-1.3,6.2-1.2l56.3,2.1c3.7,0.1,6.1,1,7.3,2.6c1.2,1.6,1.7,4.4,1.4,8.6l-5.2,81.1c-0.3,3.2-1,5.4-2.3,6.6
					c-1.2,1.2-3.2,2-5.7,2.2c-3.4,0.4-7.1,0.7-11.2,1c-4.1,0.3-8.3,0.6-12.6,0.7c-4.3,0-8.6,0-12.9,0c-4.3,0-8.4-0.2-12.2-0.5
					c-11.3-0.6-22.4-2.8-33.3-6.5s-20.5-9.4-28.9-16.9c-8.5-7.5-15.2-17-20.2-28.6c-4.9-11.5-7.1-25.4-6.5-41.7
					c0.4-11.5,2.4-21.6,5.8-30.5c3.4-8.8,8.1-16.5,13.9-23c5.7-6.3,12.3-11.6,19.9-15.7c7.6-4.1,15.7-7.3,24.4-9.5
					c8.7-2.1,17.8-3.3,27.2-3.5c9.4-0.3,18.8,0.1,28.2,1.3c2.2,0.4,3.8,1,4.8,1.9c1,0.8,1.5,2.4,1.4,4.6L387,46.2
					c-0.1,2.1-0.6,3.5-1.6,4.1c-1,0.7-2.6,0.9-4.8,0.7c-9.7-0.8-18.3-0.8-25.8,0.1S341.1,54,336.1,57c-5.2,3-9.2,7.2-12,12.7
					c-2.8,5.5-4.3,12.3-4.6,20.4c-0.2,6.5,0.3,12.4,1.7,17.4c1.4,5.1,4,9.5,7.7,13.1c3.5,3.6,8.3,6.5,14.4,8.4
					c6.1,2,13.7,3.1,22.8,3.2L367.1,118.6z"/>
			</g>
			<g>
				<path d="M589.6,125.5c-3,14.9-7.8,27.4-14.4,37.5c-6.6,10.1-14.3,18.2-23,24.1c-8.8,5.9-18.5,9.7-28.8,11.4
					c-10.4,1.7-20.7,1.6-31.1-0.5c-10.3-2.1-19.9-6-28.8-11.6c-8.9-5.6-16.2-12.8-21.9-21.7c-5.9-8.8-9.9-19.3-12-31.3
					c-2.1-12-1.7-25.4,1.3-40.3c3-14.9,7.8-27.4,14.4-37.5c6.6-10.1,14.3-18.2,23.2-24c8.7-5.9,18.2-9.7,28.6-11.4
					c10.4-1.7,20.7-1.6,31.1,0.5c10.3,2.1,19.9,6,28.8,11.6c8.9,5.6,16.3,12.9,22.1,21.7c5.7,8.8,9.6,19.2,11.8,31.2
					C593,97.2,592.6,110.6,589.6,125.5z M534.4,114.3c2.8-13.6,2.7-24-0.2-31.2c-2.9-7.2-8.2-11.6-16-13.1
					c-7.8-1.6-14.5,0.4-19.9,5.9c-5.4,5.5-9.5,15.1-12.3,28.7c-2.8,13.6-2.7,24,0.2,31.1c2.9,7.1,8.2,11.4,16.1,13
					c7.8,1.6,14.4-0.3,19.9-5.8C527.5,137.5,531.6,127.9,534.4,114.3z"/>
			</g>
			<g>
				<path d="M594.1,200.1c2.5-6.2,6.8-10.7,12.7-13.6c6-2.8,12.7-2.7,20.3,0.3c7.1,2.9,11.9,7.4,14.4,13.7
					c2.5,6.3,2.4,12.5-0.1,18.7c-1.3,3.1-3,5.8-5.2,8.1c-2.2,2.3-4.8,4-7.7,5.3c-2.9,1.2-6,1.9-9.4,1.9c-3.4,0-6.8-0.7-10.4-2.1
					c-3.7-1.5-6.8-3.4-9.3-5.8c-2.5-2.4-4.3-5-5.3-7.9c-1.2-2.9-1.8-6-1.8-9.1C592.2,206.3,592.8,203.2,594.1,200.1z M638.1,59.1
					c1.6-3.8,3.3-6.2,5.1-7.1c1.8-0.9,4.3-0.7,7.4,0.5L700.6,76c3.3,1.3,5.2,2.9,5.8,4.8c0.6,1.9,0.1,4.8-1.4,8.6l-49,77.3
					c-2.3,3.7-4.4,7.4-6.6,11.2c-1.1,1.9-2.2,3.2-3.4,3.8c-1.8,0.9-4.3,0.7-7.5-0.6l-19.1-7.6c-3.1-1.3-5-2.8-5.7-4.8
					c-0.7-1.9-0.3-4.8,1.3-8.6L638.1,59.1z"/>
			</g>
			<g>
				<path d="M647.4,225.8c4.2-5.3,9.5-8.4,16-9.4c6.5-1,13,1,19.4,6c6,4.8,9.3,10.5,9.9,17.2c0.6,6.7-1.2,12.7-5.3,17.9
					c-2.1,2.6-4.5,4.7-7.3,6.3c-2.8,1.6-5.7,2.5-8.9,2.9c-3.1,0.4-6.3,0.1-9.6-0.9c-3.2-0.9-6.4-2.6-9.4-5c-3.1-2.5-5.5-5.2-7.3-8.2
					c-1.7-3-2.7-6-2.9-9c-0.4-3.1-0.1-6.2,0.8-9.3C643.8,231.3,645.3,228.4,647.4,225.8z M728.1,103.7c2.6-3.3,4.9-5.1,6.9-5.4
					c2-0.3,4.3,0.5,7,2.6l42.5,35.7c2.8,2.2,4.2,4.3,4.2,6.2c0.1,2-1.2,4.6-3.8,7.9l-68.7,60.3c-3.2,2.9-6.3,5.9-9.4,8.9
					c-1.6,1.5-3,2.4-4.3,2.7c-1.9,0.4-4.3-0.5-7-2.7l-16.2-12.6c-2.6-2.1-4-4.1-4.1-6.2c-0.1-2,1.1-4.7,3.7-7.9L728.1,103.7z"/>
			</g>
		</g>
	</g>
</g>
</svg>
